<svg width="31" height="32" viewBox="0 0 31 32" fill="none" xmlns="http://www.w3.org/2000/svg">
<path d="M12.4426 5.43316C7.54434 5.52398 4.66836 5.74801 3.76621 6.11129C2.94883 6.4443 2.26465 7.06793 1.85899 7.83687C1.33223 8.8359 1.05371 11.0277 0.987113 14.6908C0.938676 17.6152 1.0961 20.2732 1.42911 21.9564C1.78633 23.791 2.77325 24.8384 4.47461 25.1957C6.02461 25.5226 10.1357 25.7164 15.5305 25.7103C21.0402 25.7103 24.9637 25.5287 26.6105 25.1957C27.1494 25.0867 27.9123 24.7052 28.3119 24.3541C28.7297 23.9847 29.1535 23.349 29.3291 22.8283C29.8135 21.3994 30.1102 17.2398 29.977 13.7886C29.7953 9.1023 29.4139 7.63101 28.1242 6.65621C27.5309 6.20816 27.1191 6.04469 26.1988 5.88121C25.0605 5.68746 22.3238 5.51793 19.4357 5.45738C16.0572 5.39078 14.8463 5.38473 12.4426 5.43316ZM16.3479 13.3769C18.3883 14.5515 20.0533 15.5384 20.0533 15.5687C20.0473 15.6171 12.6908 19.8978 12.6121 19.8978C12.6061 19.8978 12.5939 17.9482 12.5939 15.5687C12.5939 13.1892 12.6061 11.2396 12.6182 11.2396C12.6303 11.2396 14.3074 12.2023 16.3479 13.3769Z" fill="white"/>
</svg>
