<svg width="23" height="24" viewBox="0 0 23 24" fill="none" xmlns="http://www.w3.org/2000/svg">
<path d="M21.4276 2.38088C19.9003 2.9424 1.05557 10.1793 0.777052 10.3141C-0.143846 10.7498 -0.251659 11.3248 0.516505 11.7156C0.592873 11.7561 1.86416 12.1604 3.35108 12.6231L6.05088 13.4631L12.1782 9.62678C15.5519 7.51994 18.3774 5.76799 18.4583 5.74103C18.6694 5.66916 18.8491 5.67365 18.93 5.759C18.9884 5.8174 18.9929 5.84435 18.9435 5.92971C18.9165 5.9881 16.6749 8.02306 13.9706 10.4488C11.2663 12.8791 9.04268 14.8826 9.03369 14.9051C9.02471 14.9276 8.93486 16.1404 8.83154 17.6004L8.64287 20.2508L8.84951 20.2238C8.96182 20.2104 9.13701 20.152 9.24033 20.0936C9.34815 20.0397 10.0489 19.4018 10.8081 18.6785C11.5628 17.9553 12.2097 17.3488 12.2411 17.3399C12.2726 17.3264 13.4765 18.1799 14.9185 19.2356C16.356 20.2912 17.6452 21.2031 17.7845 21.266C18.1483 21.4367 18.5526 21.4502 18.8177 21.311C19.0558 21.1852 19.2849 20.8707 19.3837 20.5428C19.4196 20.417 20.2462 16.6121 21.212 12.0885C22.8247 4.55959 22.9729 3.83185 22.9729 3.44103C22.9729 3.07267 22.9595 2.98283 22.8606 2.78967C22.7933 2.65041 22.672 2.51115 22.5552 2.43029C22.2901 2.24611 21.8499 2.22365 21.4276 2.38088Z" fill="white"/>
</svg>
