<svg width="244" height="51" viewBox="0 0 244 51" fill="none" xmlns="http://www.w3.org/2000/svg">
<path d="M19.5972 46.8469C14.3629 46.8561 6.24663 46.3865 6.24663 45.696C6.24663 45.0054 18.6765 44.545 18.6765 44.545V42.9338C18.6765 42.9338 13.4928 41.3225 11.191 39.7112C8.88913 38.0999 7.03846 36.1664 5.55608 34.1868C1.76267 29.1228 0.0316984 21.5268 0.0316984 13.7006C0.0316984 5.87438 -0.548362 0.667647 3.25425 0.349995C6.70699 0.0645687 7.02005 6.90559 11.0805 7.25547C19.1369 7.94602 25.1216 -0.570735 28.3442 3.57255C31.2859 7.35215 23.5103 13.01 22.8198 18.9948C22.5574 21.292 22.5896 23.5984 24.2009 24.7493C25.3518 25.5734 30.4158 24.0588 32.0271 23.3683C33.6384 22.6777 39.6231 21.9872 39.3929 28.6624C39.1627 35.3377 33.3299 40.6872 26.0423 42.4734C23.851 43.012 20.2878 42.9338 20.2878 42.9338V44.545C20.2878 44.545 32.7176 45.0054 32.7176 45.696C32.7176 46.3865 24.7395 46.8377 19.5972 46.8469Z" fill="white"/>
<path d="M5.78711 3.1123C5.78711 3.1123 7.39839 21.0573 7.39839 23.8287C7.39839 27.5117 11.7488 23.7459 14.5341 23.5986C22.4523 23.1842 25.3526 31.4248 31.7977 33.9568C33.0545 34.4494 35.2505 34.1869 35.2505 34.1869" stroke="url(#paint0_radial_75_1421)" stroke-width="2" stroke-linecap="round"/>
<path d="M142.56 48.8403C141.824 48.8403 141.216 48.5917 140.733 48.0945C140.249 47.5927 140.01 46.8838 140.01 45.963C140.01 45.0377 140.249 44.3333 140.733 43.8454C141.216 43.3528 141.847 43.1088 142.625 43.1088C143.407 43.1088 144.043 43.362 144.535 43.8592C145.028 44.3564 145.276 45.0193 145.276 45.8433V46.0965C145.276 46.2301 145.207 46.2991 145.074 46.2991H140.93C140.986 46.9114 141.17 47.3718 141.474 47.6756C141.782 47.9794 142.169 48.1314 142.643 48.1314C143.389 48.1314 143.927 47.8275 144.264 47.2198C144.305 47.1554 144.342 47.1232 144.388 47.1232H145.028C145.115 47.1232 145.147 47.1646 145.129 47.2429C144.996 47.7308 144.715 48.1176 144.3 48.4122C143.877 48.6976 143.297 48.8403 142.56 48.8403ZM140.93 45.5901H144.369C144.342 45.0607 144.158 44.6326 143.826 44.3103C143.495 43.9835 143.094 43.8223 142.634 43.8223C142.173 43.8223 141.791 43.9743 141.483 44.2735C141.17 44.5681 140.986 45.0101 140.93 45.5901ZM147.615 48.5825V43.3666C147.615 43.2975 147.647 43.2607 147.716 43.2607H148.273C148.338 43.2607 148.375 43.2975 148.384 43.3666L148.476 43.919C148.517 43.8638 148.6 43.7809 148.734 43.6658C148.867 43.5507 148.996 43.4587 149.12 43.3896C149.443 43.2055 149.82 43.1134 150.248 43.1134C150.93 43.1134 151.491 43.3251 151.924 43.7487C152.361 44.1722 152.578 44.7523 152.578 45.4935V48.5825C152.578 48.647 152.545 48.6792 152.481 48.6792H151.767C151.703 48.6792 151.666 48.647 151.666 48.5825V45.4935C151.666 44.9594 151.528 44.5451 151.252 44.2551C150.976 43.9651 150.626 43.8177 150.198 43.8177C150.004 43.8177 149.811 43.8546 149.618 43.9328C149.429 44.0065 149.272 44.094 149.148 44.1952C149.024 44.2919 148.913 44.3978 148.817 44.5037C148.623 44.7108 148.527 44.8397 148.527 44.8858V48.5871C148.527 48.6516 148.494 48.6838 148.43 48.6838H147.716C147.647 48.6792 147.615 48.647 147.615 48.5825ZM153.291 49.6736C153.291 49.5907 153.324 49.5631 153.393 49.5907C153.729 49.7242 154.065 49.7933 154.405 49.7933C155.147 49.7933 155.519 49.2869 155.519 48.2741V43.362C155.519 43.2975 155.556 43.2607 155.625 43.2561H156.334C156.399 43.2561 156.436 43.2929 156.436 43.362V48.2741C156.436 48.9784 156.261 49.5217 155.911 49.9176C155.565 50.3089 155.096 50.5068 154.507 50.5068C154.157 50.5068 153.835 50.4562 153.535 50.3549L153.393 50.3043C153.328 50.2721 153.291 50.226 153.291 50.1708V49.6736ZM155.446 42.4458V41.7875C155.446 41.7093 155.46 41.6586 155.492 41.631C155.524 41.6034 155.575 41.585 155.648 41.585H156.307C156.38 41.585 156.436 41.6034 156.463 41.6356C156.495 41.6678 156.509 41.7185 156.509 41.7875V42.4458C156.509 42.5241 156.495 42.5747 156.463 42.6024C156.436 42.63 156.38 42.6484 156.307 42.6484H155.648C155.57 42.6484 155.519 42.6346 155.492 42.6024C155.464 42.5747 155.446 42.5241 155.446 42.4458ZM161.375 48.8311C160.588 48.8311 159.953 48.5825 159.465 48.0899C158.981 47.5927 158.742 46.8838 158.742 45.963C158.742 45.0377 158.981 44.3333 159.465 43.8454C159.948 43.3528 160.588 43.1088 161.375 43.1088C162.167 43.1088 162.802 43.3528 163.286 43.8454C163.769 44.3333 164.013 45.0377 164.013 45.963C164.013 46.8838 163.769 47.5927 163.286 48.0899C162.802 48.5871 162.167 48.8311 161.375 48.8311ZM161.375 43.8177C160.864 43.8177 160.45 43.9973 160.128 44.3564C159.81 44.7108 159.654 45.2449 159.654 45.9584C159.654 46.672 159.81 47.2106 160.128 47.5743C160.45 47.938 160.864 48.1175 161.375 48.1175C161.891 48.1175 162.305 47.938 162.623 47.5743C162.945 47.2106 163.102 46.672 163.102 45.9584C163.102 45.2449 162.941 44.7108 162.623 44.3564C162.305 43.9973 161.891 43.8177 161.375 43.8177ZM165.445 43.362C165.44 43.3482 165.436 43.3343 165.436 43.3205C165.436 43.2791 165.463 43.2561 165.523 43.2561H166.205C166.283 43.2561 166.333 43.2929 166.352 43.362L167.48 46.6029C167.627 47.0219 167.797 47.3211 167.991 47.5007C168.184 47.6802 168.447 47.7677 168.778 47.7677L169.943 43.362C169.961 43.2929 170.012 43.2561 170.095 43.2561H170.771C170.836 43.2561 170.863 43.2791 170.863 43.3205C170.863 43.3343 170.859 43.3482 170.854 43.362L169.505 48.4766C169.317 49.1856 169.068 49.7012 168.755 50.0189C168.447 50.3411 168.037 50.5022 167.535 50.5022C167.181 50.5022 166.858 50.4516 166.559 50.3503L166.421 50.2997C166.352 50.2628 166.315 50.2168 166.315 50.1662V49.6736C166.315 49.5907 166.352 49.5631 166.421 49.5907C166.757 49.7242 167.088 49.7933 167.411 49.7933C167.738 49.7933 167.986 49.7012 168.156 49.5124C168.327 49.3237 168.474 48.9784 168.598 48.4812C168.069 48.4812 167.664 48.3431 167.374 48.0669C167.084 47.7907 166.817 47.2981 166.573 46.5983L165.445 43.362ZM175.734 43.362C175.725 43.3482 175.725 43.3343 175.725 43.3205C175.725 43.2791 175.757 43.2561 175.812 43.2561H176.494C176.572 43.2561 176.623 43.2929 176.641 43.362L177.769 46.6029C177.916 47.0219 178.087 47.3211 178.28 47.5007C178.473 47.6802 178.731 47.7677 179.067 47.7677L180.227 43.362C180.246 43.2929 180.296 43.2561 180.379 43.2561H181.056C181.12 43.2561 181.148 43.2791 181.148 43.3205C181.148 43.3343 181.143 43.3482 181.139 43.362L179.79 48.4766C179.601 49.1856 179.353 49.7012 179.04 50.0189C178.731 50.3411 178.321 50.5022 177.82 50.5022C177.465 50.5022 177.143 50.4516 176.844 50.3503L176.705 50.2997C176.636 50.2628 176.6 50.2168 176.6 50.1662V49.6736C176.6 49.5907 176.636 49.5631 176.705 49.5907C177.042 49.7242 177.373 49.7933 177.695 49.7933C178.022 49.7933 178.271 49.7012 178.441 49.5124C178.611 49.3237 178.759 48.9784 178.883 48.4812C178.354 48.4812 177.948 48.3431 177.658 48.0669C177.368 47.7907 177.101 47.2981 176.857 46.5983L175.734 43.362ZM185.31 48.8311C184.522 48.8311 183.887 48.5825 183.399 48.0899C182.92 47.5927 182.676 46.8838 182.676 45.963C182.676 45.0377 182.916 44.3333 183.399 43.8454C183.883 43.3528 184.518 43.1088 185.31 43.1088C186.102 43.1088 186.737 43.3528 187.22 43.8454C187.704 44.3333 187.948 45.0377 187.948 45.963C187.948 46.8838 187.704 47.5927 187.22 48.0899C186.737 48.5871 186.097 48.8311 185.31 48.8311ZM185.31 43.8177C184.799 43.8177 184.384 43.9973 184.062 44.3564C183.744 44.7108 183.588 45.2449 183.588 45.9584C183.588 46.672 183.744 47.2106 184.062 47.5743C184.38 47.938 184.799 48.1175 185.31 48.1175C185.825 48.1175 186.24 47.938 186.557 47.5743C186.875 47.2106 187.036 46.672 187.036 45.9584C187.036 45.2449 186.875 44.7108 186.557 44.3564C186.235 43.9973 185.821 43.8177 185.31 43.8177ZM190.277 46.4464V43.362C190.277 43.2975 190.309 43.2607 190.378 43.2561H191.092C191.156 43.2561 191.193 43.2929 191.193 43.362V46.4464C191.193 46.9804 191.331 47.3948 191.607 47.6848C191.884 47.9748 192.234 48.1222 192.662 48.1222C192.855 48.1222 193.048 48.0853 193.237 48.0117C193.431 47.938 193.587 47.8505 193.711 47.7493C193.836 47.648 193.951 47.5421 194.047 47.4362C194.241 47.229 194.333 47.1001 194.333 47.0541V43.362C194.333 43.2975 194.365 43.2607 194.43 43.2561H195.143C195.208 43.2561 195.244 43.2929 195.244 43.362V48.5779C195.244 48.6424 195.212 48.6746 195.143 48.6746H194.586C194.522 48.6746 194.485 48.6424 194.476 48.5779L194.383 48.0209C194.342 48.0853 194.255 48.1728 194.121 48.2833C193.992 48.3938 193.868 48.4812 193.739 48.5503C193.408 48.739 193.035 48.8311 192.611 48.8311C191.93 48.8311 191.368 48.6193 190.935 48.1958C190.498 47.7723 190.277 47.1922 190.277 46.4464ZM197.979 48.5825V43.3666C197.979 43.2975 198.011 43.2607 198.076 43.2607H198.633C198.697 43.2607 198.734 43.2975 198.743 43.3666L198.835 44.2275L198.913 44.1124C198.95 44.0663 199.033 43.9789 199.162 43.8546C199.296 43.7303 199.438 43.6198 199.599 43.5323C199.761 43.4402 199.972 43.3574 200.235 43.2791C200.497 43.2008 200.773 43.1594 201.063 43.1594H201.469C201.538 43.1594 201.57 43.1916 201.57 43.2561V43.8638C201.57 43.9328 201.538 43.9696 201.469 43.9696H201.165C200.833 43.9696 200.529 44.0111 200.253 44.0986C199.977 44.1814 199.756 44.2827 199.59 44.3978C199.259 44.6418 199.042 44.8582 198.941 45.0515L198.881 45.1804V48.5779C198.881 48.6424 198.849 48.6746 198.785 48.6746H198.071C198.016 48.6792 197.979 48.647 197.979 48.5825ZM205.28 49.6736C205.28 49.5907 205.313 49.5631 205.377 49.5907C205.713 49.7242 206.054 49.7933 206.39 49.7933C207.131 49.7933 207.504 49.2869 207.504 48.2741V43.362C207.504 43.2975 207.541 43.2607 207.61 43.2561H208.319C208.383 43.2561 208.42 43.2929 208.425 43.362V48.2741C208.425 48.9784 208.25 49.5217 207.9 49.9176C207.555 50.3089 207.085 50.5068 206.496 50.5068C206.146 50.5068 205.824 50.4562 205.524 50.3549L205.382 50.3043C205.317 50.2721 205.285 50.226 205.285 50.1708V49.6736H205.28ZM207.435 42.4458V41.7875C207.435 41.7093 207.449 41.6586 207.481 41.631C207.508 41.6034 207.564 41.585 207.637 41.585H208.296C208.374 41.585 208.425 41.6034 208.452 41.6356C208.48 41.6678 208.498 41.7185 208.498 41.7875V42.4458C208.498 42.5241 208.484 42.5747 208.452 42.6024C208.42 42.63 208.369 42.6484 208.296 42.6484H207.637C207.564 42.6484 207.508 42.6346 207.481 42.6024C207.449 42.5747 207.435 42.5241 207.435 42.4458ZM213.36 48.8311C212.573 48.8311 211.937 48.5825 211.449 48.0899C210.97 47.5927 210.726 46.8838 210.726 45.963C210.726 45.0377 210.966 44.3333 211.449 43.8454C211.933 43.3528 212.568 43.1088 213.36 43.1088C214.152 43.1088 214.787 43.3528 215.27 43.8454C215.754 44.3333 215.998 45.0377 215.998 45.963C215.998 46.8838 215.754 47.5927 215.27 48.0899C214.787 48.5871 214.152 48.8311 213.36 48.8311ZM213.36 43.8177C212.849 43.8177 212.434 43.9973 212.112 44.3564C211.795 44.7108 211.638 45.2449 211.638 45.9584C211.638 46.672 211.795 47.2106 212.112 47.5743C212.43 47.938 212.849 48.1175 213.36 48.1175C213.875 48.1175 214.29 47.938 214.607 47.5743C214.93 47.2106 215.086 46.672 215.086 45.9584C215.086 45.2449 214.925 44.7108 214.607 44.3564C214.29 43.9973 213.875 43.8177 213.36 43.8177ZM218.332 48.2234V41.6908C218.332 41.6264 218.364 41.5896 218.428 41.585H219.142C219.206 41.585 219.243 41.6172 219.243 41.6908V43.4126C219.681 43.2101 220.187 43.1088 220.762 43.1088C221.522 43.1088 222.144 43.3574 222.627 43.85C223.11 44.3426 223.35 45.0469 223.35 45.9676C223.35 46.8838 223.106 47.5927 222.622 48.0899C222.144 48.5825 221.504 48.8311 220.712 48.8311C220.279 48.8311 219.865 48.7805 219.464 48.6792C219.064 48.5779 218.774 48.4766 218.594 48.38L218.332 48.2234ZM219.243 47.8183C219.243 47.8229 219.303 47.8505 219.418 47.9012C219.533 47.9472 219.704 47.9978 219.934 48.0439C220.164 48.0945 220.394 48.1175 220.615 48.1175C221.177 48.1175 221.619 47.938 221.946 47.5789C222.272 47.2152 222.434 46.6766 222.434 45.963C222.434 45.2495 222.272 44.7108 221.95 44.3564C221.628 43.9973 221.204 43.8177 220.684 43.8177C220.164 43.8177 219.685 43.919 219.243 44.1216V47.8183Z" fill="white"/>
<path d="M54.5015 39.0711C53.6176 39.0711 52.7521 38.9238 51.9005 38.6245C51.0626 38.3253 50.303 37.8834 49.6309 37.2987L52.5634 33.7861C52.7752 33.9518 53.0376 34.113 53.3598 34.2649C53.6821 34.4214 54.0596 34.4951 54.5015 34.4951C55.0632 34.4951 55.5742 34.357 56.0253 34.0807C56.4903 33.7953 56.8586 33.4178 57.1348 32.9528C57.411 32.4787 57.5491 31.9631 57.5491 31.4106V16.817L62.1252 15.436V31.4106C62.1252 32.8147 61.7845 34.0946 61.0986 35.2547C60.4126 36.4056 59.4919 37.3263 58.3318 38.0215C57.1808 38.7212 55.9056 39.0711 54.5015 39.0711ZM77.9709 15.0723C71.443 15.0723 66.7012 20.3757 66.7012 27.0372C66.7012 33.7309 71.443 39.0343 77.9709 39.0343C84.4667 39.0343 89.2085 33.7309 89.2085 27.0372C89.2085 20.3757 84.4667 15.0723 77.9709 15.0723ZM77.9709 34.8956C74.1591 34.8956 71.1115 31.3508 71.1115 27.0418C71.1115 22.765 74.1591 19.2202 77.9709 19.2202C81.7505 19.2202 84.7982 22.765 84.7982 27.0418C84.7982 31.3462 81.7505 34.8956 77.9709 34.8956ZM107.577 26.54C107.444 26.6044 107.444 26.6735 107.577 26.7379C109.676 27.8198 110.726 29.6198 110.726 32.1426C110.726 34.2879 109.999 35.9084 108.539 37.0133C107.08 38.0951 105.169 38.6384 102.803 38.6384H94.2172C94.1067 38.6384 94.0055 38.6061 93.918 38.5371C93.8535 38.4496 93.8167 38.3483 93.8167 38.2378V15.8319C93.8167 15.7214 93.8489 15.6339 93.918 15.5649C94.0055 15.4774 94.1067 15.4313 94.2172 15.4313H102.536C107.775 15.4313 110.39 17.5536 110.39 21.7936C110.394 24.0126 109.455 25.5916 107.577 26.54ZM98.6597 19.4457C98.5493 19.4457 98.494 19.501 98.494 19.6115V24.7814C98.494 24.8919 98.5493 24.9471 98.6597 24.9471H102.536C103.576 24.9471 104.382 24.7031 104.958 24.2197C105.533 23.7317 105.818 23.0688 105.818 22.2309C105.818 21.3701 105.533 20.6933 104.958 20.2099C104.382 19.7035 103.576 19.4457 102.536 19.4457H98.6597ZM102.803 34.5964C103.82 34.5964 104.617 34.3432 105.188 33.8321C105.763 33.3027 106.049 32.5846 106.049 31.6776C106.049 30.7707 105.763 30.0664 105.188 29.5554C104.612 29.0259 103.807 28.7589 102.766 28.7589H98.6551C98.5446 28.7589 98.4894 28.8142 98.4894 28.9247V34.426C98.4894 34.5365 98.5446 34.5917 98.6551 34.5917H102.803V34.5964ZM131.079 19.7127V15.6339H114.372V19.7127H120.536V38.6384H124.91V19.7127H131.079ZM140.838 21.2366C135.171 20.5414 131.824 23.9205 131.824 28.7589V38.6384H136.198V28.7589C136.198 26.3374 138.053 24.8458 140.838 25.343V21.2366ZM152.269 21.1399C147.528 21.1399 143.683 25.0162 143.683 30.1216C143.683 35.2271 147.528 39.0389 152.269 39.0389C157.011 39.0389 160.887 35.2271 160.887 30.1216C160.887 25.0162 157.011 21.1399 152.269 21.1399ZM152.269 35.0245C149.949 35.0245 148.062 33.0357 148.062 30.1538C148.062 27.2029 149.949 25.1497 152.269 25.1497C154.59 25.1497 156.477 27.2029 156.477 30.1538C156.477 33.0357 154.59 35.0245 152.269 35.0245ZM179.951 38.6384H175.973V28.9615C175.973 28.0546 175.799 27.3824 175.444 26.9405C175.113 26.4755 174.694 26.1671 174.183 26.0105C173.695 25.854 173.22 25.7804 172.756 25.7804C172.314 25.7804 171.793 25.8586 171.199 26.0105C170.624 26.1671 170.118 26.4755 169.676 26.9405C169.234 27.3824 169.013 28.0546 169.013 28.9615V38.6384H165.035V22.0652H169.013V23.2576C169.39 22.7512 169.975 22.3967 170.771 22.1987C171.568 21.9777 172.327 21.8673 173.059 21.8673C174.473 21.8673 175.688 22.1665 176.705 22.7604C177.746 23.3588 178.538 24.1875 179.09 25.2463C179.666 26.3052 179.951 27.5436 179.951 28.9569V38.6384ZM189.002 33.9657H184.297V38.6384H189.002V33.9657ZM201.284 21.1399C196.543 21.1399 192.699 25.0162 192.699 30.1216C192.699 35.2271 196.543 39.0389 201.284 39.0389C206.026 39.0389 209.902 35.2271 209.902 30.1216C209.902 25.0162 206.026 21.1399 201.284 21.1399ZM201.284 35.0245C198.964 35.0245 197.077 33.0357 197.077 30.1538C197.077 27.2029 198.964 25.1497 201.284 25.1497C203.605 25.1497 205.492 27.2029 205.492 30.1538C205.497 33.0357 203.605 35.0245 201.284 35.0245ZM223.262 21.2366C217.595 20.5414 214.248 23.9205 214.248 28.7589V38.6384H218.622V28.7589C218.622 26.3374 220.477 24.8458 223.262 25.343V21.2366ZM243.808 30.1216C243.808 25.1819 240.194 21.1399 235.057 21.1399C229.887 21.1399 226.273 25.1819 226.273 30.1216C226.273 35.0291 229.951 39.0066 234.458 39.0066C236.383 39.0066 238.137 38.3437 239.43 37.0823V37.8465C239.43 40.8941 238.04 42.9198 234.955 42.9198C233.763 42.9198 232.005 42.3903 231.443 41.0323H226.669C227.332 44.6461 230.844 46.9986 234.955 46.9986C240.425 46.9986 243.804 43.4538 243.804 37.7821V30.1216H243.808ZM239.43 30.1538C239.43 32.8055 237.474 34.96 235.057 34.96C232.635 34.96 230.683 32.87 230.683 30.1538C230.683 27.3364 232.64 25.2463 235.057 25.2463C237.474 25.2463 239.43 27.4377 239.43 30.1538Z" fill="white"/>
<defs>
<radialGradient id="paint0_radial_75_1421" cx="0" cy="0" r="1" gradientUnits="userSpaceOnUse" gradientTransform="translate(11.2977 23.8122) rotate(120.041) scale(22.07 20.8785)">
<stop stop-color="#424D53"/>
<stop offset="1" stop-color="white" stop-opacity="0.44"/>
</radialGradient>
</defs>
</svg>
