<svg width="32" height="32" viewBox="0 0 32 32" fill="none" xmlns="http://www.w3.org/2000/svg">
<g clip-path="url(#clip0_42_1974)">
<path d="M22.0001 25.905C22.6899 25.6332 23.3584 25.3102 24.0001 24.9387V30C24.0001 30.2652 23.8947 30.5195 23.7072 30.7071C23.5196 30.8946 23.2653 31 23.0001 31C22.7348 31 22.4805 30.8946 22.2929 30.7071C22.1054 30.5195 22.0001 30.2652 22.0001 30V25.905ZM23.4701 14.8512L16.4701 11.1175C16.2365 10.9982 15.9654 10.9754 15.7153 11.054C15.4651 11.1327 15.2558 11.3065 15.1326 11.5379C15.0093 11.7694 14.9819 12.04 15.0562 12.2915C15.1306 12.543 15.3007 12.7552 15.5301 12.8825L21.3751 16L23.5001 14.8675L23.4701 14.8512ZM31.4701 11.1175L16.4701 3.11746C16.3254 3.04042 16.164 3.00012 16.0001 3.00012C15.8361 3.00012 15.6747 3.04042 15.5301 3.11746L0.530054 11.1175C0.370059 11.2027 0.236255 11.3299 0.142954 11.4853C0.0496529 11.6408 0.000366211 11.8187 0.000366211 12C0.000366211 12.1813 0.0496529 12.3591 0.142954 12.5146C0.236255 12.67 0.370059 12.7972 0.530054 12.8825L4.00005 14.7337V20.7862C3.99901 21.2774 4.17979 21.7516 4.50755 22.1175C6.14505 23.9412 9.8138 27 16.0001 27C18.0512 27.0169 20.0871 26.6454 22.0001 25.905V16.3337L21.3751 16L16.0001 18.8662L5.4788 13.25L3.12505 12L16.0001 5.13371L28.8751 12L26.5276 13.25H26.5201L23.5001 14.8675C23.6521 14.9552 23.7784 15.0815 23.8661 15.2336C23.9539 15.3856 24.0001 15.5581 24.0001 15.7337V24.9387C25.3041 24.1859 26.4824 23.234 27.4926 22.1175C27.8203 21.7516 28.0011 21.2774 28.0001 20.7862V14.7337L31.4701 12.8825C31.63 12.7972 31.7639 12.67 31.8572 12.5146C31.9505 12.3591 31.9997 12.1813 31.9997 12C31.9997 11.8187 31.9505 11.6408 31.8572 11.4853C31.7639 11.3299 31.63 11.2027 31.4701 11.1175Z" fill="#333333"/>
</g>
<defs>
<clipPath id="clip0_42_1974">
<rect width="32" height="32" fill="white"/>
</clipPath>
</defs>
</svg>
