<svg width="26" height="23" viewBox="0 0 26 23" fill="none" xmlns="http://www.w3.org/2000/svg">
<path d="M24 0H2C1.46957 0 0.960859 0.210714 0.585786 0.585786C0.210714 0.960859 0 1.46957 0 2V22C9.09903e-05 22.1704 0.0437432 22.338 0.126812 22.4869C0.209881 22.6357 0.32961 22.7608 0.474632 22.8503C0.619654 22.9399 0.785156 22.9909 0.955425 22.9985C1.12569 23.0061 1.29508 22.97 1.4475 22.8937L5 21.1175L8.5525 22.8937C8.69143 22.9633 8.84465 22.9995 9 22.9995C9.15535 22.9995 9.30857 22.9633 9.4475 22.8937L13 21.1175L16.5525 22.8937C16.6914 22.9633 16.8446 22.9995 17 22.9995C17.1554 22.9995 17.3086 22.9633 17.4475 22.8937L21 21.1175L24.5525 22.8937C24.7049 22.97 24.8743 23.0061 25.0446 22.9985C25.2148 22.9909 25.3803 22.9399 25.5254 22.8503C25.6704 22.7608 25.7901 22.6357 25.8732 22.4869C25.9563 22.338 25.9999 22.1704 26 22V2C26 1.46957 25.7893 0.960859 25.4142 0.585786C25.0391 0.210714 24.5304 0 24 0ZM11.5 15C11.5 15.1326 11.4473 15.2598 11.3536 15.3536C11.2598 15.4473 11.1326 15.5 11 15.5H5C4.86739 15.5 4.74021 15.4473 4.64645 15.3536C4.55268 15.2598 4.5 15.1326 4.5 15V7C4.5 6.86739 4.55268 6.74021 4.64645 6.64645C4.74021 6.55268 4.86739 6.5 5 6.5H11C11.1326 6.5 11.2598 6.55268 11.3536 6.64645C11.4473 6.74021 11.5 6.86739 11.5 7V15ZM21 14H15C14.7348 14 14.4804 13.8946 14.2929 13.7071C14.1054 13.5196 14 13.2652 14 13C14 12.7348 14.1054 12.4804 14.2929 12.2929C14.4804 12.1054 14.7348 12 15 12H21C21.2652 12 21.5196 12.1054 21.7071 12.2929C21.8946 12.4804 22 12.7348 22 13C22 13.2652 21.8946 13.5196 21.7071 13.7071C21.5196 13.8946 21.2652 14 21 14ZM21 10H15C14.7348 10 14.4804 9.89464 14.2929 9.70711C14.1054 9.51957 14 9.26522 14 9C14 8.73478 14.1054 8.48043 14.2929 8.29289C14.4804 8.10536 14.7348 8 15 8H21C21.2652 8 21.5196 8.10536 21.7071 8.29289C21.8946 8.48043 22 8.73478 22 9C22 9.26522 21.8946 9.51957 21.7071 9.70711C21.5196 9.89464 21.2652 10 21 10Z" fill="#333333"/>
</svg>
