<svg width="20" height="20" viewBox="0 0 20 20" fill="none" xmlns="http://www.w3.org/2000/svg">
<circle cx="10" cy="10" r="10" fill="#F0F3FA"/>
<path d="M8.691 12.127L8.431 10.021L8.496 9.956C10.0993 9.89533 10.901 9.40133 10.901 8.474C10.901 8.10133 10.7667 7.80233 10.498 7.577C10.2293 7.35167 9.86533 7.239 9.406 7.239C8.63467 7.239 7.92833 7.58133 7.287 8.266L6.312 7.226C7.16133 6.264 8.20567 5.783 9.445 5.783C10.3637 5.783 11.1003 6.02567 11.655 6.511C12.2097 6.98767 12.487 7.63333 12.487 8.448C12.487 9.21933 12.2487 9.81733 11.772 10.242C11.2953 10.658 10.6627 10.9353 9.874 11.074L9.744 12.127H8.691ZM8.314 15V13.219H10.056V15H8.314Z" fill="#52A8DC"/>
</svg>
