<?xml version="1.0" encoding="UTF-8" standalone="no"?>
<svg
   width="300"
   height="300"
   viewBox="0 0 300 300"
   fill="none"
   version="1.1"
   id="svg747"
   sodipodi:docname="user-earnings-1.svg"
   inkscape:version="1.2.1 (9c6d41e410, 2022-07-14)"
   xmlns:inkscape="http://www.inkscape.org/namespaces/inkscape"
   xmlns:sodipodi="http://sodipodi.sourceforge.net/DTD/sodipodi-0.dtd"
   xmlns="http://www.w3.org/2000/svg"
   xmlns:svg="http://www.w3.org/2000/svg">
  <sodipodi:namedview
     id="namedview749"
     pagecolor="#ffffff"
     bordercolor="#000000"
     borderopacity="0.25"
     inkscape:showpageshadow="2"
     inkscape:pageopacity="0.0"
     inkscape:pagecheckerboard="0"
     inkscape:deskcolor="#d1d1d1"
     showgrid="false"
     inkscape:zoom="1.5618512"
     inkscape:cx="182.7959"
     inkscape:cy="147.58128"
     inkscape:window-width="1920"
     inkscape:window-height="991"
     inkscape:window-x="-9"
     inkscape:window-y="-9"
     inkscape:window-maximized="1"
     inkscape:current-layer="svg747" />
  <g
     id="g970"
     transform="matrix(0.82732009,0,0,0.82732009,-0.05617722,-0.81358361)">
    <path
       d="M 244.659,8.58665 C 217.718,2.57581 189.707,-0.304198 162.32,1.53177 138.046,3.15894 110.531,7.60118 90.9974,23.5138 81.6889,31.0971 70.5865,44.723 67.5423,56.7434 c 0,0.0013 -16.0285,63.2726 -48.0829,76.8306 -32.0557,13.559 -54.3153,244.955 188.7696,222.358 0,0 142.774,-5.922 151.371,-176.481 2.076,-41.203 0.916,-86.4974 -23.962,-120.9493 -19.064,-26.4001 -45.776,-38.1391 -76.47,-46.3526 -4.794,-1.2847 -9.634,-2.47513 -14.509,-3.56245 z"
       fill="#f4f7fa"
       id="path2" />
    <path
       d="m 309.68,92.6632 c 3.736,0.3145 7.04,-2.7094 7.381,-6.7543 0.34,-4.045 -2.411,-7.5782 -6.147,-7.8927 -0.193,-0.0165 -0.386,-0.0178 -0.575,-0.0165 -0.179,-2.0894 -0.505,-4.1354 -0.973,-6.1242 0.177,-0.0726 0.354,-0.1477 0.528,-0.2381 3.406,-1.7494 4.891,-6.1356 3.318,-9.7961 -1.572,-3.6605 -5.608,-5.2087 -9.013,-3.4593 -0.178,0.0917 -0.347,0.1948 -0.515,0.2992 -1.112,-1.6794 -2.343,-3.2594 -3.684,-4.73 0.124,-0.1604 0.246,-0.3247 0.359,-0.4991 2.163,-3.346 1.431,-7.9181 -1.633,-10.2124 -3.065,-2.2944 -7.302,-1.4426 -9.465,1.9021 -0.111,0.1719 -0.209,0.3476 -0.305,0.5259 -1.73,-0.8352 -3.535,-1.5266 -5.406,-2.0677 0.033,-0.2037 0.064,-0.4087 0.082,-0.6188 0.341,-4.045 1.077,-8.6107 -2.663,-8.8667 -8.651,-0.592 -10.524,3.6834 -10.864,7.7272 -0.018,0.2101 -0.022,0.4163 -0.023,0.6226 -1.934,0.2202 -3.831,0.5997 -5.676,1.1344 -0.065,-0.191 -0.132,-0.3807 -0.212,-0.5691 -1.573,-3.6605 -1.289,-6.1013 -4.864,-4.73 -7.795,2.9908 -9.041,7.4076 -7.469,11.0668 0.083,0.1909 0.175,0.373 0.27,0.5525 -1.567,1.2249 -3.045,2.5783 -4.422,4.0476 -0.147,-0.1324 -0.296,-0.261 -0.457,-0.382 -3.064,-2.2943 -7.302,-1.4425 -9.465,1.9022 -2.163,3.346 -1.431,7.9181 1.634,10.2124 0.156,0.1172 0.318,0.2216 0.481,0.3222 -0.795,1.8818 -1.458,3.8451 -1.984,5.8746 -0.188,-0.0331 -0.377,-0.0637 -0.57,-0.079 -3.736,-0.3145 -7.04,2.7094 -7.381,6.7544 -0.341,4.045 2.412,7.5782 6.147,7.8927 0.194,0.0165 0.386,0.0178 0.576,0.0165 0.178,2.0894 0.504,4.1354 0.972,6.1242 -0.177,0.0725 -0.354,0.1477 -0.528,0.2368 -3.406,1.7507 -4.89,6.1356 -3.318,9.7965 1.572,3.66 5.608,5.208 9.013,3.459 0.178,-0.092 0.348,-0.194 0.514,-0.299 1.112,1.679 2.343,3.259 3.684,4.73 -0.124,0.16 -0.246,0.324 -0.359,0.5 -2.163,3.345 -1.431,7.918 1.632,10.213 3.065,2.294 9.698,1.245 11.861,-2.101 0.111,-0.172 -2.187,-0.151 -2.092,-0.328 1.731,0.836 3.536,1.527 5.406,2.068 -0.033,0.204 -0.063,0.409 -0.081,0.619 -0.341,4.045 2.411,7.578 6.147,7.893 3.736,0.314 7.04,-2.71 7.381,-6.755 0.018,-0.209 0.022,-0.416 0.023,-0.622 1.934,-0.221 3.831,-0.6 5.676,-1.134 0.065,0.191 0.132,0.381 0.212,0.57 1.573,3.66 5.609,5.208 9.013,3.458 3.405,-1.75 4.891,-6.136 3.318,-9.795 -0.082,-0.191 -0.174,-0.373 -0.269,-0.553 1.567,-1.225 3.045,-2.578 4.421,-4.047 0.148,0.132 0.297,0.262 0.458,0.382 3.064,2.294 7.301,1.442 9.465,-1.903 2.163,-3.346 1.431,-7.918 -1.634,-10.212 -0.157,-0.1171 -0.318,-0.2215 -0.481,-0.3221 0.794,-1.8818 1.458,-3.8451 1.983,-5.8746 0.191,0.0331 0.38,0.0624 0.573,0.0789 z m -38.405,16.1688 c -13.562,-1.142 -23.554,-13.9725 -22.317,-28.6577 1.237,-14.6852 13.234,-25.6642 26.796,-24.5208 13.563,1.1421 23.555,13.9722 22.317,28.6575 -1.236,14.6839 -13.234,25.663 -26.796,24.521 z"
       fill="#bfc6d1"
       id="path4" />
    <path
       d="m 309.895,71.6376 c 3.406,-1.7494 4.89,-6.1357 3.318,-9.7961 -1.573,-3.6605 -5.609,-5.2088 -9.013,-3.4594 -0.179,0.0917 -0.348,0.1948 -0.515,0.2992 -1.111,-1.6793 -2.342,-3.2594 -3.683,-4.7299 0.123,-0.1605 0.246,-0.3247 0.359,-0.5004 2.163,-3.3447 3.825,-9.9807 0.541,-11.9491 -6.232,-3.7356 -9.475,0.2941 -11.638,3.6388 -0.111,0.1719 -0.209,0.3476 -0.305,0.5246 -1.73,-0.8352 -3.535,-1.5266 -5.406,-2.0664 0.033,-0.2037 0.064,-0.4087 0.082,-0.6188 0.186,-2.2014 -0.55,-4.2462 -1.857,-5.7091 -0.832,6.324 -1.617,12.6545 -2.339,18.9912 11.64,2.9297 19.757,14.7235 18.634,28.0438 -0.951,11.2871 -8.261,20.378 -17.75,23.465 0.022,1.234 0.054,2.47 0.042,3.707 -0.03,3.352 -0.248,6.712 -0.47,10.068 0.921,-0.186 1.831,-0.407 2.729,-0.667 0.065,0.191 0.132,0.381 0.212,0.569 1.573,3.661 5.087,5.885 11.352,2.945 3.466,-1.626 2.553,-5.621 0.981,-9.282 -0.083,-0.191 -0.175,-0.373 -0.27,-0.552 1.567,-1.225 3.045,-2.578 4.422,-4.048 0.147,0.133 0.298,0.261 0.457,0.382 3.064,2.296 9.94,1.007 12.102,-2.339 2.163,-3.346 -1.206,-7.481 -4.271,-9.7754 -0.156,-0.1171 -0.318,-0.2215 -0.481,-0.3221 0.795,-1.8818 1.458,-3.8451 1.984,-5.8746 0.188,0.0331 0.377,0.0637 0.57,0.079 3.736,0.3144 7.04,-2.7094 7.381,-6.7544 0.341,-4.045 -2.412,-7.5782 -6.147,-7.8927 -0.194,-0.0165 -0.385,-0.0178 -0.576,-0.0165 -0.178,-2.0894 -0.504,-4.1354 -0.972,-6.1242 0.175,-0.07 0.352,-0.1451 0.527,-0.2355 z"
       fill="#bfc6d1"
       id="path6" />
    <path
       d="m 313.165,91.6892 c 3.736,0.3145 7.04,-2.7094 7.381,-6.7544 0.34,-4.045 -2.411,-7.5781 -6.147,-7.8926 -0.194,-0.0166 -0.385,-0.0179 -0.575,-0.0166 -0.179,-2.0893 -0.505,-4.1354 -0.973,-6.1241 0.177,-0.0726 0.354,-0.1477 0.528,-0.2381 3.406,-1.7494 4.891,-6.1356 3.318,-9.7949 -1.572,-3.6605 -5.608,-5.2087 -9.013,-3.4593 -0.178,0.0917 -0.348,0.1948 -0.516,0.2992 -1.111,-1.6793 -2.342,-3.2594 -3.683,-4.73 0.124,-0.1617 0.246,-0.3246 0.359,-0.5003 2.163,-3.3448 1.431,-7.9181 -1.633,-10.2125 -3.065,-2.2943 -7.302,-1.4425 -9.466,1.9022 -0.11,0.1719 -0.208,0.3476 -0.304,0.5258 -1.73,-0.8352 -3.536,-1.5265 -5.406,-2.0677 0.033,-0.2037 0.064,-0.4087 0.082,-0.6187 0.341,-4.045 -2.412,-7.5782 -6.147,-7.8927 -3.736,-0.3145 -7.04,2.7094 -7.381,6.7544 -0.018,0.2088 -0.022,0.4163 -0.023,0.6226 -1.934,0.2203 -3.831,0.5997 -5.676,1.1332 -0.065,-0.191 -0.133,-0.3807 -0.213,-0.5692 -1.572,-3.6604 -5.608,-5.2087 -9.013,-3.4593 -3.406,1.7494 -4.89,6.1356 -3.318,9.7961 0.083,0.191 0.175,0.3731 0.27,0.5526 -1.567,1.2248 -3.045,2.5783 -4.422,4.0475 -0.148,-0.1324 -0.297,-0.261 -0.457,-0.3819 -3.065,-2.2944 -7.302,-1.4426 -9.465,1.9022 -2.163,3.346 -1.431,7.9181 1.634,10.2124 0.156,0.1171 0.318,0.2215 0.481,0.3221 -0.795,1.8818 -1.458,3.8451 -1.984,5.8746 -0.188,-0.0331 -0.377,-0.0636 -0.57,-0.0802 -3.736,-0.3145 -7.04,2.7094 -7.381,6.7544 -0.341,4.045 2.411,7.5782 6.147,7.8927 0.194,0.0165 0.386,0.0178 0.575,0.0165 0.179,2.0894 0.505,4.1354 0.973,6.1242 -0.177,0.0725 -0.354,0.1477 -0.528,0.2381 -3.406,1.7493 -4.891,6.1356 -3.318,9.7965 1.572,3.66 5.608,5.208 9.013,3.458 0.178,-0.092 0.348,-0.194 0.514,-0.3 1.112,1.68 2.343,3.26 3.684,4.73 -0.124,0.162 -0.246,0.325 -0.359,0.501 -2.164,3.344 -1.431,7.918 1.633,10.212 3.065,2.295 7.302,1.443 9.465,-1.902 0.111,-0.172 0.209,-0.348 0.305,-0.526 1.73,0.835 3.535,1.527 5.406,2.068 -0.033,0.204 -0.064,0.409 -0.082,0.619 -0.341,4.045 2.412,7.578 6.147,7.892 3.736,0.315 7.04,-2.709 7.381,-6.754 0.018,-0.209 0.022,-0.416 0.023,-0.623 1.934,-0.22 3.831,-0.599 5.676,-1.133 0.065,0.191 0.132,0.381 0.213,0.569 1.572,3.661 5.608,5.209 9.013,3.46 3.404,-1.75 4.89,-6.136 3.318,-9.795 -0.083,-0.191 -0.175,-0.373 -0.27,-0.553 1.567,-1.225 3.045,-2.578 4.422,-4.047 0.147,0.132 0.298,0.261 0.457,0.382 3.064,2.294 7.302,1.443 9.465,-1.903 2.163,-3.346 1.431,-7.918 -1.634,-10.212 -0.156,-0.1171 -0.318,-0.2215 -0.481,-0.3221 0.794,-1.8818 1.458,-3.8451 1.984,-5.8746 0.188,0.0331 0.378,0.0624 0.571,0.0789 z M 274.76,107.858 c -13.562,-1.142 -23.554,-13.9725 -22.317,-28.6577 1.236,-14.6853 13.234,-25.6642 26.796,-24.5208 13.562,1.142 23.555,13.9722 22.317,28.6574 C 300.319,98.0209 288.322,109 274.76,107.858 Z"
       fill="#d8dee8"
       id="path8" />
    <path
       d="m 176.109,101.446 c -35.235,24.611 -59.112,74.202 -32.863,94.806 23.199,18.209 14.346,43.782 -5.32,62.857 -9.787,9.494 -31.332,25.03 -31.265,53.187 -1.753,-0.267 16.306,45.109 14.528,45.58 -7.931,2.102 -23.6845,-4.661 -24.0486,5.724 L 50.0378,344.279 C 51.1939,333.271 55.491,323.12 62.1665,313.586 78.6915,289.983 57.672,262.792 46.8497,226.509 34.18,184.034 72.5635,183.353 75.1787,149.309 77.7939,115.266 71.219,49.4921 118.057,23.8699 c 78.43,-42.9047 92.533,53.4903 58.052,77.5761 z"
       fill="url(#paint0_linear_53_642)"
       id="path10"
       style="fill:url(#paint0_linear_53_642)" />
    <path
       d="m 202.719,36.7181 -0.184,-1.3662 c -35.668,7.1962 -63.821,31.2332 -83.678,71.4411 -2.404,4.868 -4.685,9.976 -6.847,15.313 C 108.741,76.4385 122.182,14.1427 122.32,13.51 l -1.001,-0.4189 c -0.14,0.6442 -14.008,64.9135 -10.201,110.9989 l 0.107,-0.012 c -11.678,29.545 -19.7184,66.061 -23.9442,108.888 -0.8479,8.598 -1.51,17.168 -2.018,25.636 -7.7309,-39.807 -39.2315,-68.311 -39.5613,-68.606 l -0.5653,1.14 c 0.3387,0.302 33.8204,30.607 39.8605,72.127 -0.4965,9.264 -0.8098,18.386 -0.9778,27.265 0,0.003 -0.0013,0.006 -0.0026,0.009 h 0.0013 c -0.2992,15.851 -0.1362,30.93 0.2814,44.657 l 1.0313,-0.274 c -0.41,-13.584 -0.5691,-28.491 -0.275,-44.154 12.4278,-64.281 79.2817,-76.483 79.9427,-76.529 l -0.016,-1.38 c -0.636,-0.036 -64.807,12.011 -79.8058,72.433 0.4265,-16.819 1.3904,-34.419 3.1385,-52.135 C 92.7875,187.837 103.048,136.563 125.378,97.4516 160.572,70.965 192.89,86.5415 193.215,86.7032 l 0.342,-1.2911 c -0.322,-0.1617 -31.778,-15.3447 -66.56,9.2639 17.337,-29.1476 41.669,-51.0864 75.722,-57.9579 z M 53.0925,319.68 l -0.7881,0.873 c 0.1885,0.295 0.783,0.919 2.2269,2.428 3.0442,3.177 8.696,9.081 14.4013,16.288 l 1.2235,-0.325 c -5.9153,-7.561 -11.8396,-13.748 -14.9946,-17.04 -1.0377,-1.082 -1.9327,-2.017 -2.069,-2.224 z"
       fill="#beb8f2"
       id="path12" />
    <path
       d="m 117.791,269.178 c -2.81,-2.324 2.565,7.566 -1.156,7.566 -7.651,0 -3.824,7.008 -24.9401,2.206 H 32.6739 C 36.9977,261.162 50.7446,243.068 55.4364,233.617 65.3356,213.675 67.9253,204.886 47.3999,163.665 13.1262,110.351 9.68348,59.9532 32.7757,44.7255 56.1736,29.298 79.6618,47.5393 88.2471,75.2636 c 5.4926,17.7384 22.8949,6.6245 33.1769,29.3454 9.025,19.943 -8.697,51.712 -15.055,69.56 -16.6106,46.62 4.489,68.889 11.422,95.009 z"
       fill="url(#paint1_linear_53_642)"
       id="path14"
       style="fill:url(#paint1_linear_53_642)" />
    <path
       d="M 79.0381,202.732 C 75.8373,157.036 116.397,91.5033 116.808,90.8476 l -0.833,-0.5921 c -0.383,0.6137 -35.6305,57.5675 -37.986,102.5875 -1.2006,-10.597 -2.6916,-21.046 -4.4792,-31.317 -1.3139,-7.555 -2.7947,-15.024 -4.4231,-22.397 l 0.0064,-0.002 c -0.0038,-0.009 -0.0089,-0.02 -0.0128,-0.028 -3.0315,-13.713 -6.5978,-27.083 -10.6771,-40.0048 l 0.0152,-0.0026 C 55.3118,73.7903 57.545,46.4417 58.2797,37.4554 c 0.177,-2.1759 0.2381,-2.9412 0.2152,-3.2123 l -0.997,0.0942 c 0.014,0.2062 -0.0866,1.4502 -0.2164,3.0251 -0.6825,8.351 -2.6547,32.5064 -0.4609,56.2213 0.0102,0.1159 -0.149,0.1477 -0.1846,0.0369 C 55.6314,90.5751 54.6001,87.5538 53.537,84.563 47.5172,67.614 40.6559,51.7141 33.1426,37.3064 31.8338,34.7956 30.3632,32.3052 28.941,29.8976 27.0465,26.6891 25.087,23.3724 23.4955,19.9792 l -0.8951,0.4788 c 1.6132,3.4402 3.5854,6.7798 5.4927,10.01 1.4145,2.3962 2.8774,4.8738 4.1736,7.3592 C 39.757,52.189 46.5979,68.0418 52.5999,84.9424 58.3344,101.091 63.2376,118.046 67.2596,135.584 55.2405,115.596 17.561,100.79 15.8715,100.134 l -0.3412,1.004 c 0.4329,0.168 43.3351,17.02 52.6002,38.318 1.6183,7.329 3.0888,14.754 4.3952,22.265 5.8198,33.452 8.533,68.784 8.0645,105.013 -0.0522,4.053 -0.1579,8.129 -0.2903,12.216 h 1.0007 c 0.1325,-4.082 0.2369,-8.154 0.2903,-12.202 0.2814,-21.731 -0.5895,-43.136 -2.5769,-64.013 z m -42.5266,56.554 c 0.1808,0.18 8.1282,8.16 16.8905,19.664 h 1.2694 C 45.6621,267.014 37.3799,258.689 37.194,258.506 Z"
       fill="#fcfdfe"
       id="path16" />
    <path
       d="m 219.001,323.101 c -4.592,-1.523 -8.025,-5.421 -8.992,-10.211 l -6.685,-33.082 -57.177,2.031 -7.037,34.463 c -0.986,4.827 2.959,9.669 7.503,11.446 l 23.921,9.36 c 4.45,1.74 9.232,2.434 13.985,2.026 l 50.555,-4.325 c 1.479,-0.126 2.664,-1.288 2.836,-2.778 0.172,-1.491 1.207,-3.164 -0.201,-3.631 z"
       fill="#97a6b7"
       id="path18" />
    <path
       d="m 219.567,321.088 c -4.588,-1.504 -8.016,-5.353 -8.984,-10.083 l -6.677,-32.665 -55.783,2.006 -7.029,34.031 c -0.985,4.766 1.62,9.545 6.159,11.301 l 23.899,9.242 c 4.444,1.719 9.223,2.404 13.971,2.002 l 50.504,-4.271 c 1.477,-0.124 2.661,-1.272 2.833,-2.743 0.172,-1.472 -0.717,-2.861 -2.124,-3.322 z"
       fill="url(#paint2_linear_53_642)"
       id="path20"
       style="fill:url(#paint2_linear_53_642)" />
    <path
       d="M 29.3131,301.795 C 23.1125,302.164 18.04,298.142 18.04,292.826 V 101.232 c 0,-5.3157 5.0725,-9.4206 11.2731,-9.1519 L 316.061,104.504 c 4.552,0.197 8.238,4.035 8.238,8.556 v 162.95 c 0,4.521 -3.686,8.42 -8.238,8.691 z"
       fill="url(#paint3_linear_53_642)"
       id="path22"
       style="fill:url(#paint3_linear_53_642)" />
    <path
       d="m 31.8902,301.795 c -6.2005,0.369 -11.273,-3.653 -11.273,-8.969 V 101.232 c 0,-5.316 5.0725,-9.4208 11.273,-9.1521 L 318.638,104.504 c 4.552,0.197 8.238,4.035 8.238,8.556 v 162.95 c 0,4.521 -3.686,8.419 -8.238,8.69 z"
       fill="url(#paint4_linear_53_642)"
       id="path24"
       style="fill:url(#paint4_linear_53_642)" />
    <path
       opacity="0.3"
       d="M 318.638,108.339 31.8899,96.5424 c -3.3141,-0.1362 -6.0095,2.0537 -6.0095,4.8926 v 149.011 42.092 c 0,2.84 2.6954,4.985 6.0095,4.795 L 318.638,280.867 c 2.439,-0.14 4.413,-2.219 4.413,-4.646 V 238.97 112.912 c 0,-2.425 -1.974,-4.473 -4.413,-4.573 z"
       fill="#d8dee8"
       id="path26" />
    <path
       d="m 31.8898,281.055 c -1.2911,0.064 -2.3415,-0.783 -2.3415,-1.887 V 101.577 c 0,-1.104 1.0517,-1.961 2.3415,-1.91 l 286.7482,11.357 c 0.951,0.038 1.725,0.839 1.725,1.785 v 152.27 c 0,0.946 -0.774,1.756 -1.725,1.803 z"
       fill="url(#paint5_linear_53_642)"
       id="path28"
       style="fill:url(#paint5_linear_53_642)" />
    <path
       opacity="0.6"
       d="m 288.702,272.842 c -24.123,-14.922 -7.274,-57.351 -34.366,-78.67 -27.315,-21.491 -65.748,4.868 -84.88,-17.389 -14.246,-16.574 2.423,-36.585 -11.179,-52.17 -21.332,-24.442 -75.9397,9.173 -101.0284,-14.906 -3.5624,-3.418 -7.1567,-8.605 -9.2028,-16.9269 L 31.8887,92.0799 c -6.2005,-0.2687 -11.273,3.8361 -11.273,9.1521 v 191.594 c 0,5.316 5.0725,9.338 11.273,8.969 L 318.637,284.7 c 4.551,-0.271 8.237,-4.169 8.237,-8.69 v -2.897 c -19.038,6.462 -30.678,4.363 -38.172,-0.271 z"
       fill="#ffffff"
       id="path30" />
    <path
       d="M 273.868,259.397 V 63.2102 L 97.4923,54.3894 V 269.259 c 0,4.509 -3.267,8.354 -7.7169,9.081 l 174.6156,-8.821 c 5.331,-0.351 9.477,-4.778 9.477,-10.122 z"
       fill="#ffffff"
       id="path32" />
    <path
       d="m 273.868,102.874 c -0.219,0 -0.396,-0.177 -0.396,-0.395 V 63.5857 L 97.8886,54.8043 v 40.0311 c 0,0.219 -0.1769,0.396 -0.3959,0.396 -0.219,0 -0.396,-0.177 -0.396,-0.396 V 53.9729 l 0.4163,0.0204 176.753,8.8399 v 39.6458 c -0.002,0.218 -0.179,0.395 -0.398,0.395 z"
       fill="#d8dee8"
       id="path34" />
    <path
       d="M 262.566,93.1982 114.783,89.6153 V 70.2791 l 147.783,4.6001 z"
       fill="#d8dee8"
       id="path36" />
    <path
       d="m 262.566,153.764 -147.783,-0.222 v -49.327 l 147.783,2.815 z m -145.136,-2.976 142.048,0.353 V 109.6 L 117.43,107.032 Z"
       fill="#d8dee8"
       id="path38" />
    <path
       d="m 149.193,151.891 h -3.088 v -45.905 l 3.088,0.053 z"
       fill="#d8dee8"
       id="path40" />
    <path
       d="m 260.801,124.584 -113.373,-1.417 v -2.729 l 113.373,1.527 z"
       fill="#d8dee8"
       id="path42" />
    <path
       d="m 260.801,138.799 -113.373,-0.811 v -2.73 l 113.373,0.923 z"
       fill="#d8dee8"
       id="path44" />
    <path
       d="m 232.127,153.336 -3.087,-0.004 v -45.805 l 3.087,0.051 z"
       fill="#d8dee8"
       id="path46" />
    <path
       d="m 262.566,241.621 -147.783,4.653 v -49.325 l 147.783,-2.06 z m -145.136,1.803 142.048,-4.337 v -41.541 l -142.048,2.121 z"
       fill="#d8dee8"
       id="path48" />
    <path
       d="m 149.193,243.629 -3.088,0.101 v -46.044 l 3.088,-0.051 z"
       fill="#d8dee8"
       id="path50" />
    <path
       d="m 260.801,212.492 -113.373,2.326 v -2.729 l 113.373,-2.214 z"
       fill="#d8dee8"
       id="path52" />
    <path
       d="m 260.801,226.707 -113.373,2.931 v -2.729 l 113.373,-2.821 z"
       fill="#d8dee8"
       id="path54" />
    <path
       d="m 232.127,242.206 -3.087,0.087 v -45.805 l 3.087,-0.04 z"
       fill="#d8dee8"
       id="path56" />
    <path
       d="m 262.566,169.466 -147.783,0.65 v -6.314 l 147.783,-0.317 z"
       fill="#d8dee8"
       id="path58" />
    <path
       d="m 262.566,183.673 -147.783,1.437 v -6.313 l 147.783,-1.106 z"
       fill="#d8dee8"
       id="path60" />
    <path
       d="m 262.566,257.323 -147.783,5.525 v -6.314 l 147.783,-5.192 z"
       fill="#d8dee8"
       id="path62" />
    <path
       d="m 129.461,234.737 -0.299,101.441 c -0.015,4.973 -4.027,9.38 -9.045,9.748 l -72.4268,5.308 c -5.4723,0.401 -9.9387,-3.601 -9.9387,-8.832 v -106.75 c 0,-4.956 3.9622,-9.043 9.0029,-9.538 0.3221,-0.032 0.6493,-0.043 0.9791,-0.045 l 72.7015,-0.347 c 5.036,-0.023 9.041,4.007 9.026,9.015 z"
       fill="url(#paint6_linear_53_642)"
       id="path64"
       style="fill:url(#paint6_linear_53_642)" />
    <path
       d="m 134.719,234.675 -0.312,101.256 c -0.015,4.964 -3.804,9.347 -8.803,9.713 l -72.1309,5.286 c -5.4493,0.399 -10.122,-3.578 -10.122,-8.801 l 0.014,-106.544 c 0.0013,-4.945 4.059,-9.025 9.078,-9.519 0.3208,-0.032 0.7588,-0.044 1.0873,-0.045 l 72.4086,-0.346 c 5.017,-0.023 8.796,4 8.78,9 z"
       fill="url(#paint7_linear_53_642)"
       id="path66"
       style="fill:url(#paint7_linear_53_642)" />
    <g
       opacity="0.3"
       id="g72">
      <path
         d="m 134.719,234.531 -0.077,25.45 -91.2797,2.236 0.0038,-26.782 c 0.0013,-4.827 3.8731,-8.755 8.7228,-9.402 0.4342,-0.059 0.9918,-0.008 1.4426,-0.011 l 72.4085,-0.346 c 5.016,-0.025 8.794,3.855 8.779,8.855 z"
         fill="url(#paint8_linear_53_642)"
         id="path68"
         style="fill:url(#paint8_linear_53_642)" />
      <path
         d="m 134.666,252.16 -0.033,10.575 c -9.038,2.777 -25.567,4.919 -44.3681,5.455 -8.2491,0.234 -16.1914,0.14 -23.3431,-0.236 -9.4841,-0.499 -17.457,-1.492 -23.5595,-2.838 l 0.0013,-11.128 c 2.2943,-0.561 4.404,-1.082 6.911,-1.571 5.4608,-1.064 12.0535,-1.952 19.2841,-2.592 6.4806,-0.576 13.5393,-0.951 20.845,-1.08 9.4396,-0.165 18.2443,0.1 25.8413,0.703 0.592,0.046 1.183,0.095 1.759,0.146 1.824,0.161 3.576,0.342 5.242,0.542 0.591,0.07 1.172,0.142 1.741,0.219 1.309,0.173 2.435,0.359 3.628,0.556 2.29,0.374 4.322,0.792 6.051,1.249 z"
         fill="url(#paint9_linear_53_642)"
         id="path70"
         style="fill:url(#paint9_linear_53_642)" />
    </g>
    <path
       d="m 130.154,254.575 c -0.004,1.511 -1.234,2.764 -2.748,2.8 l -74.9515,1.716 c -1.65,0.038 -2.9882,-1.213 -2.9882,-2.795 l 0.0064,-17.919 c 0,-1.582 1.3407,-2.88 2.992,-2.896 l 75.0053,-0.748 c 1.515,-0.015 2.737,1.2 2.733,2.714 z"
       fill="#ffffff"
       id="path74" />
    <path
       d="m 128.416,254.23 c -0.003,0.956 -0.781,1.747 -1.738,1.768 l -74.5645,1.648 c -1.0415,0.023 -1.8869,-0.768 -1.8869,-1.766 l 0.0063,-17.84 c 0,-1 0.8467,-1.818 1.8895,-1.83 l 74.6126,-0.773 c 0.958,-0.01 1.732,0.758 1.729,1.714 z"
       fill="#f4f7fa"
       id="path76" />
    <g
       opacity="0.3"
       id="g82">
      <path
         d="m 117.936,244.05 c -0.002,0.472 -0.389,0.78 -0.863,0.787 h -0.04 c -0.476,0.005 -0.862,-0.287 -0.861,-0.761 l 0.009,-3.514 c 0.002,-0.473 0.389,-0.828 0.865,-0.835 h 0.039 c 0.476,-0.006 0.861,0.34 0.86,0.814 z"
         fill="url(#paint10_linear_53_642)"
         id="path78"
         style="fill:url(#paint10_linear_53_642)" />
      <path
         d="m 124.956,243.957 c -0.001,0.471 -0.384,0.792 -0.856,0.797 h -0.04 c -0.472,0.005 -0.854,-0.301 -0.853,-0.772 l 0.01,-3.51 c 0.001,-0.471 0.386,-0.837 0.858,-0.843 h 0.04 c 0.472,-0.006 0.854,0.349 0.853,0.82 z"
         fill="url(#paint11_linear_53_642)"
         id="path80"
         style="fill:url(#paint11_linear_53_642)" />
    </g>
    <path
       opacity="0.3"
       d="m 117.917,251.914 c -0.002,0.473 -0.389,0.948 -0.864,0.951 h -0.039 c -0.476,0.004 -0.861,-0.444 -0.861,-0.916 l 0.009,-3.616 c 10e-4,-0.474 0.389,-0.937 0.865,-0.942 h 0.039 c 0.476,-0.005 0.861,0.439 0.86,0.911 z"
       fill="url(#paint12_linear_53_642)"
       id="path84"
       style="fill:url(#paint12_linear_53_642)" />
    <path
       opacity="0.3"
       d="m 124.934,251.817 c -10e-4,0.472 -0.384,0.619 -0.856,0.988 h -0.04 c -0.472,0.004 -0.854,-0.483 -0.853,-0.954 l 0.01,-3.782 c 0.002,-0.471 0.386,-1.114 0.858,-1.119 h 0.04 c 0.472,-0.005 0.853,0.619 0.852,1.089 z"
       fill="url(#paint13_linear_53_642)"
       id="path86"
       style="fill:url(#paint13_linear_53_642)" />
    <path
       opacity="0.3"
       d="m 123.226,245.793 c 0,0.471 -0.397,0.862 -0.871,0.87 l -3.376,0.06 c -0.475,0.008 -0.683,-0.368 -0.683,-0.84 v -0.039 c 0,-0.473 0.205,-0.862 0.68,-0.869 l 3.474,-0.058 c 0.473,-0.008 0.774,0.365 0.774,0.837 v 0.039 z"
       fill="url(#paint14_linear_53_642)"
       id="path88"
       style="fill:url(#paint14_linear_53_642)" />
    <path
       opacity="0.3"
       d="m 123.226,238.459 c 0,0.471 -0.387,0.86 -0.86,0.867 l -3.382,0.044 c -0.475,0.007 -0.686,-0.371 -0.686,-0.845 v -0.04 c 0,-0.472 0.214,-0.859 0.69,-0.864 l 3.469,-0.043 c 0.474,-0.005 0.769,0.37 0.769,0.841 z"
       fill="url(#paint15_linear_53_642)"
       id="path90"
       style="fill:url(#paint15_linear_53_642)" />
    <path
       opacity="0.3"
       d="m 123.226,253.473 c 0,0.471 -0.407,0.863 -0.881,0.873 l -3.56,0.074 c -0.475,0.01 -0.866,-0.365 -0.866,-0.838 v -0.039 c 0,-0.473 0.385,-0.861 0.86,-0.87 l 3.572,-0.073 c 0.473,-0.008 0.875,0.363 0.875,0.834 z"
       fill="url(#paint16_linear_53_642)"
       id="path92"
       style="fill:url(#paint16_linear_53_642)" />
    <g
       opacity="0.3"
       id="g98">
      <path
         d="m 105.936,244.05 c -0.002,0.472 -0.389,0.78 -0.863,0.787 h -0.04 c -0.476,0.005 -0.862,-0.287 -0.861,-0.761 l 0.009,-3.514 c 0.002,-0.473 0.389,-0.828 0.865,-0.835 h 0.039 c 0.476,-0.006 0.861,0.34 0.86,0.814 z"
         fill="url(#paint17_linear_53_642)"
         id="path94"
         style="fill:url(#paint17_linear_53_642)" />
      <path
         d="m 112.956,243.957 c -0.001,0.471 -0.384,0.792 -0.856,0.797 h -0.04 c -0.472,0.005 -0.854,-0.301 -0.853,-0.772 l 0.01,-3.51 c 0.001,-0.471 0.386,-0.837 0.858,-0.843 h 0.04 c 0.472,-0.006 0.854,0.349 0.853,0.82 z"
         fill="url(#paint18_linear_53_642)"
         id="path96"
         style="fill:url(#paint18_linear_53_642)" />
    </g>
    <path
       opacity="0.3"
       d="m 105.917,251.914 c -0.002,0.473 -0.389,0.948 -0.864,0.951 h -0.039 c -0.476,0.004 -0.861,-0.444 -0.861,-0.916 l 0.009,-3.616 c 10e-4,-0.474 0.389,-0.937 0.865,-0.942 h 0.039 c 0.476,-0.005 0.861,0.439 0.86,0.911 z"
       fill="url(#paint19_linear_53_642)"
       id="path100"
       style="fill:url(#paint19_linear_53_642)" />
    <path
       opacity="0.3"
       d="m 112.934,251.817 c -10e-4,0.472 -0.384,0.619 -0.856,0.988 h -0.04 c -0.472,0.004 -0.854,-0.483 -0.853,-0.954 l 0.01,-3.782 c 0.002,-0.471 0.386,-1.114 0.858,-1.119 h 0.04 c 0.472,-0.005 0.853,0.619 0.852,1.089 z"
       fill="url(#paint20_linear_53_642)"
       id="path102"
       style="fill:url(#paint20_linear_53_642)" />
    <path
       opacity="0.3"
       d="m 111.226,245.793 c 0,0.471 -0.397,0.862 -0.871,0.87 l -3.376,0.06 c -0.475,0.008 -0.683,-0.368 -0.683,-0.84 v -0.039 c 0,-0.473 0.205,-0.862 0.68,-0.869 l 3.474,-0.058 c 0.473,-0.008 0.774,0.365 0.774,0.837 v 0.039 z"
       fill="url(#paint21_linear_53_642)"
       id="path104"
       style="fill:url(#paint21_linear_53_642)" />
    <path
       opacity="0.3"
       d="m 111.226,238.459 c 0,0.471 -0.387,0.86 -0.86,0.867 l -3.382,0.044 c -0.475,0.007 -0.686,-0.371 -0.686,-0.845 v -0.04 c 0,-0.472 0.214,-0.859 0.69,-0.864 l 3.469,-0.043 c 0.474,-0.005 0.769,0.37 0.769,0.841 z"
       fill="url(#paint22_linear_53_642)"
       id="path106"
       style="fill:url(#paint22_linear_53_642)" />
    <path
       opacity="0.3"
       d="m 111.226,253.473 c 0,0.471 -0.407,0.863 -0.881,0.873 l -3.56,0.074 c -0.475,0.01 -0.866,-0.365 -0.866,-0.838 v -0.039 c 0,-0.473 0.385,-0.861 0.86,-0.87 l 3.572,-0.073 c 0.473,-0.008 0.875,0.363 0.875,0.834 z"
       fill="url(#paint23_linear_53_642)"
       id="path108"
       style="fill:url(#paint23_linear_53_642)" />
    <g
       opacity="0.3"
       id="g114">
      <path
         d="m 93.9358,244.05 c -0.0013,0.472 -0.3884,0.78 -0.8633,0.787 h -0.0394 c -0.4762,0.005 -0.862,-0.287 -0.8607,-0.761 l 0.0089,-3.514 c 0.0012,-0.473 0.3883,-0.828 0.8645,-0.835 h 0.0395 c 0.4761,-0.006 0.8606,0.34 0.8594,0.814 z"
         fill="url(#paint24_linear_53_642)"
         id="path110"
         style="fill:url(#paint24_linear_53_642)" />
      <path
         d="m 100.956,243.957 c -0.001,0.471 -0.384,0.792 -0.856,0.797 h -0.04 c -0.4723,0.005 -0.8542,-0.301 -0.853,-0.772 l 0.0102,-3.51 c 0.0013,-0.471 0.3858,-0.837 0.8578,-0.843 h 0.04 c 0.472,-0.006 0.854,0.349 0.853,0.82 z"
         fill="url(#paint25_linear_53_642)"
         id="path112"
         style="fill:url(#paint25_linear_53_642)" />
    </g>
    <path
       opacity="0.3"
       d="m 93.9167,251.914 c -0.0013,0.473 -0.3883,0.948 -0.8632,0.951 H 93.014 c -0.4762,0.004 -0.8607,-0.444 -0.8607,-0.916 l 0.0089,-3.616 c 0.0013,-0.474 0.3884,-0.937 0.8645,-0.942 h 0.0395 c 0.4762,-0.005 0.8607,0.439 0.8594,0.911 z"
       fill="url(#paint26_linear_53_642)"
       id="path116"
       style="fill:url(#paint26_linear_53_642)" />
    <path
       opacity="0.3"
       d="m 100.934,251.817 c -10e-4,0.472 -0.384,0.619 -0.856,0.988 h -0.04 c -0.4722,0.004 -0.8542,-0.483 -0.8529,-0.954 l 0.0102,-3.782 c 0.0012,-0.471 0.3857,-1.114 0.8577,-1.119 h 0.04 c 0.472,-0.005 0.853,0.619 0.852,1.089 z"
       fill="url(#paint27_linear_53_642)"
       id="path118"
       style="fill:url(#paint27_linear_53_642)" />
    <path
       opacity="0.3"
       d="m 99.2263,245.793 c 0,0.471 -0.3973,0.862 -0.8709,0.87 l -3.3766,0.06 c -0.4749,0.008 -0.6824,-0.368 -0.6824,-0.84 v -0.039 c 0,-0.473 0.205,-0.862 0.6799,-0.869 l 3.4733,-0.058 c 0.4736,-0.008 0.7741,0.365 0.7741,0.837 v 0.039 z"
       fill="url(#paint28_linear_53_642)"
       id="path120"
       style="fill:url(#paint28_linear_53_642)" />
    <path
       opacity="0.3"
       d="m 99.2265,238.459 c 0,0.471 -0.3871,0.86 -0.8607,0.867 l -3.3817,0.044 c -0.4749,0.007 -0.6862,-0.371 -0.6862,-0.845 v -0.04 c 0,-0.472 0.2139,-0.859 0.69,-0.864 l 3.4695,-0.043 c 0.4737,-0.005 0.7691,0.37 0.7691,0.841 z"
       fill="url(#paint29_linear_53_642)"
       id="path122"
       style="fill:url(#paint29_linear_53_642)" />
    <path
       opacity="0.3"
       d="m 99.2262,253.473 c 0,0.471 -0.4074,0.863 -0.8811,0.873 l -3.5599,0.074 c -0.4749,0.01 -0.8658,-0.365 -0.8658,-0.838 v -0.039 c 0,-0.473 0.3845,-0.861 0.8595,-0.87 l 3.5726,-0.073 c 0.4724,-0.008 0.8747,0.363 0.8747,0.834 z"
       fill="url(#paint30_linear_53_642)"
       id="path124"
       style="fill:url(#paint30_linear_53_642)" />
    <path
       opacity="0.3"
       d="m 95.8635,341.317 c -0.2967,1.669 -0.7869,3.352 -1.5215,4.936 -0.261,0.563 -0.5564,1.148 -0.8811,1.747 l -39.9878,2.929 c -5.4493,0.4 -10.122,-3.577 -10.122,-8.8 l 0.014,-106.695 c 0.0013,-4.827 3.8731,-8.836 8.7228,-9.482 0.1184,0.035 0.2928,0.071 0.4125,0.108 5.1145,1.579 10.7013,4.53 14.0435,10.055 2.0906,3.452 3.3346,7.918 3.0557,13.706 -0.0713,1.496 -0.2368,3.083 -0.522,4.764 -0.1655,0.977 -0.331,1.975 -0.5004,2.993 -0.2113,1.27 -0.4188,2.569 -0.6213,3.89 -0.3221,2.115 -0.6175,4.285 -0.8556,6.477 -0.2279,2.102 -0.3998,4.226 -0.4876,6.345 -0.0153,0.408 -0.0293,0.82 -0.0395,1.228 -0.0331,1.326 -0.0306,2.645 0.0178,3.952 0.0319,0.897 0.0853,1.785 0.1605,2.668 0.4252,4.965 1.5724,9.702 3.8743,13.836 1.7418,3.124 4.3646,5.529 7.1211,7.757 0.7283,0.587 1.4642,1.164 2.1976,1.738 2.5146,1.97 4.912,4.014 7.0472,6.302 0.0522,0.056 0.1057,0.113 0.1566,0.169 1.0339,1.12 2.0053,2.301 2.8966,3.56 0.9906,1.399 1.822,2.876 2.5171,4.414 0.2687,0.591 0.5169,1.193 0.7461,1.802 0.396,1.045 0.7372,2.118 1.0351,3.212 0.1337,0.49 0.2649,0.989 0.3897,1.493 0.0063,0.02 0.0114,0.039 0.0152,0.059 0.503,2 0.9371,4.09 1.2045,6.209 0.3616,2.868 0.4151,5.791 -0.0891,8.628 z"
       fill="#ffffff"
       id="path126" />
    <path
       d="m 66.7709,280.602 c -0.0013,1.055 -0.8875,1.941 -1.9824,1.98 l -13.3153,0.48 c -1.1115,0.04 -2.0142,-0.79 -2.0142,-1.854 l 0.0013,-4.859 c 0,-1.065 0.9027,-1.956 2.0155,-1.99 l 13.319,-0.417 c 1.095,-0.034 1.9799,0.793 1.9799,1.848 z"
       fill="url(#paint31_linear_53_642)"
       id="path128"
       style="fill:url(#paint31_linear_53_642)" />
    <path
       d="m 88.5003,279.842 c -0.0012,1.041 -0.8683,1.916 -1.9365,1.956 l -12.997,0.468 c -1.0848,0.04 -1.9646,-0.782 -1.9633,-1.832 l 0.0051,-4.801 c 0.0013,-1.052 0.8823,-1.932 1.9684,-1.966 l 12.9995,-0.406 c 1.0682,-0.033 1.9327,0.784 1.9315,1.826 z"
       fill="url(#paint32_linear_53_642)"
       id="path130"
       style="fill:url(#paint32_linear_53_642)" />
    <path
       d="m 109.003,279.125 c -0.002,1.03 -0.849,1.895 -1.893,1.933 l -12.6989,0.457 c -1.0606,0.038 -1.9187,-0.773 -1.9174,-1.812 l 0.0076,-4.745 c 0.0013,-1.039 0.8632,-1.909 1.9238,-1.943 l 12.7019,-0.397 c 1.044,-0.033 1.888,0.775 1.885,1.805 z"
       fill="url(#paint33_linear_53_642)"
       id="path132"
       style="fill:url(#paint33_linear_53_642)" />
    <path
       d="m 129.737,278.401 c -0.003,1.017 -0.832,1.872 -1.85,1.908 l -12.401,0.447 c -1.036,0.037 -1.873,-0.765 -1.871,-1.791 l 0.012,-4.689 c 0.002,-1.028 0.845,-1.887 1.88,-1.919 l 12.405,-0.387 c 1.02,-0.032 1.844,0.768 1.84,1.785 z"
       fill="url(#paint34_linear_53_642)"
       id="path134"
       style="fill:url(#paint34_linear_53_642)" />
    <path
       d="m 66.7566,296.058 c -0.0013,1.053 -0.8874,1.945 -1.9811,1.995 l -13.3089,0.593 c -1.1116,0.05 -2.013,-0.772 -2.013,-1.835 l 0.0013,-4.854 c 0,-1.064 0.9027,-1.962 2.0142,-2.006 l 13.3127,-0.529 c 1.0937,-0.044 1.9799,0.775 1.9786,1.828 z"
       fill="url(#paint35_linear_53_642)"
       id="path136"
       style="fill:url(#paint35_linear_53_642)" />
    <path
       d="m 88.4761,295.113 c -0.0013,1.04 -0.8671,1.922 -1.9353,1.97 l -12.9906,0.579 c -1.0848,0.048 -1.9633,-0.764 -1.9633,-1.814 l 0.0051,-4.797 c 0.0013,-1.05 0.8823,-1.937 1.9671,-1.981 l 12.9932,-0.517 c 1.0682,-0.042 1.9314,0.767 1.9302,1.808 z"
       fill="url(#paint36_linear_53_642)"
       id="path138"
       style="fill:url(#paint36_linear_53_642)" />
    <path
       d="m 108.969,294.222 c -0.003,1.028 -0.85,1.899 -1.892,1.946 l -12.693,0.566 c -1.0593,0.047 -1.9188,-0.757 -1.9162,-1.794 l 0.0076,-4.742 c 0.0013,-1.039 0.8633,-1.915 1.9238,-1.957 l 12.6968,-0.505 c 1.044,-0.042 1.887,0.759 1.884,1.788 z"
       fill="url(#paint37_linear_53_642)"
       id="path140"
       style="fill:url(#paint37_linear_53_642)" />
    <path
       d="m 129.693,293.319 c -0.003,1.016 -0.83,1.877 -1.85,1.923 l -12.396,0.552 c -1.035,0.046 -1.873,-0.748 -1.87,-1.773 l 0.011,-4.686 c 0.003,-1.026 0.844,-1.892 1.879,-1.932 l 12.399,-0.495 c 1.02,-0.04 1.842,0.752 1.84,1.769 z"
       fill="url(#paint38_linear_53_642)"
       id="path142"
       style="fill:url(#paint38_linear_53_642)" />
    <path
       d="m 66.7438,311.138 c -0.0013,1.051 -0.8875,1.952 -1.9799,2.009 l -13.3025,0.703 c -1.1103,0.058 -2.0117,-0.755 -2.0117,-1.817 l 0.0013,-4.85 c 0,-1.062 0.9027,-1.967 2.0129,-2.02 l 13.3064,-0.641 c 1.0937,-0.052 1.9786,0.758 1.9773,1.811 z"
       fill="url(#paint39_linear_53_642)"
       id="path144"
       style="fill:url(#paint39_linear_53_642)" />
    <path
       d="m 88.4525,310.013 c -0.0012,1.039 -0.867,1.928 -1.934,1.984 l -12.9842,0.686 c -1.0835,0.058 -1.9633,-0.746 -1.962,-1.795 l 0.0051,-4.791 c 0.0012,-1.049 0.8823,-1.943 1.9658,-1.995 l 12.988,-0.625 c 1.067,-0.051 1.9302,0.75 1.929,1.79 z"
       fill="url(#paint40_linear_53_642)"
       id="path146"
       style="fill:url(#paint40_linear_53_642)" />
    <path
       d="m 108.935,308.952 c -0.002,1.027 -0.849,1.904 -1.892,1.96 l -12.6872,0.671 c -1.0593,0.056 -1.9174,-0.739 -1.9149,-1.776 l 0.0077,-4.736 c 0.0012,-1.038 0.8632,-1.92 1.9225,-1.971 l 12.6899,-0.611 c 1.043,-0.05 1.886,0.742 1.885,1.771 z"
       fill="url(#paint41_linear_53_642)"
       id="path148"
       style="fill:url(#paint41_linear_53_642)" />
    <path
       d="m 129.651,307.878 c -0.003,1.016 -0.83,1.882 -1.849,1.937 l -12.389,0.655 c -1.034,0.055 -1.872,-0.732 -1.87,-1.757 l 0.012,-4.68 c 0.002,-1.025 0.844,-1.897 1.878,-1.947 l 12.393,-0.595 c 1.019,-0.05 1.841,0.734 1.839,1.75 z"
       fill="url(#paint42_linear_53_642)"
       id="path150"
       style="fill:url(#paint42_linear_53_642)" />
    <path
       d="m 66.7303,325.846 c -0.0013,1.05 -0.8862,1.957 -1.9799,2.023 l -13.2961,0.811 c -1.1103,0.068 -2.0105,-0.737 -2.0105,-1.798 l 0.0013,-4.845 c 0,-1.062 0.9015,-1.973 2.013,-2.035 l 13.3,-0.749 c 1.0936,-0.061 1.9773,0.741 1.976,1.793 z"
       fill="url(#paint43_linear_53_642)"
       id="path152"
       style="fill:url(#paint43_linear_53_642)" />
    <path
       d="m 88.4293,324.545 c -0.0013,1.039 -0.8671,1.932 -1.934,1.997 l -12.9779,0.792 c -1.0835,0.066 -1.962,-0.729 -1.9608,-1.778 l 0.0051,-4.788 c 0.0013,-1.049 0.8811,-1.948 1.9659,-2.009 l 12.9817,-0.731 c 1.0669,-0.06 1.9302,0.734 1.9276,1.773 z"
       fill="url(#paint44_linear_53_642)"
       id="path154"
       style="fill:url(#paint44_linear_53_642)" />
    <path
       d="m 108.904,323.317 c -0.003,1.026 -0.848,1.91 -1.891,1.974 l -12.6811,0.774 c -1.0593,0.065 -1.9162,-0.723 -1.9149,-1.76 l 0.0076,-4.732 c 0.0013,-1.037 0.8633,-1.926 1.9213,-1.985 l 12.6851,-0.713 c 1.043,-0.059 1.886,0.727 1.883,1.753 z"
       fill="url(#paint45_linear_53_642)"
       id="path156"
       style="fill:url(#paint45_linear_53_642)" />
    <path
       d="m 66.716,341.613 c -0.0013,1.051 -0.8862,1.964 -1.9786,2.039 l -13.2898,0.927 c -1.1102,0.077 -2.0104,-0.72 -2.0091,-1.779 l 0.0013,-4.841 c 0,-1.06 0.9014,-1.978 2.0116,-2.051 l 13.2936,-0.863 c 1.0925,-0.072 1.9761,0.723 1.9761,1.773 z"
       fill="url(#paint46_linear_53_642)"
       id="path158"
       style="fill:url(#paint46_linear_53_642)" />
    <path
       d="m 88.4042,340.125 c -0.0012,1.038 -0.867,1.939 -1.9327,2.013 L 73.5,343.042 c -1.0835,0.075 -1.9607,-0.712 -1.9595,-1.76 l 0.0051,-4.782 c 0.0013,-1.048 0.8811,-1.954 1.9646,-2.024 l 12.9753,-0.843 c 1.067,-0.069 1.9289,0.715 1.9277,1.753 z"
       fill="url(#paint47_linear_53_642)"
       id="path160"
       style="fill:url(#paint47_linear_53_642)" />
    <path
       d="m 108.87,338.719 c -0.003,1.025 -0.848,1.916 -1.89,1.989 l -12.6748,0.884 c -1.058,0.073 -1.9149,-0.706 -1.9136,-1.741 l 0.0076,-4.727 c 0.0013,-1.035 0.862,-1.931 1.9213,-1.999 l 12.6785,-0.824 c 1.043,-0.068 1.885,0.709 1.882,1.735 z"
       fill="url(#paint48_linear_53_642)"
       id="path162"
       style="fill:url(#paint48_linear_53_642)" />
    <path
       d="m 127.722,315.711 -12.388,0.697 c -1.034,0.058 -1.813,1.214 -1.816,2.238 l -0.006,2.634 -0.005,2.199 -0.025,9.93 -0.007,2.921 -0.005,1.908 c -0.003,1.023 0.77,1.963 1.804,1.891 l 12.379,-0.863 c 1.018,-0.072 1.908,-1.118 1.91,-2.132 l 0.005,-1.89 0.009,-2.894 0.029,-9.84 0.007,-2.18 0.007,-2.61 c 0.006,-1.013 -0.879,-2.066 -1.898,-2.009 z"
       fill="url(#paint49_linear_53_642)"
       id="path164"
       style="fill:url(#paint49_linear_53_642)" />
    <path
       d="m 67.5156,280.577 c -0.0012,1.054 -0.8874,1.939 -1.9811,1.978 l -13.3051,0.479 c -1.1115,0.04 -2.0116,-0.789 -2.0116,-1.854 l 0.0012,-4.857 c 0,-1.064 0.9028,-1.954 2.0143,-1.99 l 13.3076,-0.416 c 1.0937,-0.035 1.9786,0.793 1.9773,1.846 z"
       fill="url(#paint50_linear_53_642)"
       id="path166"
       style="fill:url(#paint50_linear_53_642)" />
    <path
       d="m 88.5008,279.842 c -0.0012,1.041 -0.8683,1.916 -1.9365,1.956 l -12.997,0.468 c -1.0848,0.04 -1.9646,-0.782 -1.9633,-1.832 l 0.0051,-4.801 c 0.0013,-1.052 0.8823,-1.932 1.9684,-1.966 l 12.9995,-0.406 c 1.0682,-0.033 1.9327,0.784 1.9315,1.826 z"
       fill="url(#paint51_linear_53_642)"
       id="path168"
       style="fill:url(#paint51_linear_53_642)" />
    <path
       d="m 109.714,279.101 c -0.003,1.029 -0.849,1.893 -1.892,1.932 l -12.689,0.457 c -1.0593,0.038 -1.9175,-0.773 -1.9162,-1.812 l 0.0076,-4.744 c 0.0013,-1.039 0.8633,-1.909 1.9226,-1.942 l 12.691,-0.396 c 1.043,-0.033 1.887,0.776 1.885,1.806 z"
       fill="url(#paint52_linear_53_642)"
       id="path170"
       style="fill:url(#paint52_linear_53_642)" />
    <path
       d="m 130.431,278.377 c -0.002,1.017 -0.83,1.871 -1.848,1.908 l -12.391,0.447 c -1.034,0.037 -1.872,-0.765 -1.869,-1.791 l 0.011,-4.688 c 0.003,-1.026 0.844,-1.886 1.879,-1.918 l 12.395,-0.387 c 1.019,-0.032 1.843,0.768 1.839,1.785 z"
       fill="url(#paint53_linear_53_642)"
       id="path172"
       style="fill:url(#paint53_linear_53_642)" />
    <path
       d="m 67.5016,296.025 c -0.0013,1.053 -0.8875,1.945 -1.9799,1.993 l -13.2974,0.593 c -1.1103,0.049 -2.0117,-0.772 -2.0104,-1.835 l 0.0012,-4.852 c 0,-1.064 0.9028,-1.961 2.013,-2.006 l 13.3013,-0.529 c 1.0936,-0.044 1.9773,0.775 1.9773,1.828 z"
       fill="url(#paint54_linear_53_642)"
       id="path174"
       style="fill:url(#paint54_linear_53_642)" />
    <path
       d="m 88.4761,295.113 c -0.0013,1.04 -0.8671,1.922 -1.9353,1.97 l -12.9906,0.579 c -1.0848,0.048 -1.9633,-0.764 -1.9633,-1.814 l 0.0051,-4.797 c 0.0013,-1.05 0.8823,-1.937 1.9671,-1.981 l 12.9932,-0.517 c 1.0682,-0.042 1.9314,0.767 1.9302,1.808 z"
       fill="url(#paint55_linear_53_642)"
       id="path176"
       style="fill:url(#paint55_linear_53_642)" />
    <path
       d="m 109.68,294.19 c -0.002,1.029 -0.847,1.9 -1.89,1.946 l -12.6827,0.565 c -1.0593,0.047 -1.9162,-0.756 -1.9149,-1.794 L 93.2,290.168 c 0.0013,-1.038 0.8633,-1.914 1.9213,-1.956 l 12.6867,-0.504 c 1.042,-0.042 1.885,0.759 1.883,1.788 z"
       fill="url(#paint56_linear_53_642)"
       id="path178"
       style="fill:url(#paint56_linear_53_642)" />
    <path
       d="m 130.387,293.29 c -0.003,1.016 -0.83,1.876 -1.849,1.921 l -12.386,0.551 c -1.034,0.046 -1.871,-0.747 -1.869,-1.773 l 0.012,-4.683 c 0.002,-1.026 0.844,-1.891 1.878,-1.932 l 12.388,-0.492 c 1.019,-0.041 1.841,0.751 1.839,1.767 z"
       fill="url(#paint57_linear_53_642)"
       id="path180"
       style="fill:url(#paint57_linear_53_642)" />
    <path
       d="m 67.4876,311.1 c -0.0013,1.051 -0.8862,1.95 -1.9786,2.009 l -13.2911,0.702 c -1.1102,0.059 -2.0104,-0.753 -2.0104,-1.815 l 0.0013,-4.849 c 0,-1.061 0.9014,-1.965 2.0117,-2.019 l 13.2949,-0.64 c 1.0924,-0.052 1.9773,0.757 1.976,1.809 z"
       fill="url(#paint58_linear_53_642)"
       id="path182"
       style="fill:url(#paint58_linear_53_642)" />
    <path
       d="m 88.452,310.013 c -0.0012,1.039 -0.867,1.928 -1.934,1.984 l -12.9842,0.686 c -1.0835,0.058 -1.9633,-0.746 -1.962,-1.795 l 0.0051,-4.791 c 0.0012,-1.049 0.8823,-1.943 1.9658,-1.995 l 12.9881,-0.625 c 1.0669,-0.051 1.9302,0.75 1.9289,1.79 z"
       fill="url(#paint59_linear_53_642)"
       id="path184"
       style="fill:url(#paint59_linear_53_642)" />
    <path
       d="m 109.646,308.915 c -0.003,1.027 -0.848,1.904 -1.891,1.959 l -12.6758,0.671 c -1.0581,0.056 -1.9162,-0.738 -1.9137,-1.776 l 0.0077,-4.734 c 0.0013,-1.038 0.8619,-1.919 1.9213,-1.97 l 12.6795,-0.609 c 1.043,-0.05 1.885,0.742 1.882,1.769 z"
       fill="url(#paint60_linear_53_642)"
       id="path186"
       style="fill:url(#paint60_linear_53_642)" />
    <path
       d="m 130.344,307.841 c -0.002,1.015 -0.83,1.882 -1.847,1.935 l -12.381,0.655 c -1.034,0.055 -1.87,-0.731 -1.867,-1.756 l 0.011,-4.679 c 0.003,-1.025 0.843,-1.896 1.877,-1.945 l 12.383,-0.596 c 1.019,-0.049 1.84,0.734 1.837,1.75 z"
       fill="url(#paint61_linear_53_642)"
       id="path188"
       style="fill:url(#paint61_linear_53_642)" />
    <path
       d="m 67.4747,325.801 c -0.0012,1.051 -0.8861,1.956 -1.9773,2.023 l -13.2847,0.811 c -1.1089,0.068 -2.0091,-0.737 -2.0091,-1.797 l 0.0013,-4.844 c 0,-1.06 0.9014,-1.972 2.0104,-2.034 l 13.2885,-0.748 c 1.0924,-0.061 1.976,0.741 1.9748,1.792 z"
       fill="url(#paint62_linear_53_642)"
       id="path190"
       style="fill:url(#paint62_linear_53_642)" />
    <path
       d="m 88.4293,324.545 c -0.0013,1.039 -0.8671,1.932 -1.934,1.997 l -12.9779,0.792 c -1.0835,0.066 -1.962,-0.729 -1.9608,-1.778 l 0.0051,-4.788 c 0.0013,-1.049 0.8811,-1.948 1.9659,-2.009 l 12.9817,-0.731 c 1.0669,-0.06 1.9302,0.734 1.9276,1.773 z"
       fill="url(#paint63_linear_53_642)"
       id="path192"
       style="fill:url(#paint63_linear_53_642)" />
    <path
       d="m 109.614,323.275 c -0.002,1.026 -0.848,1.91 -1.889,1.974 l -12.6712,0.773 c -1.0581,0.064 -1.9149,-0.724 -1.9137,-1.759 l 0.0077,-4.73 c 0.0013,-1.036 0.8619,-1.924 1.92,-1.983 l 12.6752,-0.713 c 1.041,-0.059 1.884,0.725 1.881,1.753 z"
       fill="url(#paint64_linear_53_642)"
       id="path194"
       style="fill:url(#paint64_linear_53_642)" />
    <path
       d="m 67.4593,341.562 c -0.0013,1.049 -0.8849,1.962 -1.9773,2.039 l -13.2783,0.925 c -1.109,0.078 -2.0079,-0.719 -2.0079,-1.778 l 0.0013,-4.838 c 0,-1.06 0.9001,-1.978 2.0104,-2.05 l 13.2821,-0.864 c 1.0912,-0.071 1.9748,0.724 1.9735,1.773 z"
       fill="url(#paint65_linear_53_642)"
       id="path196"
       style="fill:url(#paint65_linear_53_642)" />
    <path
       d="m 88.4038,340.125 c -0.0013,1.038 -0.8671,1.939 -1.9328,2.013 l -12.9715,0.904 c -1.0835,0.075 -1.9607,-0.712 -1.9595,-1.76 l 0.0051,-4.782 c 0.0013,-1.048 0.8811,-1.954 1.9646,-2.024 l 12.9753,-0.843 c 1.067,-0.069 1.9289,0.715 1.9277,1.753 z"
       fill="url(#paint66_linear_53_642)"
       id="path198"
       style="fill:url(#paint66_linear_53_642)" />
    <path
       d="m 109.579,338.671 c -0.003,1.025 -0.848,1.915 -1.888,1.987 l -12.6649,0.883 c -1.0567,0.073 -1.9136,-0.706 -1.9123,-1.741 l 0.0076,-4.725 c 0.0013,-1.035 0.862,-1.93 1.9187,-1.999 l 12.6689,-0.822 c 1.041,-0.068 1.883,0.709 1.88,1.734 z"
       fill="url(#paint67_linear_53_642)"
       id="path200"
       style="fill:url(#paint67_linear_53_642)" />
    <path
       d="m 128.442,315.672 -12.378,0.696 c -1.034,0.059 -1.837,1.215 -1.838,2.24 l -0.007,2.633 -0.005,2.199 -0.024,9.926 -0.008,2.919 -0.005,1.907 c -0.002,1.023 0.796,1.961 1.827,1.888 l 12.37,-0.862 c 1.017,-0.071 1.88,-1.115 1.883,-2.128 l 0.005,-1.89 0.009,-2.893 0.029,-9.835 0.006,-2.179 0.008,-2.608 c 0.004,-1.018 -0.854,-2.071 -1.872,-2.013 z"
       fill="url(#paint68_linear_53_642)"
       id="path202"
       style="fill:url(#paint68_linear_53_642)" />
    <path
       d="m 114.258,96.5095 c 0,20.8065 -16.2279,37.1145 -37.0347,36.4725 -21.6101,-0.643 -39.7658,-19.281 -39.7658,-41.614 0,-22.3331 18.1557,-38.5607 39.7658,-36.3114 20.8068,2.1691 37.0347,20.7265 37.0347,41.4529 z"
       fill="url(#paint69_linear_53_642)"
       id="path204"
       style="fill:url(#paint69_linear_53_642)" />
    <path
       d="m 119.881,94.7423 c 0,20.8067 -16.227,37.1147 -37.0341,36.4717 -21.6101,-0.642 -39.7658,-19.28 -39.7658,-41.6935 0,-22.4134 18.1557,-38.5607 39.7658,-36.3114 20.8071,2.2494 37.0341,20.7265 37.0341,41.5332 z"
       fill="url(#paint70_linear_53_642)"
       id="path206"
       style="fill:url(#paint70_linear_53_642)" />
    <path
       d="m 118.274,94.6621 c 0,19.8429 -15.585,35.4279 -35.3471,34.7849 -20.6461,-0.643 -37.9181,-18.477 -37.9181,-39.7657 0,-21.2887 17.272,-36.7934 37.9181,-34.6243 19.7621,2.0084 35.3471,19.682 35.3471,39.6051 z"
       fill="url(#paint71_linear_53_642)"
       id="path208"
       style="fill:url(#paint71_linear_53_642)" />
    <path
       d="m 117.069,94.5813 c 0,19.1997 -15.023,34.3027 -34.2226,33.6607 -19.8428,-0.723 -36.5525,-17.915 -36.5525,-38.4808 0,-20.4854 16.7097,-35.508 36.5525,-33.4193 19.1996,1.928 34.2226,18.9591 34.2226,38.2394 z"
       fill="url(#paint72_linear_53_642)"
       id="path210"
       style="fill:url(#paint72_linear_53_642)" />
    <path
       d="m 70.0737,81.0853 c -0.0804,-3.133 -0.241,-6.2661 -0.3214,-9.4795 -0.0803,-2.3297 1.3657,-3.7757 3.6954,-3.6954 4.7398,0.1607 9.3992,0.241 14.139,0.482 3.6954,0.1607 7.0695,1.205 10.0419,3.7758 2.3297,2.0887 3.7754,4.7397 4.5794,7.6318 1.205,4.4184 1.044,8.6762 -0.884,12.6929 -1.8477,3.7757 -5.0611,5.8645 -9.2386,6.5875 -1.205,0.241 -2.4903,0.241 -3.7757,0.241 C 85.0963,99.241 81.8829,99.1607 78.6695,99 c -0.5623,0 -0.723,0.0804 -0.6427,0.6427 0.241,5.2213 0.4017,10.4433 0.5624,15.7453 0.0803,1.527 -0.6427,2.651 -1.9281,3.214 -1.2853,0.642 -2.651,0.401 -3.856,-0.563 -0.9641,-0.723 -1.4461,-1.687 -1.4461,-2.892 -0.0803,-1.687 -0.1606,-3.374 -0.1606,-4.98 0,-0.402 -0.1607,-0.563 -0.5624,-0.563 -1.0443,0 -2.0887,-0.08 -3.1331,-0.08 -2.0083,-0.08 -3.6954,-1.767 -3.7757,-3.776 -0.0803,-2.008 1.446,-3.615 3.5347,-3.535 1.0444,0 2.0887,0.081 3.2134,0.081 0.3214,0 0.482,-0.081 0.4017,-0.402 -0.0803,-0.964 -0.0803,-1.848 -0.0803,-2.8116 0,-0.3214 -0.0804,-0.4017 -0.4017,-0.4017 -1.0444,0 -2.0887,-0.0803 -3.2134,-0.0803 -2.0887,-0.0804 -3.7757,-1.7674 -3.7757,-3.7758 -0.0804,-2.0887 1.446,-3.6151 3.5347,-3.5347 1.0444,0 2.0084,0.0803 3.0527,0.0803 0.482,0 0.482,-0.0803 0.482,-0.5623 -0.1606,-3.1331 -0.3213,-6.4268 -0.4016,-9.7206 z m 7.3104,2.4101 c 0.0804,2.4904 0.241,4.9808 0.241,7.5515 0,0.6427 0.2411,0.723 0.7231,0.723 2.0083,0 4.0167,0.1607 5.9447,0.1607 1.8478,0 3.6955,0.241 5.4628,0.0803 2.7314,-0.1607 4.7398,-1.7674 5.3825,-4.4184 0.482,-1.8477 0.482,-3.6954 0.0803,-5.6235 -0.3213,-1.5263 -0.8837,-2.9724 -1.928,-4.0971 -1.5264,-1.6067 -3.4544,-2.0887 -5.4628,-2.2493 -3.3741,-0.1607 -6.8285,-0.241 -10.2026,-0.3214 -0.482,0 -0.5623,0.1607 -0.5623,0.5624 0.1607,2.5707 0.241,5.0611 0.3213,7.6318 z"
       fill="url(#paint73_linear_53_642)"
       id="path212"
       style="fill:url(#paint73_linear_53_642)" />
    <path
       d="m 88.3912,110.247 c -1.5264,-0.081 -2.9724,-0.081 -4.4988,-0.161 -2.0887,-0.08 -3.7757,-1.767 -3.7757,-3.776 -0.0804,-2.008 1.5263,-3.535 3.5347,-3.454 2.9724,0.08 5.9448,0.16 8.9975,0.321 2.0887,0.08 3.7758,1.687 3.8561,3.776 0.0803,2.008 -1.446,3.615 -3.6151,3.535 -1.5263,-0.161 -2.9724,-0.161 -4.4987,-0.241 z"
       fill="url(#paint74_linear_53_642)"
       id="path214"
       style="fill:url(#paint74_linear_53_642)" />
    <path
       opacity="0.3"
       d="M 76.6606,99.2409 C 77.7852,87.8334 88.3091,83.0133 86.9434,72.4894 86.0597,65.9822 81.1593,60.5195 75.6965,56.2617 59.1475,58.0291 46.2939,71.7664 46.2939,89.7614 c 0,20.5656 16.7097,37.7576 36.5525,38.4006 1.928,0.08 3.856,-0.001 5.6234,-0.242 C 80.597,120.048 75.6965,109.042 76.6606,99.2409 Z"
       fill="url(#paint75_linear_53_642)"
       id="path216"
       style="fill:url(#paint75_linear_53_642)" />
    <path
       d="m 107.818,181.896 c 0,17.165 -13.3878,30.619 -30.5535,30.089 -17.8284,-0.53 -32.807,-15.906 -32.807,-34.331 0,-18.425 14.9786,-31.813 32.807,-29.957 17.1657,1.789 30.5535,17.099 30.5535,34.199 z"
       fill="url(#paint76_linear_53_642)"
       id="path218"
       style="fill:url(#paint76_linear_53_642)" />
    <path
       d="m 112.458,180.438 c 0,17.165 -13.3882,30.619 -30.5539,30.089 -17.8284,-0.53 -32.8069,-15.906 -32.8069,-34.397 0,-18.492 14.9785,-31.813 32.8069,-29.957 17.1657,1.855 30.5539,17.099 30.5539,34.265 z"
       fill="url(#paint77_linear_53_642)"
       id="path220"
       style="fill:url(#paint77_linear_53_642)" />
    <path
       d="m 111.132,180.372 c 0,16.37 -12.8578,29.228 -29.1619,28.697 -17.0331,-0.53 -31.2826,-15.243 -31.2826,-32.807 0,-17.563 14.2495,-30.354 31.2826,-28.565 16.3041,1.657 29.1619,16.238 29.1619,32.675 z"
       fill="url(#paint78_linear_53_642)"
       id="path222"
       style="fill:url(#paint78_linear_53_642)" />
    <path
       d="m 110.137,180.305 c 0,15.84 -12.3934,28.3 -28.2335,27.77 -16.3704,-0.597 -30.1559,-14.78 -30.1559,-31.747 0,-16.9 13.7855,-29.294 30.1559,-27.571 15.8401,1.591 28.2335,15.641 28.2335,31.548 z"
       fill="url(#paint79_linear_53_642)"
       id="path224"
       style="fill:url(#paint79_linear_53_642)" />
    <path
       d="m 71.3663,169.171 c -0.0663,-2.585 -0.1989,-5.17 -0.2651,-7.821 -0.0663,-1.922 1.1267,-3.115 3.0487,-3.049 3.9103,0.133 7.7544,0.199 11.6647,0.398 3.0487,0.132 5.8323,0.994 8.2846,3.115 1.922,1.723 3.115,3.91 3.7777,6.296 0.9942,3.645 0.8616,7.158 -0.729,10.472 -1.5244,3.115 -4.1754,4.838 -7.6218,5.435 -0.9942,0.198 -2.0546,0.198 -3.115,0.198 -2.6511,-0.066 -5.3022,-0.132 -7.9532,-0.265 -0.464,0 -0.5965,0.067 -0.5302,0.531 0.1988,4.308 0.3313,8.615 0.4639,12.99 0.0663,1.259 -0.5302,2.187 -1.5906,2.651 -1.0605,0.53 -2.1872,0.331 -3.1813,-0.464 -0.7954,-0.597 -1.193,-1.392 -1.193,-2.386 -0.0663,-1.392 -0.1326,-2.784 -0.1326,-4.109 0,-0.332 -0.1325,-0.464 -0.4639,-0.464 -0.8616,0 -1.7232,-0.066 -2.5848,-0.066 -1.6569,-0.067 -3.0487,-1.459 -3.115,-3.115 -0.0663,-1.657 1.193,-2.983 2.9162,-2.917 0.8616,0 1.7232,0.067 2.651,0.067 0.2651,0 0.3977,-0.067 0.3314,-0.332 -0.0663,-0.795 -0.0662,-1.524 -0.0662,-2.319 0,-0.266 -0.0663,-0.332 -0.3314,-0.332 -0.8616,0 -1.7232,-0.066 -2.6511,-0.066 -1.7232,-0.066 -3.115,-1.458 -3.115,-3.115 -0.0663,-1.723 1.193,-2.983 2.9162,-2.916 0.8616,0 1.6569,0.066 2.5185,0.066 0.3976,0 0.3976,-0.066 0.3976,-0.464 -0.1325,-2.585 -0.2651,-5.302 -0.3313,-8.019 z m 6.0311,1.988 c 0.0663,2.054 0.1989,4.109 0.1989,6.23 0,0.53 0.1988,0.596 0.5965,0.596 1.6569,0 3.3138,0.133 4.9044,0.133 1.5244,0 3.0488,0.199 4.5069,0.066 2.2534,-0.132 3.9103,-1.458 4.4405,-3.645 0.3977,-1.524 0.3977,-3.049 0.0663,-4.639 -0.2651,-1.26 -0.7291,-2.453 -1.5907,-3.38 -1.2592,-1.326 -2.8499,-1.724 -4.5068,-1.856 -2.7836,-0.133 -5.6335,-0.199 -8.4171,-0.265 -0.3977,0 -0.464,0.132 -0.464,0.464 0.1326,2.12 0.1989,4.175 0.2651,6.296 z"
       fill="url(#paint80_linear_53_642)"
       id="path226"
       style="fill:url(#paint80_linear_53_642)" />
    <path
       d="m 86.4778,193.229 c -1.2592,-0.067 -2.4522,-0.067 -3.7115,-0.133 -1.7232,-0.066 -3.115,-1.458 -3.115,-3.115 -0.0663,-1.657 1.2593,-2.916 2.9162,-2.85 2.4522,0.066 4.9045,0.133 7.423,0.265 1.7232,0.067 3.115,1.392 3.1813,3.115 0.0662,1.657 -1.193,2.983 -2.9825,2.916 -1.2592,-0.132 -2.4522,-0.132 -3.7115,-0.198 z"
       fill="url(#paint81_linear_53_642)"
       id="path228"
       style="fill:url(#paint81_linear_53_642)" />
    <path
       opacity="0.3"
       d="m 76.8002,184.149 c 0.9278,-9.411 9.6101,-13.388 8.4834,-22.07 -0.7291,-5.369 -4.7719,-9.875 -9.2788,-13.388 -13.653,1.458 -24.2572,12.791 -24.2572,27.637 0,16.967 13.7855,31.15 30.1559,31.681 1.5906,0.066 3.1813,0 4.6393,-0.199 -6.4951,-6.495 -10.538,-15.575 -9.7426,-23.661 z"
       fill="url(#paint82_linear_53_642)"
       id="path230"
       style="fill:url(#paint82_linear_53_642)" />
  </g>
  <defs
     id="defs745">
    <linearGradient
       id="paint0_linear_53_642"
       x1="419.34299"
       y1="-448.28699"
       x2="277.00201"
       y2="-151.688"
       gradientUnits="userSpaceOnUse">
      <stop
         stop-color="#AA80F9"
         id="stop232" />
      <stop
         offset="0.9964"
         stop-color="#6165D7"
         id="stop234" />
    </linearGradient>
    <linearGradient
       id="paint1_linear_53_642"
       x1="50.648899"
       y1="75.662498"
       x2="121.516"
       y2="384.30701"
       gradientUnits="userSpaceOnUse">
      <stop
         stop-color="#FF9085"
         id="stop237" />
      <stop
         offset="1"
         stop-color="#FB6FBB"
         id="stop239" />
    </linearGradient>
    <linearGradient
       id="paint2_linear_53_642"
       x1="183.235"
       y1="385.12"
       x2="190.364"
       y2="316.20001"
       gradientUnits="userSpaceOnUse">
      <stop
         stop-color="#444B8C"
         id="stop242" />
      <stop
         offset="0.9964"
         stop-color="#26264F"
         id="stop244" />
    </linearGradient>
    <linearGradient
       id="paint3_linear_53_642"
       x1="133.757"
       y1="192.82201"
       x2="58.499802"
       y2="201.536"
       gradientUnits="userSpaceOnUse">
      <stop
         stop-color="#444B8C"
         id="stop247" />
      <stop
         offset="0.3946"
         stop-color="#383C74"
         id="stop249" />
      <stop
         offset="0.9964"
         stop-color="#26264F"
         id="stop251" />
    </linearGradient>
    <linearGradient
       id="paint4_linear_53_642"
       x1="20.6171"
       y1="196.94299"
       x2="326.87601"
       y2="196.94299"
       gradientUnits="userSpaceOnUse">
      <stop
         stop-color="#444B8C"
         id="stop254" />
      <stop
         offset="0.9964"
         stop-color="#26264F"
         id="stop256" />
    </linearGradient>
    <linearGradient
       id="paint5_linear_53_642"
       x1="258.54001"
       y1="60.762001"
       x2="-178.976"
       y2="702.35498"
       gradientUnits="userSpaceOnUse">
      <stop
         offset="0.00359712"
         stop-color="#E38DDD"
         id="stop259" />
      <stop
         offset="1"
         stop-color="#9571F6"
         id="stop261" />
    </linearGradient>
    <linearGradient
       id="paint6_linear_53_642"
       x1="80.640701"
       y1="495.40601"
       x2="82.904602"
       y2="326.97601"
       gradientUnits="userSpaceOnUse">
      <stop
         stop-color="#444B8C"
         id="stop264" />
      <stop
         offset="0.9964"
         stop-color="#26264F"
         id="stop266" />
    </linearGradient>
    <linearGradient
       id="paint7_linear_53_642"
       x1="86.076897"
       y1="494.79901"
       x2="88.336197"
       y2="326.71799"
       gradientUnits="userSpaceOnUse">
      <stop
         stop-color="#AA80F9"
         id="stop269" />
      <stop
         offset="0.9964"
         stop-color="#6165D7"
         id="stop271" />
    </linearGradient>
    <linearGradient
       id="paint8_linear_53_642"
       x1="43.362202"
       y1="243.946"
       x2="134.71899"
       y2="243.946"
       gradientUnits="userSpaceOnUse">
      <stop
         stop-color="#AA80F9"
         id="stop274" />
      <stop
         offset="0.9964"
         stop-color="#6165D7"
         id="stop276" />
    </linearGradient>
    <linearGradient
       id="paint9_linear_53_642"
       x1="43.361801"
       y1="258.50601"
       x2="134.66499"
       y2="258.50601"
       gradientUnits="userSpaceOnUse">
      <stop
         stop-color="#AA80F9"
         id="stop279" />
      <stop
         offset="0.9964"
         stop-color="#6165D7"
         id="stop281" />
    </linearGradient>
    <linearGradient
       id="paint10_linear_53_642"
       x1="117.278"
       y1="237.299"
       x2="116.044"
       y2="265.44299"
       gradientUnits="userSpaceOnUse">
      <stop
         stop-color="#311944"
         id="stop284" />
      <stop
         offset="1"
         stop-color="#A03976"
         id="stop286" />
    </linearGradient>
    <linearGradient
       id="paint11_linear_53_642"
       x1="124.306"
       y1="237.19701"
       x2="123.069"
       y2="265.418"
       gradientUnits="userSpaceOnUse">
      <stop
         stop-color="#311944"
         id="stop289" />
      <stop
         offset="1"
         stop-color="#A03976"
         id="stop291" />
    </linearGradient>
    <linearGradient
       id="paint12_linear_53_642"
       x1="117.273"
       y1="244.79201"
       x2="115.951"
       y2="274.936"
       gradientUnits="userSpaceOnUse">
      <stop
         stop-color="#311944"
         id="stop294" />
      <stop
         offset="1"
         stop-color="#A03976"
         id="stop296" />
    </linearGradient>
    <linearGradient
       id="paint13_linear_53_642"
       x1="124.318"
       y1="244.17101"
       x2="122.904"
       y2="276.41101"
       gradientUnits="userSpaceOnUse">
      <stop
         stop-color="#311944"
         id="stop299" />
      <stop
         offset="1"
         stop-color="#A03976"
         id="stop301" />
    </linearGradient>
    <linearGradient
       id="paint14_linear_53_642"
       x1="125.561"
       y1="246.032"
       x2="98.447701"
       y2="244.843"
       gradientUnits="userSpaceOnUse">
      <stop
         stop-color="#311944"
         id="stop304" />
      <stop
         offset="1"
         stop-color="#A03976"
         id="stop306" />
    </linearGradient>
    <linearGradient
       id="paint15_linear_53_642"
       x1="125.562"
       y1="238.686"
       x2="98.443497"
       y2="237.49699"
       gradientUnits="userSpaceOnUse">
      <stop
         stop-color="#311944"
         id="stop309" />
      <stop
         offset="1"
         stop-color="#A03976"
         id="stop311" />
    </linearGradient>
    <linearGradient
       id="paint16_linear_53_642"
       x1="125.739"
       y1="253.73599"
       x2="96.551697"
       y2="252.45599"
       gradientUnits="userSpaceOnUse">
      <stop
         stop-color="#311944"
         id="stop314" />
      <stop
         offset="1"
         stop-color="#A03976"
         id="stop316" />
    </linearGradient>
    <linearGradient
       id="paint17_linear_53_642"
       x1="105.278"
       y1="237.299"
       x2="104.044"
       y2="265.44299"
       gradientUnits="userSpaceOnUse">
      <stop
         stop-color="#311944"
         id="stop319" />
      <stop
         offset="1"
         stop-color="#A03976"
         id="stop321" />
    </linearGradient>
    <linearGradient
       id="paint18_linear_53_642"
       x1="112.306"
       y1="237.19701"
       x2="111.069"
       y2="265.418"
       gradientUnits="userSpaceOnUse">
      <stop
         stop-color="#311944"
         id="stop324" />
      <stop
         offset="1"
         stop-color="#A03976"
         id="stop326" />
    </linearGradient>
    <linearGradient
       id="paint19_linear_53_642"
       x1="105.273"
       y1="244.79201"
       x2="103.951"
       y2="274.936"
       gradientUnits="userSpaceOnUse">
      <stop
         stop-color="#311944"
         id="stop329" />
      <stop
         offset="1"
         stop-color="#A03976"
         id="stop331" />
    </linearGradient>
    <linearGradient
       id="paint20_linear_53_642"
       x1="112.318"
       y1="244.17101"
       x2="110.904"
       y2="276.41101"
       gradientUnits="userSpaceOnUse">
      <stop
         stop-color="#311944"
         id="stop334" />
      <stop
         offset="1"
         stop-color="#A03976"
         id="stop336" />
    </linearGradient>
    <linearGradient
       id="paint21_linear_53_642"
       x1="113.561"
       y1="246.032"
       x2="86.447701"
       y2="244.843"
       gradientUnits="userSpaceOnUse">
      <stop
         stop-color="#311944"
         id="stop339" />
      <stop
         offset="1"
         stop-color="#A03976"
         id="stop341" />
    </linearGradient>
    <linearGradient
       id="paint22_linear_53_642"
       x1="113.562"
       y1="238.686"
       x2="86.443497"
       y2="237.49699"
       gradientUnits="userSpaceOnUse">
      <stop
         stop-color="#311944"
         id="stop344" />
      <stop
         offset="1"
         stop-color="#A03976"
         id="stop346" />
    </linearGradient>
    <linearGradient
       id="paint23_linear_53_642"
       x1="113.739"
       y1="253.73599"
       x2="84.551697"
       y2="252.45599"
       gradientUnits="userSpaceOnUse">
      <stop
         stop-color="#311944"
         id="stop349" />
      <stop
         offset="1"
         stop-color="#A03976"
         id="stop351" />
    </linearGradient>
    <linearGradient
       id="paint24_linear_53_642"
       x1="93.278198"
       y1="237.299"
       x2="92.0438"
       y2="265.44299"
       gradientUnits="userSpaceOnUse">
      <stop
         stop-color="#311944"
         id="stop354" />
      <stop
         offset="1"
         stop-color="#A03976"
         id="stop356" />
    </linearGradient>
    <linearGradient
       id="paint25_linear_53_642"
       x1="100.306"
       y1="237.19701"
       x2="99.068497"
       y2="265.418"
       gradientUnits="userSpaceOnUse">
      <stop
         stop-color="#311944"
         id="stop359" />
      <stop
         offset="1"
         stop-color="#A03976"
         id="stop361" />
    </linearGradient>
    <linearGradient
       id="paint26_linear_53_642"
       x1="93.273201"
       y1="244.79201"
       x2="91.951103"
       y2="274.936"
       gradientUnits="userSpaceOnUse">
      <stop
         stop-color="#311944"
         id="stop364" />
      <stop
         offset="1"
         stop-color="#A03976"
         id="stop366" />
    </linearGradient>
    <linearGradient
       id="paint27_linear_53_642"
       x1="100.318"
       y1="244.17101"
       x2="98.904099"
       y2="276.41101"
       gradientUnits="userSpaceOnUse">
      <stop
         stop-color="#311944"
         id="stop369" />
      <stop
         offset="1"
         stop-color="#A03976"
         id="stop371" />
    </linearGradient>
    <linearGradient
       id="paint28_linear_53_642"
       x1="101.561"
       y1="246.032"
       x2="74.447701"
       y2="244.843"
       gradientUnits="userSpaceOnUse">
      <stop
         stop-color="#311944"
         id="stop374" />
      <stop
         offset="1"
         stop-color="#A03976"
         id="stop376" />
    </linearGradient>
    <linearGradient
       id="paint29_linear_53_642"
       x1="101.562"
       y1="238.686"
       x2="74.443497"
       y2="237.49699"
       gradientUnits="userSpaceOnUse">
      <stop
         stop-color="#311944"
         id="stop379" />
      <stop
         offset="1"
         stop-color="#A03976"
         id="stop381" />
    </linearGradient>
    <linearGradient
       id="paint30_linear_53_642"
       x1="101.739"
       y1="253.73599"
       x2="72.551697"
       y2="252.45599"
       gradientUnits="userSpaceOnUse">
      <stop
         stop-color="#311944"
         id="stop384" />
      <stop
         offset="1"
         stop-color="#A03976"
         id="stop386" />
    </linearGradient>
    <linearGradient
       id="paint31_linear_53_642"
       x1="135.06799"
       y1="235.666"
       x2="-6.7172098"
       y2="314.54001"
       gradientUnits="userSpaceOnUse">
      <stop
         stop-color="#444B8C"
         id="stop389" />
      <stop
         offset="0.9964"
         stop-color="#3E4177"
         id="stop391" />
    </linearGradient>
    <linearGradient
       id="paint32_linear_53_642"
       x1="138.854"
       y1="245.026"
       x2="0.136786"
       y2="322.19299"
       gradientUnits="userSpaceOnUse">
      <stop
         stop-color="#444B8C"
         id="stop394" />
      <stop
         offset="0.9964"
         stop-color="#3E4177"
         id="stop396" />
    </linearGradient>
    <linearGradient
       id="paint33_linear_53_642"
       x1="142.192"
       y1="253.98801"
       x2="6.3382502"
       y2="329.56201"
       gradientUnits="userSpaceOnUse">
      <stop
         stop-color="#444B8C"
         id="stop399" />
      <stop
         offset="0.9964"
         stop-color="#3E4177"
         id="stop401" />
    </linearGradient>
    <linearGradient
       id="paint34_linear_53_642"
       x1="146.44"
       y1="262.564"
       x2="13.4513"
       y2="336.54401"
       gradientUnits="userSpaceOnUse">
      <stop
         stop-color="#444B8C"
         id="stop404" />
      <stop
         offset="0.9964"
         stop-color="#3E4177"
         id="stop406" />
    </linearGradient>
    <linearGradient
       id="paint35_linear_53_642"
       x1="142.11301"
       y1="247.27299"
       x2="-0.134037"
       y2="326.40302"
       gradientUnits="userSpaceOnUse">
      <stop
         stop-color="#444B8C"
         id="stop409" />
      <stop
         offset="0.9964"
         stop-color="#3E4177"
         id="stop411" />
    </linearGradient>
    <linearGradient
       id="paint36_linear_53_642"
       x1="145.681"
       y1="256.561"
       x2="6.5132098"
       y2="333.98001"
       gradientUnits="userSpaceOnUse">
      <stop
         stop-color="#444B8C"
         id="stop414" />
      <stop
         offset="0.9964"
         stop-color="#3E4177"
         id="stop416" />
    </linearGradient>
    <linearGradient
       id="paint37_linear_53_642"
       x1="148.815"
       y1="265.45499"
       x2="12.5198"
       y2="341.27399"
       gradientUnits="userSpaceOnUse">
      <stop
         stop-color="#444B8C"
         id="stop419" />
      <stop
         offset="0.9964"
         stop-color="#3E4177"
         id="stop421" />
    </linearGradient>
    <linearGradient
       id="paint38_linear_53_642"
       x1="152.862"
       y1="273.95901"
       x2="19.4408"
       y2="348.17999"
       gradientUnits="userSpaceOnUse">
      <stop
         stop-color="#444B8C"
         id="stop424" />
      <stop
         offset="0.9964"
         stop-color="#3E4177"
         id="stop426" />
    </linearGradient>
    <linearGradient
       id="paint39_linear_53_642"
       x1="149.194"
       y1="258.483"
       x2="6.4976702"
       y2="337.86401"
       gradientUnits="userSpaceOnUse">
      <stop
         stop-color="#444B8C"
         id="stop429" />
      <stop
         offset="0.9964"
         stop-color="#3E4177"
         id="stop431" />
    </linearGradient>
    <linearGradient
       id="paint40_linear_53_642"
       x1="152.547"
       y1="267.70401"
       x2="12.9394"
       y2="345.367"
       gradientUnits="userSpaceOnUse">
      <stop
         stop-color="#444B8C"
         id="stop434" />
      <stop
         offset="0.9964"
         stop-color="#3E4177"
         id="stop436" />
    </linearGradient>
    <linearGradient
       id="paint41_linear_53_642"
       x1="155.47701"
       y1="276.53299"
       x2="18.751499"
       y2="352.59299"
       gradientUnits="userSpaceOnUse">
      <stop
         stop-color="#444B8C"
         id="stop439" />
      <stop
         offset="0.9964"
         stop-color="#3E4177"
         id="stop441" />
    </linearGradient>
    <linearGradient
       id="paint42_linear_53_642"
       x1="159.323"
       y1="284.97"
       x2="25.480801"
       y2="359.42499"
       gradientUnits="userSpaceOnUse">
      <stop
         stop-color="#444B8C"
         id="stop444" />
      <stop
         offset="0.9964"
         stop-color="#3E4177"
         id="stop446" />
    </linearGradient>
    <linearGradient
       id="paint43_linear_53_642"
       x1="156.311"
       y1="269.29901"
       x2="13.1768"
       y2="348.92401"
       gradientUnits="userSpaceOnUse">
      <stop
         stop-color="#444B8C"
         id="stop449" />
      <stop
         offset="0.9964"
         stop-color="#3E4177"
         id="stop451" />
    </linearGradient>
    <linearGradient
       id="paint44_linear_53_642"
       x1="159.448"
       y1="278.457"
       x2="19.4119"
       y2="356.358"
       gradientUnits="userSpaceOnUse">
      <stop
         stop-color="#444B8C"
         id="stop454" />
      <stop
         offset="0.9964"
         stop-color="#3E4177"
         id="stop456" />
    </linearGradient>
    <linearGradient
       id="paint45_linear_53_642"
       x1="162.177"
       y1="287.22501"
       x2="25.0315"
       y2="363.51801"
       gradientUnits="userSpaceOnUse">
      <stop
         stop-color="#444B8C"
         id="stop459" />
      <stop
         offset="0.9964"
         stop-color="#3E4177"
         id="stop461" />
    </linearGradient>
    <linearGradient
       id="paint46_linear_53_642"
       x1="163.492"
       y1="281.14401"
       x2="19.8885"
       y2="361.03"
       gradientUnits="userSpaceOnUse">
      <stop
         stop-color="#444B8C"
         id="stop464" />
      <stop
         offset="0.9964"
         stop-color="#3E4177"
         id="stop466" />
    </linearGradient>
    <linearGradient
       id="paint47_linear_53_642"
       x1="166.409"
       y1="290.229"
       x2="25.912701"
       y2="368.38501"
       gradientUnits="userSpaceOnUse">
      <stop
         stop-color="#444B8C"
         id="stop469" />
      <stop
         offset="0.9964"
         stop-color="#3E4177"
         id="stop471" />
    </linearGradient>
    <linearGradient
       id="paint48_linear_53_642"
       x1="168.929"
       y1="298.92801"
       x2="31.334"
       y2="375.47101"
       gradientUnits="userSpaceOnUse">
      <stop
         stop-color="#444B8C"
         id="stop474" />
      <stop
         offset="0.9964"
         stop-color="#3E4177"
         id="stop476" />
    </linearGradient>
    <linearGradient
       id="paint49_linear_53_642"
       x1="168.92599"
       y1="301.45901"
       x2="34.736099"
       y2="376.10699"
       gradientUnits="userSpaceOnUse">
      <stop
         stop-color="#444B8C"
         id="stop479" />
      <stop
         offset="0.9964"
         stop-color="#3E4177"
         id="stop481" />
    </linearGradient>
    <linearGradient
       id="paint50_linear_53_642"
       x1="59.282001"
       y1="269.01599"
       x2="56.938301"
       y2="322.452"
       gradientUnits="userSpaceOnUse">
      <stop
         stop-color="#444B8C"
         id="stop484" />
      <stop
         offset="0.9964"
         stop-color="#26264F"
         id="stop486" />
    </linearGradient>
    <linearGradient
       id="paint51_linear_53_642"
       x1="80.463097"
       y1="268.42401"
       x2="78.149498"
       y2="321.17401"
       gradientUnits="userSpaceOnUse">
      <stop
         stop-color="#444B8C"
         id="stop489" />
      <stop
         offset="0.9964"
         stop-color="#26264F"
         id="stop491" />
    </linearGradient>
    <linearGradient
       id="paint52_linear_53_642"
       x1="101.874"
       y1="267.827"
       x2="99.590401"
       y2="319.883"
       gradientUnits="userSpaceOnUse">
      <stop
         stop-color="#444B8C"
         id="stop494" />
      <stop
         offset="0.9964"
         stop-color="#26264F"
         id="stop496" />
    </linearGradient>
    <linearGradient
       id="paint53_linear_53_642"
       x1="122.78"
       y1="267.24301"
       x2="120.526"
       y2="318.62399"
       gradientUnits="userSpaceOnUse">
      <stop
         stop-color="#444B8C"
         id="stop499" />
      <stop
         offset="0.9964"
         stop-color="#26264F"
         id="stop501" />
    </linearGradient>
    <linearGradient
       id="paint54_linear_53_642"
       x1="59.276699"
       y1="284.436"
       x2="56.907001"
       y2="338.46201"
       gradientUnits="userSpaceOnUse">
      <stop
         stop-color="#444B8C"
         id="stop504" />
      <stop
         offset="0.9964"
         stop-color="#26264F"
         id="stop506" />
    </linearGradient>
    <linearGradient
       id="paint55_linear_53_642"
       x1="80.4468"
       y1="283.66699"
       x2="78.107903"
       y2="336.992"
       gradientUnits="userSpaceOnUse">
      <stop
         stop-color="#444B8C"
         id="stop509" />
      <stop
         offset="0.9964"
         stop-color="#26264F"
         id="stop511" />
    </linearGradient>
    <linearGradient
       id="paint56_linear_53_642"
       x1="101.847"
       y1="282.88901"
       x2="99.539398"
       y2="335.508"
       gradientUnits="userSpaceOnUse">
      <stop
         stop-color="#444B8C"
         id="stop514" />
      <stop
         offset="0.9964"
         stop-color="#26264F"
         id="stop516" />
    </linearGradient>
    <linearGradient
       id="paint57_linear_53_642"
       x1="122.744"
       y1="282.129"
       x2="120.466"
       y2="334.05899"
       gradientUnits="userSpaceOnUse">
      <stop
         stop-color="#444B8C"
         id="stop519" />
      <stop
         offset="0.9964"
         stop-color="#26264F"
         id="stop521" />
    </linearGradient>
    <linearGradient
       id="paint58_linear_53_642"
       x1="59.271599"
       y1="299.48199"
       x2="56.876598"
       y2="354.086"
       gradientUnits="userSpaceOnUse">
      <stop
         stop-color="#444B8C"
         id="stop524" />
      <stop
         offset="0.9964"
         stop-color="#26264F"
         id="stop526" />
    </linearGradient>
    <linearGradient
       id="paint59_linear_53_642"
       x1="80.431602"
       y1="298.54001"
       x2="78.068001"
       y2="352.42899"
       gradientUnits="userSpaceOnUse">
      <stop
         stop-color="#444B8C"
         id="stop529" />
      <stop
         offset="0.9964"
         stop-color="#26264F"
         id="stop531" />
    </linearGradient>
    <linearGradient
       id="paint60_linear_53_642"
       x1="101.822"
       y1="297.586"
       x2="99.4897"
       y2="350.755"
       gradientUnits="userSpaceOnUse">
      <stop
         stop-color="#444B8C"
         id="stop534" />
      <stop
         offset="0.9964"
         stop-color="#26264F"
         id="stop536" />
    </linearGradient>
    <linearGradient
       id="paint61_linear_53_642"
       x1="122.708"
       y1="296.655"
       x2="120.407"
       y2="349.12299"
       gradientUnits="userSpaceOnUse">
      <stop
         stop-color="#444B8C"
         id="stop539" />
      <stop
         offset="0.9964"
         stop-color="#26264F"
         id="stop541" />
    </linearGradient>
    <linearGradient
       id="paint62_linear_53_642"
       x1="59.266499"
       y1="314.15601"
       x2="56.846802"
       y2="369.323"
       gradientUnits="userSpaceOnUse">
      <stop
         stop-color="#444B8C"
         id="stop544" />
      <stop
         offset="0.9964"
         stop-color="#26264F"
         id="stop546" />
    </linearGradient>
    <linearGradient
       id="paint63_linear_53_642"
       x1="80.416801"
       y1="313.04401"
       x2="78.029099"
       y2="367.48401"
       gradientUnits="userSpaceOnUse">
      <stop
         stop-color="#444B8C"
         id="stop549" />
      <stop
         offset="0.9964"
         stop-color="#26264F"
         id="stop551" />
    </linearGradient>
    <linearGradient
       id="paint64_linear_53_642"
       x1="101.797"
       y1="311.92001"
       x2="99.441498"
       y2="365.62601"
       gradientUnits="userSpaceOnUse">
      <stop
         stop-color="#444B8C"
         id="stop554" />
      <stop
         offset="0.9964"
         stop-color="#26264F"
         id="stop556" />
    </linearGradient>
    <linearGradient
       id="paint65_linear_53_642"
       x1="59.261002"
       y1="329.888"
       x2="56.8148"
       y2="385.66101"
       gradientUnits="userSpaceOnUse">
      <stop
         stop-color="#444B8C"
         id="stop559" />
      <stop
         offset="0.9964"
         stop-color="#26264F"
         id="stop561" />
    </linearGradient>
    <linearGradient
       id="paint66_linear_53_642"
       x1="80.400703"
       y1="328.595"
       x2="77.987"
       y2="383.62601"
       gradientUnits="userSpaceOnUse">
      <stop
         stop-color="#444B8C"
         id="stop564" />
      <stop
         offset="0.9964"
         stop-color="#26264F"
         id="stop566" />
    </linearGradient>
    <linearGradient
       id="paint67_linear_53_642"
       x1="101.771"
       y1="327.28799"
       x2="99.389999"
       y2="381.57101"
       gradientUnits="userSpaceOnUse">
      <stop
         stop-color="#444B8C"
         id="stop569" />
      <stop
         offset="0.9964"
         stop-color="#26264F"
         id="stop571" />
    </linearGradient>
    <linearGradient
       id="paint68_linear_53_642"
       x1="123.307"
       y1="303.55801"
       x2="117.281"
       y2="440.92899"
       gradientUnits="userSpaceOnUse">
      <stop
         stop-color="#444B8C"
         id="stop574" />
      <stop
         offset="0.9964"
         stop-color="#26264F"
         id="stop576" />
    </linearGradient>
    <linearGradient
       id="paint69_linear_53_642"
       x1="62.698299"
       y1="98.155098"
       x2="17.9046"
       y2="112.531"
       gradientUnits="userSpaceOnUse">
      <stop
         stop-color="#FCB148"
         id="stop579" />
      <stop
         offset="0.0521"
         stop-color="#FDBA46"
         id="stop581" />
      <stop
         offset="0.1424"
         stop-color="#FFC244"
         id="stop583" />
      <stop
         offset="0.3183"
         stop-color="#FFC444"
         id="stop585" />
      <stop
         offset="0.4849"
         stop-color="#FDB946"
         id="stop587" />
      <stop
         offset="0.7754"
         stop-color="#F99C4D"
         id="stop589" />
      <stop
         offset="0.8658"
         stop-color="#F8924F"
         id="stop591" />
      <stop
         offset="1"
         stop-color="#F8924F"
         id="stop593" />
    </linearGradient>
    <linearGradient
       id="paint70_linear_53_642"
       x1="98.933899"
       y1="53.567299"
       x2="58.944901"
       y2="141.78999"
       gradientUnits="userSpaceOnUse">
      <stop
         stop-color="#FFDB44"
         id="stop596" />
      <stop
         offset="1"
         stop-color="#FEEF06"
         id="stop598" />
    </linearGradient>
    <linearGradient
       id="paint71_linear_53_642"
       x1="91.577797"
       y1="146.722"
       x2="83.861801"
       y2="104.57"
       gradientUnits="userSpaceOnUse">
      <stop
         stop-color="#FCB148"
         id="stop601" />
      <stop
         offset="0.0521"
         stop-color="#FDBA46"
         id="stop603" />
      <stop
         offset="0.1424"
         stop-color="#FFC244"
         id="stop605" />
      <stop
         offset="0.3183"
         stop-color="#FFC444"
         id="stop607" />
      <stop
         offset="0.4849"
         stop-color="#FDB946"
         id="stop609" />
      <stop
         offset="0.7754"
         stop-color="#F99C4D"
         id="stop611" />
      <stop
         offset="0.8658"
         stop-color="#F8924F"
         id="stop613" />
      <stop
         offset="1"
         stop-color="#F8924F"
         id="stop615" />
    </linearGradient>
    <linearGradient
       id="paint72_linear_53_642"
       x1="75.218102"
       y1="78.493401"
       x2="107.017"
       y2="145.996"
       gradientUnits="userSpaceOnUse">
      <stop
         stop-color="#FCB148"
         id="stop618" />
      <stop
         offset="0.0521"
         stop-color="#FDBA46"
         id="stop620" />
      <stop
         offset="0.1424"
         stop-color="#FFC244"
         id="stop622" />
      <stop
         offset="0.3183"
         stop-color="#FFC444"
         id="stop624" />
      <stop
         offset="0.4849"
         stop-color="#FDB946"
         id="stop626" />
      <stop
         offset="0.7754"
         stop-color="#F99C4D"
         id="stop628" />
      <stop
         offset="0.8658"
         stop-color="#F8924F"
         id="stop630" />
      <stop
         offset="1"
         stop-color="#F8924F"
         id="stop632" />
    </linearGradient>
    <linearGradient
       id="paint73_linear_53_642"
       x1="63.362202"
       y1="93.052299"
       x2="102.646"
       y2="94.325302"
       gradientUnits="userSpaceOnUse">
      <stop
         stop-color="#FFDB44"
         id="stop635" />
      <stop
         offset="1"
         stop-color="#FEEF06"
         id="stop637" />
    </linearGradient>
    <linearGradient
       id="paint74_linear_53_642"
       x1="80.075203"
       y1="106.33"
       x2="96.458504"
       y2="106.861"
       gradientUnits="userSpaceOnUse">
      <stop
         stop-color="#FFDB44"
         id="stop640" />
      <stop
         offset="1"
         stop-color="#FEEF06"
         id="stop642" />
    </linearGradient>
    <linearGradient
       id="paint75_linear_53_642"
       x1="65.863197"
       y1="82.8619"
       x2="97.597504"
       y2="150.228"
       gradientUnits="userSpaceOnUse">
      <stop
         stop-color="#FCB148"
         id="stop645" />
      <stop
         offset="0.0521"
         stop-color="#FDBA46"
         id="stop647" />
      <stop
         offset="0.1424"
         stop-color="#FFC244"
         id="stop649" />
      <stop
         offset="0.3183"
         stop-color="#FFC444"
         id="stop651" />
      <stop
         offset="0.4849"
         stop-color="#FDB946"
         id="stop653" />
      <stop
         offset="0.7754"
         stop-color="#F99C4D"
         id="stop655" />
      <stop
         offset="0.8658"
         stop-color="#F8924F"
         id="stop657" />
      <stop
         offset="1"
         stop-color="#F8924F"
         id="stop659" />
    </linearGradient>
    <linearGradient
       id="paint76_linear_53_642"
       x1="65.281303"
       y1="183.25301"
       x2="28.3263"
       y2="195.11301"
       gradientUnits="userSpaceOnUse">
      <stop
         stop-color="#FCB148"
         id="stop662" />
      <stop
         offset="0.0521"
         stop-color="#FDBA46"
         id="stop664" />
      <stop
         offset="0.1424"
         stop-color="#FFC244"
         id="stop666" />
      <stop
         offset="0.3183"
         stop-color="#FFC444"
         id="stop668" />
      <stop
         offset="0.4849"
         stop-color="#FDB946"
         id="stop670" />
      <stop
         offset="0.7754"
         stop-color="#F99C4D"
         id="stop672" />
      <stop
         offset="0.8658"
         stop-color="#F8924F"
         id="stop674" />
      <stop
         offset="1"
         stop-color="#F8924F"
         id="stop676" />
    </linearGradient>
    <linearGradient
       id="paint77_linear_53_642"
       x1="95.176003"
       y1="146.468"
       x2="62.184898"
       y2="219.252"
       gradientUnits="userSpaceOnUse">
      <stop
         stop-color="#FFDB44"
         id="stop679" />
      <stop
         offset="1"
         stop-color="#FEEF06"
         id="stop681" />
    </linearGradient>
    <linearGradient
       id="paint78_linear_53_642"
       x1="89.107101"
       y1="223.321"
       x2="82.741402"
       y2="188.545"
       gradientUnits="userSpaceOnUse">
      <stop
         stop-color="#FCB148"
         id="stop684" />
      <stop
         offset="0.0521"
         stop-color="#FDBA46"
         id="stop686" />
      <stop
         offset="0.1424"
         stop-color="#FFC244"
         id="stop688" />
      <stop
         offset="0.3183"
         stop-color="#FFC444"
         id="stop690" />
      <stop
         offset="0.4849"
         stop-color="#FDB946"
         id="stop692" />
      <stop
         offset="0.7754"
         stop-color="#F99C4D"
         id="stop694" />
      <stop
         offset="0.8658"
         stop-color="#F8924F"
         id="stop696" />
      <stop
         offset="1"
         stop-color="#F8924F"
         id="stop698" />
    </linearGradient>
    <linearGradient
       id="paint79_linear_53_642"
       x1="75.6101"
       y1="167.032"
       x2="101.844"
       y2="222.722"
       gradientUnits="userSpaceOnUse">
      <stop
         stop-color="#FCB148"
         id="stop701" />
      <stop
         offset="0.0521"
         stop-color="#FDBA46"
         id="stop703" />
      <stop
         offset="0.1424"
         stop-color="#FFC244"
         id="stop705" />
      <stop
         offset="0.3183"
         stop-color="#FFC444"
         id="stop707" />
      <stop
         offset="0.4849"
         stop-color="#FDB946"
         id="stop709" />
      <stop
         offset="0.7754"
         stop-color="#F99C4D"
         id="stop711" />
      <stop
         offset="0.8658"
         stop-color="#F8924F"
         id="stop713" />
      <stop
         offset="1"
         stop-color="#F8924F"
         id="stop715" />
    </linearGradient>
    <linearGradient
       id="paint80_linear_53_642"
       x1="65.829201"
       y1="179.043"
       x2="98.238701"
       y2="180.09399"
       gradientUnits="userSpaceOnUse">
      <stop
         stop-color="#FFDB44"
         id="stop718" />
      <stop
         offset="1"
         stop-color="#FEEF06"
         id="stop720" />
    </linearGradient>
    <linearGradient
       id="paint81_linear_53_642"
       x1="79.617104"
       y1="189.99699"
       x2="93.1334"
       y2="190.435"
       gradientUnits="userSpaceOnUse">
      <stop
         stop-color="#FFDB44"
         id="stop723" />
      <stop
         offset="1"
         stop-color="#FEEF06"
         id="stop725" />
    </linearGradient>
    <linearGradient
       id="paint82_linear_53_642"
       x1="67.892303"
       y1="170.636"
       x2="94.073303"
       y2="226.213"
       gradientUnits="userSpaceOnUse">
      <stop
         stop-color="#FCB148"
         id="stop728" />
      <stop
         offset="0.0521"
         stop-color="#FDBA46"
         id="stop730" />
      <stop
         offset="0.1424"
         stop-color="#FFC244"
         id="stop732" />
      <stop
         offset="0.3183"
         stop-color="#FFC444"
         id="stop734" />
      <stop
         offset="0.4849"
         stop-color="#FDB946"
         id="stop736" />
      <stop
         offset="0.7754"
         stop-color="#F99C4D"
         id="stop738" />
      <stop
         offset="0.8658"
         stop-color="#F8924F"
         id="stop740" />
      <stop
         offset="1"
         stop-color="#F8924F"
         id="stop742" />
    </linearGradient>
  </defs>
</svg>
