<?xml version="1.0" encoding="UTF-8" standalone="no"?>
<svg
   width="300"
   height="300"
   viewBox="0 0 300 300"
   fill="none"
   version="1.1"
   id="svg384"
   sodipodi:docname="user-earnings-2.svg"
   inkscape:version="1.2.1 (9c6d41e410, 2022-07-14)"
   xmlns:inkscape="http://www.inkscape.org/namespaces/inkscape"
   xmlns:sodipodi="http://sodipodi.sourceforge.net/DTD/sodipodi-0.dtd"
   xmlns="http://www.w3.org/2000/svg"
   xmlns:svg="http://www.w3.org/2000/svg">
  <sodipodi:namedview
     id="namedview386"
     pagecolor="#ffffff"
     bordercolor="#000000"
     borderopacity="0.25"
     inkscape:showpageshadow="2"
     inkscape:pageopacity="0.0"
     inkscape:pagecheckerboard="0"
     inkscape:deskcolor="#d1d1d1"
     showgrid="false"
     inkscape:zoom="1.066313"
     inkscape:cx="195.53358"
     inkscape:cy="86.747512"
     inkscape:window-width="1920"
     inkscape:window-height="991"
     inkscape:window-x="-9"
     inkscape:window-y="-9"
     inkscape:window-maximized="1"
     inkscape:current-layer="svg384" />
  <g
     id="g564"
     transform="matrix(0.7796775,0,0,0.7796775,-1.1239435,2.9439514)">
    <path
       d="M 156.933,10.1303 C 111.261,10.901 40.5931,27.5912 20.2485,70.4995 c -7.1093,14.9893 -6.6176,37.0085 -5.6609,81.0595 0.2791,12.943 0.7575,31.812 4.0397,55.24 6.8435,48.635 11.4945,81.75 29.1149,101.032 44.1441,48.316 203.6318,46.921 271.7348,-40.065 37.154,-47.453 42.868,-114.945 8.89,-170.7295 C 290.987,35.6174 218.086,9.09377 156.933,10.1303 Z"
       fill="#f4f7fa"
       id="path2" />
    <path
       d="m 115.034,179.451 c 0.904,5.236 1.063,9.634 1.714,14.79 18.976,-11.853 39.454,-19.813 58.709,-31.799 C 150.581,147.054 133.186,143.825 125.266,110.857 121.545,95.3755 118.755,63.789 106.157,53.5967 91.806,41.9827 83.1552,51.6301 78.7036,36.654 71.7405,13.2398 49.5223,-3.42383 25.7493,20.8541 2.26867,44.8264 44.9643,120.73 72.3651,132.862 c 21.2481,15.003 37.9379,19.268 42.6689,46.589 z"
       fill="url(#paint0_linear_95_149)"
       id="path4"
       style="fill:url(#paint0_linear_95_149)" />
    <path
       d="m 145.864,175.478 c -5.329,-6.299 -11.229,-12.265 -16.93,-18.032 l -2.152,-2.18 c -4.572,-4.637 -8.585,-8.863 -12.119,-12.597 -1.994,-2.1 -3.867,-4.08 -5.701,-5.993 -5.621,-5.834 -9.5545,-9.9 -11.5212,-11.92 -0.6644,-0.691 -1.1029,-1.129 -1.3022,-1.342 C 80.7373,107.415 65.6948,80.014 57.6155,65.2905 56.7384,63.6959 55.9544,62.2607 55.2767,61.0515 43.6095,40.0823 28.9524,19.6581 11.7173,0.349997 L 12.0229,0.0842285 C 29.258,19.4056 43.9417,39.8432 55.6222,60.8388 c 0.6777,1.2226 1.4617,2.6444 2.3388,4.2523 8.0793,14.7103 23.0952,42.0849 38.4699,58.0309 0.1993,0.212 0.6378,0.651 1.3023,1.342 1.9667,2.02 5.8998,6.099 11.5208,11.919 1.834,1.914 3.721,3.894 5.714,5.994 3.535,3.734 7.548,7.959 12.119,12.597 l 2.153,2.179 c 5.701,5.767 11.601,11.734 16.943,18.046 z"
       fill="#fcfdfe"
       id="path6" />
    <path
       d="M 117.16,146.124 C 107.486,135.068 100.576,118.192 97.1746,97.3023 94.3442,79.9078 94.1183,60.2808 96.5368,43.4709 l 0.3986,0.0532 c -2.4185,16.77 -2.1926,36.3571 0.6379,53.7118 3.3887,20.8101 10.2587,37.6191 19.8927,48.6221 z"
       fill="#fcfdfe"
       id="path8" />
    <path
       d="M 58.8908,67.6559 C 55.7414,55.3508 54.1335,42.5674 52.5921,30.2092 51.529,21.7577 50.426,13.0007 48.8447,4.4828 l 0.3987,-0.07972 c 1.5813,8.53112 2.6842,17.28822 3.7473,25.75292 1.5547,12.3449 3.1626,25.1151 6.2987,37.3936 z"
       fill="#fcfdfe"
       id="path10" />
    <path
       d="M 80.0728,102.99 C 66.2927,91.9338 42.8254,83.3761 29.8426,84.6783 l -0.0399,-0.3986 c 13.0625,-1.3156 36.6628,7.282 50.5226,18.4043 z"
       fill="#fcfdfe"
       id="path12" />
    <path
       d="m 74.957,129.806 c 15.5341,22.391 27.427,11.016 43.227,-2.844 6.791,24.464 14.298,48.025 22.006,71.904 -10.724,9.116 -18.564,15.454 -31.56,4.358 C 93.9328,190.68 85.8534,182.96 65.0172,187.292 44.181,191.624 23.6105,183.797 22.0558,162.588 20.4213,140.264 -7.27173,122.205 2.90719,101.05 20.6472,64.1612 58.7717,106.485 74.957,129.806 Z"
       fill="url(#paint1_linear_95_149)"
       id="path14"
       style="fill:url(#paint1_linear_95_149)" />
    <path
       d="M 125.864,170.136 C 102.915,169.086 83.8195,167.585 64.4583,158.655 45.9342,150.111 33.3368,137.739 22.3739,117.262 16.6864,106.657 11.4109,99.6944 4.00928,90.2862 L 4.3282,90.0337 c 7.4149,9.4215 12.7037,16.3983 18.4045,27.0283 10.923,20.385 23.454,32.703 41.8983,41.208 19.2948,8.89 38.35,10.405 61.26,11.454 z"
       fill="#fcfdfe"
       id="path16" />
    <path
       d="m 114.915,210.945 -0.386,-0.106 c 2.087,-7.269 4.93,-13.674 8.718,-19.587 1.94,-3.03 4.199,-5.489 6.989,-8.239 l 0.279,0.292 c -2.777,2.737 -5.023,5.183 -6.936,8.172 -3.761,5.861 -6.591,12.239 -8.664,19.468 z"
       fill="#fcfdfe"
       id="path18" />
    <path
       d="m 24.3676,180.196 -0.2392,-0.333 c 16.3846,-11.72 35.015,-17.713 52.4494,-16.876 l -0.0133,0.399 c -17.3547,-0.824 -35.892,5.142 -52.1969,16.81 z"
       fill="#fcfdfe"
       id="path20" />
    <path
       d="M 36.4199,138.071 C 35.3967,136.304 31.1577,119.64 27.53,104.638 23.889,89.5686 20.1815,73.3036 20.248,72.1741 l 0.3986,0.0266 c -0.0664,0.97 3.2025,15.481 7.2688,32.3443 3.6144,14.976 7.8401,31.599 8.8368,33.327 z"
       fill="#fcfdfe"
       id="path22" />
    <path
       d="m 277.658,319.87 c -2.18,-0.173 -6.777,-2.485 -7.721,-3.575 -6.325,-7.282 -19.042,-20.158 -18.922,-30.351 0.013,-1.74 7.693,-3.734 8.717,-5.368 4.584,-2.459 6.338,-3.017 9.554,-7.495 9.501,-13.222 -14.724,-36.011 11.707,-45.712 19.361,-7.109 36.291,-1.13 32.703,-31.547 -3.588,-30.417 17.926,-87.185 51.174,-67.452 19.082,11.322 1.568,38.178 11.999,56.861 9.913,17.754 2.937,33.102 -15.866,44.942 -18.79,11.853 -8.066,19.746 -1.622,36.756 7.748,20.437 -24.012,25.66 -38.881,26.816 -11.987,0.903 -41.846,11.361 -42.842,26.125 z"
       fill="url(#paint2_linear_95_149)"
       id="path24"
       style="fill:url(#paint2_linear_95_149)" />
    <path
       d="m 260.781,301.984 -0.226,-0.412 c 31.6,-17.329 57.034,-43.879 73.552,-76.754 15.72,-31.295 23.228,-67.705 21.686,-105.311 l 0.479,-0.027 c 1.541,37.686 -5.98,74.176 -21.74,105.537 -16.571,32.969 -42.071,59.585 -73.751,76.967 z"
       fill="#fcfdfe"
       id="path26" />
    <path
       d="m 294.135,278.011 -0.16,-0.452 c 19.454,-6.883 50.722,-8.226 69.724,-2.99 l -0.119,0.452 c -18.936,-5.196 -50.071,-3.867 -69.445,2.99 z"
       fill="#fcfdfe"
       id="path28" />
    <path
       d="m 273.047,295.06 -0.333,-0.332 c 7.575,-7.535 11.056,-18.604 10.339,-32.902 -0.532,-10.485 -3.256,-22.445 -8.106,-35.52 l 0.438,-0.16 c 4.864,13.129 7.601,25.129 8.133,35.653 0.731,14.445 -2.791,25.633 -10.471,33.261 z"
       fill="#fcfdfe"
       id="path30" />
    <path
       d="m 336.605,220.472 -0.346,-0.319 c 13.554,-14.936 34.205,-19.746 49.141,-21.155 l 0.04,0.478 c -14.87,1.396 -35.387,6.18 -48.835,20.996 z"
       fill="#fcfdfe"
       id="path32" />
    <path
       d="m 351.515,176.793 -0.479,-0.013 c 0.24,-9.741 -2.285,-29.394 -21.819,-51.506 l 0.359,-0.319 c 19.64,22.245 22.178,42.031 21.939,51.838 z"
       fill="#fcfdfe"
       id="path34" />
    <path
       d="m 316.832,262.942 c -10.431,0.293 -20.889,0.346 -31.387,0.173 -0.133,0.173 -7.362,-21.341 1.103,-34.776 16.823,-26.112 -0.717,-43.812 -6.804,-55.054 -9.275,-15.72 -9.155,-34.523 7.92,-37.805 18.883,-4.013 16.797,-36.065 8.332,-64.0636 -5.116,-13.4878 5.076,-32.7161 17.528,-38.8952 12.65,-6.6442 27.573,-0.2259 36.569,26.8692 11.867,31.1081 -8.212,54.6416 -14.085,72.3156 -5.781,17.355 16.397,26.67 2.83,43.533 -11.295,14.843 -26.71,26.802 -17.74,41.38 9.129,14.365 9.82,27.294 -4.266,46.323 z"
       fill="url(#paint3_linear_95_149)"
       id="path36"
       style="fill:url(#paint3_linear_95_149)" />
    <path
       d="m 303.025,266.716 c -0.04,-0.199 1.502,-48.41 10.312,-96.633 1.023,-7.734 2.246,-15.574 3.415,-23.149 3.149,-20.291 6.405,-41.26 6.139,-61.5252 -0.292,-22.6567 -5.063,-42.2704 -14.55,-59.9573 l 0.411,-0.2259 c 9.528,17.7666 14.312,37.4467 14.604,60.1699 0.266,20.3045 -2.989,41.3005 -6.139,61.6055 -1.169,7.574 -2.392,15.401 -3.415,23.148 -8.81,48.237 -10.338,96.195 -10.312,96.474 z"
       fill="#fcfdfe"
       id="path38" />
    <path
       d="m 322.453,107.84 -0.399,-0.253 c 9.116,-14.5905 19.654,-34.8952 25.315,-45.805 4.558,-8.7969 4.597,-8.7969 4.863,-8.7969 l 0.013,0.4784 v -0.2392 l 0.133,0.186 c -0.265,0.2658 -2.179,3.9467 -4.584,8.5843 -5.674,10.9231 -16.212,31.2411 -25.341,45.8454 z"
       fill="#fcfdfe"
       id="path40" />
    <path
       d="m 322.799,89.9536 c -4.877,-14.006 -12.478,-22.4441 -17.993,-27.0685 -6.033,-5.0496 -11.162,-6.8834 -11.707,-6.8834 0,0 0,0 -0.013,0 l -0.014,-0.1727 -0.212,-0.2259 c 0.106,-0.1063 0.279,-0.0931 0.545,-0.0266 4.132,0.9966 21.301,9.7138 29.832,34.2176 z"
       fill="#fcfdfe"
       id="path42" />
    <path
       d="m 308.553,201.417 c -0.757,-13.714 -6.431,-27.6 -16.849,-41.301 -5.435,-7.149 -11.96,-13.926 -19.375,-20.171 -0.545,-0.452 -0.731,-0.612 -0.797,-0.691 l 0.359,-0.306 c 0.053,0.053 0.372,0.319 0.744,0.638 7.454,6.259 13.992,13.076 19.454,20.238 10.471,13.767 16.172,27.746 16.943,41.553 z"
       fill="#fcfdfe"
       id="path44" />
    <path
       d="m 311.118,186.454 -0.438,-0.173 c 8.73,-21.819 34.151,-27.719 34.457,-27.719 l 0.212,0.186 -0.119,0.252 -0.107,-0.212 0.027,0.239 c -0.053,0.013 -6.445,1.422 -14.019,5.701 -6.671,3.773 -15.561,10.604 -20.013,21.726 z m 33.886,-27.866 0.119,0.213 z"
       fill="#fcfdfe"
       id="path46" />
    <path
       d="m 303.384,258.823 c -0.811,-5.887 -4.651,-15.481 -18.338,-27.786 -0.758,-0.678 -0.758,-0.678 -0.758,-0.811 l 0.239,-0.013 0.2,-0.133 c 0.039,0.053 0.319,0.306 0.637,0.585 13.794,12.411 17.661,22.112 18.485,28.078 z"
       fill="#fcfdfe"
       id="path48" />
    <path
       d="m 304.5,247.302 -0.478,-0.053 c 0.505,-4.678 4.053,-14.299 22.085,-26.126 0.253,-0.159 0.412,-0.265 0.465,-0.305 l 0.293,0.372 c -0.053,0.04 -0.226,0.159 -0.492,0.332 -17.873,11.721 -21.381,21.182 -21.873,25.78 z"
       fill="#fcfdfe"
       id="path50" />
    <path
       d="M 302.388,56.3608 57.7349,42.2086 C 52.1006,41.9296 47.0244,48.0821 47.0244,53.2513 V 368.28 c 0,7.162 7.3086,8.597 12.9429,8.026 L 302.374,351.55 c 4.426,-0.452 8,-4.505 8,-9.05 V 64.985 c 0.013,-4.558 -3.561,-8.4116 -7.986,-8.6242 z"
       fill="url(#paint4_linear_95_149)"
       id="path52"
       style="fill:url(#paint4_linear_95_149)" />
    <path
       d="M 306.414,53.8493 61.2828,41.7967 C 55.6485,41.5177 51.064,45.5175 51.064,50.7132 V 368.213 c 0,5.209 4.5845,8.957 10.2188,8.372 L 306.414,351.35 c 4.425,-0.452 8,-4.544 8,-9.116 V 62.5532 c 0,-4.5845 -3.575,-8.478 -8,-8.7039 z"
       fill="#d8dee8"
       id="path54" />
    <path
       d="m 61.2823,372.28 c -3.0431,0.305 -5.5147,-1.728 -5.5147,-4.532 V 50.9259 c 0,-2.8039 2.4849,-4.9699 5.5147,-4.8237 L 306.414,57.6764 c 2.391,0.1063 4.332,2.2192 4.332,4.7041 V 342.58 c 0,2.485 -1.941,4.691 -4.332,4.93 z"
       fill="url(#paint5_linear_95_149)"
       id="path56"
       style="fill:url(#paint5_linear_95_149)" />
    <path
       d="M 290.614,340.002 80.9497,360.214 V 67.9216 l 209.6643,7.8933 z"
       fill="#ffffff"
       id="path58" />
    <path
       opacity="0.3"
       d="m 206.751,77.2369 -83.797,1.0498 1.874,-18.8961 c 0.146,-2.4584 1.913,-4.4782 4.252,-4.8237 l 14.192,-2.1793 c 1.674,-0.2525 3.11,-1.3555 3.84,-2.9501 l 1.542,-3.3486 37.114,2.2856 z"
       fill="#97a6b7"
       id="path60" />
    <path
       d="m 251.507,64.9851 c -0.399,-2.1395 -2.113,-3.6411 -4.266,-3.7341 l -13.395,-0.598 c -6.072,-0.2657 -10.537,-5.209 -10.311,-11.4678 l 0.518,-14.4844 c 0.093,-2.6843 -1.821,-4.8237 -4.452,-4.9832 l -4.398,-0.2657 c -3.349,-0.1994 -5.595,-3.1627 -5.116,-6.5778 0.824,-5.9798 -3.269,-11.1357 -9.209,-11.5343 -5.98,-0.412 -11.561,4.1592 -12.451,10.2187 -0.133,0.9037 -0.439,1.794 -0.931,2.578 -1.382,2.2192 -3.8,3.4417 -6.179,3.2955 l -4.544,-0.2657 c -2.751,-0.1595 -5.356,1.7673 -6.06,4.4781 l -3.774,14.7103 c -1.634,6.3652 -7.787,10.963 -14.325,10.6706 l -14.683,-0.6644 c -2.406,-0.1063 -4.771,1.289 -5.874,3.4948 l -8.85,17.5673 c -0.718,1.4352 0.173,2.9899 1.754,3.0431 l 127.37,4.2257 c 1.395,0.0399 2.577,-1.3421 2.325,-2.7241 z M 199.071,23.8707 c -1.754,-0.1063 -2.977,-1.6344 -2.711,-3.4018 0.266,-1.7674 1.887,-3.1228 3.641,-3.0032 1.754,0.1196 2.963,1.6345 2.711,3.4018 -0.266,1.7674 -1.887,3.1095 -3.641,3.0032 z"
       fill="url(#paint6_linear_95_149)"
       id="path62"
       style="fill:url(#paint6_linear_95_149)" />
    <path
       d="m 252.25,65.3703 c -0.398,-2.1394 -2.113,-3.641 -4.265,-3.734 l -13.395,-0.598 c -6.073,-0.2658 -10.538,-5.2091 -10.312,-11.4679 l 0.518,-14.4844 c 0.093,-2.6842 -1.82,-4.8237 -4.451,-4.9831 l -4.399,-0.2658 c -3.348,-0.1993 -5.594,-3.1626 -5.116,-6.5777 0.824,-5.9798 -3.269,-11.1357 -9.209,-11.5344 -5.979,-0.4119 -11.56,4.1593 -12.451,10.2188 -0.133,0.9036 -0.438,1.7939 -0.93,2.578 -1.382,2.2191 -3.8,3.4417 -6.179,3.2955 l -4.545,-0.2658 c -2.75,-0.1594 -5.355,1.7674 -6.059,4.4782 L 167.683,46.74 c -1.635,6.3651 -7.787,10.9629 -14.325,10.6706 l -14.684,-0.6645 c -2.405,-0.1063 -4.77,1.289 -5.873,3.4949 l -8.85,17.5673 c -0.718,1.4351 0.172,2.9899 1.754,3.043 l 127.369,4.2257 c 1.395,0.0399 2.578,-1.3421 2.326,-2.7241 z m -52.422,-41.101 c -1.755,-0.1063 -2.977,-1.6345 -2.711,-3.4019 0.252,-1.7673 1.887,-3.1227 3.641,-3.0031 1.754,0.1196 2.963,1.6344 2.711,3.4018 -0.266,1.7674 -1.887,3.1095 -3.641,3.0032 z"
       fill="#97a6b7"
       id="path64" />
    <path
       opacity="0.5"
       d="m 230.458,73.4498 c -11.362,-7.0163 -20.079,-2.0465 -27.162,-9.9531 -7.588,-8.4647 -2.472,-19.6137 -10.312,-24.8759 -5.023,-3.3619 -9.501,-0.3986 -15.335,-1.3022 -2.139,-0.3322 -4.425,-1.1827 -6.79,-2.8437 l -3.149,12.2652 c -1.635,6.3651 -7.787,10.9629 -14.325,10.6705 l -14.684,-0.6644 c -2.405,-0.1063 -4.77,1.289 -5.873,3.4949 l -8.85,17.5673 c -0.718,1.4351 0.172,2.9899 1.754,3.043 l 115.755,3.8404 c -2.923,-4.6377 -6.551,-8.4781 -11.029,-11.242 z"
       fill="#ffffff"
       id="path66" />
    <path
       d="m 231.467,113.82 -78.454,-0.863 v -9.409 l 78.454,1.21 z"
       fill="#97a6b7"
       id="path68" />
    <path
       d="m 152.388,215.37 -9.607,0.359 v -84.727 l 9.607,0.027 z"
       fill="url(#paint7_linear_95_149)"
       id="path70"
       style="fill:url(#paint7_linear_95_149)" />
    <path
       d="m 170.726,214.693 -9.448,0.345 v -57.725 l 9.448,-0.093 z"
       fill="url(#paint8_linear_95_149)"
       id="path72"
       style="fill:url(#paint8_linear_95_149)" />
    <path
       d="m 188.745,214.028 -9.275,0.332 v -72.302 l 9.275,-0.027 z"
       fill="url(#paint9_linear_95_149)"
       id="path74"
       style="fill:url(#paint9_linear_95_149)" />
    <path
       d="m 206.472,213.364 -9.129,0.345 v -57.087 l 9.129,-0.093 z"
       fill="url(#paint10_linear_95_149)"
       id="path76"
       style="fill:url(#paint10_linear_95_149)" />
    <path
       d="m 223.88,212.713 -8.97,0.332 v -41.101 l 8.97,-0.146 z"
       fill="url(#paint11_linear_95_149)"
       id="path78"
       style="fill:url(#paint11_linear_95_149)" />
    <path
       d="m 241.022,212.088 -8.837,0.319 v -81.179 l 8.837,0.027 z"
       fill="#d8dee8"
       id="path80" />
    <path
       d="m 257.858,211.45 -8.677,0.332 v -24.185 l 8.677,-0.226 z"
       fill="#d8dee8"
       id="path82" />
    <path
       d="m 274.429,210.839 -8.531,0.319 v -64.077 l 8.531,-0.04 z"
       fill="#d8dee8"
       id="path84" />
    <path
       d="m 274.429,245.295 -167.713,9.103 v -8.85 l 167.713,-8.425 z"
       fill="#d8dee8"
       id="path86" />
    <path
       d="m 274.429,229.668 -167.713,7.801 v -8.837 l 167.713,-7.123 z"
       fill="#d8dee8"
       id="path88" />
    <path
       d="m 274.429,308.495 -167.713,14.378 v -8.85 l 167.713,-13.7 z"
       fill="#d8dee8"
       id="path90" />
    <path
       opacity="0.5"
       d="m 171.032,262.982 v 33.593 l -66.403,5.05 v -34.656 z"
       fill="#d8dee8"
       id="path92" />
    <path
       d="m 104.629,287.194 v 14.431 l 66.403,-5.036 v -26.046 c -3.801,-1.209 -8.359,-1.714 -11.84,0.784 -7.296,5.236 -6.366,7.933 -13.98,7.07 -5.966,-0.691 -12.597,-1.249 -17.713,3.083 -3.176,2.684 -4.797,5.448 -9.382,5.368 -4.305,-0.093 -9.328,-2.777 -13.488,0.346 z"
       fill="#d8dee8"
       id="path94" />
    <path
       d="m 274.429,262.81 -87.81,5.528 v -6.299 l 87.81,-5.262 z"
       fill="#d8dee8"
       id="path96" />
    <path
       d="m 274.429,275.593 -87.81,6.086 v -5.927 l 87.81,-5.846 z"
       fill="#d8dee8"
       id="path98" />
    <path
       d="m 274.429,288.722 -87.81,6.671 v -6.299 l 87.81,-6.405 z"
       fill="#d8dee8"
       id="path100" />
    <path
       d="m 127.14,138.576 -20.863,0.027 v -8.066 l 20.863,0.066 z"
       fill="#d8dee8"
       id="path102" />
    <path
       d="m 127.14,158.283 -20.863,0.213 v -8.053 l 20.863,-0.133 z"
       fill="#d8dee8"
       id="path104" />
    <path
       d="m 127.14,177.511 -20.863,0.399 v -8.053 l 20.863,-0.319 z"
       fill="#d8dee8"
       id="path106" />
    <path
       d="m 127.14,197.218 -20.863,0.585 v -8.053 l 20.863,-0.505 z"
       fill="#d8dee8"
       id="path108" />
    <path
       d="m 127.14,216.446 -20.863,0.784 v -8.052 l 20.863,-0.705 z"
       fill="#d8dee8"
       id="path110" />
    <path
       d="M 133.186,216.46 31.2907,286.224 c -2.4584,1.701 -5.8735,1.143 -7.6143,-1.236 L 22.5867,283.5 c -1.7407,-2.379 -1.1428,-5.701 1.3422,-7.388 l 2.0331,-1.382 82.933,-56.383 17.049,-11.587 z"
       fill="url(#paint12_linear_95_149)"
       id="path112"
       style="fill:url(#paint12_linear_95_149)" />
    <path
       d="m 211.947,227.928 c -27.706,19.627 -66.203,12.464 -85.949,-16.916 -20.225,-30.085 -12.624,-71.08 16.929,-90.574 29.022,-19.135 67.386,-9.621 85.763,20.318 17.953,29.261 10.485,67.89 -16.743,87.172 z m -5.315,-8.279 c 23.015,-16.212 29.301,-48.795 14.072,-73.418 -15.521,-25.102 -47.745,-32.942 -72.036,-16.837 -24.65,16.358 -31.029,50.616 -14.206,75.824 16.491,24.716 48.809,30.882 72.17,14.431 z"
       fill="url(#paint13_linear_95_149)"
       id="path114"
       style="fill:url(#paint13_linear_95_149)" />
    <path
       opacity="0.6"
       d="M 133.186,216.46 31.2907,286.224 c -2.4584,1.701 -5.8735,1.143 -7.6143,-1.236 L 22.5867,283.5 c -1.7407,-2.379 -1.1428,-5.701 1.3422,-7.388 l 2.0331,-1.382 c 5.0097,5.036 8.3053,5.74 10.5244,5.182 5.1825,-1.315 3.6543,-9.355 11.5211,-15.747 7.7737,-6.325 14.0591,-2.352 22.8826,-9.394 5.342,-4.253 3.4284,-6.02 8.8501,-11.428 10.8035,-10.777 22.0188,-7.389 27.1618,-15.309 1.355,-2.086 2.392,-5.116 2.006,-9.687 l 17.049,-11.587 z"
       fill="#d8dee8"
       id="path116" />
    <path
       d="m 214.897,230.054 c -27.707,19.627 -66.203,12.464 -85.95,-16.916 -20.225,-30.085 -12.624,-71.08 16.93,-90.561 29.022,-19.135 67.385,-9.621 85.763,20.318 17.953,29.261 10.485,67.877 -16.743,87.159 z m -5.316,-8.265 c 23.016,-16.212 29.301,-48.795 14.073,-73.419 -15.521,-25.102 -47.745,-32.942 -72.037,-16.836 -24.65,16.358 -31.028,50.615 -14.205,75.823 16.491,24.703 48.808,30.869 72.169,14.432 z"
       fill="url(#paint14_linear_95_149)"
       id="path118"
       style="fill:url(#paint14_linear_95_149)" />
    <path
       d="m 213.023,227.143 c -26.178,18.498 -62.482,11.694 -81.086,-16.039 -19.016,-28.357 -11.84,-66.96 15.973,-85.338 27.334,-18.072 63.532,-9.156 80.913,19.069 16.996,27.613 9.94,64.103 -15.8,82.308 z m -3.442,-5.355 c 23.016,-16.212 29.301,-48.795 14.073,-73.418 -15.521,-25.102 -47.746,-32.942 -72.037,-16.837 -24.65,16.358 -31.028,50.616 -14.205,75.824 16.491,24.703 48.808,30.869 72.169,14.431 z"
       fill="url(#paint15_linear_95_149)"
       id="path120"
       style="fill:url(#paint15_linear_95_149)" />
    <path
       d="m 362.398,127.215 c 0,17.514 -13.687,31.281 -31.188,30.749 -18.218,-0.558 -33.526,-16.292 -33.526,-35.108 0,-18.816 15.321,-32.4901 33.526,-30.5898 17.488,1.8072 31.188,17.4348 31.188,34.9488 z"
       fill="url(#paint16_linear_95_149)"
       id="path122"
       style="fill:url(#paint16_linear_95_149)" />
    <path
       d="m 367.129,125.7 c 0,17.514 -13.687,31.281 -31.188,30.749 -18.218,-0.558 -33.526,-16.291 -33.526,-35.108 0,-18.816 15.321,-32.4897 33.526,-30.5895 17.488,1.8205 31.188,17.4345 31.188,34.9485 z"
       fill="url(#paint17_linear_95_149)"
       id="path124"
       style="fill:url(#paint17_linear_95_149)" />
    <path
       d="m 365.747,125.607 c 0,16.743 -13.102,29.886 -29.819,29.341 -17.368,-0.558 -31.946,-15.574 -31.946,-33.5 0,-17.94 14.578,-30.9756 31.946,-29.195 16.717,1.701 29.819,16.611 29.819,33.354 z"
       fill="url(#paint18_linear_95_149)"
       id="path126"
       style="fill:url(#paint18_linear_95_149)" />
    <path
       d="m 364.764,125.541 c 0,16.185 -12.678,28.875 -28.836,28.344 -16.757,-0.558 -30.816,-15.056 -30.816,-32.358 0,-17.301 14.059,-29.8985 30.816,-28.2109 16.158,1.6345 28.836,16.0389 28.836,32.2249 z"
       fill="url(#paint19_linear_95_149)"
       id="path128"
       style="fill:url(#paint19_linear_95_149)" />
    <path
       d="m 335.316,122.936 c 0.2,-0.385 0.346,-0.678 0.492,-0.97 2.777,-5.741 5.555,-11.495 8.332,-17.235 0.545,-1.143 1.368,-1.807 2.525,-1.821 1.049,-0.013 1.807,0.545 2.245,1.568 0.426,0.997 0.24,1.994 -0.239,2.977 -2.697,5.555 -5.382,11.109 -8.066,16.664 -0.399,0.81 -0.771,1.634 -1.236,2.604 1.09,0 2.06,0 3.017,0 0.983,0 1.966,-0.026 2.936,0 1.515,0.04 2.592,1.342 2.499,2.977 -0.093,1.594 -1.289,2.857 -2.764,2.87 -2.18,0.027 -4.359,0.013 -6.538,0.013 -0.293,0 -0.585,0 -0.944,0 -0.053,1.17 -0.106,2.273 -0.159,3.469 1.408,0 2.804,0 4.186,0 1.116,0 2.232,-0.027 3.348,0.013 1.475,0.04 2.525,1.329 2.445,2.923 -0.079,1.608 -1.262,2.897 -2.737,2.911 -2.206,0.026 -4.412,0.013 -6.618,0.013 -0.292,0 -0.584,0 -0.956,0 -0.04,0.784 -0.067,1.488 -0.107,2.179 -0.119,1.887 -1.236,3.176 -2.764,3.176 -1.541,0 -2.538,-1.262 -2.458,-3.149 0.027,-0.691 0.066,-1.396 0.106,-2.193 -0.531,0 -0.983,0 -1.435,0 -2.02,0 -4.04,0.013 -6.046,0 -1.568,-0.013 -2.698,-1.315 -2.591,-2.963 0.106,-1.635 1.302,-2.87 2.857,-2.884 2.179,-0.013 4.358,0 6.538,0 0.292,0 0.584,0 0.916,0 0.054,-1.182 0.107,-2.272 0.16,-3.468 -0.372,0 -0.718,0 -1.063,0 -2.126,0 -4.252,0.013 -6.379,0 -1.581,-0.013 -2.697,-1.316 -2.591,-2.963 0.106,-1.635 1.302,-2.871 2.857,-2.884 1.927,-0.026 3.854,0 5.874,0 -0.147,-0.412 -0.253,-0.717 -0.359,-1.01 -2.392,-6.152 -4.811,-12.305 -7.189,-18.471 -0.797,-2.046 0.252,-4.132 2.179,-4.411 1.17,-0.16 2.113,0.518 2.671,1.94 1.9,4.863 3.801,9.74 5.701,14.604 0.412,1.116 0.864,2.259 1.355,3.521 z"
       fill="url(#paint20_linear_95_149)"
       id="path130"
       style="fill:url(#paint20_linear_95_149)" />
    <path
       opacity="0.3"
       d="m 330.719,129.5 c 0.97,-9.62 9.82,-13.7 8.664,-22.55 -0.718,-5.462 -4.851,-10.0461 -9.462,-13.6473 -13.992,1.4618 -24.809,13.0493 -24.809,28.1983 0,17.301 14.059,31.799 30.816,32.357 1.621,0.053 3.215,-0.027 4.757,-0.239 -6.644,-6.591 -10.804,-15.853 -9.966,-24.119 z"
       fill="url(#paint21_linear_95_149)"
       id="path132"
       style="fill:url(#paint21_linear_95_149)" />
    <path
       d="m 343.635,195.172 c 0,13.182 -10.312,23.547 -23.481,23.148 -13.713,-0.425 -25.235,-12.265 -25.235,-26.431 0,-14.165 11.535,-24.45 25.235,-23.028 13.182,1.382 23.481,13.142 23.481,26.311 z"
       fill="url(#paint22_linear_95_149)"
       id="path134"
       style="fill:url(#paint22_linear_95_149)" />
    <path
       d="m 347.196,194.042 c 0,13.182 -10.312,23.547 -23.48,23.148 -13.714,-0.425 -25.235,-12.265 -25.235,-26.43 0,-14.166 11.534,-24.451 25.235,-23.029 13.182,1.369 23.48,13.129 23.48,26.311 z"
       fill="url(#paint23_linear_95_149)"
       id="path136"
       style="fill:url(#paint23_linear_95_149)" />
    <path
       d="m 346.16,193.976 c 0,12.597 -9.86,22.497 -22.445,22.085 -13.075,-0.425 -24.038,-11.72 -24.038,-25.221 0,-13.502 10.976,-23.322 24.038,-21.979 12.585,1.288 22.445,12.517 22.445,25.115 z"
       fill="url(#paint24_linear_95_149)"
       id="path138"
       style="fill:url(#paint24_linear_95_149)" />
    <path
       d="m 345.429,193.923 c 0,12.185 -9.541,21.739 -21.7,21.327 -12.611,-0.425 -23.202,-11.335 -23.202,-24.357 0,-13.023 10.578,-22.511 23.202,-21.235 12.159,1.236 21.7,12.079 21.7,24.265 z"
       fill="url(#paint25_linear_95_149)"
       id="path140"
       style="fill:url(#paint25_linear_95_149)" />
    <path
       d="m 323.264,191.956 c 0.146,-0.293 0.266,-0.505 0.372,-0.731 2.086,-4.319 4.186,-8.651 6.272,-12.97 0.412,-0.863 1.023,-1.355 1.9,-1.368 0.798,-0.014 1.356,0.412 1.688,1.182 0.319,0.758 0.186,1.502 -0.173,2.246 -2.033,4.173 -4.053,8.358 -6.073,12.544 -0.292,0.612 -0.584,1.223 -0.93,1.954 0.824,0 1.542,0 2.272,0 0.745,0 1.475,-0.014 2.22,0 1.142,0.026 1.953,1.01 1.873,2.232 -0.066,1.196 -0.97,2.153 -2.086,2.153 -1.648,0.013 -3.282,0 -4.93,0 -0.226,0 -0.439,0 -0.704,0 -0.04,0.877 -0.08,1.714 -0.12,2.618 1.063,0 2.1,0 3.149,0 0.838,0 1.688,-0.014 2.525,0.013 1.103,0.027 1.9,0.997 1.847,2.206 -0.053,1.209 -0.943,2.179 -2.059,2.192 -1.661,0.027 -3.322,0 -4.984,0 -0.225,0 -0.438,0 -0.717,0 -0.027,0.598 -0.04,1.117 -0.08,1.635 -0.093,1.422 -0.93,2.392 -2.086,2.392 -1.156,0 -1.914,-0.944 -1.86,-2.379 0.013,-0.518 0.053,-1.05 0.079,-1.648 -0.398,0 -0.744,0 -1.076,0 -1.515,0 -3.043,0.014 -4.558,0 -1.183,-0.013 -2.033,-0.996 -1.953,-2.232 0.079,-1.223 0.983,-2.153 2.152,-2.166 1.648,-0.013 3.283,0 4.93,0 0.213,0 0.439,0 0.691,0 0.04,-0.89 0.08,-1.701 0.12,-2.618 -0.279,0 -0.545,0 -0.797,0 -1.595,0 -3.203,0.013 -4.798,0 -1.182,-0.013 -2.033,-0.983 -1.953,-2.232 0.08,-1.223 0.983,-2.166 2.153,-2.18 1.448,-0.013 2.897,0 4.425,0 -0.106,-0.305 -0.186,-0.544 -0.266,-0.757 -1.807,-4.638 -3.614,-9.262 -5.408,-13.9 -0.598,-1.541 0.199,-3.109 1.634,-3.322 0.877,-0.119 1.595,0.386 2.02,1.462 1.435,3.668 2.857,7.335 4.292,11.003 0.279,0.863 0.611,1.727 0.997,2.671 z"
       fill="url(#paint26_linear_95_149)"
       id="path142"
       style="fill:url(#paint26_linear_95_149)" />
    <path
       opacity="0.3"
       d="m 319.796,196.899 c 0.73,-7.242 7.388,-10.312 6.524,-16.969 -0.531,-4.106 -3.654,-7.561 -7.122,-10.272 -10.525,1.103 -18.671,9.82 -18.671,21.222 0,13.022 10.578,23.932 23.202,24.357 1.222,0.04 2.418,-0.026 3.588,-0.173 -5.023,-4.969 -8.146,-11.933 -7.521,-18.165 z"
       fill="url(#paint27_linear_95_149)"
       id="path144"
       style="fill:url(#paint27_linear_95_149)" />
  </g>
  <defs
     id="defs382">
    <linearGradient
       id="paint0_linear_95_149"
       x1="18.9447"
       y1="101.599"
       x2="175.457"
       y2="101.599"
       gradientUnits="userSpaceOnUse">
      <stop
         stop-color="#AA80F9"
         id="stop146" />
      <stop
         offset="0.9964"
         stop-color="#6165D7"
         id="stop148" />
    </linearGradient>
    <linearGradient
       id="paint1_linear_95_149"
       x1="16.924101"
       y1="135.00999"
       x2="207.58501"
       y2="179.239"
       gradientUnits="userSpaceOnUse">
      <stop
         offset="0.00359712"
         stop-color="#E38DDD"
         id="stop151" />
      <stop
         offset="1"
         stop-color="#9571F6"
         id="stop153" />
    </linearGradient>
    <linearGradient
       id="paint2_linear_95_149"
       x1="389.76801"
       y1="158.605"
       x2="128.047"
       y2="443.84698"
       gradientUnits="userSpaceOnUse">
      <stop
         stop-color="#AA80F9"
         id="stop156" />
      <stop
         offset="0.9964"
         stop-color="#6165D7"
         id="stop158" />
    </linearGradient>
    <linearGradient
       id="paint3_linear_95_149"
       x1="273.599"
       y1="146.659"
       x2="353.78699"
       y2="146.659"
       gradientUnits="userSpaceOnUse">
      <stop
         stop-color="#AA80F9"
         id="stop161" />
      <stop
         offset="0.9964"
         stop-color="#6165D7"
         id="stop163" />
    </linearGradient>
    <linearGradient
       id="paint4_linear_95_149"
       x1="47.032398"
       y1="209.304"
       x2="310.39301"
       y2="209.304"
       gradientUnits="userSpaceOnUse">
      <stop
         stop-color="#444B8C"
         id="stop166" />
      <stop
         offset="0.9964"
         stop-color="#26264F"
         id="stop168" />
    </linearGradient>
    <linearGradient
       id="paint5_linear_95_149"
       x1="108.897"
       y1="376.259"
       x2="364.34201"
       y2="-240.33299"
       gradientUnits="userSpaceOnUse">
      <stop
         offset="0.00359712"
         stop-color="#E38DDD"
         id="stop171" />
      <stop
         offset="1"
         stop-color="#9571F6"
         id="stop173" />
    </linearGradient>
    <linearGradient
       id="paint6_linear_95_149"
       x1="122.963"
       y1="47.993"
       x2="254.69299"
       y2="47.993"
       gradientUnits="userSpaceOnUse">
      <stop
         stop-color="#444B8C"
         id="stop176" />
      <stop
         offset="0.9964"
         stop-color="#26264F"
         id="stop178" />
    </linearGradient>
    <linearGradient
       id="paint7_linear_95_149"
       x1="142.783"
       y1="173.367"
       x2="152.392"
       y2="173.367"
       gradientUnits="userSpaceOnUse">
      <stop
         stop-color="#FF9085"
         id="stop181" />
      <stop
         offset="1"
         stop-color="#FB6FBB"
         id="stop183" />
    </linearGradient>
    <linearGradient
       id="paint8_linear_95_149"
       x1="161.284"
       y1="186.134"
       x2="170.728"
       y2="186.134"
       gradientUnits="userSpaceOnUse">
      <stop
         stop-color="#FF9085"
         id="stop186" />
      <stop
         offset="1"
         stop-color="#FB6FBB"
         id="stop188" />
    </linearGradient>
    <linearGradient
       id="paint9_linear_95_149"
       x1="179.467"
       y1="178.202"
       x2="188.74899"
       y2="178.202"
       gradientUnits="userSpaceOnUse">
      <stop
         stop-color="#FF9085"
         id="stop191" />
      <stop
         offset="1"
         stop-color="#FB6FBB"
         id="stop193" />
    </linearGradient>
    <linearGradient
       id="paint10_linear_95_149"
       x1="197.34"
       y1="185.119"
       x2="206.467"
       y2="185.119"
       gradientUnits="userSpaceOnUse">
      <stop
         stop-color="#FF9085"
         id="stop196" />
      <stop
         offset="1"
         stop-color="#FB6FBB"
         id="stop198" />
    </linearGradient>
    <linearGradient
       id="paint11_linear_95_149"
       x1="214.91299"
       y1="192.423"
       x2="223.886"
       y2="192.423"
       gradientUnits="userSpaceOnUse">
      <stop
         stop-color="#FF9085"
         id="stop201" />
      <stop
         offset="1"
         stop-color="#FB6FBB"
         id="stop203" />
    </linearGradient>
    <linearGradient
       id="paint12_linear_95_149"
       x1="21.5926"
       y1="246.97701"
       x2="133.186"
       y2="246.97701"
       gradientUnits="userSpaceOnUse">
      <stop
         stop-color="#444B8C"
         id="stop206" />
      <stop
         offset="0.9964"
         stop-color="#26264F"
         id="stop208" />
    </linearGradient>
    <linearGradient
       id="paint13_linear_95_149"
       x1="235.65199"
       y1="156.297"
       x2="117.517"
       y2="193.192"
       gradientUnits="userSpaceOnUse">
      <stop
         stop-color="#444B8C"
         id="stop211" />
      <stop
         offset="0.9964"
         stop-color="#26264F"
         id="stop213" />
    </linearGradient>
    <linearGradient
       id="paint14_linear_95_149"
       x1="213.267"
       y1="236.16"
       x2="167.01801"
       y2="154.841"
       gradientUnits="userSpaceOnUse">
      <stop
         stop-color="#444B8C"
         id="stop216" />
      <stop
         offset="0.9964"
         stop-color="#26264F"
         id="stop218" />
    </linearGradient>
    <linearGradient
       id="paint15_linear_95_149"
       x1="145.133"
       y1="117.299"
       x2="208.19299"
       y2="226.033"
       gradientUnits="userSpaceOnUse">
      <stop
         stop-color="#444B8C"
         id="stop221" />
      <stop
         offset="0.9964"
         stop-color="#26264F"
         id="stop223" />
    </linearGradient>
    <linearGradient
       id="paint16_linear_95_149"
       x1="318.94501"
       y1="128.578"
       x2="281.202"
       y2="140.69099"
       gradientUnits="userSpaceOnUse">
      <stop
         stop-color="#FCB148"
         id="stop226" />
      <stop
         offset="0.0521"
         stop-color="#FDBA46"
         id="stop228" />
      <stop
         offset="0.1424"
         stop-color="#FFC244"
         id="stop230" />
      <stop
         offset="0.3183"
         stop-color="#FFC444"
         id="stop232" />
      <stop
         offset="0.4849"
         stop-color="#FDB946"
         id="stop234" />
      <stop
         offset="0.7754"
         stop-color="#F99C4D"
         id="stop236" />
      <stop
         offset="0.8658"
         stop-color="#F8924F"
         id="stop238" />
      <stop
         offset="1"
         stop-color="#F8924F"
         id="stop240" />
    </linearGradient>
    <linearGradient
       id="paint17_linear_95_149"
       x1="349.47601"
       y1="91.008598"
       x2="315.78201"
       y2="165.345"
       gradientUnits="userSpaceOnUse">
      <stop
         stop-color="#FFDB44"
         id="stop243" />
      <stop
         offset="1"
         stop-color="#FEEF06"
         id="stop245" />
    </linearGradient>
    <linearGradient
       id="paint18_linear_95_149"
       x1="343.27802"
       y1="169.5"
       x2="336.77701"
       y2="133.983"
       gradientUnits="userSpaceOnUse">
      <stop
         stop-color="#FCB148"
         id="stop248" />
      <stop
         offset="0.0521"
         stop-color="#FDBA46"
         id="stop250" />
      <stop
         offset="0.1424"
         stop-color="#FFC244"
         id="stop252" />
      <stop
         offset="0.3183"
         stop-color="#FFC444"
         id="stop254" />
      <stop
         offset="0.4849"
         stop-color="#FDB946"
         id="stop256" />
      <stop
         offset="0.7754"
         stop-color="#F99C4D"
         id="stop258" />
      <stop
         offset="0.8658"
         stop-color="#F8924F"
         id="stop260" />
      <stop
         offset="1"
         stop-color="#F8924F"
         id="stop262" />
    </linearGradient>
    <linearGradient
       id="paint19_linear_95_149"
       x1="329.49399"
       y1="112.012"
       x2="356.28699"
       y2="168.88901"
       gradientUnits="userSpaceOnUse">
      <stop
         stop-color="#FCB148"
         id="stop265" />
      <stop
         offset="0.0521"
         stop-color="#FDBA46"
         id="stop267" />
      <stop
         offset="0.1424"
         stop-color="#FFC244"
         id="stop269" />
      <stop
         offset="0.3183"
         stop-color="#FFC444"
         id="stop271" />
      <stop
         offset="0.4849"
         stop-color="#FDB946"
         id="stop273" />
      <stop
         offset="0.7754"
         stop-color="#F99C4D"
         id="stop275" />
      <stop
         offset="0.8658"
         stop-color="#F8924F"
         id="stop277" />
      <stop
         offset="1"
         stop-color="#F8924F"
         id="stop279" />
    </linearGradient>
    <linearGradient
       id="paint20_linear_95_149"
       x1="321.74701"
       y1="125.025"
       x2="349.13901"
       y2="125.025"
       gradientUnits="userSpaceOnUse">
      <stop
         stop-color="#FFDB44"
         id="stop282" />
      <stop
         offset="1"
         stop-color="#FEEF06"
         id="stop284" />
    </linearGradient>
    <linearGradient
       id="paint21_linear_95_149"
       x1="321.612"
       y1="115.692"
       x2="348.35101"
       y2="172.45399"
       gradientUnits="userSpaceOnUse">
      <stop
         stop-color="#FCB148"
         id="stop287" />
      <stop
         offset="0.0521"
         stop-color="#FDBA46"
         id="stop289" />
      <stop
         offset="0.1424"
         stop-color="#FFC244"
         id="stop291" />
      <stop
         offset="0.3183"
         stop-color="#FFC444"
         id="stop293" />
      <stop
         offset="0.4849"
         stop-color="#FDB946"
         id="stop295" />
      <stop
         offset="0.7754"
         stop-color="#F99C4D"
         id="stop297" />
      <stop
         offset="0.8658"
         stop-color="#F8924F"
         id="stop299" />
      <stop
         offset="1"
         stop-color="#F8924F"
         id="stop301" />
    </linearGradient>
    <linearGradient
       id="paint22_linear_95_149"
       x1="310.936"
       y1="196.207"
       x2="282.52701"
       y2="205.32401"
       gradientUnits="userSpaceOnUse">
      <stop
         stop-color="#FCB148"
         id="stop304" />
      <stop
         offset="0.0521"
         stop-color="#FDBA46"
         id="stop306" />
      <stop
         offset="0.1424"
         stop-color="#FFC244"
         id="stop308" />
      <stop
         offset="0.3183"
         stop-color="#FFC444"
         id="stop310" />
      <stop
         offset="0.4849"
         stop-color="#FDB946"
         id="stop312" />
      <stop
         offset="0.7754"
         stop-color="#F99C4D"
         id="stop314" />
      <stop
         offset="0.8658"
         stop-color="#F8924F"
         id="stop316" />
      <stop
         offset="1"
         stop-color="#F8924F"
         id="stop318" />
    </linearGradient>
    <linearGradient
       id="paint23_linear_95_149"
       x1="333.91699"
       y1="167.929"
       x2="308.55499"
       y2="223.881"
       gradientUnits="userSpaceOnUse">
      <stop
         stop-color="#FFDB44"
         id="stop321" />
      <stop
         offset="1"
         stop-color="#FEEF06"
         id="stop323" />
    </linearGradient>
    <linearGradient
       id="paint24_linear_95_149"
       x1="329.25201"
       y1="227.009"
       x2="324.358"
       y2="200.27499"
       gradientUnits="userSpaceOnUse">
      <stop
         stop-color="#FCB148"
         id="stop326" />
      <stop
         offset="0.0521"
         stop-color="#FDBA46"
         id="stop328" />
      <stop
         offset="0.1424"
         stop-color="#FFC244"
         id="stop330" />
      <stop
         offset="0.3183"
         stop-color="#FFC444"
         id="stop332" />
      <stop
         offset="0.4849"
         stop-color="#FDB946"
         id="stop334" />
      <stop
         offset="0.7754"
         stop-color="#F99C4D"
         id="stop336" />
      <stop
         offset="0.8658"
         stop-color="#F8924F"
         id="stop338" />
      <stop
         offset="1"
         stop-color="#F8924F"
         id="stop340" />
    </linearGradient>
    <linearGradient
       id="paint25_linear_95_149"
       x1="318.87601"
       y1="183.73801"
       x2="339.04401"
       y2="226.549"
       gradientUnits="userSpaceOnUse">
      <stop
         stop-color="#FCB148"
         id="stop343" />
      <stop
         offset="0.0521"
         stop-color="#FDBA46"
         id="stop345" />
      <stop
         offset="0.1424"
         stop-color="#FFC244"
         id="stop347" />
      <stop
         offset="0.3183"
         stop-color="#FFC444"
         id="stop349" />
      <stop
         offset="0.4849"
         stop-color="#FDB946"
         id="stop351" />
      <stop
         offset="0.7754"
         stop-color="#F99C4D"
         id="stop353" />
      <stop
         offset="0.8658"
         stop-color="#F8924F"
         id="stop355" />
      <stop
         offset="1"
         stop-color="#F8924F"
         id="stop357" />
    </linearGradient>
    <linearGradient
       id="paint26_linear_95_149"
       x1="313.04599"
       y1="193.533"
       x2="333.66299"
       y2="193.533"
       gradientUnits="userSpaceOnUse">
      <stop
         stop-color="#FFDB44"
         id="stop360" />
      <stop
         offset="1"
         stop-color="#FEEF06"
         id="stop362" />
    </linearGradient>
    <linearGradient
       id="paint27_linear_95_149"
       x1="312.944"
       y1="186.508"
       x2="333.07001"
       y2="229.233"
       gradientUnits="userSpaceOnUse">
      <stop
         stop-color="#FCB148"
         id="stop365" />
      <stop
         offset="0.0521"
         stop-color="#FDBA46"
         id="stop367" />
      <stop
         offset="0.1424"
         stop-color="#FFC244"
         id="stop369" />
      <stop
         offset="0.3183"
         stop-color="#FFC444"
         id="stop371" />
      <stop
         offset="0.4849"
         stop-color="#FDB946"
         id="stop373" />
      <stop
         offset="0.7754"
         stop-color="#F99C4D"
         id="stop375" />
      <stop
         offset="0.8658"
         stop-color="#F8924F"
         id="stop377" />
      <stop
         offset="1"
         stop-color="#F8924F"
         id="stop379" />
    </linearGradient>
  </defs>
</svg>
