<?xml version="1.0" encoding="UTF-8" standalone="no"?>
<svg
   width="300"
   height="300"
   viewBox="0 0 300 300"
   fill="none"
   version="1.1"
   id="svg224"
   sodipodi:docname="user-earnings-3.svg"
   inkscape:version="1.2.1 (9c6d41e410, 2022-07-14)"
   xmlns:inkscape="http://www.inkscape.org/namespaces/inkscape"
   xmlns:sodipodi="http://sodipodi.sourceforge.net/DTD/sodipodi-0.dtd"
   xmlns="http://www.w3.org/2000/svg"
   xmlns:svg="http://www.w3.org/2000/svg">
  <sodipodi:namedview
     id="namedview226"
     pagecolor="#ffffff"
     bordercolor="#000000"
     borderopacity="0.25"
     inkscape:showpageshadow="2"
     inkscape:pageopacity="0.0"
     inkscape:pagecheckerboard="0"
     inkscape:deskcolor="#d1d1d1"
     showgrid="false"
     inkscape:zoom="1.1585014"
     inkscape:cx="173.93159"
     inkscape:cy="173.93159"
     inkscape:window-width="1920"
     inkscape:window-height="991"
     inkscape:window-x="-9"
     inkscape:window-y="-9"
     inkscape:window-maximized="1"
     inkscape:current-layer="svg224" />
  <g
     id="g392"
     transform="matrix(0.86455831,0,0,0.86455831,-0.00590182,-0.2387245)">
    <path
       opacity="0.3"
       d="M 325.634,238.003 C 291.207,317.594 200.312,351.782 129.104,345.954 109.656,344.368 70.5338,341.158 39.9962,312.597 -18.662,257.74 -9.63668,143.055 46.5292,75.5472 53.7671,66.8492 103.815,8.59379 181.821,9.37422 c 57.11,0.56645 97.201,32.47598 102.073,36.45368 6.155,5.0225 19.737,16.9555 31.985,35.8873 28.75,44.4598 31.28,106.5538 9.755,156.2878 z"
       fill="url(#paint0_linear_88_154)"
       id="path2"
       style="fill:url(#paint0_linear_88_154)" />
    <path
       d="m 302.384,63.5514 c 2.115,-3.3609 7.326,-1.4602 6.798,2.4672 -2.719,20.2786 -5.954,55.6754 0.428,78.8114 9.377,34.011 26.232,134.07 -68.842,159.409 -0.013,0 9.038,-157.295 61.616,-240.6876 z"
       fill="url(#paint1_linear_88_154)"
       id="path4"
       style="fill:url(#paint1_linear_88_154)" />
    <path
       opacity="0.6"
       d="m 294.354,105.594 c 0,0 -0.089,0.189 -0.24,0.554 -0.151,0.365 -0.365,0.919 -0.604,1.649 -0.503,1.447 -1.133,3.625 -1.762,6.419 -0.63,2.795 -1.246,6.231 -1.687,10.196 -0.44,3.965 -0.768,8.459 -0.78,13.368 -0.076,2.455 0.075,5.01 0.1,7.654 0.051,1.321 0.151,2.668 0.227,4.028 0.038,0.679 0.076,1.372 0.113,2.064 0.051,0.692 0.126,1.385 0.189,2.09 0.139,1.397 0.264,2.819 0.403,4.254 0.075,0.68 0.176,1.435 0.264,2.165 0.088,0.73 0.164,1.473 0.277,2.191 0.39,2.895 0.869,5.903 1.385,8.949 0.503,3.047 1.045,6.143 1.548,9.303 0.239,1.586 0.491,3.172 0.718,4.77 0.113,0.806 0.226,1.611 0.339,2.405 0.101,0.805 0.202,1.623 0.315,2.429 0.227,1.624 0.378,3.26 0.567,4.897 0.176,1.636 0.289,3.297 0.44,4.946 0.088,1.662 0.202,3.324 0.252,4.998 l 0.05,2.505 0.025,1.258 -0.012,1.259 c -0.038,6.697 -0.617,13.419 -1.876,19.914 -1.271,6.495 -3.184,12.738 -5.589,18.554 -0.302,0.73 -0.591,1.447 -0.893,2.178 -0.34,0.704 -0.667,1.397 -1.007,2.102 -0.667,1.384 -1.297,2.782 -2.052,4.091 -0.73,1.321 -1.423,2.643 -2.165,3.914 -0.768,1.259 -1.536,2.493 -2.291,3.714 -3.122,4.821 -6.382,9.163 -9.642,12.94 -0.806,0.944 -1.599,1.875 -2.379,2.782 -0.819,0.868 -1.624,1.712 -2.405,2.542 -0.78,0.819 -1.535,1.624 -2.278,2.405 -0.768,0.742 -1.523,1.472 -2.253,2.177 -2.857,2.858 -5.564,5.123 -7.729,7.037 -1.07,0.982 -2.115,1.749 -2.983,2.454 -0.881,0.705 -1.624,1.297 -2.228,1.788 -1.209,0.969 -1.851,1.485 -1.851,1.485 -0.088,0.076 -0.226,0.063 -0.302,-0.038 -0.075,-0.088 -0.063,-0.214 0.026,-0.289 h 0.012 c 0,0 0.604,-0.554 1.75,-1.599 0.566,-0.529 1.271,-1.171 2.102,-1.926 0.415,-0.377 0.856,-0.78 1.334,-1.221 0.239,-0.214 0.491,-0.44 0.73,-0.667 0.239,-0.239 0.491,-0.491 0.756,-0.743 1.032,-1.007 2.165,-2.127 3.398,-3.348 0.315,-0.302 0.63,-0.617 0.944,-0.931 0.315,-0.315 0.63,-0.668 0.944,-1.007 0.642,-0.68 1.309,-1.385 1.989,-2.115 0.68,-0.73 1.397,-1.485 2.127,-2.253 0.693,-0.806 1.41,-1.637 2.14,-2.48 0.73,-0.843 1.486,-1.725 2.254,-2.606 0.73,-0.919 1.472,-1.863 2.24,-2.832 0.378,-0.478 0.768,-0.969 1.158,-1.46 0.189,-0.239 0.39,-0.491 0.592,-0.743 0.189,-0.251 0.365,-0.516 0.554,-0.78 0.742,-1.032 1.498,-2.09 2.265,-3.172 0.793,-1.058 1.486,-2.203 2.228,-3.349 0.366,-0.566 0.743,-1.145 1.121,-1.724 0.189,-0.29 0.377,-0.579 0.566,-0.869 0.176,-0.302 0.353,-0.604 0.529,-0.906 0.705,-1.208 1.41,-2.442 2.14,-3.688 0.692,-1.259 1.322,-2.568 2.001,-3.864 0.705,-1.297 1.272,-2.669 1.888,-4.028 0.302,-0.68 0.617,-1.373 0.919,-2.065 0.277,-0.705 0.554,-1.41 0.831,-2.115 2.241,-5.664 3.99,-11.719 5.123,-18 1.146,-6.281 1.7,-12.764 1.687,-19.271 0,-6.508 -0.504,-13.016 -1.271,-19.423 -0.101,-0.806 -0.189,-1.599 -0.29,-2.392 -0.113,-0.793 -0.214,-1.586 -0.327,-2.379 -0.214,-1.586 -0.453,-3.159 -0.68,-4.733 -0.466,-3.147 -0.931,-6.256 -1.385,-9.315 -0.453,-3.071 -0.881,-6.092 -1.233,-9.1 -0.176,-1.511 -0.315,-2.933 -0.441,-4.431 -0.088,-1.46 -0.189,-2.908 -0.277,-4.343 -0.037,-0.717 -0.1,-1.422 -0.126,-2.127 -0.025,-0.705 -0.037,-1.41 -0.05,-2.102 -0.038,-1.385 -0.088,-2.757 -0.101,-4.104 0.038,-2.694 0.038,-5.299 0.202,-7.792 0.038,-0.629 0.063,-1.246 0.101,-1.85 0.012,-0.302 0.037,-0.604 0.05,-0.906 0.025,-0.302 0.05,-0.605 0.075,-0.894 0.114,-1.196 0.214,-2.354 0.315,-3.487 0.113,-1.133 0.29,-2.228 0.428,-3.298 0.076,-0.528 0.151,-1.057 0.214,-1.573 0.088,-0.516 0.176,-1.02 0.264,-1.523 0.189,-0.995 0.315,-1.964 0.529,-2.896 0.201,-0.931 0.39,-1.825 0.567,-2.681 0.427,-1.699 0.805,-3.272 1.246,-4.657 0.818,-2.795 1.649,-4.934 2.265,-6.357 0.303,-0.717 0.567,-1.259 0.743,-1.624 0.176,-0.365 0.277,-0.541 0.277,-0.541 0.063,-0.101 0.189,-0.138 0.29,-0.075 0.075,0.037 0.1,0.163 0.063,0.264 z"
       fill="#ffffff"
       id="path6" />
    <path
       d="m 256.087,303.61 c 0,0 42.697,14.777 74.607,-31.935 29.971,-43.881 11.958,-98.75 -1.259,-130.093 -0.692,-1.636 -3.084,-1.334 -3.348,0.428 -3.966,26.396 -22.419,129.589 -72.278,161.524 z"
       fill="url(#paint2_linear_88_154)"
       id="path8"
       style="fill:url(#paint2_linear_88_154)" />
    <path
       opacity="0.6"
       d="m 260.544,304.201 c 0,0 0.125,-0.025 0.365,-0.076 0.239,-0.05 0.591,-0.125 1.057,-0.239 0.919,-0.226 2.278,-0.566 3.965,-1.107 0.856,-0.24 1.775,-0.579 2.795,-0.907 1.007,-0.377 2.089,-0.755 3.235,-1.233 2.29,-0.907 4.821,-2.077 7.514,-3.487 2.694,-1.385 5.514,-3.097 8.396,-5.01 1.41,-1.007 2.883,-2.014 4.305,-3.147 0.365,-0.277 0.718,-0.554 1.083,-0.843 l 0.541,-0.428 0.529,-0.453 c 0.705,-0.604 1.41,-1.209 2.127,-1.825 2.794,-2.543 5.576,-5.287 8.119,-8.321 0.327,-0.378 0.642,-0.755 0.969,-1.133 l 0.479,-0.566 0.453,-0.592 c 0.604,-0.793 1.208,-1.586 1.812,-2.391 0.63,-0.781 1.171,-1.637 1.725,-2.468 l 1.687,-2.505 1.535,-2.593 0.768,-1.296 c 0.126,-0.214 0.264,-0.428 0.378,-0.655 l 0.34,-0.667 c 0.465,-0.894 0.918,-1.775 1.384,-2.668 0.227,-0.441 0.453,-0.882 0.693,-1.322 0.201,-0.453 0.402,-0.906 0.604,-1.36 0.403,-0.906 0.805,-1.812 1.208,-2.706 0.189,-0.453 0.416,-0.894 0.592,-1.347 0.176,-0.453 0.34,-0.919 0.516,-1.372 0.34,-0.906 0.692,-1.812 1.032,-2.706 0.164,-0.453 0.353,-0.894 0.504,-1.334 0.151,-0.454 0.289,-0.907 0.428,-1.36 0.289,-0.906 0.579,-1.787 0.856,-2.681 0.276,-0.881 0.591,-1.75 0.793,-2.643 0.465,-1.763 0.931,-3.487 1.372,-5.161 0.39,-1.687 0.704,-3.349 1.057,-4.947 0.164,-0.806 0.365,-1.586 0.491,-2.354 0.126,-0.781 0.252,-1.548 0.377,-2.291 0.24,-1.498 0.479,-2.933 0.718,-4.305 0.189,-1.372 0.327,-2.681 0.466,-3.915 0.151,-1.233 0.302,-2.379 0.428,-3.436 0.126,-1.07 0.163,-2.052 0.251,-2.933 0.152,-1.775 0.265,-3.172 0.365,-4.116 0.089,-0.957 0.139,-1.46 0.139,-1.46 v -0.013 c 0.013,-0.113 0.113,-0.201 0.227,-0.189 0.113,0.013 0.188,0.101 0.188,0.214 0,0 0.013,0.516 0.026,1.473 0.012,0.956 0.025,2.366 0.037,4.154 0,0.893 0.025,1.888 -0.025,2.97 -0.063,1.083 -0.113,2.241 -0.189,3.487 -0.075,1.246 -0.138,2.581 -0.251,3.978 -0.152,1.397 -0.328,2.857 -0.517,4.38 -0.088,0.768 -0.188,1.549 -0.276,2.342 -0.101,0.793 -0.265,1.598 -0.403,2.416 -0.302,1.637 -0.592,3.324 -0.944,5.061 -0.416,1.724 -0.844,3.486 -1.284,5.287 -0.202,0.906 -0.504,1.8 -0.781,2.706 -0.277,0.906 -0.566,1.825 -0.856,2.744 -0.138,0.466 -0.289,0.919 -0.428,1.385 -0.163,0.465 -0.34,0.918 -0.503,1.372 -0.353,0.919 -0.705,1.837 -1.058,2.769 -0.176,0.466 -0.352,0.931 -0.528,1.397 -0.176,0.466 -0.403,0.919 -0.604,1.372 -0.416,0.919 -0.831,1.838 -1.247,2.769 -0.214,0.466 -0.415,0.932 -0.629,1.385 -0.239,0.453 -0.478,0.906 -0.717,1.36 -0.479,0.906 -0.957,1.812 -1.435,2.731 l -0.353,0.68 c -0.126,0.226 -0.264,0.44 -0.39,0.667 l -0.793,1.322 -1.599,2.656 -1.762,2.542 c -0.592,0.844 -1.158,1.712 -1.813,2.505 -0.629,0.806 -1.258,1.624 -1.9,2.43 l -0.479,0.604 -0.503,0.579 c -0.34,0.377 -0.667,0.768 -1.007,1.145 -2.631,3.097 -5.564,5.841 -8.472,8.384 -0.742,0.616 -1.485,1.221 -2.228,1.825 l -0.554,0.453 -0.566,0.415 c -0.378,0.277 -0.755,0.554 -1.133,0.831 -1.473,1.146 -3.008,2.115 -4.481,3.097 -0.743,0.478 -1.498,0.919 -2.241,1.359 -0.365,0.227 -0.73,0.441 -1.095,0.655 -0.365,0.214 -0.742,0.403 -1.107,0.604 -0.731,0.39 -1.448,0.78 -2.153,1.171 -0.717,0.352 -1.422,0.692 -2.127,1.032 -2.795,1.309 -5.4,2.391 -7.767,3.21 -1.17,0.44 -2.291,0.767 -3.323,1.107 -1.045,0.29 -1.989,0.592 -2.857,0.806 -1.737,0.453 -3.122,0.717 -4.066,0.894 -0.478,0.088 -0.843,0.138 -1.083,0.176 -0.251,0.038 -0.377,0.05 -0.377,0.05 -0.114,0.013 -0.227,-0.063 -0.239,-0.176 0.025,-0.088 0.1,-0.189 0.214,-0.214 z"
       fill="#ffffff"
       id="path10" />
    <path
       d="m 73.5041,38.842 182.7219,3.1092 c 10.082,0.1762 18.264,8.2071 18.604,18.2897 l 8.975,265.1451 c 0.265,7.88 -6.042,14.426 -13.934,14.438 L 60.3752,340.063 C 52.9611,340.076 46.982,333.996 47.1079,326.582 L 51.652,59.964 C 51.8534,48.0939 61.634,38.6406 73.5041,38.842 Z"
       fill="url(#paint3_linear_88_154)"
       id="path12"
       style="fill:url(#paint3_linear_88_154)" />
    <path
       d="M 91.0637,336.01 H 91.0512 L 67.6256,335.305 C 59.8339,335.066 53.603,328.533 53.7289,320.741 l 0.6042,-35.383 c 0,-0.24 0.1888,-0.403 0.428,-0.416 0.2392,0 0.428,0.202 0.4154,0.428 l -0.6042,35.384 c -0.1259,7.338 5.7399,13.481 13.0659,13.695 l 23.4255,0.705 c 0.2392,0.013 0.4154,0.201 0.4154,0.441 0,0.226 -0.1888,0.415 -0.4154,0.415 z"
       fill="#ffffff"
       id="path14" />
    <path
       d="m 54.95,274.834 c -0.0126,0 -0.0126,0 0,0 -0.2392,0 -0.428,-0.201 -0.428,-0.428 l 0.1007,-5.727 c 0,-0.239 0.2014,-0.441 0.428,-0.415 0.2391,0 0.4279,0.201 0.4153,0.428 l -0.1007,5.727 c 0,0.239 -0.1888,0.415 -0.4153,0.415 z"
       fill="#ffffff"
       id="path16" />
    <path
       d="m 74.0956,36.7021 c 24.8983,3.814 110.5194,15.7345 181.5634,11.5051 3.235,-0.1889 6.004,2.3035 6.118,5.5511 l 9.604,266.3407 c 0.126,3.651 -2.706,6.722 -6.357,6.873 -29.87,1.259 -152.863,5.992 -196.618,0.655 -2.6686,-0.328 -4.6448,-2.606 -4.6196,-5.287 L 66.9081,42.8197 c 0.0503,-3.8015 3.4364,-6.684 7.1875,-6.1176 z"
       fill="url(#paint4_linear_88_154)"
       id="path18"
       style="fill:url(#paint4_linear_88_154)" />
    <path
       opacity="0.6"
       d="m 76.6513,43.6503 c 23.9547,3.663 106.3657,15.1429 174.7157,11.0645 3.122,-0.1888 5.778,2.2154 5.891,5.3371 l 9.252,256.3091 c 0.126,3.512 -2.606,6.47 -6.117,6.621 -28.738,1.208 -147.112,5.765 -189.2047,0.629 -2.5679,-0.315 -4.4686,-2.505 -4.4434,-5.085 L 69.7407,49.5287 c 0.0378,-3.6504 3.298,-6.4197 6.9106,-5.8784 z"
       fill="#ffffff"
       id="path20" />
    <g
       opacity="0.6"
       id="g24">
      <path
         d="m 249.126,77.1836 c 0.932,0.0126 1.662,-0.7301 1.624,-1.6742 l -0.013,-0.2895 c -0.05,-0.9314 -0.843,-1.7245 -1.787,-1.7371 L 93.6943,69.6185 c -0.9315,-0.0252 -1.2336,0.5664 -0.6671,1.3091 l 1.7748,2.3035 c 0.5665,0.7427 1.8001,1.3594 2.7441,1.372 z"
         fill="#ffffff"
         id="path22" />
    </g>
    <g
       opacity="0.6"
       id="g28">
      <path
         d="m 93.5185,79.8521 c -0.9314,-0.0252 -1.2335,0.5664 -0.6671,1.3091 l 1.7749,2.3035 c 0.5664,0.7427 1.8,1.3595 2.744,1.3721 L 248.95,87.4173 c 0.932,0.0125 1.662,-0.7301 1.624,-1.6742 l -0.013,-0.2895 c -0.05,-0.9315 -0.843,-1.7245 -1.787,-1.7371 z"
         fill="#ffffff"
         id="path26" />
    </g>
    <path
       d="m 118.757,173.328 c -0.013,0 -0.038,0 -0.051,0 l -20.5679,0.113 c -2.9581,0.013 -5.4379,-1.989 -5.7652,-4.657 L 90.296,151.551 c -0.1259,-1.019 0.1762,-2.039 0.856,-2.87 0.7552,-0.919 1.9007,-1.51 3.1594,-1.624 1.7371,-0.138 4.1162,-0.39 6.7466,-0.654 5.715,-0.579 12.198,-1.234 16.012,-1.334 0.025,0 0.05,0 0.088,0 2.731,-0.038 5.098,1.586 5.79,3.977 1.133,3.953 1.158,11.455 1.07,19.448 -0.038,2.631 -2.391,4.783 -5.261,4.834 z M 94.4499,148.744 c -0.8056,0.063 -1.5357,0.428 -2.0014,1.007 -0.3777,0.466 -0.5539,1.045 -0.4909,1.611 l 2.0769,17.233 c 0.214,1.825 1.9763,3.197 4.091,3.184 l 20.5685,-0.113 c 0.012,0 0.025,0 0.037,0 1.964,-0.025 3.575,-1.435 3.588,-3.159 0.075,-7.868 0.063,-15.231 -1.007,-18.97 -0.478,-1.649 -2.279,-2.857 -4.204,-2.757 -3.752,0.101 -10.473,0.781 -15.886,1.322 -2.6308,0.252 -5.0224,0.491 -6.7721,0.642 z"
       fill="#ffffff"
       id="path30" />
    <path
       opacity="0.6"
       d="m 96.6907,150.443 c 4.3173,-0.365 13.6953,-1.46 18.1383,-1.586 1.889,-0.05 3.563,1.058 4.028,2.694 0.907,3.16 0.894,9.504 0.831,15.344 -0.012,1.75 -1.598,3.172 -3.562,3.185 l -16.4394,0.088 c -2.0266,0.013 -3.7259,-1.347 -3.9399,-3.134 l -1.6616,-13.771 c -0.1636,-1.41 1.007,-2.694 2.6056,-2.82 z"
       fill="#ffffff"
       id="path32" />
    <g
       opacity="0.6"
       id="g36">
      <path
         d="m 136.555,155.139 c -0.931,-0.013 -1.498,0.717 -1.246,1.623 l 1.951,6.961 c 0.252,0.907 1.221,1.624 2.165,1.612 l 103.52,-1.587 c 0.932,-0.012 1.675,-0.793 1.637,-1.724 l -0.164,-4.267 c -0.038,-0.932 -0.831,-1.712 -1.762,-1.712 z"
         fill="#ffffff"
         id="path34" />
    </g>
    <path
       d="m 119.965,127.144 c -0.013,0 -0.038,0 -0.05,0 l -20.5684,0.113 c -2.9581,0.013 -5.4379,-1.989 -5.7652,-4.657 l -2.0769,-17.233 c -0.1259,-1.019 0.1762,-2.039 0.856,-2.87 0.7552,-0.919 1.9007,-1.51 3.1594,-1.623 1.7371,-0.139 4.1162,-0.391 6.7471,-0.655 5.715,-0.5791 12.197,-1.2336 16.011,-1.3343 0.026,0 0.051,0 0.088,0 2.732,-0.0378 5.098,1.5863 5.791,3.9773 1.133,3.953 1.158,11.455 1.07,19.448 -0.051,2.644 -2.392,4.796 -5.262,4.834 z M 95.6584,102.56 c -0.8056,0.063 -1.5357,0.428 -2.0014,1.007 -0.3777,0.466 -0.5539,1.045 -0.4909,1.611 l 2.0769,17.233 c 0.214,1.825 1.9763,3.197 4.091,3.185 l 20.568,-0.114 c 0.013,0 0.025,0 0.038,0 1.964,-0.025 3.575,-1.435 3.587,-3.159 0.076,-7.867 0.063,-15.231 -1.007,-18.97 -0.478,-1.649 -2.278,-2.857 -4.204,-2.756 -3.751,0.1 -10.473,0.78 -15.885,1.321 -2.6439,0.265 -5.0355,0.504 -6.7726,0.642 z"
       fill="#ffffff"
       id="path38" />
    <path
       opacity="0.6"
       d="m 97.8865,104.26 c 4.3175,-0.365 13.6955,-1.461 18.1385,-1.586 1.888,-0.051 3.562,1.057 4.028,2.693 0.907,3.16 0.894,9.504 0.831,15.345 -0.013,1.749 -1.599,3.172 -3.562,3.184 l -16.44,0.088 c -2.0263,0.013 -3.7256,-1.347 -3.9396,-3.134 l -1.6616,-13.771 c -0.151,-1.397 1.007,-2.681 2.6057,-2.819 z"
       fill="#ffffff"
       id="path40" />
    <g
       opacity="0.6"
       id="g44">
      <path
         d="m 137.751,108.967 c -0.932,-0.012 -1.498,0.718 -1.246,1.624 l 1.951,6.961 c 0.252,0.906 1.221,1.624 2.165,1.611 l 103.52,-1.586 c 0.932,-0.012 1.674,-0.793 1.637,-1.724 l -0.164,-4.267 c -0.038,-0.932 -0.831,-1.712 -1.762,-1.712 z"
         fill="#ffffff"
         id="path42" />
    </g>
    <path
       d="m 119.436,217.397 c -0.012,0 -0.038,0 -0.05,0 l -20.5683,0.113 c -2.958,0.013 -5.4378,-1.989 -5.7651,-4.657 L 90.9757,195.62 c -0.1259,-1.019 0.1762,-2.039 0.8559,-2.87 0.7553,-0.919 1.9008,-1.51 3.1595,-1.624 1.7371,-0.138 4.1162,-0.39 6.7469,-0.654 5.715,-0.579 12.197,-1.234 16.012,-1.334 0.025,0 0.05,0 0.088,0 2.731,-0.038 5.098,1.586 5.79,3.977 1.133,3.953 1.158,11.455 1.07,19.448 -0.038,2.644 -2.392,4.796 -5.262,4.834 z M 95.1296,192.813 c -0.8056,0.063 -1.5357,0.428 -2.0014,1.007 -0.3777,0.466 -0.5539,1.045 -0.491,1.611 l 2.077,17.233 c 0.214,1.825 1.9762,3.197 4.091,3.185 l 20.5678,-0.114 c 0.013,0 0.025,0 0.038,0 1.964,-0.025 3.575,-1.435 3.588,-3.159 0.075,-7.868 0.062,-15.231 -1.007,-18.97 -0.479,-1.649 -2.279,-2.845 -4.205,-2.756 -3.751,0.1 -10.473,0.78 -15.885,1.321 -2.6311,0.252 -5.0353,0.504 -6.7724,0.642 z"
       fill="#ffffff"
       id="path46" />
    <path
       opacity="0.6"
       d="m 97.3705,194.512 c 4.3175,-0.365 13.6955,-1.46 18.1385,-1.586 1.888,-0.05 3.563,1.058 4.028,2.694 0.907,3.16 0.894,9.504 0.831,15.344 -0.012,1.75 -1.599,3.173 -3.562,3.185 l -16.44,0.088 c -2.0262,0.013 -3.7255,-1.334 -3.9395,-3.134 l -1.6616,-13.771 c -0.1636,-1.397 0.9944,-2.681 2.6056,-2.82 z"
       fill="#ffffff"
       id="path48" />
    <g
       opacity="0.6"
       id="g52">
      <path
         d="m 137.223,199.22 c -0.932,-0.012 -1.498,0.718 -1.247,1.624 l 1.951,6.961 c 0.252,0.906 1.221,1.624 2.166,1.611 l 103.52,-1.586 c 0.931,-0.012 1.674,-0.793 1.636,-1.724 l -0.163,-4.267 c -0.038,-0.932 -0.831,-1.712 -1.763,-1.712 z"
         fill="#ffffff"
         id="path50" />
    </g>
    <path
       d="m 118.165,259.754 c -0.013,0 -0.038,0 -0.051,0 l -20.5677,0.114 c -2.9581,0.012 -5.4379,-1.989 -5.7651,-4.658 l -2.077,-17.232 c -0.1259,-1.02 0.1762,-2.04 0.8559,-2.87 0.7553,-0.919 1.9008,-1.511 3.1595,-1.624 1.7371,-0.139 4.1162,-0.39 6.7344,-0.655 5.438,-0.541 12.197,-1.233 16.011,-1.334 2.707,-0.05 5.174,1.561 5.866,3.978 1.133,3.952 1.158,11.454 1.07,19.448 -0.025,2.643 -2.366,4.783 -5.236,4.833 z M 93.8581,235.171 c -0.8056,0.063 -1.5357,0.428 -2.0014,1.007 -0.3777,0.465 -0.5539,1.044 -0.4909,1.611 l 2.0769,17.232 c 0.214,1.825 1.9763,3.198 4.091,3.185 l 20.5683,-0.113 c 1.938,-0.063 3.612,-1.423 3.625,-3.16 0.076,-7.867 0.063,-15.231 -1.007,-18.969 -0.478,-1.649 -2.278,-2.82 -4.204,-2.757 -3.751,0.101 -10.486,0.78 -15.886,1.322 -2.6432,0.251 -5.0348,0.491 -6.7719,0.642 z"
       fill="#ffffff"
       id="path54" />
    <path
       opacity="0.6"
       d="m 96.0862,236.87 c 4.3178,-0.365 13.6948,-1.46 18.1388,-1.586 1.888,-0.05 3.562,1.057 4.028,2.694 0.906,3.159 0.894,9.503 0.831,15.344 -0.013,1.75 -1.599,3.172 -3.563,3.185 l -16.439,0.088 c -2.0266,0.012 -3.7259,-1.335 -3.9399,-3.135 l -1.6616,-13.77 c -0.151,-1.41 1.007,-2.694 2.6057,-2.82 z"
       fill="#ffffff"
       id="path56" />
    <g
       opacity="0.6"
       id="g60">
      <path
         d="m 135.952,241.565 c -0.932,-0.012 -1.498,0.718 -1.247,1.624 l 1.951,6.961 c 0.252,0.906 1.221,1.624 2.166,1.611 l 103.52,-1.586 c 0.931,-0.013 1.674,-0.793 1.636,-1.724 l -0.163,-4.268 c -0.038,-0.931 -0.831,-1.712 -1.763,-1.712 z"
         fill="#ffffff"
         id="path58" />
    </g>
    <path
       d="m 116.49,303.433 c -0.012,0 -0.037,0 -0.05,0 l -20.568,0.114 c -2.9581,0.012 -5.4379,-1.989 -5.7652,-4.658 l -2.0769,-17.232 c -0.1259,-1.02 0.1762,-2.039 0.8559,-2.87 0.7553,-0.919 1.9008,-1.511 3.1595,-1.624 1.7371,-0.139 4.1162,-0.39 6.747,-0.655 5.7147,-0.579 12.1977,-1.233 16.0117,-1.334 2.794,0 5.173,1.561 5.866,3.978 1.132,3.952 1.158,11.454 1.069,19.448 -0.025,2.643 -2.379,4.783 -5.249,4.833 z M 92.1838,278.85 c -0.8056,0.063 -1.5357,0.428 -2.0014,1.007 -0.3777,0.465 -0.5539,1.044 -0.491,1.611 l 2.077,17.232 c 0.214,1.826 1.9762,3.198 4.091,3.185 l 20.5686,-0.113 c 0.012,0 0.025,0 0.037,0 1.964,-0.025 3.575,-1.435 3.588,-3.16 0.075,-7.867 0.063,-15.231 -1.007,-18.969 -0.479,-1.649 -2.279,-2.795 -4.205,-2.757 -3.751,0.101 -10.472,0.78 -15.8851,1.322 -2.6308,0.251 -5.0224,0.491 -6.7721,0.642 z"
       fill="#ffffff"
       id="path62" />
    <path
       opacity="0.6"
       d="m 94.4251,280.549 c 4.3176,-0.365 13.6949,-1.46 18.1389,-1.586 1.888,-0.051 3.562,1.057 4.028,2.694 0.906,3.159 0.894,9.503 0.831,15.344 -0.013,1.75 -1.599,3.172 -3.563,3.185 l -16.4391,0.088 c -2.0266,0.012 -3.7259,-1.347 -3.9399,-3.135 l -1.6615,-13.771 c -0.1637,-1.409 1.007,-2.681 2.6056,-2.819 z"
       fill="#ffffff"
       id="path64" />
    <g
       opacity="0.6"
       id="g68">
      <path
         d="m 134.289,285.257 c -0.931,-0.013 -1.497,0.717 -1.246,1.624 l 1.951,6.96 c 0.252,0.907 1.221,1.624 2.165,1.612 l 103.521,-1.586 c 0.931,-0.013 1.674,-0.793 1.636,-1.725 l -0.163,-4.267 c -0.038,-0.932 -0.831,-1.712 -1.763,-1.712 z"
         fill="#ffffff"
         id="path66" />
    </g>
    <path
       d="m 176.81,4.47779 c -6.52,-4.707763 -12.26,-4.707762 -16.326,-3.587466 -3.701,1.019596 -6.155,4.544126 -5.866,8.370756 l 1.423,19.04502 20.706,2.1903 c -0.012,0 12.852,-16.7919 0.063,-26.01861 z m -9.377,15.18061 c -2.858,-0.0503 -5.136,-2.4042 -5.086,-5.2616 0.05,-2.8574 2.404,-5.13572 5.262,-5.08537 2.857,0.05035 5.135,2.40427 5.085,5.26157 -0.05,2.8574 -2.404,5.1358 -5.261,5.0854 z"
       fill="url(#paint5_linear_88_154)"
       id="path70"
       style="fill:url(#paint5_linear_88_154)" />
    <path
       d="m 157.879,20.804 c -0.353,-0.1384 -0.629,-0.4783 -0.655,-0.8811 l -0.226,-3.0336 c -0.038,-0.5665 0.377,-1.0574 0.944,-1.0951 0.566,-0.0378 1.057,0.3776 1.095,0.944 l 0.227,3.0336 c 0.037,0.5665 -0.378,1.0574 -0.945,1.0952 -0.151,0.0125 -0.302,-0.0126 -0.44,-0.063 z m -0.441,-5.9413 c -0.352,-0.1385 -0.629,-0.4783 -0.654,-0.8811 l -0.176,-2.3036 c -0.29,-3.90214 2.228,-7.48961 5.979,-8.52179 2.568,-0.70491 5.211,-0.78043 7.842,-0.18882 0.541,0.12588 0.906,0.66715 0.78,1.221 -0.126,0.55386 -0.667,0.90631 -1.221,0.78043 -2.303,-0.51609 -4.607,-0.45315 -6.847,0.16364 -2.808,0.78043 -4.696,3.4616 -4.482,6.39454 l 0.177,2.3035 c 0.037,0.5664 -0.378,1.0574 -0.944,1.0951 -0.164,0.0126 -0.315,-0.0126 -0.454,-0.0629 z"
       fill="#ffffff"
       id="path72" />
    <path
       d="m 127.53,40.1133 0.163,-9.5666 c 0.051,-3.2979 2.833,-5.891 6.131,-5.7273 l 65.883,3.386 c 2.92,0.1511 5.249,2.5049 5.375,5.4253 l 0.39,9.2015 z"
       fill="url(#paint6_linear_88_154)"
       id="path74"
       style="fill:url(#paint6_linear_88_154)" />
    <path
       d="m 152.328,28.6713 c -0.013,0 -0.013,0 0,0 l -2.845,-0.0503 c -0.239,0 -0.428,-0.2014 -0.416,-0.428 0,-0.2266 0.189,-0.4154 0.428,-0.4154 0,0 0,0 0.013,0 l 2.832,0.0503 c 0.239,0 0.428,0.2014 0.416,0.428 -0.013,0.2266 -0.202,0.4154 -0.428,0.4154 z"
       fill="#ffffff"
       id="path76" />
    <path
       d="m 130.79,37.6336 c -0.39,-0.1511 -0.667,-0.5287 -0.654,-0.9818 l 0.063,-3.8644 c 0.025,-1.5861 0.667,-3.0714 1.812,-4.1791 1.146,-1.1077 2.644,-1.6994 4.23,-1.6742 l 10.422,0.1763 c 0.567,0.0125 1.02,0.4783 1.007,1.0447 -0.012,0.5665 -0.478,1.0196 -1.045,1.007 l -10.422,-0.1762 c -2.14,-0.0378 -3.927,1.6742 -3.953,3.8266 l -0.063,3.8644 c -0.012,0.5665 -0.478,1.0196 -1.044,1.007 -0.126,0.0126 -0.239,-0.0126 -0.353,-0.0503 z"
       fill="#ffffff"
       id="path78" />
    <path
       d="m 106.937,36.2615 115.277,1.9636 c 4.142,0.0756 7.641,3.1092 8.271,7.2127 l 0.088,0.5665 c 0.692,4.4812 -2.82,8.5218 -7.352,8.4463 l -118.26,-2.0141 c -2.719,-0.0503 -4.846,-2.3538 -4.67,-5.0602 l 0.34,-5.2868 c 0.214,-3.3231 2.996,-5.8784 6.306,-5.828 z"
       fill="url(#paint7_linear_88_154)"
       id="path80"
       style="fill:url(#paint7_linear_88_154)" />
    <path
       d="m 157.073,118.396 c 8.405,0 15.218,-6.814 15.218,-15.219 0,-8.4047 -6.813,-15.2183 -15.218,-15.2183 -8.405,0 -15.219,6.8136 -15.219,15.2183 0,8.405 6.814,15.219 15.219,15.219 z"
       fill="url(#paint8_linear_88_154)"
       id="path82"
       style="fill:url(#paint8_linear_88_154)" />
    <path
       d="m 157.073,117.892 c 8.127,0 14.715,-6.588 14.715,-14.715 0,-8.1265 -6.588,-14.7146 -14.715,-14.7146 -8.127,0 -14.715,6.5881 -14.715,14.7146 0,8.127 6.588,14.715 14.715,14.715 z"
       fill="url(#paint9_linear_88_154)"
       id="path84"
       style="fill:url(#paint9_linear_88_154)" />
    <path
       d="m 144.951,97.4877 c -0.062,0 -0.125,-0.0126 -0.188,-0.0504 -0.214,-0.1007 -0.29,-0.365 -0.189,-0.5664 2.392,-4.7456 7.187,-7.7037 12.512,-7.7037 0.843,0 1.699,0.0756 2.53,0.2266 0.227,0.0378 0.39,0.2644 0.34,0.4909 -0.038,0.2266 -0.264,0.3902 -0.491,0.3399 -0.78,-0.1385 -1.573,-0.214 -2.379,-0.214 -4.997,0 -9.491,2.7693 -11.744,7.2379 -0.088,0.151 -0.239,0.2392 -0.391,0.2392 z"
       fill="#ffffff"
       id="path86" />
    <path
       opacity="0.78"
       d="m 169.515,106.369 c 1.58,-6.6916 -2.564,-13.3968 -9.255,-14.9767 -6.691,-1.58 -13.396,2.5634 -14.976,9.2547 -1.58,6.691 2.563,13.396 9.254,14.976 6.692,1.58 13.397,-2.563 14.977,-9.254 z"
       fill="#ffffff"
       id="path88" />
    <path
       d="m 156.179,112.744 v -1.36 c -1.409,-0.05 -2.807,-0.39 -3.801,-0.818 -0.353,-0.151 -0.529,-0.554 -0.428,-0.931 l 0.34,-1.259 c 0.126,-0.466 0.629,-0.705 1.07,-0.516 0.982,0.415 2.203,0.742 3.512,0.742 1.359,0 2.379,-0.465 2.379,-1.409 0,-0.856 -0.781,-1.36 -2.669,-1.863 -2.694,-0.743 -4.632,-1.914 -4.632,-4.293 0,-2.1396 1.573,-3.776 4.292,-4.2166 V 95.461 c 0,-0.4406 0.353,-0.793 0.793,-0.793 h 0.793 c 0.441,0 0.793,0.3524 0.793,0.793 v 1.221 c 1.31,0.0503 2.254,0.2769 3.009,0.5412 0.39,0.1385 0.604,0.5539 0.491,0.9441 l -0.315,1.1707 c -0.126,0.4531 -0.604,0.692 -1.045,0.5286 -0.692,-0.2643 -1.674,-0.5412 -2.958,-0.5412 -1.611,0 -2.077,0.6671 -2.077,1.2716 0,0.742 0.969,1.246 3.072,1.888 2.995,0.894 4.242,2.14 4.242,4.38 0,2.052 -1.523,3.89 -4.469,4.356 v 1.51 c 0,0.441 -0.352,0.793 -0.793,0.793 h -0.793 c -0.453,0.013 -0.806,-0.34 -0.806,-0.78 z"
       fill="url(#paint10_linear_88_154)"
       id="path90"
       style="fill:url(#paint10_linear_88_154)" />
    <path
       d="m 200.387,111.611 c 14.627,0 26.484,-11.8575 26.484,-26.4844 0,-14.6268 -11.857,-26.4843 -26.484,-26.4843 -14.627,0 -26.484,11.8575 -26.484,26.4843 0,14.6269 11.857,26.4844 26.484,26.4844 z"
       fill="url(#paint11_linear_88_154)"
       id="path92"
       style="fill:url(#paint11_linear_88_154)" />
    <path
       d="m 200.387,110.73 c 14.141,0 25.604,-11.4631 25.604,-25.6034 0,-14.1402 -11.463,-25.6032 -25.604,-25.6032 -14.14,0 -25.603,11.463 -25.603,25.6032 0,14.1403 11.463,25.6034 25.603,25.6034 z"
       fill="url(#paint12_linear_88_154)"
       id="path94"
       style="fill:url(#paint12_linear_88_154)" />
    <path
       d="m 179.265,74.9181 c -0.063,0 -0.126,-0.0126 -0.189,-0.0503 -0.214,-0.1007 -0.289,-0.3651 -0.189,-0.5665 4.116,-8.1567 12.361,-13.2295 21.5,-13.2295 1.46,0 2.92,0.1259 4.343,0.3902 0.226,0.0378 0.39,0.2643 0.34,0.4909 -0.038,0.2266 -0.265,0.3902 -0.491,0.3399 -1.372,-0.2518 -2.782,-0.3777 -4.192,-0.3777 -8.811,0 -16.754,4.8966 -20.732,12.7639 -0.075,0.151 -0.226,0.2391 -0.39,0.2391 z"
       fill="#ffffff"
       id="path96" />
    <path
       opacity="0.78"
       d="m 216.27,101.021 c 8.464,-8.4653 8.464,-22.1895 0,-30.6544 -8.465,-8.4648 -22.19,-8.4648 -30.654,0 -8.465,8.4649 -8.465,22.1891 0,30.6544 8.464,8.464 22.189,8.464 30.654,0 z"
       fill="#ffffff"
       id="path98" />
    <path
       d="m 198.814,101.793 v -2.3542 c -2.455,-0.1007 -4.884,-0.6797 -6.621,-1.435 -0.617,-0.2643 -0.932,-0.9567 -0.756,-1.6112 l 0.604,-2.1903 c 0.214,-0.8056 1.096,-1.221 1.863,-0.8937 1.712,0.7175 3.827,1.284 6.105,1.284 2.367,0 4.129,-0.8056 4.129,-2.442 0,-1.4854 -1.359,-2.3665 -4.657,-3.2476 -4.695,-1.284 -8.069,-3.3357 -8.069,-7.4645 0,-3.7259 2.732,-6.5833 7.465,-7.3385 v -2.3539 c 0,-0.7553 0.616,-1.3721 1.372,-1.3721 h 1.384 c 0.755,0 1.372,0.6168 1.372,1.3721 v 2.1147 c 2.279,0.0881 3.928,0.4783 5.249,0.9441 0.667,0.2391 1.045,0.9566 0.856,1.6489 l -0.554,2.0266 c -0.214,0.7805 -1.044,1.2084 -1.812,0.9189 -1.209,-0.4531 -2.921,-0.9315 -5.149,-0.9315 -2.807,0 -3.612,1.1581 -3.612,2.2029 0,1.2839 1.687,2.1651 5.337,3.2853 5.211,1.5609 7.389,3.726 7.389,7.6281 0,3.5749 -2.644,6.7847 -7.779,7.5778 v 2.6431 c 0,0.756 -0.617,1.372 -1.372,1.372 h -1.385 c -0.743,0 -1.359,-0.616 -1.359,-1.384 z"
       fill="url(#paint13_linear_88_154)"
       id="path100"
       style="fill:url(#paint13_linear_88_154)" />
    <path
       d="m 218.652,171.54 c 15.051,0 27.252,-12.201 27.252,-27.252 0,-15.051 -12.201,-27.252 -27.252,-27.252 -15.051,0 -27.253,12.201 -27.253,27.252 0,15.051 12.202,27.252 27.253,27.252 z"
       fill="url(#paint14_linear_88_154)"
       id="path102"
       style="fill:url(#paint14_linear_88_154)" />
    <path
       d="m 218.652,170.634 c 14.55,0 26.345,-11.795 26.345,-26.346 0,-14.55 -11.795,-26.346 -26.345,-26.346 -14.551,0 -26.346,11.796 -26.346,26.346 0,14.551 11.795,26.346 26.346,26.346 z"
       fill="url(#paint15_linear_88_154)"
       id="path104"
       style="fill:url(#paint15_linear_88_154)" />
    <path
       d="m 196.926,133.765 c -0.063,0 -0.126,-0.013 -0.189,-0.051 -0.214,-0.1 -0.29,-0.365 -0.189,-0.566 4.242,-8.396 12.713,-13.607 22.104,-13.607 1.498,0 2.996,0.138 4.468,0.403 0.227,0.037 0.391,0.264 0.34,0.49 -0.037,0.227 -0.264,0.391 -0.491,0.34 -1.409,-0.251 -2.857,-0.39 -4.317,-0.39 -9.076,0 -17.258,5.035 -21.349,13.142 -0.075,0.151 -0.226,0.239 -0.377,0.239 z"
       fill="#ffffff"
       id="path106" />
    <path
       opacity="0.78"
       d="m 235.002,160.634 c 8.711,-8.711 8.711,-22.833 0,-31.544 -8.711,-8.711 -22.833,-8.711 -31.544,0 -8.711,8.711 -8.711,22.833 0,31.544 8.711,8.711 22.833,8.711 31.544,0 z"
       fill="#ffffff"
       id="path108" />
    <path
       d="m 217.041,161.445 v -2.429 c -2.531,-0.101 -5.035,-0.693 -6.81,-1.473 -0.63,-0.277 -0.957,-0.994 -0.781,-1.662 l 0.617,-2.265 c 0.227,-0.831 1.133,-1.259 1.926,-0.932 1.762,0.743 3.94,1.322 6.281,1.322 2.442,0 4.255,-0.831 4.255,-2.518 0,-1.523 -1.41,-2.442 -4.784,-3.348 -4.833,-1.322 -8.295,-3.424 -8.295,-7.678 0,-3.84 2.807,-6.773 7.679,-7.553 v -2.429 c 0,-0.781 0.629,-1.41 1.409,-1.41 h 1.423 c 0.78,0 1.41,0.629 1.41,1.41 v 2.177 c 2.341,0.088 4.04,0.491 5.4,0.97 0.692,0.239 1.07,0.994 0.881,1.699 l -0.567,2.089 c -0.214,0.806 -1.082,1.247 -1.863,0.957 -1.246,-0.466 -3.008,-0.957 -5.286,-0.957 -2.895,0 -3.714,1.196 -3.714,2.266 0,1.322 1.737,2.228 5.489,3.386 5.362,1.611 7.602,3.839 7.602,7.842 0,3.676 -2.718,6.974 -8.005,7.805 v 2.719 c 0,0.78 -0.63,1.409 -1.41,1.409 h -1.422 c -0.806,0.013 -1.435,-0.616 -1.435,-1.397 z"
       fill="url(#paint16_linear_88_154)"
       id="path110"
       style="fill:url(#paint16_linear_88_154)" />
    <path
       d="m 253.62,127.131 c 11.026,0 19.964,-8.938 19.964,-19.963 0,-11.0262 -8.938,-19.9644 -19.964,-19.9644 -11.026,0 -19.964,8.9382 -19.964,19.9644 0,11.025 8.938,19.963 19.964,19.963 z"
       fill="url(#paint17_linear_88_154)"
       id="path112"
       style="fill:url(#paint17_linear_88_154)" />
    <path
       d="m 253.62,126.477 c 10.665,0 19.31,-8.645 19.31,-19.309 0,-10.6645 -8.645,-19.3096 -19.31,-19.3096 -10.664,0 -19.309,8.6451 -19.309,19.3096 0,10.664 8.645,19.309 19.309,19.309 z"
       fill="url(#paint18_linear_88_154)"
       id="path114"
       style="fill:url(#paint18_linear_88_154)" />
    <path
       d="m 237.697,99.5649 c -0.063,0 -0.126,-0.0126 -0.189,-0.0504 -0.214,-0.1007 -0.289,-0.365 -0.189,-0.5664 3.122,-6.1931 9.366,-10.0323 16.301,-10.0323 1.108,0 2.216,0.1007 3.286,0.3021 0.226,0.0377 0.39,0.2643 0.34,0.4909 -0.038,0.2266 -0.265,0.3902 -0.491,0.3399 -1.032,-0.1889 -2.077,-0.277 -3.135,-0.277 -6.608,0 -12.562,3.663 -15.533,9.5666 -0.088,0.1511 -0.239,0.2266 -0.39,0.2266 z"
       fill="#ffffff"
       id="path116" />
    <path
       opacity="0.78"
       d="m 265.585,119.137 c 6.381,-6.381 6.381,-16.726 0,-23.1064 -6.381,-6.3806 -16.726,-6.3806 -23.106,0 -6.381,6.3804 -6.381,16.7254 0,23.1064 6.38,6.38 16.725,6.38 23.106,0 z"
       fill="#ffffff"
       id="path118" />
    <path
       d="m 252.437,119.73 v -1.775 c -1.85,-0.075 -3.688,-0.516 -4.985,-1.082 -0.466,-0.202 -0.705,-0.73 -0.566,-1.221 l 0.453,-1.662 c 0.164,-0.604 0.831,-0.919 1.41,-0.68 1.296,0.542 2.882,0.97 4.607,0.97 1.787,0 3.121,-0.605 3.121,-1.851 0,-1.12 -1.032,-1.787 -3.511,-2.454 -3.538,-0.97 -6.08,-2.505 -6.08,-5.627 0,-2.82 2.052,-4.9595 5.626,-5.5385 v -1.7749 c 0,-0.5664 0.466,-1.0322 1.033,-1.0322 h 1.044 c 0.567,0 1.033,0.4658 1.033,1.0322 v 1.5987 c 1.711,0.0629 2.958,0.365 3.952,0.7049 0.504,0.1762 0.78,0.7298 0.642,1.2458 l -0.415,1.536 c -0.164,0.592 -0.793,0.919 -1.36,0.692 -0.906,-0.34 -2.203,-0.705 -3.877,-0.705 -2.115,0 -2.719,0.882 -2.719,1.662 0,0.969 1.272,1.636 4.028,2.48 3.928,1.183 5.564,2.807 5.564,5.752 0,2.694 -2.001,5.111 -5.866,5.715 v 1.989 c 0,0.566 -0.466,1.032 -1.032,1.032 h -1.045 c -0.604,0.025 -1.057,-0.44 -1.057,-1.007 z"
       fill="url(#paint19_linear_88_154)"
       id="path120"
       style="fill:url(#paint19_linear_88_154)" />
  </g>
  <defs
     id="defs222">
    <linearGradient
       id="paint0_linear_88_154"
       x1="359.452"
       y1="391.552"
       x2="110.35"
       y2="122.681"
       gradientUnits="userSpaceOnUse">
      <stop
         stop-color="#B37CFF"
         id="stop122" />
      <stop
         offset="1"
         stop-color="#F895E7"
         id="stop124" />
    </linearGradient>
    <linearGradient
       id="paint1_linear_88_154"
       x1="350.22"
       y1="5.5212402"
       x2="272.97198"
       y2="243.295"
       gradientUnits="userSpaceOnUse">
      <stop
         stop-color="#CB236D"
         id="stop127" />
      <stop
         offset="1"
         stop-color="#4C246D"
         id="stop129" />
    </linearGradient>
    <linearGradient
       id="paint2_linear_88_154"
       x1="358.832"
       y1="8.2247601"
       x2="291.45901"
       y2="305.535"
       gradientUnits="userSpaceOnUse">
      <stop
         stop-color="#A737D5"
         id="stop132" />
      <stop
         offset="1"
         stop-color="#EF497A"
         id="stop134" />
    </linearGradient>
    <linearGradient
       id="paint3_linear_88_154"
       x1="36.174599"
       y1="359.28799"
       x2="276.67801"
       y2="53.0765"
       gradientUnits="userSpaceOnUse">
      <stop
         stop-color="#2B3582"
         id="stop137" />
      <stop
         offset="1"
         stop-color="#150E42"
         id="stop139" />
    </linearGradient>
    <linearGradient
       id="paint4_linear_88_154"
       x1="21.762899"
       y1="391.35501"
       x2="240.216"
       y2="80.570602"
       gradientUnits="userSpaceOnUse">
      <stop
         stop-color="#A737D5"
         id="stop142" />
      <stop
         offset="1"
         stop-color="#EF497A"
         id="stop144" />
    </linearGradient>
    <linearGradient
       id="paint5_linear_88_154"
       x1="198.033"
       y1="-22.194901"
       x2="111.072"
       y2="86.228401"
       gradientUnits="userSpaceOnUse">
      <stop
         stop-color="#2B3582"
         id="stop147" />
      <stop
         offset="1"
         stop-color="#150E42"
         id="stop149" />
    </linearGradient>
    <linearGradient
       id="paint6_linear_88_154"
       x1="206.757"
       y1="-15.2861"
       x2="120.834"
       y2="93.842499"
       gradientUnits="userSpaceOnUse">
      <stop
         stop-color="#2B3582"
         id="stop152" />
      <stop
         offset="1"
         stop-color="#150E42"
         id="stop154" />
    </linearGradient>
    <linearGradient
       id="paint7_linear_88_154"
       x1="196.05099"
       y1="-8.7023001"
       x2="136.21001"
       y2="96.864899"
       gradientUnits="userSpaceOnUse">
      <stop
         stop-color="#2B3582"
         id="stop157" />
      <stop
         offset="1"
         stop-color="#150E42"
         id="stop159" />
    </linearGradient>
    <linearGradient
       id="paint8_linear_88_154"
       x1="136.256"
       y1="127.338"
       x2="156.664"
       y2="103.651"
       gradientUnits="userSpaceOnUse">
      <stop
         stop-color="#FDF53F"
         id="stop162" />
      <stop
         offset="1"
         stop-color="#D93C65"
         id="stop164" />
    </linearGradient>
    <linearGradient
       id="paint9_linear_88_154"
       x1="168.196"
       y1="86.374397"
       x2="107.85"
       y2="177.53999"
       gradientUnits="userSpaceOnUse">
      <stop
         stop-color="#FDF53F"
         id="stop167" />
      <stop
         offset="1"
         stop-color="#D93C65"
         id="stop169" />
    </linearGradient>
    <linearGradient
       id="paint10_linear_88_154"
       x1="166.396"
       y1="88.986504"
       x2="134.263"
       y2="142.93201"
       gradientUnits="userSpaceOnUse">
      <stop
         stop-color="#FDF53F"
         id="stop172" />
      <stop
         offset="1"
         stop-color="#D93C65"
         id="stop174" />
    </linearGradient>
    <linearGradient
       id="paint11_linear_88_154"
       x1="164.14101"
       y1="127.198"
       x2="199.66701"
       y2="85.962799"
       gradientUnits="userSpaceOnUse">
      <stop
         stop-color="#FDF53F"
         id="stop177" />
      <stop
         offset="1"
         stop-color="#D93C65"
         id="stop179" />
    </linearGradient>
    <linearGradient
       id="paint12_linear_88_154"
       x1="219.742"
       y1="55.8871"
       x2="114.691"
       y2="214.59"
       gradientUnits="userSpaceOnUse">
      <stop
         stop-color="#FDF53F"
         id="stop182" />
      <stop
         offset="1"
         stop-color="#D93C65"
         id="stop184" />
    </linearGradient>
    <linearGradient
       id="paint13_linear_88_154"
       x1="216.608"
       y1="60.434502"
       x2="160.67"
       y2="154.345"
       gradientUnits="userSpaceOnUse">
      <stop
         stop-color="#FDF53F"
         id="stop187" />
      <stop
         offset="1"
         stop-color="#D93C65"
         id="stop189" />
    </linearGradient>
    <linearGradient
       id="paint14_linear_88_154"
       x1="181.35699"
       y1="187.575"
       x2="217.91299"
       y2="145.144"
       gradientUnits="userSpaceOnUse">
      <stop
         stop-color="#FDF53F"
         id="stop192" />
      <stop
         offset="1"
         stop-color="#D93C65"
         id="stop194" />
    </linearGradient>
    <linearGradient
       id="paint15_linear_88_154"
       x1="238.569"
       y1="114.197"
       x2="130.47301"
       y2="277.5"
       gradientUnits="userSpaceOnUse">
      <stop
         stop-color="#FDF53F"
         id="stop197" />
      <stop
         offset="1"
         stop-color="#D93C65"
         id="stop199" />
    </linearGradient>
    <linearGradient
       id="paint16_linear_88_154"
       x1="235.345"
       y1="118.876"
       x2="177.786"
       y2="215.509"
       gradientUnits="userSpaceOnUse">
      <stop
         stop-color="#FDF53F"
         id="stop202" />
      <stop
         offset="1"
         stop-color="#D93C65"
         id="stop204" />
    </linearGradient>
    <linearGradient
       id="paint17_linear_88_154"
       x1="226.289"
       y1="138.879"
       x2="253.073"
       y2="107.791"
       gradientUnits="userSpaceOnUse">
      <stop
         stop-color="#FDF53F"
         id="stop207" />
      <stop
         offset="1"
         stop-color="#D93C65"
         id="stop209" />
    </linearGradient>
    <linearGradient
       id="paint18_linear_88_154"
       x1="268.20801"
       y1="85.115997"
       x2="189.007"
       y2="204.767"
       gradientUnits="userSpaceOnUse">
      <stop
         stop-color="#FDF53F"
         id="stop212" />
      <stop
         offset="1"
         stop-color="#D93C65"
         id="stop214" />
    </linearGradient>
    <linearGradient
       id="paint19_linear_88_154"
       x1="265.845"
       y1="88.544197"
       x2="223.672"
       y2="159.34599"
       gradientUnits="userSpaceOnUse">
      <stop
         stop-color="#FDF53F"
         id="stop217" />
      <stop
         offset="1"
         stop-color="#D93C65"
         id="stop219" />
    </linearGradient>
  </defs>
</svg>
