<?xml version="1.0" encoding="UTF-8" standalone="no"?>
<svg
   width="300"
   height="300"
   viewBox="0 0 300 300"
   fill="none"
   version="1.1"
   id="svg452"
   sodipodi:docname="user-earnings-5.svg"
   inkscape:version="1.2.1 (9c6d41e410, 2022-07-14)"
   xmlns:inkscape="http://www.inkscape.org/namespaces/inkscape"
   xmlns:sodipodi="http://sodipodi.sourceforge.net/DTD/sodipodi-0.dtd"
   xmlns="http://www.w3.org/2000/svg"
   xmlns:svg="http://www.w3.org/2000/svg">
  <sodipodi:namedview
     id="namedview454"
     pagecolor="#ffffff"
     bordercolor="#000000"
     borderopacity="0.25"
     inkscape:showpageshadow="2"
     inkscape:pageopacity="0.0"
     inkscape:pagecheckerboard="0"
     inkscape:deskcolor="#d1d1d1"
     showgrid="false"
     inkscape:zoom="1.4728338"
     inkscape:cx="193.844"
     inkscape:cy="193.844"
     inkscape:window-width="1920"
     inkscape:window-height="991"
     inkscape:window-x="-9"
     inkscape:window-y="-9"
     inkscape:window-maximized="1"
     inkscape:current-layer="svg452" />
  <g
     id="g654"
     transform="matrix(0.77479927,0,0,0.77479927,-0.5360801,-0.33084145)">
    <path
       d="M 382.192,164.887 C 371.695,96.1995 328.667,11.8048 243.661,2.968 c 0,0 -64.542,-7.85345 -128.167,4.05297 C 77.7284,14.0771 44.6269,35.0994 23.6711,65.3172 2.71529,95.5218 -4.27441,132.371 4.21688,167.492 c 5.51469,22.816 9.24872,46.416 8.22552,69.857 -1.289,29.567 -3.72075,60.648 9.355,88.208 19.1486,40.384 65.8707,52.29 106.6266,56.078 15.016,1.395 30.098,1.966 45.14,3.149 28.85,2.285 61.194,-1.409 88.993,-8.917 141.681,-38.27 130.133,-142.279 119.635,-210.98 z"
       fill="#f4f7fa"
       id="path2" />
    <path
       d="m 151.52,297.147 28.835,26.045 c 0,0 18.79,-9.887 21.156,-26.71 4.823,-34.31 34.536,-27.693 47.399,-26.789 19.401,1.369 34.789,-5.594 27.853,-25.394 -7.84,-22.404 26.058,-32.544 57.074,-25.806 30.337,6.591 59.558,-43.546 -4.811,-63.838 -38.443,-12.119 -60.223,20.571 -75.146,34.457 -14.923,13.886 -38.47,-5.116 -47.426,20.225 -7.654,21.647 -5.555,44.357 -24.823,46.589 -19.281,2.233 -31.214,13.461 -30.111,41.221 z"
       fill="url(#paint0_linear_89_342)"
       id="path4"
       style="fill:url(#paint0_linear_89_342)" />
    <g
       opacity="0.5"
       id="g20">
      <path
         d="m 161.58,311.1 0.704,0.425 c 0.266,-0.438 27.149,-43.612 66.708,-78.375 36.437,-32.025 91.411,-63.266 146.332,-30.191 l 0.425,-0.704 c -24.45,-14.724 -50.934,-18.152 -78.72,-10.179 -22.205,6.365 -45.274,19.986 -68.582,40.463 -39.666,34.856 -66.601,78.123 -66.867,78.561 z"
         fill="#beb8f2"
         id="path6" />
      <path
         d="m 285.534,195.929 0.678,0.465 c 15.654,-22.364 49.114,-43.997 49.446,-44.21 l -0.438,-0.691 c -0.346,0.213 -33.939,21.939 -49.686,44.436 z"
         fill="#beb8f2"
         id="path8" />
      <path
         d="m 304.204,191.119 c 32.025,5.74 45.632,29.155 45.765,29.394 l 0.718,-0.399 c -0.133,-0.239 -13.913,-23.985 -46.337,-29.792 z"
         fill="#beb8f2"
         id="path10" />
      <path
         d="m 204.356,257.295 c 32.729,-22.55 78.109,5.674 78.534,5.98 l 0.532,-0.625 c -0.386,-0.345 -46.51,-28.782 -79.531,-6.033 z"
         fill="#beb8f2"
         id="path12" />
      <path
         d="m 215.159,244.964 0.704,0.411 c 12.81,-21.886 4.279,-52.622 4.186,-52.927 l -0.784,0.226 c 0.08,0.319 8.518,30.709 -4.106,52.29 z"
         fill="#beb8f2"
         id="path14" />
      <path
         d="m 166.657,304.828 c 10.963,-10.378 34.895,-4.811 35.148,-4.757 l 0.186,-0.798 c -0.997,-0.239 -24.611,-5.727 -35.892,4.957 z"
         fill="#beb8f2"
         id="path16" />
      <path
         d="m 172.888,294.516 0.691,0.439 c 6.391,-10.073 1.98,-31.733 0.531,-38.843 -0.199,-1.009 -0.385,-1.873 -0.385,-2.033 h -0.824 c 0,0.226 0.12,0.811 0.399,2.206 1.435,7.03 5.807,28.437 -0.412,38.231 z"
         fill="#beb8f2"
         id="path18" />
    </g>
    <path
       d="m 232.538,315.418 -27.041,24.424 c 0,0 -17.621,-9.275 -19.84,-25.048 -4.518,-32.185 -32.397,-25.979 -44.463,-25.129 -18.192,1.289 -32.623,-5.249 -26.125,-23.826 7.362,-21.009 -24.4508,-30.523 -53.5258,-24.211 -28.4638,6.179 -55.86452,-40.849 4.5047,-59.878 36.0511,-11.362 56.4891,19.295 70.4821,32.317 13.992,13.023 36.078,-4.797 44.489,18.976 7.176,20.305 5.223,41.606 23.295,43.693 18.072,2.086 29.248,12.637 28.224,38.682 z"
       fill="url(#paint1_linear_89_342)"
       id="path22"
       style="fill:url(#paint1_linear_89_342)" />
    <g
       opacity="0.5"
       id="g38">
      <path
         d="m 223.09,328.507 -0.651,0.399 C 222.187,328.494 196.965,288.004 159.864,255.394 125.686,225.349 74.1273,196.061 22.6081,227.077 l -0.3986,-0.665 c 22.9358,-13.806 47.7851,-17.009 73.8569,-9.541 20.8226,5.967 42.4696,18.737 64.3296,37.952 37.181,32.689 62.455,73.272 62.694,73.684 z"
         fill="#beb8f2"
         id="path24" />
      <path
         d="m 106.817,220.472 -0.625,0.439 C 91.5083,199.928 60.1344,179.637 59.8154,179.438 l 0.412,-0.651 c 0.3189,0.199 31.8257,20.583 46.5896,41.685 z"
         fill="#beb8f2"
         id="path26" />
      <path
         d="m 89.316,215.968 c -30.0318,5.381 -42.802,27.347 -42.9216,27.573 L 45.73,243.156 c 0.1329,-0.226 13.0625,-22.498 43.4531,-27.946 z"
         fill="#beb8f2"
         id="path28" />
      <path
         d="m 182.959,278.038 c -30.696,-21.155 -73.272,5.315 -73.658,5.608 l -0.491,-0.585 c 0.358,-0.319 43.625,-27.002 74.601,-5.661 z"
         fill="#beb8f2"
         id="path30" />
      <path
         d="m 172.834,266.477 -0.665,0.386 c -12.013,-20.531 -4.013,-49.354 -3.933,-49.646 l 0.744,0.213 c -0.08,0.279 -7.986,28.796 3.854,49.047 z"
         fill="#beb8f2"
         id="path32" />
      <path
         d="m 218.334,322.62 c -10.286,-9.727 -32.743,-4.518 -32.969,-4.465 l -0.173,-0.744 c 0.944,-0.226 23.082,-5.368 33.673,4.651 z"
         fill="#beb8f2"
         id="path34" />
      <path
         d="m 212.486,312.946 -0.651,0.412 c -6.006,-9.448 -1.86,-29.766 -0.505,-36.436 0.186,-0.944 0.359,-1.754 0.359,-1.914 h 0.771 c 0,0.213 -0.107,0.758 -0.372,2.073 -1.343,6.604 -5.435,26.683 0.398,35.865 z"
         fill="#beb8f2"
         id="path36" />
    </g>
    <path
       d="m 166.057,313.73 c -3.003,12.598 4.784,22.445 11.534,28.677 1.209,-0.306 1.98,-0.16 3.256,-0.199 11.561,-0.293 16.424,-2.884 27.773,-4.97 2.445,-0.452 9.208,-3.947 11.879,-5.555 l 4.93,-3.083 c 0,0 3.322,-29.606 -13.222,-33.34 -16.544,-3.734 -16.956,-32.251 -19.042,-47.334 -1.276,-9.262 -4.837,-13.089 -5.847,-16.411 -10.763,-35.228 -2.551,-48.423 -13.089,-57.725 -11.627,-10.272 -24.969,2.87 -38.204,-7.641 -14.949,-11.866 -7.986,-36.583 -24.65,-44.649 -2.857,-1.382 -5.834,-2.724 -10.059,-2.923 -10.4318,-0.492 -16.983,7.096 -25.8729,0.771 -17.8729,-12.731 -42.2306,-12.717 -52.1703,7.587 -9.8068,20.052 14.099,48.902 61.0204,65.034 32.0648,15.281 33.9788,21.806 35.4938,38.51 1.063,11.707 -3.814,44.13 15.241,51.731 19.056,7.588 34.457,17.129 31.029,31.52 z"
       fill="url(#paint2_linear_89_342)"
       id="path40"
       style="fill:url(#paint2_linear_89_342)" />
    <g
       opacity="0.5"
       id="g58">
      <path
         d="m 202.892,339.151 0.798,-0.306 c -1.635,-4.398 -3.336,-8.823 -5.063,-13.128 -12.81,-31.906 -28.371,-61.34 -46.244,-87.491 C 137.234,216.061 120.225,195.942 101.821,178.415 87.0174,164.316 71.2308,151.824 54.9126,141.273 43.4314,133.858 31.8174,127.467 20.376,122.284 c -1.9932,-0.903 -4.0928,-1.714 -6.1259,-2.511 -2.7109,-1.05 -5.50142,-2.14 -8.06608,-3.442 l -0.42523,0.704 c 2.60453,1.316 5.42171,2.419 8.14581,3.469 2.0198,0.784 4.1061,1.594 6.0861,2.485 11.4147,5.169 23.0022,11.534 34.4435,18.936 16.2783,10.524 32.0251,22.988 46.7888,37.061 18.364,17.487 35.347,37.566 50.456,59.691 17.846,26.112 33.367,55.506 46.164,87.358 1.727,4.306 3.428,8.718 5.049,13.116 z"
         fill="#fcfdfe"
         id="path42" />
      <path
         d="m 122.617,201.244 0.665,-0.518 c -21.74,-26.125 -21.049,-84.78 -21.036,-85.378 l -0.837,0.026 c 0,0.598 -0.704,59.532 21.208,85.87 z"
         fill="#fcfdfe"
         id="path44" />
      <path
         d="m 176.382,279.752 0.731,-0.439 c -12.491,-19.52 -59.107,-25.168 -59.572,-25.221 l -0.146,0.797 c 0.451,0.053 46.695,5.648 58.987,24.863 z"
         fill="#fcfdfe"
         id="path46" />
      <path
         d="m 182.415,291.459 0.784,-0.319 c -5.568,-14.032 -5.076,-36.45 1.382,-63.08 0.319,-1.342 0.319,-1.342 0.266,-1.475 l -0.798,0.306 0.399,-0.16 h -0.412 c -0.013,0.093 -0.133,0.598 -0.279,1.183 -6.485,26.803 -6.963,49.366 -1.342,63.545 z"
         fill="#fcfdfe"
         id="path48" />
      <path
         d="m 199.797,331.165 0.677,-0.518 c -10.644,-12.89 -36.941,-12.359 -37.207,-12.345 l -0.027,0.797 c 0.266,-0.013 26.165,-0.532 36.557,12.066 z"
         fill="#fcfdfe"
         id="path50" />
      <path
         d="m 204.155,338.886 c 0.213,-13.581 4.545,-27.773 13.235,-43.387 l -0.744,-0.345 c -8.757,15.733 -13.129,30.045 -13.341,43.758 z"
         fill="#fcfdfe"
         id="path52" />
      <path
         d="m 63.9083,148.303 0.6379,-0.545 C 51.5634,133.925 41.4908,116.344 38.1687,110.564 c -0.7973,-1.396 -1.0897,-1.887 -1.2225,-2.047 l -0.6645,0.532 c 0.0931,0.119 0.5582,0.917 1.1428,1.927 3.3354,5.793 13.4479,23.427 26.4838,37.327 z"
         fill="#fcfdfe"
         id="path54" />
      <path
         d="m 88.7046,167.638 0.4518,-0.691 c -15.8663,-8.771 -52.6353,1.01 -54.1901,1.421 l 0.186,0.771 c 0.3721,-0.106 37.9783,-10.112 53.5523,-1.501 z"
         fill="#fcfdfe"
         id="path56" />
    </g>
    <path
       d="m 229.137,301.598 c -2.366,-0.345 -12.306,20.704 -18.91,4.943 -1.648,-3.933 -3.375,-17.487 -20.903,-18.417 -3.401,-0.186 -6.803,-0.359 -10.205,-0.545 -2.791,-7.694 -4,-15.468 6.378,-18.218 16.119,-4.266 16.611,-31.042 12.226,-40.583 -5.422,-11.827 -17.461,-39.586 7.348,-46.55 20.65,-5.807 35.294,-5.541 36.822,-30.616 1.529,-25.089 16.079,-40.49 40.171,-38.563 25.341,2.02 46.244,-29.5003 66.974,-18.4577 36.118,19.2417 3.136,73.9897 -40.915,89.2317 -44.065,15.242 -18.87,30.683 -17.753,51.253 0,1.914 -0.16,4.891 -1.01,8.359 -5.223,21.354 -27.68,24.663 -43.998,41.938 -22.272,23.56 -12.239,16.797 -16.225,16.225 z"
       fill="url(#paint3_linear_89_342)"
       id="path60"
       style="fill:url(#paint3_linear_89_342)" />
    <g
       opacity="0.5"
       id="g72">
      <path
         d="m 210.307,286.17 -1.169,-0.252 C 226.997,205.191 286.343,133.672 364.014,99.2688 l 0.518,1.0232 C 287.181,134.563 228.087,205.789 210.307,286.17 Z"
         fill="#fcfdfe"
         id="path62" />
      <path
         d="m 224.035,243.009 -1.196,-0.026 c 0.239,-32.504 -29.022,-58.469 -29.315,-58.722 l 0.811,-0.823 c 0.292,0.265 29.939,26.55 29.7,59.571 z"
         fill="#fcfdfe"
         id="path64" />
      <path
         d="m 214.016,271.42 -1.05,-0.558 c 16.757,-28.65 80.129,-31.427 80.767,-31.454 l 0.066,1.13 c -0.624,0.027 -63.332,2.764 -79.783,30.882 z"
         fill="#fcfdfe"
         id="path66" />
      <path
         d="m 267.049,173.498 -1.09,-0.479 c 11.176,-23.746 -5.116,-61.007 -5.275,-61.379 l 1.103,-0.425 c 0.159,0.372 16.65,38.085 5.262,62.283 z"
         fill="#fcfdfe"
         id="path68" />
      <path
         d="m 305.505,136.131 -0.624,-0.983 c 26.962,-15.03 68.475,-5.542 68.9,-5.435 l -0.266,1.103 c -0.425,-0.107 -41.473,-9.488 -68.01,5.315 z"
         fill="#fcfdfe"
         id="path70" />
    </g>
    <path
       d="m 175.173,310.475 21.009,18.976 c 0,0 13.687,-7.203 15.414,-19.455 3.508,-25.009 25.168,-20.185 34.537,-19.52 14.139,0.996 25.341,-4.08 20.291,-18.511 -5.714,-16.318 18.989,-23.707 41.593,-18.803 22.112,4.797 43.4,-31.733 -3.508,-46.523 -28.012,-8.823 -43.879,14.989 -54.762,25.102 -10.87,10.126 -28.025,-3.721 -34.563,14.737 -5.581,15.773 -4.053,32.317 -18.085,33.952 -14.033,1.634 -22.724,9.82 -21.926,30.045 z"
       fill="url(#paint4_linear_89_342)"
       id="path74"
       style="fill:url(#paint4_linear_89_342)" />
    <g
       opacity="0.5"
       id="g90">
      <path
         d="m 182.508,320.64 0.505,0.319 c 0.199,-0.319 19.786,-31.773 48.609,-57.114 26.55,-23.334 66.615,-46.097 106.626,-21.992 l 0.306,-0.518 c -17.82,-10.724 -37.115,-13.222 -57.366,-7.415 -16.172,4.638 -32.996,14.564 -49.978,29.487 -28.876,25.394 -48.516,56.914 -48.702,57.233 z"
         fill="#beb8f2"
         id="path76" />
      <path
         d="m 272.829,236.711 0.492,0.345 c 11.401,-16.292 35.785,-32.065 36.025,-32.224 l -0.319,-0.505 c -0.239,0.159 -24.717,15.999 -36.198,32.384 z"
         fill="#beb8f2"
         id="path78" />
      <path
         d="m 286.437,233.216 c 23.334,4.185 33.247,21.248 33.34,21.42 l 0.518,-0.292 c -0.093,-0.173 -10.139,-17.474 -33.765,-21.713 z"
         fill="#beb8f2"
         id="path80" />
      <path
         d="m 213.682,281.439 c 23.853,-16.424 56.915,4.133 57.22,4.359 l 0.386,-0.452 c -0.279,-0.252 -33.886,-20.969 -57.951,-4.398 z"
         fill="#beb8f2"
         id="path82" />
      <path
         d="m 221.549,272.443 0.518,0.306 c 9.329,-15.947 3.123,-38.338 3.056,-38.563 l -0.571,0.159 c 0.053,0.226 6.206,22.378 -3.003,38.098 z"
         fill="#beb8f2"
         id="path84" />
      <path
         d="m 186.202,316.069 c 7.986,-7.561 25.434,-3.508 25.607,-3.468 l 0.133,-0.585 c -0.731,-0.173 -17.926,-4.173 -26.152,3.614 z"
         fill="#beb8f2"
         id="path86" />
      <path
         d="m 190.746,308.561 0.505,0.319 c 4.664,-7.349 1.448,-23.122 0.385,-28.305 -0.146,-0.731 -0.279,-1.368 -0.279,-1.488 h -0.598 c 0,0.159 0.08,0.585 0.293,1.608 1.05,5.129 4.225,20.716 -0.306,27.866 z"
         fill="#beb8f2"
         id="path88" />
    </g>
    <path
       d="m 234.213,323.79 -19.707,17.806 c 0,0 -12.837,-6.764 -14.458,-18.258 -3.295,-23.454 -23.613,-18.936 -32.397,-18.311 -13.262,0.943 -23.773,-3.828 -19.042,-17.355 5.355,-15.308 -17.82,-22.245 -39.015,-17.647 -20.7432,4.505 -40.7157,-29.766 3.282,-43.639 26.271,-8.279 41.168,14.059 51.36,23.547 10.205,9.488 26.284,-3.495 32.41,13.82 5.236,14.79 3.801,30.324 16.97,31.839 13.195,1.541 21.341,9.222 20.597,28.198 z"
       fill="url(#paint5_linear_89_342)"
       id="path92"
       style="fill:url(#paint5_linear_89_342)" />
    <g
       opacity="0.5"
       id="g108">
      <path
         d="m 227.328,333.318 -0.478,0.292 c -0.186,-0.292 -18.564,-29.806 -45.592,-53.566 -24.916,-21.886 -62.483,-43.24 -100.0223,-20.637 l -0.2923,-0.478 c 16.7035,-10.059 34.8156,-12.411 53.8176,-6.963 15.176,4.345 30.949,13.66 46.882,27.653 27.095,23.84 45.513,53.406 45.685,53.699 z"
         fill="#beb8f2"
         id="path94" />
      <path
         d="m 142.601,254.597 -0.465,0.319 C 131.439,239.634 108.57,224.844 108.344,224.698 l 0.305,-0.478 c 0.226,0.146 23.189,15.002 33.952,30.377 z"
         fill="#beb8f2"
         id="path96" />
      <path
         d="m 129.845,251.315 c -21.886,3.92 -31.1881,19.933 -31.2811,20.092 l -0.4916,-0.279 c 0.093,-0.159 9.5147,-16.398 31.6667,-20.371 z"
         fill="#beb8f2"
         id="path98" />
      <path
         d="m 198.094,296.548 c -22.364,-15.414 -53.393,3.881 -53.672,4.093 l -0.359,-0.425 c 0.266,-0.239 31.786,-19.667 54.363,-4.119 z"
         fill="#beb8f2"
         id="path100" />
      <path
         d="m 190.705,288.124 -0.478,0.279 c -8.757,-14.963 -2.923,-35.972 -2.857,-36.171 l 0.545,0.159 c -0.067,0.199 -5.834,20.983 2.79,35.733 z"
         fill="#beb8f2"
         id="path102" />
      <path
         d="m 223.86,329.039 c -7.494,-7.096 -23.852,-3.296 -24.025,-3.256 l -0.133,-0.545 c 0.678,-0.159 16.823,-3.907 24.531,3.389 z"
         fill="#beb8f2"
         id="path104" />
      <path
         d="m 219.608,321.996 -0.479,0.305 c -4.372,-6.883 -1.355,-21.686 -0.358,-26.55 0.146,-0.691 0.265,-1.275 0.265,-1.395 h 0.558 c 0,0.159 -0.079,0.545 -0.279,1.502 -0.983,4.797 -3.96,19.427 0.293,26.138 z"
         fill="#beb8f2"
         id="path106" />
    </g>
    <path
       d="m 185.764,322.554 c -2.193,9.169 3.481,16.345 8.411,20.903 0.877,-0.213 1.436,-0.12 2.379,-0.147 8.425,-0.212 11.973,-2.099 20.238,-3.627 1.781,-0.333 6.711,-2.884 8.664,-4.053 l 3.602,-2.246 c 0,0 2.418,-21.58 -9.635,-24.291 -12.052,-2.724 -12.358,-23.507 -13.873,-34.497 -0.93,-6.75 -3.521,-9.541 -4.265,-11.96 -7.84,-25.673 -1.861,-35.28 -9.541,-42.071 -8.478,-7.481 -18.192,2.087 -27.84,-5.567 -10.896,-8.651 -5.82,-26.657 -17.965,-32.531 -2.087,-1.009 -4.253,-1.979 -7.322,-2.126 -7.601,-0.358 -12.372,5.17 -18.857,0.558 -13.022,-9.275 -30.7756,-9.275 -38.0178,5.528 -7.1492,14.618 10.2719,35.64 44.4768,47.387 23.361,11.136 24.756,15.893 25.859,28.065 0.77,8.531 -2.778,32.158 11.109,37.699 13.86,5.542 25.088,12.491 22.577,22.976 z"
       fill="url(#paint6_linear_89_342)"
       id="path110"
       style="fill:url(#paint6_linear_89_342)" />
    <g
       opacity="0.5"
       id="g128">
      <path
         d="m 212.62,341.078 0.585,-0.226 c -1.196,-3.202 -2.432,-6.431 -3.695,-9.567 -9.341,-23.242 -20.676,-44.703 -33.699,-63.758 -11.029,-16.146 -23.427,-30.816 -36.849,-43.586 -10.79,-10.272 -22.284,-19.375 -34.177,-27.069 -8.3589,-5.408 -16.8369,-10.059 -25.1687,-13.833 -1.4484,-0.664 -2.9766,-1.249 -4.4649,-1.82 -1.9667,-0.771 -4.0131,-1.555 -5.8868,-2.512 l -0.3056,0.518 c 1.9002,0.957 3.9466,1.754 5.9399,2.525 1.475,0.571 2.9899,1.156 4.4383,1.807 8.3186,3.761 16.7567,8.399 25.1018,13.794 11.867,7.667 23.334,16.756 34.098,27.002 13.382,12.743 25.753,27.374 36.769,43.493 12.996,19.029 24.318,40.45 33.646,63.651 1.236,3.163 2.472,6.379 3.668,9.581 z"
         fill="#fcfdfe"
         id="path112" />
      <path
         d="m 154.124,240.578 0.491,-0.372 C 138.776,221.177 139.281,178.428 139.294,177.99 l -0.611,0.026 c -0.027,0.439 -0.532,43.387 15.441,62.562 z"
         fill="#fcfdfe"
         id="path114" />
      <path
         d="m 193.286,297.798 0.531,-0.319 C 184.715,283.26 150.75,279.141 150.404,279.101 l -0.106,0.571 c 0.345,0.04 34.045,4.12 42.988,18.126 z"
         fill="#fcfdfe"
         id="path116" />
      <path
         d="m 197.697,306.329 0.572,-0.226 c -4.053,-10.232 -3.694,-26.55 1.01,-45.965 0.239,-0.97 0.239,-0.97 0.199,-1.076 l -0.571,0.226 0.292,-0.106 h -0.306 c -0.013,0.066 -0.093,0.438 -0.199,0.863 -4.744,19.508 -5.103,35.945 -0.997,46.284 z"
         fill="#fcfdfe"
         id="path118" />
      <path
         d="m 210.361,335.258 0.492,-0.372 c -7.747,-9.395 -26.922,-8.996 -27.108,-8.996 l -0.014,0.584 c 0.173,-0.013 19.056,-0.398 26.63,8.784 z"
         fill="#fcfdfe"
         id="path120" />
      <path
         d="m 213.536,340.892 c 0.16,-9.9 3.309,-20.238 9.648,-31.613 l -0.532,-0.252 c -6.378,11.468 -9.567,21.899 -9.714,31.892 z"
         fill="#fcfdfe"
         id="path122" />
      <path
         d="m 111.336,202.015 0.466,-0.399 C 102.34,191.53 94.9917,178.72 92.5865,174.508 c -0.5847,-1.023 -0.7973,-1.382 -0.8903,-1.488 l -0.4784,0.385 c 0.0664,0.08 0.4119,0.664 0.8239,1.408 2.4317,4.213 9.7933,17.076 19.2943,27.202 z"
         fill="#fcfdfe"
         id="path124" />
      <path
         d="m 129.408,216.101 0.332,-0.505 c -11.561,-6.392 -38.3501,0.73 -39.4929,1.036 l 0.1329,0.558 c 0.279,-0.08 27.68,-7.362 39.028,-1.089 z"
         fill="#fcfdfe"
         id="path126" />
    </g>
    <path
       d="m 231.741,313.717 c -1.728,-0.252 -8.97,15.083 -13.781,3.602 -1.209,-2.871 -2.458,-12.744 -15.228,-13.422 -2.485,-0.133 -4.957,-0.265 -7.442,-0.398 -2.033,-5.608 -2.91,-11.269 4.651,-13.275 11.747,-3.11 12.106,-22.617 8.904,-29.58 -3.947,-8.611 -12.717,-28.85 5.355,-33.926 15.042,-4.225 25.713,-4.039 26.829,-22.311 1.116,-18.285 11.721,-29.5 29.275,-28.105 18.47,1.475 33.699,-21.501 48.795,-13.461 26.324,14.019 2.285,53.911 -29.82,65.02 -32.104,11.109 -13.753,22.364 -12.943,37.354 0,1.395 -0.119,3.561 -0.73,6.086 -3.801,15.561 -20.172,17.966 -32.065,30.563 -16.212,17.195 -8.904,12.265 -11.8,11.853 z"
       fill="url(#paint7_linear_89_342)"
       id="path130"
       style="fill:url(#paint7_linear_89_342)" />
    <g
       opacity="0.5"
       id="g142">
      <path
         d="m 218.015,302.475 -0.851,-0.186 c 13.009,-58.828 56.263,-110.945 112.859,-136.02 l 0.385,0.744 c -56.37,24.982 -99.437,76.887 -112.393,135.462 z"
         fill="#fcfdfe"
         id="path132" />
      <path
         d="m 228.021,271.022 -0.877,-0.014 c 0.173,-23.693 -21.142,-42.602 -21.368,-42.788 l 0.585,-0.598 c 0.226,0.186 21.833,19.347 21.66,43.4 z"
         fill="#fcfdfe"
         id="path134" />
      <path
         d="m 220.726,291.725 -0.771,-0.412 c 12.212,-20.876 58.389,-22.896 58.854,-22.923 l 0.054,0.824 c -0.465,0.027 -46.164,2.02 -58.137,22.511 z"
         fill="#fcfdfe"
         id="path136" />
      <path
         d="m 259.369,220.366 -0.798,-0.345 c 8.146,-17.315 -3.734,-44.463 -3.853,-44.729 l 0.797,-0.306 c 0.133,0.266 12.146,27.747 3.854,45.38 z"
         fill="#fcfdfe"
         id="path138" />
      <path
         d="m 287.381,193.138 -0.452,-0.718 c 19.64,-10.949 49.898,-4.039 50.203,-3.959 l -0.199,0.797 c -0.292,-0.067 -30.205,-6.91 -49.552,3.88 z"
         fill="#fcfdfe"
         id="path140" />
    </g>
    <path
       d="m 261.574,316.588 c -0.558,-0.691 -16.304,-0.373 -36.436,0.332 -7.721,-0.651 -16.279,-0.877 -25.302,-0.572 -10.391,0.346 -20.198,1.342 -28.849,2.818 -19.069,0.877 -33.579,1.594 -33.579,1.594 0,0 -2.18,14.644 0.89,17.315 h 0.013 c 5.688,7.402 31.241,12.185 61.685,11.043 33.5,-1.263 60.515,-9.249 61.632,-18.006 0.026,0 0.053,0 0.053,0 0,0 1.461,-12.571 -0.107,-14.524 z"
       fill="url(#paint8_linear_89_342)"
       id="path144"
       style="fill:url(#paint8_linear_89_342)" />
    <path
       d="m 262.252,318.222 c 0.067,8.97 -27.56,17.248 -61.977,18.484 -34.736,1.249 -63.16,-5.129 -63.186,-14.245 -0.027,-9.116 28.331,-17.408 63.027,-18.497 34.39,-1.103 62.07,5.288 62.136,14.258 z"
       fill="url(#paint9_linear_89_342)"
       id="path146"
       style="fill:url(#paint9_linear_89_342)" />
    <path
       d="m 251.501,304.309 c -0.479,-0.598 -13.767,-0.359 -30.723,0.212 -6.498,-0.571 -13.714,-0.784 -21.315,-0.544 -8.743,0.279 -16.995,1.116 -24.278,2.365 -16.025,0.704 -28.211,1.302 -28.211,1.302 0,0 -1.834,12.571 0.744,14.87 h 0.014 c 4.783,6.365 26.258,10.551 51.864,9.634 28.225,-0.997 51.001,-7.813 51.945,-15.335 0.026,0 0.053,0 0.053,0 0,0 1.236,-10.83 -0.093,-12.504 z"
       fill="url(#paint10_linear_89_342)"
       id="path148"
       style="fill:url(#paint10_linear_89_342)" />
    <path
       d="m 252.392,305.704 c 0.053,7.721 -23.308,14.79 -52.396,15.774 -29.315,0.996 -53.26,-4.545 -53.287,-12.385 -0.027,-7.827 23.866,-14.896 53.14,-15.787 29.062,-0.877 52.49,4.678 52.543,12.398 z"
       fill="url(#paint11_linear_89_342)"
       id="path150"
       style="fill:url(#paint11_linear_89_342)" />
    <path
       d="m 230.586,301.558 c 0.013,2.99 -13.555,5.847 -30.378,6.379 -5.235,0.172 -10.165,0.093 -14.471,-0.186 -9.634,-0.612 -16.198,-2.206 -16.212,-4.279 0,-0.731 0.811,-1.236 2.273,-1.914 11.228,-8.597 10.657,-53.725 10.657,-53.725 l 35.108,-0.85 c 0,0 -0.186,48.649 12.398,53.565 0,0 -0.053,-0.093 -0.133,-0.053 0.505,0.385 0.758,0.665 0.758,1.063 z"
       fill="url(#paint12_linear_89_342)"
       id="path152"
       style="fill:url(#paint12_linear_89_342)" />
    <path
       opacity="0.3"
       d="m 185.751,307.764 c -9.634,-0.611 -16.199,-2.206 -16.212,-4.279 0,-0.731 0.811,-1.236 2.272,-1.914 11.229,-8.597 10.658,-53.725 10.658,-53.725 l 7.361,-0.172 c 4.944,0.478 9.807,2.511 10.605,5.581 -0.014,0 3.096,51.612 -14.684,54.509 z"
       fill="url(#paint13_linear_89_342)"
       id="path154"
       style="fill:url(#paint13_linear_89_342)" />
    <path
       d="m 248.83,202.055 4.319,-0.08 c 18.285,-0.332 34.483,-12.145 40.37,-29.474 l 21.806,-64.276 c 1.276,-3.774 0.678,-7.787 -1.674,-11.0423 -2.272,-3.1626 -5.94,-4.9698 -10.073,-4.9566 -0.093,0 -0.186,0.0133 -0.292,0.0133 l -51.001,2.1528 c -4.132,0.1727 -7.335,3.6543 -7.149,7.7608 0.186,4.106 3.694,7.308 7.827,7.109 l 47.107,-2.086 -20.663,60.648 c -3.867,11.348 -14.471,19.082 -26.391,19.268 l -4.319,0.067 c -4.159,0.066 -7.508,3.428 -7.481,7.574 0.066,4.159 3.455,7.402 7.614,7.322 z"
       fill="url(#paint14_linear_89_342)"
       id="path156"
       style="fill:url(#paint14_linear_89_342)" />
    <path
       d="m 278.371,74.6587 c 0,0 0,1.8338 -0.08,5.1028 0,0.3986 -0.013,0.8106 -0.026,1.2491 -0.705,26.2714 -6.153,127.3824 -48.476,161.0424 -3.07,2.445 -5.847,4.531 -9.302,6.205 -5.595,2.711 -12.305,4.372 -17.98,4.744 v 0.027 c -1.421,0.027 -0.916,0.013 -1.182,0.013 -0.266,0.014 -0.705,0.027 -1.183,0.04 v -0.026 C 130.205,252.71 120.81,113.368 119.614,81.3694 c -0.106,-2.8836 -0.358,-4.9035 -0.385,-5.8735 -0.013,-0.4252 -0.12,-0.6777 -0.12,-0.6777 l 79.332,-0.2259 h 2.259 z"
       fill="url(#paint15_linear_89_342)"
       id="path158"
       style="fill:url(#paint15_linear_89_342)" />
    <path
       opacity="0.4"
       d="m 220.487,248.259 c -5.595,2.711 -12.305,4.372 -17.98,4.744 v 0.026 c -1.421,0.027 -0.917,0.013 -1.182,0.013 -0.266,0.014 -0.705,0.027 -1.183,0.04 v -0.026 C 130.205,252.71 120.81,113.368 119.614,81.3695 c -0.531,-0.1328 -1.262,-0.2657 -1.741,-0.3986 -0.239,-0.0664 -0.624,-0.1462 -0.903,-0.2259 -0.385,-3.8669 -0.638,-6.0197 -0.638,-6.0197 l 2.711,0.7841 23.56,6.7239 c 0,0 0.04,0.9833 0.16,2.7773 1.142,18.6834 9.089,125.9874 34.775,134.8374 23.893,8.212 21.302,28.61 42.949,28.411 z"
       fill="url(#paint16_linear_89_342)"
       id="path160"
       style="fill:url(#paint16_linear_89_342)" />
    <path
       d="m 142.125,194.321 -4.452,0.079 c -12.345,0.213 -23.454,-7.388 -27.6,-18.869 l -22.3511,-61.858 44.1441,1.396 c 0,0 11.614,-5.196 0.943,-15.1093 L 84.1739,98.3252 c -0.1063,0 -0.1994,0 -0.3057,0 -4.3718,0.0133 -8.2654,1.9138 -10.6573,5.2088 -2.4716,3.389 -3.0829,7.575 -1.6743,11.455 l 23.7862,65.777 c 6.3782,17.594 23.4412,29.142 42.4032,28.783 l 4.452,-0.08 c 4.279,-0.079 7.734,-3.494 7.72,-7.694 -0.026,-4.225 -3.494,-7.521 -7.773,-7.454 z"
       fill="url(#paint17_linear_89_342)"
       id="path162"
       style="fill:url(#paint17_linear_89_342)" />
    <g
       opacity="0.4"
       id="g166">
      <path
         d="m 278.303,79.7614 c 0,0.3987 -0.013,0.8106 -0.026,1.2491 -0.704,26.2715 -6.153,127.3825 -48.476,161.0425 37.672,-34.098 36.716,-165.2549 36.716,-165.2549 z"
         fill="#ffffff"
         id="path164" />
    </g>
    <path
       d="m 291.327,69.6224 c 0.067,7.6143 -8.584,10.1125 -11.853,11.056 -0.398,0.1063 -0.797,0.2259 -1.209,0.3322 -4.478,1.1827 -10.485,2.2458 -17.9,3.1494 -16.211,1.9932 -37.805,3.1227 -60.887,3.1892 -20.876,0.0531 -40.782,-0.7707 -56.728,-2.3521 -1.781,-0.1727 -3.522,-0.3588 -5.196,-0.5581 -7.548,-0.877 -13.714,-1.9002 -18.365,-3.0696 -0.531,-0.1329 -1.036,-0.2658 -1.528,-0.4119 -0.239,-0.0665 -0.518,-0.1462 -0.797,-0.2259 -3.854,-1.1163 -11.707,-3.8005 -11.72,-11.0693 -0.014,-7.8003 9.062,-10.3384 12.477,-11.2818 4.798,-1.3289 11.468,-2.4983 19.867,-3.4816 16.663,-1.9534 38.642,-2.9899 61.817,-2.9367 23.056,0.0531 44.636,1.156 60.848,3.136 8.106,0.9834 14.537,2.166 19.148,3.4683 3.283,0.9568 11.96,3.4417 12.026,11.0559 z"
       fill="url(#paint18_linear_89_342)"
       id="path168"
       style="fill:url(#paint18_linear_89_342)" />
    <path
       d="m 283.886,65.9282 c 0.026,3.5347 -37.553,6.4316 -84.488,6.4582 -47.519,0.0265 -86.494,-2.8836 -86.507,-6.4981 0,-3.6144 38.935,-6.5113 86.441,-6.4581 46.908,0.0531 84.527,2.9633 84.554,6.498 z"
       fill="url(#paint19_linear_89_342)"
       id="path170"
       style="fill:url(#paint19_linear_89_342)" />
    <path
       opacity="0.3"
       d="m 283.886,65.9282 c 0.026,3.5347 -37.553,6.4316 -84.488,6.4582 -47.519,0.0265 -86.494,-2.8836 -86.507,-6.4981 0,-3.6144 38.935,-6.5113 86.441,-6.4581 46.908,0.0531 84.527,2.9633 84.554,6.498 z"
       fill="url(#paint20_linear_89_342)"
       id="path172"
       style="fill:url(#paint20_linear_89_342)" />
    <path
       d="m 212.525,81.9942 5.435,3.8403 c 0,0 0.133,-11.933 13.434,-15.6404 13.302,-3.6942 22.405,-8.6375 20.053,-18.9626 l -13.913,-5.116 c 0,0 -2.273,13.6073 -11.614,15.9992 -15.747,4.0264 -13.395,19.8795 -13.395,19.8795 z"
       fill="url(#paint21_linear_89_342)"
       id="path174"
       style="fill:url(#paint21_linear_89_342)" />
    <path
       d="m 232.351,91.1497 c -0.319,-6.0197 0.226,-13.5542 4.984,-16.8365 4.664,-3.2157 9.833,0.0931 17.367,-1.5547 4.93,-1.0764 11.455,-4.3985 18.033,-14.5109 3.774,7.6142 7.548,15.2285 11.322,22.8427 -11.654,8.5843 -19.176,9.0096 -24.039,7.4415 -5.807,-1.8603 -8.704,-6.8302 -13.461,-6.0196 -4.412,0.7574 -7.242,5.9665 -8.983,10.4181 -1.741,-0.5847 -3.482,-1.1827 -5.223,-1.7806 z"
       fill="url(#paint22_linear_89_342)"
       id="path176"
       style="fill:url(#paint22_linear_89_342)" />
    <path
       d="m 262.796,58.3939 c -1.502,-3.3354 -2.857,-7.7073 -0.891,-10.6042 1.927,-2.8437 5.568,-2.1128 9.462,-4.704 2.551,-1.6877 5.501,-4.9965 6.989,-12.1589 3.801,3.4682 7.615,6.9365 11.415,10.4048 -4.691,7.4149 -8.837,9.3019 -11.933,9.4879 -3.694,0.2259 -6.418,-1.9401 -8.916,-0.4385 -2.326,1.3953 -2.778,4.9566 -2.778,7.8534 -1.116,0.0532 -2.232,0.1063 -3.348,0.1595 z"
       fill="url(#paint23_linear_89_342)"
       id="path178"
       style="fill:url(#paint23_linear_89_342)" />
    <path
       d="m 285.053,70.327 c -2.79,-3.7872 1.767,-12.8366 7.282,-18.3779 10.166,-10.2188 20.491,-5.5014 29.766,-14.3249 2.552,-2.4318 5.329,-6.1791 7.096,-12.1988 0.944,-3.2025 5.076,-4.0795 7.256,-1.5547 4.624,5.3419 9.248,10.6839 13.859,16.0258 -2.484,15.3614 -7.787,20.6768 -12.238,22.6701 -9.608,4.2921 -19.069,-5.2357 -32.636,-1.289 -7.376,2.1394 -12.399,7.2289 -15.442,11.0692 -1.794,-0.093 -3.853,-0.5182 -4.943,-2.0198 z"
       fill="url(#paint24_linear_89_342)"
       id="path180"
       style="fill:url(#paint24_linear_89_342)" />
    <path
       d="m 258.264,33.1327 c 2.937,-2.0597 7.681,-2.5115 9.036,-0.4651 1.236,1.8737 -0.638,5.3552 -2.644,7.2023 -3.043,2.8172 -8.399,3.7341 -9.927,1.7142 -1.435,-1.8736 0.492,-6.312 3.535,-8.4514 z"
       fill="url(#paint25_linear_89_342)"
       id="path182"
       style="fill:url(#paint25_linear_89_342)" />
    <path
       d="m 320.507,73.3566 c 3.242,1.5415 5.966,5.435 4.85,7.6276 -1.023,1.9932 -4.97,2.0863 -7.575,1.2491 -3.946,-1.2624 -7.388,-5.4615 -6.391,-7.8003 0.943,-2.1527 5.754,-2.671 9.116,-1.0764 z"
       fill="url(#paint26_linear_89_342)"
       id="path184"
       style="fill:url(#paint26_linear_89_342)" />
    <path
       d="m 193.868,81.2234 c -0.026,-4.2922 2.658,-9.3285 5.502,-9.3019 2.591,0.0133 4.664,4.1991 5.103,7.4415 0.664,4.9034 -1.967,10.8699 -4.904,11.0427 -2.724,0.1461 -5.674,-4.7307 -5.701,-9.1823 z"
       fill="#ffffff"
       id="path186" />
    <path
       d="m 216.592,46.4476 c 2.937,-2.0597 7.681,-2.5115 9.036,-0.4651 1.236,1.8737 -0.638,5.3553 -2.644,7.2024 -3.043,2.8171 -8.399,3.734 -9.927,1.7142 -1.435,-1.8737 0.492,-6.312 3.535,-8.4515 z"
       fill="url(#paint27_linear_89_342)"
       id="path188"
       style="fill:url(#paint27_linear_89_342)" />
  </g>
  <defs
     id="defs450">
    <linearGradient
       id="paint0_linear_89_342"
       x1="354.10501"
       y1="175.437"
       x2="149.36501"
       y2="286.72"
       gradientUnits="userSpaceOnUse">
      <stop
         offset="0.00359712"
         stop-color="#E38DDD"
         id="stop190" />
      <stop
         offset="1"
         stop-color="#9571F6"
         id="stop192" />
    </linearGradient>
    <linearGradient
       id="paint1_linear_89_342"
       x1="42.500801"
       y1="201.25"
       x2="234.55"
       y2="305.63501"
       gradientUnits="userSpaceOnUse">
      <stop
         offset="0.00359712"
         stop-color="#E38DDD"
         id="stop195" />
      <stop
         offset="1"
         stop-color="#9571F6"
         id="stop197" />
    </linearGradient>
    <linearGradient
       id="paint2_linear_89_342"
       x1="50.0359"
       y1="99.2173"
       x2="258.20099"
       y2="364.68301"
       gradientUnits="userSpaceOnUse">
      <stop
         stop-color="#FF9085"
         id="stop200" />
      <stop
         offset="1"
         stop-color="#FB6FBB"
         id="stop202" />
    </linearGradient>
    <linearGradient
       id="paint3_linear_89_342"
       x1="315.11899"
       y1="103.714"
       x2="190.908"
       y2="299.83401"
       gradientUnits="userSpaceOnUse">
      <stop
         stop-color="#AA80F9"
         id="stop205" />
      <stop
         offset="0.9964"
         stop-color="#6165D7"
         id="stop207" />
    </linearGradient>
    <linearGradient
       id="paint4_linear_89_342"
       x1="322.80099"
       y1="221.782"
       x2="173.60699"
       y2="302.87399"
       gradientUnits="userSpaceOnUse">
      <stop
         offset="0.00359712"
         stop-color="#E38DDD"
         id="stop210" />
      <stop
         offset="1"
         stop-color="#9571F6"
         id="stop212" />
    </linearGradient>
    <linearGradient
       id="paint5_linear_89_342"
       x1="95.735397"
       y1="240.592"
       x2="235.68201"
       y2="316.65799"
       gradientUnits="userSpaceOnUse">
      <stop
         offset="0.00359712"
         stop-color="#E38DDD"
         id="stop215" />
      <stop
         offset="1"
         stop-color="#9571F6"
         id="stop217" />
    </linearGradient>
    <linearGradient
       id="paint6_linear_89_342"
       x1="101.227"
       y1="166.242"
       x2="252.91701"
       y2="359.686"
       gradientUnits="userSpaceOnUse">
      <stop
         stop-color="#FF9085"
         id="stop220" />
      <stop
         offset="1"
         stop-color="#FB6FBB"
         id="stop222" />
    </linearGradient>
    <linearGradient
       id="paint7_linear_89_342"
       x1="294.39099"
       y1="169.51801"
       x2="203.879"
       y2="312.431"
       gradientUnits="userSpaceOnUse">
      <stop
         stop-color="#AA80F9"
         id="stop225" />
      <stop
         offset="0.9964"
         stop-color="#6165D7"
         id="stop227" />
    </linearGradient>
    <linearGradient
       id="paint8_linear_89_342"
       x1="173.814"
       y1="363.36899"
       x2="224.429"
       y2="290.70401"
       gradientUnits="userSpaceOnUse">
      <stop
         stop-color="#FFDB44"
         id="stop230" />
      <stop
         offset="1"
         stop-color="#FEEF06"
         id="stop232" />
    </linearGradient>
    <linearGradient
       id="paint9_linear_89_342"
       x1="176.903"
       y1="353.03799"
       x2="222.44099"
       y2="287.66101"
       gradientUnits="userSpaceOnUse">
      <stop
         stop-color="#FCB148"
         id="stop235" />
      <stop
         offset="0.0520724"
         stop-color="#FDBA46"
         id="stop237" />
      <stop
         offset="0.1424"
         stop-color="#FFC244"
         id="stop239" />
      <stop
         offset="0.3183"
         stop-color="#FFC444"
         id="stop241" />
      <stop
         offset="0.4849"
         stop-color="#FDB946"
         id="stop243" />
      <stop
         offset="0.7754"
         stop-color="#F99C4D"
         id="stop245" />
      <stop
         offset="0.8658"
         stop-color="#F8924F"
         id="stop247" />
      <stop
         offset="1"
         stop-color="#F8924F"
         id="stop249" />
    </linearGradient>
    <linearGradient
       id="paint10_linear_89_342"
       x1="177.576"
       y1="343.819"
       x2="220.26199"
       y2="282.53799"
       gradientUnits="userSpaceOnUse">
      <stop
         stop-color="#FFDB44"
         id="stop252" />
      <stop
         offset="1"
         stop-color="#FEEF06"
         id="stop254" />
    </linearGradient>
    <linearGradient
       id="paint11_linear_89_342"
       x1="180.323"
       y1="335.00699"
       x2="218.77299"
       y2="279.80701"
       gradientUnits="userSpaceOnUse">
      <stop
         stop-color="#FCB148"
         id="stop257" />
      <stop
         offset="0.0520724"
         stop-color="#FDBA46"
         id="stop259" />
      <stop
         offset="0.1424"
         stop-color="#FFC244"
         id="stop261" />
      <stop
         offset="0.3183"
         stop-color="#FFC444"
         id="stop263" />
      <stop
         offset="0.4849"
         stop-color="#FDB946"
         id="stop265" />
      <stop
         offset="0.7754"
         stop-color="#F99C4D"
         id="stop267" />
      <stop
         offset="0.8658"
         stop-color="#F8924F"
         id="stop269" />
      <stop
         offset="1"
         stop-color="#F8924F"
         id="stop271" />
    </linearGradient>
    <linearGradient
       id="paint12_linear_89_342"
       x1="180.72099"
       y1="311.931"
       x2="223.211"
       y2="250.92999"
       gradientUnits="userSpaceOnUse">
      <stop
         stop-color="#FCB148"
         id="stop274" />
      <stop
         offset="0.0520724"
         stop-color="#FDBA46"
         id="stop276" />
      <stop
         offset="0.1424"
         stop-color="#FFC244"
         id="stop278" />
      <stop
         offset="0.3183"
         stop-color="#FFC444"
         id="stop280" />
      <stop
         offset="0.4849"
         stop-color="#FDB946"
         id="stop282" />
      <stop
         offset="0.7754"
         stop-color="#F99C4D"
         id="stop284" />
      <stop
         offset="0.8658"
         stop-color="#F8924F"
         id="stop286" />
      <stop
         offset="1"
         stop-color="#F8924F"
         id="stop288" />
    </linearGradient>
    <linearGradient
       id="paint13_linear_89_342"
       x1="199.567"
       y1="299.26199"
       x2="169.868"
       y2="256.62299"
       gradientUnits="userSpaceOnUse">
      <stop
         stop-color="#FCB148"
         id="stop291" />
      <stop
         offset="0.0520724"
         stop-color="#FDBA46"
         id="stop293" />
      <stop
         offset="0.1424"
         stop-color="#FFC244"
         id="stop295" />
      <stop
         offset="0.3183"
         stop-color="#FFC444"
         id="stop297" />
      <stop
         offset="0.4849"
         stop-color="#FDB946"
         id="stop299" />
      <stop
         offset="0.7754"
         stop-color="#F99C4D"
         id="stop301" />
      <stop
         offset="0.8658"
         stop-color="#F8924F"
         id="stop303" />
      <stop
         offset="1"
         stop-color="#F8924F"
         id="stop305" />
    </linearGradient>
    <linearGradient
       id="paint14_linear_89_342"
       x1="231.533"
       y1="191.76601"
       x2="303.10501"
       y2="89.014297"
       gradientUnits="userSpaceOnUse">
      <stop
         stop-color="#FCB148"
         id="stop308" />
      <stop
         offset="0.0520724"
         stop-color="#FDBA46"
         id="stop310" />
      <stop
         offset="0.1424"
         stop-color="#FFC244"
         id="stop312" />
      <stop
         offset="0.3183"
         stop-color="#FFC444"
         id="stop314" />
      <stop
         offset="0.4849"
         stop-color="#FDB946"
         id="stop316" />
      <stop
         offset="0.7754"
         stop-color="#F99C4D"
         id="stop318" />
      <stop
         offset="0.8658"
         stop-color="#F8924F"
         id="stop320" />
      <stop
         offset="1"
         stop-color="#F8924F"
         id="stop322" />
    </linearGradient>
    <linearGradient
       id="paint15_linear_89_342"
       x1="383.255"
       y1="389.56699"
       x2="121.187"
       y2="13.3308"
       gradientUnits="userSpaceOnUse">
      <stop
         stop-color="#FCB148"
         id="stop325" />
      <stop
         offset="0.0520724"
         stop-color="#FDBA46"
         id="stop327" />
      <stop
         offset="0.1424"
         stop-color="#FFC244"
         id="stop329" />
      <stop
         offset="0.3183"
         stop-color="#FFC444"
         id="stop331" />
      <stop
         offset="0.4849"
         stop-color="#FDB946"
         id="stop333" />
      <stop
         offset="0.7754"
         stop-color="#F99C4D"
         id="stop335" />
      <stop
         offset="0.8658"
         stop-color="#F8924F"
         id="stop337" />
      <stop
         offset="1"
         stop-color="#F8924F"
         id="stop339" />
    </linearGradient>
    <linearGradient
       id="paint16_linear_89_342"
       x1="216.325"
       y1="251.158"
       x2="100.908"
       y2="85.460197"
       gradientUnits="userSpaceOnUse">
      <stop
         stop-color="#FCB148"
         id="stop342" />
      <stop
         offset="0.0520724"
         stop-color="#FDBA46"
         id="stop344" />
      <stop
         offset="0.1424"
         stop-color="#FFC244"
         id="stop346" />
      <stop
         offset="0.3183"
         stop-color="#FFC444"
         id="stop348" />
      <stop
         offset="0.4849"
         stop-color="#FDB946"
         id="stop350" />
      <stop
         offset="0.7754"
         stop-color="#F99C4D"
         id="stop352" />
      <stop
         offset="0.8658"
         stop-color="#F8924F"
         id="stop354" />
      <stop
         offset="1"
         stop-color="#F8924F"
         id="stop356" />
    </linearGradient>
    <linearGradient
       id="paint17_linear_89_342"
       x1="156.02699"
       y1="201.435"
       x2="82.660202"
       y2="96.1064"
       gradientUnits="userSpaceOnUse">
      <stop
         stop-color="#FCB148"
         id="stop359" />
      <stop
         offset="0.0520724"
         stop-color="#FDBA46"
         id="stop361" />
      <stop
         offset="0.1424"
         stop-color="#FFC244"
         id="stop363" />
      <stop
         offset="0.3183"
         stop-color="#FFC444"
         id="stop365" />
      <stop
         offset="0.4849"
         stop-color="#FDB946"
         id="stop367" />
      <stop
         offset="0.7754"
         stop-color="#F99C4D"
         id="stop369" />
      <stop
         offset="0.8658"
         stop-color="#F8924F"
         id="stop371" />
      <stop
         offset="1"
         stop-color="#F8924F"
         id="stop373" />
    </linearGradient>
    <linearGradient
       id="paint18_linear_89_342"
       x1="198.705"
       y1="57.6185"
       x2="182.241"
       y2="479.694"
       gradientUnits="userSpaceOnUse">
      <stop
         stop-color="#FFDB44"
         id="stop376" />
      <stop
         offset="1"
         stop-color="#FEEF06"
         id="stop378" />
    </linearGradient>
    <linearGradient
       id="paint19_linear_89_342"
       x1="331.48599"
       y1="256.98499"
       x2="203.064"
       y2="72.616798"
       gradientUnits="userSpaceOnUse">
      <stop
         stop-color="#FCB148"
         id="stop381" />
      <stop
         offset="0.0520724"
         stop-color="#FDBA46"
         id="stop383" />
      <stop
         offset="0.1424"
         stop-color="#FFC244"
         id="stop385" />
      <stop
         offset="0.3183"
         stop-color="#FFC444"
         id="stop387" />
      <stop
         offset="0.482"
         stop-color="#FEB946"
         id="stop389" />
      <stop
         offset="0.603"
         stop-color="#FCAE49"
         id="stop391" />
      <stop
         offset="0.8658"
         stop-color="#F8924F"
         id="stop393" />
      <stop
         offset="1"
         stop-color="#F8924F"
         id="stop395" />
    </linearGradient>
    <linearGradient
       id="paint20_linear_89_342"
       x1="331.48599"
       y1="256.98499"
       x2="203.064"
       y2="72.616798"
       gradientUnits="userSpaceOnUse">
      <stop
         stop-color="#FCB148"
         id="stop398" />
      <stop
         offset="0.0520724"
         stop-color="#FDBA46"
         id="stop400" />
      <stop
         offset="0.1424"
         stop-color="#FFC244"
         id="stop402" />
      <stop
         offset="0.3183"
         stop-color="#FFC444"
         id="stop404" />
      <stop
         offset="0.4849"
         stop-color="#FDB946"
         id="stop406" />
      <stop
         offset="0.7754"
         stop-color="#F99C4D"
         id="stop408" />
      <stop
         offset="0.8658"
         stop-color="#F8924F"
         id="stop410" />
      <stop
         offset="1"
         stop-color="#F8924F"
         id="stop412" />
    </linearGradient>
    <linearGradient
       id="paint21_linear_89_342"
       x1="209.336"
       y1="71.680801"
       x2="253.545"
       y2="57.990501"
       gradientUnits="userSpaceOnUse">
      <stop
         stop-color="#FF9085"
         id="stop415" />
      <stop
         offset="1"
         stop-color="#FB6FBB"
         id="stop417" />
    </linearGradient>
    <linearGradient
       id="paint22_linear_89_342"
       x1="232.27"
       y1="75.591904"
       x2="284.052"
       y2="75.591904"
       gradientUnits="userSpaceOnUse">
      <stop
         stop-color="#AA80F9"
         id="stop420" />
      <stop
         offset="0.9964"
         stop-color="#6165D7"
         id="stop422" />
    </linearGradient>
    <linearGradient
       id="paint23_linear_89_342"
       x1="272.12201"
       y1="36.3596"
       x2="290.73801"
       y2="98.862099"
       gradientUnits="userSpaceOnUse">
      <stop
         offset="0.00359712"
         stop-color="#E38DDD"
         id="stop425" />
      <stop
         offset="1"
         stop-color="#9571F6"
         id="stop427" />
    </linearGradient>
    <linearGradient
       id="paint24_linear_89_342"
       x1="319.25299"
       y1="29.323099"
       x2="306.651"
       y2="182.10001"
       gradientUnits="userSpaceOnUse">
      <stop
         stop-color="#FF9085"
         id="stop430" />
      <stop
         offset="1"
         stop-color="#FB6FBB"
         id="stop432" />
    </linearGradient>
    <linearGradient
       id="paint25_linear_89_342"
       x1="260.867"
       y1="33.113499"
       x2="261.737"
       y2="65.2155"
       gradientUnits="userSpaceOnUse">
      <stop
         stop-color="#AA80F9"
         id="stop435" />
      <stop
         offset="0.9964"
         stop-color="#6165D7"
         id="stop437" />
    </linearGradient>
    <linearGradient
       id="paint26_linear_89_342"
       x1="321.80301"
       y1="75.609497"
       x2="294.29999"
       y2="92.188301"
       gradientUnits="userSpaceOnUse">
      <stop
         stop-color="#AA80F9"
         id="stop440" />
      <stop
         offset="0.9964"
         stop-color="#6165D7"
         id="stop442" />
    </linearGradient>
    <linearGradient
       id="paint27_linear_89_342"
       x1="219.19299"
       y1="46.427601"
       x2="220.063"
       y2="78.529602"
       gradientUnits="userSpaceOnUse">
      <stop
         offset="0.00359712"
         stop-color="#E38DDD"
         id="stop445" />
      <stop
         offset="1"
         stop-color="#9571F6"
         id="stop447" />
    </linearGradient>
  </defs>
</svg>
