<?xml version="1.0" encoding="UTF-8" standalone="no"?>
<svg
   width="300"
   height="300"
   viewBox="0 0 300 300"
   fill="none"
   version="1.1"
   id="svg474"
   sodipodi:docname="user-earnings-4.svg"
   inkscape:version="1.2.1 (9c6d41e410, 2022-07-14)"
   xmlns:inkscape="http://www.inkscape.org/namespaces/inkscape"
   xmlns:sodipodi="http://sodipodi.sourceforge.net/DTD/sodipodi-0.dtd"
   xmlns="http://www.w3.org/2000/svg"
   xmlns:svg="http://www.w3.org/2000/svg">
  <sodipodi:namedview
     id="namedview476"
     pagecolor="#ffffff"
     bordercolor="#000000"
     borderopacity="0.25"
     inkscape:showpageshadow="2"
     inkscape:pageopacity="0.0"
     inkscape:pagecheckerboard="0"
     inkscape:deskcolor="#d1d1d1"
     showgrid="false"
     inkscape:zoom="1.0983607"
     inkscape:cx="184.36567"
     inkscape:cy="183.45522"
     inkscape:window-width="1920"
     inkscape:window-height="991"
     inkscape:window-x="-9"
     inkscape:window-y="-9"
     inkscape:window-maximized="1"
     inkscape:current-layer="svg474" />
  <g
     id="g742"
     transform="matrix(0.81633447,0,0,0.81633447,-0.32565686,-0.55983715)">
    <path
       opacity="0.3"
       d="M 323.579,313.671 C 257.144,383.779 155.095,363.04 140.011,359.706 121.008,355.507 75.7955,345.518 42.0568,306.074 -9.59711,245.686 -4.3816,151.31 35.511,87.6818 47.1187,69.1679 86.1822,14.1481 159.539,2.18508 c 4.287,-0.69896 80.889,-11.93044 142.523,39.78332 8.311,6.9726 21.724,19.5994 33.48,37.9871 36.468,57.0375 53.727,164.3925 -11.963,233.7155 z"
       fill="url(#paint0_linear_53_970)"
       id="path2"
       style="fill:url(#paint0_linear_53_970)" />
    <path
       d="m 179.625,19.5211 c 0.752,-3.6744 4.577,-5.8351 8.111,-4.5751 23.432,8.3549 104.243,35.9527 173.93,45.1406 3.178,0.4192 5.393,3.3608 4.899,6.5276 L 326.024,326.717 c -0.555,3.567 -3.885,6.015 -7.454,5.481 -29.201,-4.372 -149.374,-22.807 -190.806,-36.173 -2.521,-0.814 -4.022,-3.398 -3.491,-5.993 z"
       fill="url(#paint1_linear_53_970)"
       id="path4"
       style="fill:url(#paint1_linear_53_970)" />
    <path
       opacity="0.6"
       d="m 181.107,26.5666 c 0.724,-3.5364 4.406,-5.6151 7.806,-4.4033 22.549,8.04 100.318,34.5977 167.38,43.4408 3.059,0.4035 5.19,3.2345 4.715,6.2815 L 321.994,322.194 c -0.535,3.433 -3.739,5.789 -7.174,5.274 -28.102,-4.206 -143.749,-21.948 -183.621,-34.812 -2.426,-0.782 -3.87,-3.27 -3.359,-5.767 z"
       fill="#ffffff"
       id="path6" />
    <path
       opacity="0.78"
       d="m 203.073,47.2099 c -2.079,-0.5141 -4.154,0.8552 -4.499,2.9703 l -8.72,53.5878 c -0.29,1.782 0.84,3.486 2.596,3.909 9.77,2.348 40.239,9.55 57.72,12.293 1.978,0.31 3.86,-0.946 4.336,-2.889 2.428,-9.883 9.254,-38.6978 9.538,-51.2856 0.046,-2.0331 -1.333,-3.8215 -3.307,-4.3096 z"
       fill="#ffffff"
       id="path8" />
    <path
       d="m 228.002,87.8576 c 6.439,0 11.659,-5.2197 11.659,-11.6584 0,-6.4388 -5.22,-11.6584 -11.659,-11.6584 -6.439,0 -11.658,5.2196 -11.658,11.6584 0,6.4387 5.219,11.6584 11.658,11.6584 z"
       fill="url(#paint2_linear_53_970)"
       id="path10"
       style="fill:url(#paint2_linear_53_970)" />
    <path
       d="m 203.615,106.041 36.346,7.66 c 2.228,0.47 4.082,-1.709 3.277,-3.84 -2.069,-5.481 -7.032,-13.9387 -18.286,-15.977 -10.846,-1.9641 -18.588,3.1004 -22.769,7.021 -1.775,1.663 -0.949,4.633 1.432,5.136 z"
       fill="url(#paint3_linear_53_970)"
       id="path12"
       style="fill:url(#paint3_linear_53_970)" />
    <g
       opacity="0.6"
       id="g16">
      <path
         d="m 342.94,85.4313 c 1.139,0.2395 2.215,-0.3696 2.392,-1.3549 0.179,-0.9853 -0.604,-2.0045 -1.737,-2.2648 L 280.13,67.2506 c -1.133,-0.2603 -1.937,0.4712 -1.786,1.6244 l 0.123,0.9293 c 0.152,1.1533 1.208,2.2935 2.345,2.533 z"
         fill="#ffffff"
         id="path14" />
    </g>
    <g
       opacity="0.6"
       id="g20">
      <path
         d="m 278.045,77.1442 c -1.133,-0.2604 -1.937,0.4711 -1.786,1.6244 l 0.123,0.9293 c 0.152,1.1532 1.208,2.2934 2.345,2.5329 l 62.127,13.0941 c 1.139,0.2395 2.215,-0.3697 2.392,-1.355 0.178,-0.9853 -0.604,-2.0045 -1.738,-2.2648 z"
         fill="#ffffff"
         id="path18" />
    </g>
    <g
       opacity="0.6"
       id="g24">
      <path
         d="m 275.93,87.1808 c -1.133,-0.2603 -1.936,0.4712 -1.785,1.6244 l 0.122,0.9293 c 0.152,1.1532 1.208,2.2934 2.346,2.5329 l 62.126,13.0936 c 1.139,0.24 2.215,-0.369 2.392,-1.354 0.179,-0.986 -0.604,-2.005 -1.737,-2.265 z"
         fill="#ffffff"
         id="path22" />
    </g>
    <g
       opacity="0.6"
       id="g28">
      <path
         d="m 334.726,155.071 c 1.139,0.239 2.185,-0.377 2.327,-1.37 0.142,-0.993 -0.672,-2.008 -1.808,-2.257 L 186.252,118.815 c -1.136,-0.249 -1.64,0.398 -1.118,1.438 l 0.897,1.788 c 0.522,1.04 1.88,2.087 3.017,2.328 z"
         fill="#ffffff"
         id="path26" />
    </g>
    <g
       opacity="0.6"
       id="g32">
      <path
         d="m 184.166,128.707 c -1.137,-0.249 -1.64,0.398 -1.118,1.438 l 0.896,1.788 c 0.522,1.04 1.88,2.087 3.017,2.328 l 145.678,30.703 c 1.139,0.24 2.185,-0.376 2.327,-1.369 0.142,-0.993 -0.672,-2.009 -1.808,-2.257 z"
         fill="#ffffff"
         id="path30" />
    </g>
    <path
       opacity="0.6"
       d="m 180.011,145.084 c 3.646,0.481 10.393,1.77 14.103,2.497 1.572,0.309 2.723,1.66 2.77,3.262 0.09,3.11 -0.008,8.457 -1.28,13.875 -0.381,1.623 -1.991,2.644 -3.618,2.282 l -13.619,-3.024 c -1.675,-0.372 -2.798,-1.948 -2.602,-3.653 l 1.506,-13.094 c 0.155,-1.355 1.389,-2.324 2.74,-2.145 z"
       fill="#ffffff"
       id="path34" />
    <g
       opacity="0.6"
       id="g38">
      <path
         d="m 204.143,155.677 c -1.127,-0.287 -2.106,0.429 -2.174,1.59 l -0.132,2.271 c -0.068,1.161 0.807,2.308 1.946,2.547 l 33.151,6.987 c 1.139,0.24 2.255,-0.497 2.48,-1.639 l 0.11,-0.561 c 0.226,-1.141 -0.511,-2.31 -1.638,-2.596 z"
         fill="#ffffff"
         id="path36" />
    </g>
    <path
       opacity="0.6"
       d="m 254.375,160.756 c 3.646,0.482 10.394,1.77 14.103,2.498 1.573,0.308 2.723,1.659 2.77,3.26 0.09,3.11 -0.008,8.457 -1.279,13.875 -0.382,1.623 -1.991,2.644 -3.619,2.282 l -13.618,-3.024 c -1.676,-0.372 -2.799,-1.948 -2.602,-3.653 l 1.506,-13.094 c 0.155,-1.354 1.387,-2.322 2.739,-2.144 z"
       fill="#ffffff"
       id="path40" />
    <g
       opacity="0.6"
       id="g44">
      <path
         d="m 278.507,171.35 c -1.127,-0.288 -2.106,0.428 -2.173,1.589 l -0.133,2.272 c -0.068,1.161 0.807,2.307 1.946,2.547 l 33.152,6.987 c 1.138,0.239 2.254,-0.498 2.479,-1.639 l 0.111,-0.561 c 0.225,-1.141 -0.512,-2.31 -1.639,-2.597 z"
         fill="#ffffff"
         id="path42" />
    </g>
    <path
       d="m 188.533,200.092 c -0.012,-0.003 -0.024,-0.006 -0.034,-0.008 l -12.571,-2.775 c -1.796,-0.397 -3.021,-1.949 -2.849,-3.608 l 1.121,-10.802 c 0.066,-0.634 0.388,-1.207 0.906,-1.613 0.58,-0.454 1.356,-0.653 2.128,-0.545 1.076,0.151 2.598,0.338 4.208,0.537 3.39,0.418 7.612,0.94 9.95,1.402 1.695,0.349 2.92,1.653 3.007,3.211 0.145,2.564 -0.881,7.145 -2.037,12.01 -0.373,1.58 -2.088,2.556 -3.829,2.191 z M 177.097,181.72 c -0.508,-0.072 -1.011,0.054 -1.381,0.343 -0.306,0.24 -0.495,0.572 -0.532,0.936 l -1.121,10.802 c -0.12,1.161 0.773,2.253 2.079,2.541 l 12.569,2.775 c 0.008,0.001 0.017,0.004 0.025,0.005 1.221,0.258 2.412,-0.389 2.664,-1.451 1.139,-4.793 2.149,-9.295 2.011,-11.727 -0.061,-1.089 -0.982,-2.033 -2.211,-2.296 -2.304,-0.455 -6.506,-0.973 -9.881,-1.39 -1.612,-0.197 -3.138,-0.386 -4.222,-0.538 z"
       fill="#ffffff"
       id="path46" />
    <path
       opacity="0.6"
       d="m 178.221,183.097 c 2.684,0.377 8.558,1.005 11.293,1.546 1.158,0.229 2.025,1.142 2.085,2.201 0.116,2.058 -0.772,5.922 -1.618,9.485 -0.254,1.066 -1.419,1.715 -2.619,1.45 l -10.045,-2.218 c -1.236,-0.273 -2.085,-1.333 -1.968,-2.458 l 0.895,-8.632 c 0.094,-0.894 0.983,-1.515 1.977,-1.374 z"
       fill="#ffffff"
       id="path48" />
    <g
       opacity="0.6"
       id="g52">
      <path
         d="m 201.074,195.406 c 0.073,1.459 1.128,2.684 2.561,2.973 l 116.75,23.568 c 1.321,0.266 2.605,-0.599 2.853,-1.923 0.243,-1.287 -0.585,-2.533 -1.866,-2.809 L 204.94,192.122 c -2.055,-0.444 -3.971,1.183 -3.866,3.284 z"
         fill="#ffffff"
         id="path50" />
    </g>
    <path
       d="m 178.409,184.867 c 1.05,-0.351 2.185,0.229 2.513,1.287 l 1.546,4.978 c 0.155,0.498 0.811,0.606 1.118,0.186 l 9.054,-12.42 c 0.452,-0.62 1.422,-0.173 1.252,0.574 -0.947,4.183 -3.742,11.925 -11.853,17.189 0,0 -3.392,-2.216 -4.991,-9.377 -0.23,-1.035 0.356,-2.081 1.361,-2.417 z"
       fill="url(#paint4_linear_53_970)"
       id="path54"
       style="fill:url(#paint4_linear_53_970)" />
    <path
       d="m 182.843,227.087 c -0.012,-0.003 -0.023,-0.005 -0.034,-0.008 l -12.571,-2.775 c -1.796,-0.397 -3.021,-1.948 -2.849,-3.608 l 1.121,-10.802 c 0.066,-0.634 0.388,-1.206 0.906,-1.613 0.58,-0.454 1.356,-0.653 2.128,-0.545 1.076,0.151 2.598,0.338 4.208,0.538 3.391,0.417 7.612,0.939 9.951,1.401 0.016,0.004 0.033,0.007 0.05,0.011 1.657,0.349 2.869,1.658 2.956,3.2 0.145,2.565 -0.881,7.145 -2.037,12.01 -0.373,1.582 -2.088,2.558 -3.829,2.191 z m -11.436,-18.371 c -0.507,-0.071 -1.011,0.055 -1.381,0.344 -0.306,0.239 -0.494,0.571 -0.532,0.936 l -1.121,10.802 c -0.12,1.161 0.773,2.253 2.079,2.54 l 12.569,2.775 c 0.008,0.002 0.017,0.004 0.025,0.006 1.221,0.257 2.412,-0.39 2.664,-1.452 1.139,-4.792 2.149,-9.294 2.011,-11.726 -0.062,-1.089 -0.993,-2.059 -2.212,-2.296 -2.304,-0.455 -6.504,-0.973 -9.881,-1.39 -1.611,-0.199 -3.137,-0.387 -4.221,-0.539 z"
       fill="#ffffff"
       id="path56" />
    <path
       opacity="0.6"
       d="m 172.533,210.092 c 2.684,0.376 8.558,1.005 11.292,1.546 1.159,0.229 2.026,1.142 2.086,2.201 0.115,2.058 -0.772,5.922 -1.618,9.485 -0.254,1.067 -1.419,1.715 -2.619,1.45 l -10.046,-2.218 c -1.235,-0.273 -2.085,-1.333 -1.968,-2.458 l 0.896,-8.632 c 0.092,-0.893 0.982,-1.513 1.977,-1.374 z"
       fill="#ffffff"
       id="path58" />
    <g
       opacity="0.6"
       id="g62">
      <path
         d="m 195.385,222.401 c 0.073,1.459 1.127,2.684 2.56,2.973 l 116.751,23.568 c 1.321,0.267 2.604,-0.599 2.853,-1.923 0.242,-1.287 -0.586,-2.532 -1.867,-2.808 L 199.251,219.117 c -2.055,-0.444 -3.971,1.185 -3.866,3.284 z"
         fill="#ffffff"
         id="path60" />
    </g>
    <path
       d="m 172.72,211.862 c 1.05,-0.351 2.185,0.229 2.513,1.287 l 1.547,4.978 c 0.155,0.498 0.811,0.606 1.118,0.186 l 9.054,-12.42 c 0.451,-0.62 1.421,-0.173 1.252,0.574 -0.948,4.183 -3.742,11.925 -11.854,17.189 0,0 -3.392,-2.215 -4.99,-9.377 -0.232,-1.033 0.355,-2.08 1.36,-2.417 z"
       fill="url(#paint5_linear_53_970)"
       id="path64"
       style="fill:url(#paint5_linear_53_970)" />
    <path
       d="m 177.154,254.083 c -0.011,-0.003 -0.023,-0.005 -0.033,-0.008 L 164.55,251.3 c -1.796,-0.396 -3.021,-1.947 -2.849,-3.608 l 1.12,-10.802 c 0.067,-0.634 0.388,-1.206 0.908,-1.612 0.58,-0.455 1.356,-0.654 2.128,-0.546 1.076,0.151 2.598,0.339 4.208,0.538 3.39,0.418 7.611,0.939 9.95,1.402 0.017,0.003 0.034,0.006 0.051,0.01 1.657,0.349 2.869,1.658 2.956,3.201 0.145,2.564 -0.881,7.144 -2.037,12.009 -0.376,1.581 -2.089,2.558 -3.831,2.191 z m -11.435,-18.372 c -0.508,-0.072 -1.012,0.055 -1.381,0.344 -0.306,0.239 -0.495,0.571 -0.533,0.935 l -1.12,10.802 c -0.12,1.161 0.773,2.253 2.078,2.541 l 12.571,2.775 c 0.008,0.001 0.017,0.004 0.025,0.005 1.221,0.258 2.412,-0.389 2.664,-1.451 1.138,-4.792 2.149,-9.295 2.011,-11.726 -0.062,-1.09 -0.993,-2.063 -2.211,-2.296 -2.304,-0.456 -6.504,-0.974 -9.881,-1.39 -1.614,-0.198 -3.139,-0.387 -4.223,-0.539 z"
       fill="#ffffff"
       id="path66" />
    <path
       opacity="0.6"
       d="m 166.842,237.088 c 2.684,0.378 8.558,1.005 11.293,1.546 1.158,0.23 2.025,1.142 2.085,2.201 0.116,2.058 -0.772,5.923 -1.618,9.485 -0.253,1.067 -1.418,1.716 -2.619,1.45 l -10.045,-2.218 c -1.235,-0.273 -2.085,-1.333 -1.968,-2.457 l 0.895,-8.632 c 0.093,-0.895 0.983,-1.514 1.977,-1.375 z"
       fill="#ffffff"
       id="path68" />
    <g
       opacity="0.6"
       id="g72">
      <path
         d="m 189.697,249.397 c 0.072,1.46 1.127,2.684 2.56,2.973 l 116.75,23.568 c 1.322,0.267 2.605,-0.598 2.854,-1.922 0.242,-1.287 -0.586,-2.533 -1.867,-2.809 L 193.562,246.113 c -2.055,-0.443 -3.971,1.184 -3.865,3.284 z"
         fill="#ffffff"
         id="path70" />
    </g>
    <path
       d="m 167.03,238.858 c 1.05,-0.351 2.185,0.229 2.513,1.288 l 1.546,4.977 c 0.155,0.499 0.811,0.607 1.119,0.186 l 9.053,-12.42 c 0.452,-0.619 1.422,-0.173 1.253,0.574 -0.948,4.184 -3.743,11.926 -11.854,17.189 0,0 -3.392,-2.215 -4.99,-9.375 -0.232,-1.036 0.354,-2.083 1.36,-2.419 z"
       fill="url(#paint6_linear_53_970)"
       id="path74"
       style="fill:url(#paint6_linear_53_970)" />
    <path
       d="m 171.465,281.078 c -0.012,-0.002 -0.023,-0.005 -0.034,-0.007 l -12.571,-2.775 c -1.796,-0.396 -3.021,-1.948 -2.849,-3.608 l 1.121,-10.802 c 0.066,-0.634 0.388,-1.207 0.907,-1.613 0.581,-0.454 1.356,-0.654 2.128,-0.545 1.077,0.151 2.598,0.338 4.208,0.537 3.391,0.418 7.612,0.94 9.951,1.402 0.017,0.004 0.034,0.006 0.051,0.01 1.657,0.349 2.868,1.659 2.956,3.201 0.144,2.564 -0.882,7.144 -2.037,12.01 -0.377,1.581 -2.089,2.557 -3.831,2.19 z m -11.437,-18.37 c -0.508,-0.072 -1.011,0.054 -1.381,0.343 -0.306,0.24 -0.495,0.572 -0.532,0.936 l -1.121,10.802 c -0.12,1.161 0.773,2.253 2.079,2.541 l 12.57,2.775 c 0.008,10e-4 0.017,0.004 0.025,0.005 1.221,0.258 2.412,-0.389 2.664,-1.451 1.139,-4.793 2.149,-9.295 2.011,-11.726 -0.062,-1.09 -0.991,-2.067 -2.212,-2.296 -2.304,-0.456 -6.504,-0.974 -9.879,-1.391 -1.614,-0.199 -3.14,-0.386 -4.224,-0.538 z"
       fill="#ffffff"
       id="path76" />
    <path
       opacity="0.6"
       d="m 161.153,264.083 c 2.684,0.377 8.558,1.005 11.293,1.547 1.158,0.229 2.025,1.141 2.085,2.201 0.116,2.058 -0.772,5.922 -1.618,9.485 -0.253,1.067 -1.418,1.715 -2.618,1.45 l -10.046,-2.218 c -1.235,-0.274 -2.085,-1.333 -1.968,-2.458 l 0.895,-8.632 c 0.093,-0.893 0.982,-1.514 1.977,-1.375 z"
       fill="#ffffff"
       id="path78" />
    <g
       opacity="0.6"
       id="g82">
      <path
         d="m 184.008,276.392 c 0.072,1.46 1.127,2.684 2.56,2.973 l 116.75,23.568 c 1.322,0.267 2.605,-0.598 2.854,-1.922 0.242,-1.287 -0.586,-2.533 -1.867,-2.809 L 187.873,273.109 c -2.056,-0.444 -3.971,1.184 -3.865,3.283 z"
         fill="#ffffff"
         id="path80" />
    </g>
    <path
       d="m 161.339,265.854 c 1.051,-0.352 2.186,0.229 2.514,1.287 l 1.546,4.977 c 0.155,0.499 0.811,0.607 1.118,0.186 l 9.054,-12.42 c 0.452,-0.619 1.421,-0.173 1.252,0.574 -0.947,4.184 -3.742,11.926 -11.854,17.189 0,0 -3.391,-2.215 -4.99,-9.376 -0.23,-1.034 0.355,-2.08 1.36,-2.417 z"
       fill="url(#paint7_linear_53_970)"
       id="path84"
       style="fill:url(#paint7_linear_53_970)" />
    <path
       d="M 3.98383,54.6067 C 3.21589,50.9349 5.86984,47.4336 9.61323,47.1889 34.436,45.558 119.563,38.8183 187.174,19.5963 c 3.084,-0.8759 6.285,0.945 7.088,4.048 l 66.014,254.8317 c 0.905,3.495 -1.178,7.063 -4.667,7.989 -28.539,7.577 -146.159,38.347 -189.4934,42.521 -2.6371,0.254 -5.0398,-1.522 -5.5826,-4.116 z"
       fill="url(#paint8_linear_53_970)"
       id="path86"
       style="fill:url(#paint8_linear_53_970)" />
    <path
       opacity="0.6"
       d="M 8.14099,60.4845 C 7.40169,56.952 9.95672,53.5822 13.5582,53.3453 37.4464,51.7756 119.368,45.2897 184.433,26.7914 c 2.968,-0.8434 6.047,0.9085 6.821,3.8957 l 63.529,245.2369 c 0.871,3.362 -1.134,6.796 -4.492,7.688 -27.463,7.292 -140.654,36.903 -182.3573,40.92 -2.5381,0.244 -4.8497,-1.465 -5.3716,-3.961 z"
       fill="#ffffff"
       id="path88" />
    <path
       opacity="0.78"
       d="m 33.5428,75.2265 13.2646,52.6485 c 0.4413,1.75 2.1542,2.866 3.9334,2.557 9.9,-1.722 40.7244,-7.203 57.8602,-11.623 1.938,-0.5 3.167,-2.4 2.833,-4.373 -1.694,-10.034 -6.864,-39.1925 -11.5982,-50.8601 -0.7654,-1.8847 -2.7399,-2.978 -4.7457,-2.6435 l -58.5939,9.7828 c -2.1151,0.3527 -3.4766,2.434 -2.9534,4.5113 z"
       fill="#ffffff"
       id="path90" />
    <path
       d="m 70.8815,99.0873 c 6.4388,0 11.6585,-5.2196 11.6585,-11.6584 0,-6.4388 -5.2197,-11.6584 -11.6585,-11.6584 -6.4387,0 -11.6584,5.2196 -11.6584,11.6584 0,6.4388 5.2197,11.6584 11.6584,11.6584 z"
       fill="url(#paint9_linear_53_970)"
       id="path92"
       style="fill:url(#paint9_linear_53_970)" />
    <path
       d="m 60.3397,124.5 36.4005,-7.393 c 2.2322,-0.453 3.0678,-3.189 1.4851,-4.825 -4.074,-4.211 -11.9864,-10.004 -23.1255,-7.408 -10.7355,2.502 -15.8313,10.223 -18.113,15.48 -0.9684,2.231 0.9684,4.63 3.3529,4.146 z"
       fill="url(#paint10_linear_53_970)"
       id="path94"
       style="fill:url(#paint10_linear_53_970)" />
    <g
       opacity="0.6"
       id="g98">
      <path
         d="m 180.044,50.2894 c 1.14,-0.2317 1.886,-1.2183 1.658,-2.1932 -0.227,-0.9749 -1.349,-1.5996 -2.493,-1.3888 l -64.031,11.8211 c -1.144,0.2109 -1.592,1.2014 -0.995,2.1997 l 0.482,0.8044 c 0.597,0.9983 2.019,1.6257 3.159,1.394 z"
         fill="#ffffff"
         id="path96" />
    </g>
    <g
       opacity="0.6"
       id="g102">
      <path
         d="m 117.19,68.436 c -1.144,0.2109 -1.592,1.2014 -0.994,2.1997 l 0.481,0.8044 c 0.598,0.9983 2.019,1.6257 3.159,1.394 l 62.222,-12.6372 c 1.14,-0.2317 1.886,-1.2183 1.658,-2.1932 -0.228,-0.9749 -1.35,-1.5996 -2.494,-1.3888 z"
         fill="#ffffff"
         id="path100" />
    </g>
    <g
       opacity="0.6"
       id="g106">
      <path
         d="m 119.232,78.4897 c -1.144,0.2109 -1.592,1.2014 -0.994,2.1997 l 0.481,0.8044 c 0.598,0.9983 2.019,1.6257 3.159,1.394 L 184.1,70.2506 c 1.14,-0.2317 1.886,-1.2183 1.658,-2.1932 -0.228,-0.9749 -1.35,-1.5996 -2.494,-1.3888 z"
         fill="#ffffff"
         id="path104" />
    </g>
    <g
       opacity="0.6"
       id="g110">
      <path
         d="m 200.142,117.469 c 1.141,-0.232 1.858,-1.213 1.594,-2.181 -0.265,-0.967 -1.414,-1.577 -2.557,-1.354 l -149.7068,29.18 c -1.1415,0.223 -1.3472,1.017 -0.4556,1.764 l 1.5333,1.286 c 0.8916,0.747 2.5537,1.17 3.6926,0.938 z"
         fill="#ffffff"
         id="path108" />
    </g>
    <g
       opacity="0.6"
       id="g114">
      <path
         d="m 51.4844,153.023 c -1.1415,0.223 -1.3472,1.017 -0.4556,1.764 l 1.5333,1.286 c 0.8916,0.747 2.5537,1.17 3.6926,0.938 L 202.155,127.378 c 1.14,-0.232 1.857,-1.213 1.593,-2.18 -0.264,-0.967 -1.414,-1.578 -2.557,-1.355 z"
         fill="#ffffff"
         id="path112" />
    </g>
    <path
       opacity="0.6"
       d="m 54.1705,169.703 c 3.5377,-1.005 10.2423,-2.5 13.9362,-3.305 1.5658,-0.341 3.1577,0.443 3.8358,1.894 1.3172,2.819 3.349,7.765 4.3317,13.244 0.2942,1.64 -0.7783,3.216 -2.4157,3.53 l -13.7006,2.629 c -1.6843,0.323 -3.3412,-0.678 -3.8385,-2.321 l -3.8136,-12.616 c -0.3944,-1.303 0.3527,-2.681 1.6647,-3.055 z"
       fill="#ffffff"
       id="path116" />
    <g
       opacity="0.6"
       id="g120">
      <path
         d="m 80.5237,169.85 c -1.1493,0.184 -1.7624,1.229 -1.3641,2.321 l 0.7784,2.137 c 0.3983,1.093 1.6569,1.798 2.7971,1.566 l 33.2029,-6.744 c 1.14,-0.231 1.871,-1.351 1.625,-2.488 l -0.121,-0.56 c -0.246,-1.138 -1.386,-1.917 -2.535,-1.734 z"
         fill="#ffffff"
         id="path118" />
    </g>
    <path
       opacity="0.6"
       d="m 128.647,154.577 c 3.537,-1.005 10.242,-2.5 13.936,-3.305 1.566,-0.341 3.157,0.443 3.836,1.894 1.317,2.819 3.349,7.765 4.331,13.244 0.294,1.64 -0.778,3.216 -2.416,3.53 l -13.7,2.629 c -1.684,0.323 -3.341,-0.678 -3.839,-2.321 l -3.813,-12.616 c -0.393,-1.304 0.354,-2.683 1.665,-3.055 z"
       fill="#ffffff"
       id="path122" />
    <g
       opacity="0.6"
       id="g126">
      <path
         d="m 155,154.723 c -1.15,0.183 -1.763,1.228 -1.364,2.32 l 0.778,2.138 c 0.398,1.093 1.657,1.797 2.797,1.565 l 33.203,-6.743 c 1.14,-0.232 1.871,-1.351 1.625,-2.489 l -0.121,-0.559 c -0.246,-1.138 -1.386,-1.918 -2.535,-1.734 z"
         fill="#ffffff"
         id="path124" />
    </g>
    <path
       d="m 83.8221,216.812 c -0.0117,0.002 -0.0234,0.005 -0.0351,0.006 l -12.6385,2.442 c -1.8054,0.349 -3.5456,-0.59 -4.0467,-2.182 l -3.2592,-10.359 c -0.1913,-0.608 -0.1224,-1.261 0.1913,-1.84 0.3528,-0.647 0.9853,-1.138 1.7364,-1.345 1.0477,-0.288 2.5185,-0.72 4.0753,-1.177 3.2787,-0.962 7.3592,-2.158 9.6903,-2.663 1.6934,-0.352 3.3347,0.358 4.0337,1.754 1.1506,2.296 2.0266,6.907 2.8973,11.831 0.2851,1.601 -0.9007,3.179 -2.6448,3.533 z M 66.0345,204.488 c -0.4933,0.135 -0.9059,0.45 -1.1311,0.864 -0.1861,0.341 -0.2278,0.721 -0.1172,1.07 l 3.2592,10.36 c 0.3502,1.113 1.6036,1.761 2.9169,1.507 l 12.6398,-2.441 c 0.0078,-0.001 0.017,-0.003 0.0248,-0.005 1.2222,-0.248 2.0591,-1.314 1.8704,-2.39 -0.8565,-4.849 -1.7168,-9.384 -2.8076,-11.562 -0.4894,-0.976 -1.709,-1.476 -2.9416,-1.23 -2.296,0.496 -6.357,1.689 -9.6201,2.645 -1.5632,0.458 -3.0379,0.891 -4.0935,1.182 z"
       fill="#ffffff"
       id="path128" />
    <path
       opacity="0.6"
       d="m 67.6135,205.304 c 2.6136,-0.72 8.2547,-2.474 10.9789,-3.063 1.1545,-0.249 2.3117,0.244 2.7867,1.193 0.9229,1.841 1.6427,5.742 2.2791,9.346 0.1914,1.08 -0.6221,2.138 -1.8287,2.371 l -10.1004,1.951 c -1.2417,0.239 -2.4431,-0.397 -2.7815,-1.474 l -2.6045,-8.278 c -0.2681,-0.856 0.302,-1.779 1.2704,-2.046 z"
       fill="#ffffff"
       id="path130" />
    <g
       opacity="0.6"
       id="g134">
      <path
         d="m 93.4751,207.532 c 0.6469,1.311 2.0995,2.017 3.5299,1.713 l 116.516,-24.701 c 1.319,-0.28 2.153,-1.583 1.856,-2.898 -0.288,-1.278 -1.542,-2.093 -2.827,-1.838 L 95.7217,202.983 c -2.0644,0.409 -3.1759,2.665 -2.2466,4.549 z"
         fill="#ffffff"
         id="path132" />
    </g>
    <path
       d="m 89.3136,243.848 c -0.0117,0.003 -0.0234,0.005 -0.0351,0.007 l -12.6398,2.44 c -1.8053,0.349 -3.5456,-0.589 -4.0467,-2.181 l -3.2592,-10.36 c -0.1913,-0.608 -0.1223,-1.261 0.1914,-1.84 0.3527,-0.647 0.9853,-1.138 1.7363,-1.345 1.0478,-0.287 2.5186,-0.719 4.0753,-1.176 3.2787,-0.962 7.3592,-2.158 9.6904,-2.663 0.0169,-0.004 0.0338,-0.008 0.0507,-0.011 1.6596,-0.337 3.2918,0.384 3.9842,1.764 1.1506,2.296 2.0266,6.907 2.8974,11.831 0.285,1.603 -0.9007,3.18 -2.6449,3.534 z M 71.526,231.525 c -0.4933,0.135 -0.9059,0.451 -1.1311,0.864 -0.1861,0.341 -0.2278,0.721 -0.1171,1.07 l 3.2592,10.359 c 0.3501,1.113 1.6036,1.761 2.9169,1.508 l 12.6398,-2.441 c 0.0078,-0.001 0.0169,-0.004 0.0247,-0.005 1.2222,-0.249 2.0591,-1.315 1.8704,-2.39 -0.8565,-4.85 -1.7168,-9.384 -2.8076,-11.562 -0.4894,-0.975 -1.7298,-1.496 -2.9416,-1.23 -2.296,0.496 -6.357,1.688 -9.6201,2.645 -1.5632,0.458 -3.0379,0.89 -4.0935,1.182 z"
       fill="#ffffff"
       id="path136" />
    <path
       opacity="0.6"
       d="m 73.1047,232.341 c 2.6136,-0.72 8.2547,-2.474 10.9789,-3.063 1.1546,-0.25 2.3117,0.244 2.7868,1.193 0.9228,1.841 1.6426,5.742 2.2791,9.346 0.1913,1.079 -0.6222,2.138 -1.8288,2.371 l -10.1004,1.951 c -1.2417,0.239 -2.4431,-0.396 -2.7815,-1.474 l -2.6045,-8.278 c -0.2681,-0.856 0.302,-1.779 1.2704,-2.046 z"
       fill="#ffffff"
       id="path138" />
    <g
       opacity="0.6"
       id="g142">
      <path
         d="m 98.9663,234.569 c 0.6469,1.311 2.0997,2.016 3.5297,1.713 l 116.517,-24.701 c 1.318,-0.28 2.152,-1.583 1.856,-2.898 -0.289,-1.278 -1.543,-2.093 -2.827,-1.838 L 101.213,230.02 c -2.0644,0.409 -3.176,2.665 -2.2467,4.549 z"
         fill="#ffffff"
         id="path140" />
    </g>
    <path
       d="m 94.8051,270.885 c -0.0117,0.003 -0.0234,0.005 -0.0351,0.007 l -12.6398,2.44 c -1.8053,0.349 -3.5456,-0.588 -4.0467,-2.181 l -3.2592,-10.36 c -0.1913,-0.608 -0.1236,-1.261 0.1926,-1.84 0.3528,-0.647 0.9854,-1.138 1.7364,-1.345 1.0478,-0.287 2.5186,-0.72 4.0753,-1.176 3.2787,-0.962 7.3592,-2.159 9.6904,-2.664 0.0169,-0.003 0.0338,-0.007 0.0507,-0.01 1.6596,-0.337 3.2918,0.384 3.9842,1.764 1.1506,2.296 2.0266,6.907 2.8974,11.833 0.2837,1.601 -0.902,3.178 -2.6462,3.532 z M 77.0175,258.562 c -0.4946,0.135 -0.9059,0.45 -1.1311,0.864 -0.1861,0.341 -0.2278,0.721 -0.1171,1.071 l 3.2592,10.359 c 0.3501,1.113 1.6035,1.762 2.9155,1.508 l 12.6399,-2.441 c 0.0078,-10e-4 0.0169,-0.004 0.0247,-0.005 1.2222,-0.249 2.0591,-1.315 1.8704,-2.39 -0.8565,-4.849 -1.7168,-9.384 -2.8076,-11.562 -0.4894,-0.975 -1.7298,-1.499 -2.9416,-1.23 -2.296,0.496 -6.357,1.688 -9.6201,2.645 -1.5619,0.457 -3.0366,0.889 -4.0922,1.181 z"
       fill="#ffffff"
       id="path144" />
    <path
       opacity="0.6"
       d="m 78.5964,259.378 c 2.6136,-0.72 8.2547,-2.475 10.9789,-3.063 1.1546,-0.25 2.3117,0.243 2.7868,1.192 0.9228,1.842 1.6426,5.743 2.2791,9.347 0.1913,1.079 -0.6222,2.137 -1.8288,2.37 l -10.1004,1.951 c -1.2417,0.24 -2.4431,-0.397 -2.7815,-1.473 l -2.6045,-8.278 c -0.2681,-0.857 0.302,-1.78 1.2704,-2.046 z"
       fill="#ffffff"
       id="path146" />
    <g
       opacity="0.6"
       id="g150">
      <path
         d="m 104.458,261.606 c 0.646,1.311 2.099,2.016 3.529,1.713 l 116.517,-24.702 c 1.318,-0.28 2.153,-1.583 1.856,-2.897 -0.289,-1.278 -1.543,-2.093 -2.827,-1.838 l -116.829,23.175 c -2.064,0.41 -3.176,2.664 -2.246,4.549 z"
         fill="#ffffff"
         id="path148" />
    </g>
    <path
       d="m 100.296,297.922 c -0.011,0.003 -0.023,0.005 -0.035,0.006 l -12.6396,2.441 c -1.8053,0.349 -3.5456,-0.588 -4.0467,-2.182 l -3.2592,-10.359 c -0.1913,-0.608 -0.1236,-1.261 0.1927,-1.84 0.3527,-0.647 0.9853,-1.138 1.7363,-1.345 1.0478,-0.288 2.5186,-0.72 4.0753,-1.177 3.2787,-0.961 7.3592,-2.158 9.6904,-2.663 0.0169,-0.004 0.0338,-0.007 0.0507,-0.01 1.6596,-0.337 3.2918,0.384 3.9841,1.764 1.151,2.296 2.027,6.907 2.897,11.831 0.284,1.602 -0.902,3.18 -2.646,3.534 z M 82.5087,285.598 c -0.4946,0.136 -0.9059,0.451 -1.1311,0.865 -0.1861,0.341 -0.2278,0.721 -0.1171,1.071 l 3.2592,10.359 c 0.3501,1.113 1.6035,1.761 2.9155,1.508 l 12.6398,-2.441 c 0.008,-10e-4 0.017,-0.004 0.025,-0.005 1.222,-0.249 2.059,-1.315 1.87,-2.39 -0.856,-4.85 -1.717,-9.384 -2.8074,-11.562 -0.4894,-0.975 -1.7311,-1.503 -2.9416,-1.23 -2.296,0.496 -6.357,1.688 -9.6201,2.645 -1.5619,0.457 -3.0366,0.889 -4.0922,1.18 z"
       fill="#ffffff"
       id="path152" />
    <path
       opacity="0.6"
       d="m 84.0876,286.414 c 2.6136,-0.719 8.2547,-2.474 10.979,-3.062 1.1545,-0.25 2.3116,0.243 2.7867,1.192 0.9228,1.842 1.6426,5.743 2.2787,9.347 0.192,1.079 -0.6218,2.137 -1.8284,2.37 l -10.1004,1.951 c -1.2417,0.24 -2.4431,-0.397 -2.7815,-1.473 l -2.6045,-8.278 c -0.2681,-0.857 0.302,-1.78 1.2704,-2.047 z"
       fill="#ffffff"
       id="path154" />
    <g
       opacity="0.6"
       id="g158">
      <path
         d="m 109.949,288.643 c 0.647,1.31 2.1,2.016 3.53,1.713 l 116.516,-24.702 c 1.319,-0.28 2.153,-1.583 1.857,-2.897 -0.289,-1.279 -1.543,-2.093 -2.827,-1.838 l -116.829,23.175 c -2.065,0.41 -3.176,2.664 -2.247,4.549 z"
         fill="#ffffff"
         id="path156" />
    </g>
    <path
       d="m 84.9619,287.966 c 0.8253,-0.739 2.0969,-0.656 2.818,0.185 l 3.3946,3.955 c 0.3397,0.396 0.9853,0.236 1.0998,-0.273 l 3.3803,-14.993 c 0.1692,-0.748 1.2365,-0.724 1.3771,0.03 0.79,4.216 1.2977,12.43 -4.0584,20.481 0,0 -3.992,-0.688 -8.3016,-6.626 -0.6222,-0.859 -0.4985,-2.052 0.2902,-2.759 z"
       fill="url(#paint11_linear_53_970)"
       id="path160"
       style="fill:url(#paint11_linear_53_970)" />
    <path
       d="m 79.5526,275.082 c 1.1571,12.141 3.8736,28.191 7.138,42.023 h 2.05 c -4.2211,-16.692 -8.1064,-39.55 -6.9623,-65.901 1.1532,-26.572 7.6612,-58.836 -4.4736,-74.248 -10.1003,-12.828 -52.958,-14.745 -67.0504,-15.027 -1.76108,-0.035 -2.76851,1.992 -1.67257,3.372 5.40297,6.798 16.71637,22.542 17.70167,36.291 1.299,18.121 15.3823,32.345 29.3771,38.265 13.9935,5.922 21.5297,10.438 23.8921,35.225 z"
       fill="url(#paint12_linear_53_970)"
       id="path162"
       style="fill:url(#paint12_linear_53_970)" />
    <path
       d="m 27.8753,173.132 c 8.6687,2.199 16.8674,6.155 24.0418,11.571 3.5937,2.698 6.8503,5.867 9.6592,9.406 2.7789,3.559 5.1114,7.501 6.7318,11.736 l 0.6001,1.589 c 0.1965,0.531 0.3423,1.079 0.5167,1.618 0.1601,0.54 0.341,1.087 0.4829,1.623 l 0.4282,1.61 c 0.5753,2.146 1.1415,4.295 1.6843,6.449 1.0933,4.307 2.1177,8.632 3.0744,12.973 1.9185,8.681 3.569,17.417 4.6818,26.252 0.0273,0.212 -0.1236,0.405 -0.3358,0.432 -0.2044,0.026 -0.3918,-0.113 -0.4282,-0.313 l -0.0026,-0.012 c -0.7914,-4.349 -1.6661,-8.699 -2.6241,-13.021 -0.9371,-4.329 -1.9276,-8.647 -2.965,-12.954 l -1.5762,-6.453 -1.6491,-6.436 c -0.548,-2.145 -1.1181,-4.287 -1.6986,-6.424 l -0.4322,-1.603 c -0.1431,-0.535 -0.3149,-1.043 -0.4711,-1.565 -0.164,-0.517 -0.3007,-1.044 -0.4855,-1.554 l -0.5662,-1.527 c -1.5216,-4.073 -3.7655,-7.845 -6.3805,-11.32 -1.3458,-1.71 -2.7541,-3.38 -4.3174,-4.907 l -0.5753,-0.583 -0.5974,-0.561 c -0.3996,-0.372 -0.7901,-0.755 -1.1988,-1.118 -0.8265,-0.716 -1.6439,-1.443 -2.5081,-2.116 -3.4089,-2.753 -7.1536,-5.091 -11.0454,-7.14 -3.8918,-2.043 -7.9866,-3.77 -12.1894,-5.05 L 27.71,173.728 c -0.164,-0.05 -0.2564,-0.224 -0.2069,-0.388 0.0468,-0.156 0.2121,-0.249 0.3722,-0.208 z"
       fill="#1f5aa9"
       id="path164" />
    <path
       d="m 79.9566,291.526 c 7.3293,10.762 6.3882,16.783 6.6134,21.883 0.0403,0.905 0.0898,2.185 0.1939,3.697 h 2.0019 C 88.3571,315.03 88.0668,312.937 87.964,310.885 87.2507,296.8 84.0735,272.76 71.927,258.378 59.7805,243.997 46.4795,242.685 29.7188,255.759 15.7514,266.654 7.0398,272.152 1.92973,273.174 c -1.265151,0.252 -1.9107443,1.681 -1.295089,2.815 3.277419,6.035 12.542159,19.897 28.098859,18.921 19.8442,-1.245 43.8938,-14.146 51.2231,-3.384 z"
       fill="url(#paint13_linear_53_970)"
       id="path166"
       style="fill:url(#paint13_linear_53_970)" />
    <path
       d="m 35.3974,273.078 c 1.0973,-1.045 2.2609,-1.986 3.461,-2.894 1.2,-0.906 2.4353,-1.769 3.7225,-2.555 2.5655,-1.584 5.3027,-2.937 8.2183,-3.867 1.4578,-0.46 2.9598,-0.815 4.4957,-1.012 1.5359,-0.186 3.1056,-0.211 4.6624,-0.018 0.3878,0.062 0.7783,0.1 1.1623,0.186 0.3813,0.09 0.7757,0.163 1.1454,0.27 l 2.188,0.678 2.1398,0.831 2.0747,0.997 c 2.7191,1.434 5.1791,3.37 7.2265,5.651 2.063,2.275 3.677,4.895 5.0046,7.61 l 0.4986,1.021 c 0.1705,0.338 0.2954,0.695 0.4451,1.041 0.2825,0.7 0.5857,1.391 0.8486,2.097 l 0.7367,2.134 c 0.2604,0.707 0.427,1.441 0.6378,2.162 0.8317,2.887 1.4044,5.83 1.8991,8.776 0.0273,0.164 -0.0833,0.32 -0.2473,0.347 -0.1575,0.026 -0.3059,-0.073 -0.3437,-0.225 l -0.0026,-0.009 c -0.6989,-2.887 -1.3706,-5.779 -2.3324,-8.575 -0.4361,-1.414 -0.9892,-2.78 -1.5034,-4.16 -0.2772,-0.681 -0.5922,-1.344 -0.8864,-2.017 -0.1549,-0.332 -0.2863,-0.677 -0.4607,-0.999 l -0.5116,-0.972 c -1.3536,-2.594 -2.9962,-5.025 -4.9577,-7.152 -1.9641,-2.127 -4.294,-3.882 -6.8464,-5.225 l -1.9563,-0.928 -2.0279,-0.776 -2.0826,-0.634 c -0.3462,-0.097 -0.6846,-0.162 -1.0269,-0.247 -0.3424,-0.081 -0.6938,-0.113 -1.0413,-0.173 -1.3979,-0.184 -2.8271,-0.172 -4.2471,-0.01 -1.4227,0.152 -2.8375,0.451 -4.2276,0.857 -2.7841,0.811 -5.4693,2.02 -8.0491,3.43 -1.2847,0.715 -2.5576,1.46 -3.7928,2.269 -1.2314,0.809 -2.4496,1.664 -3.6094,2.563 l -0.0078,0.005 c -0.1366,0.107 -0.3345,0.08 -0.4399,-0.056 -0.0976,-0.129 -0.0807,-0.311 0.0338,-0.421 z"
       fill="#222669"
       id="path168" />
    <path
       d="m 80.3706,80.7228 c 0,-11.0272 8.9394,-19.9652 19.9654,-19.9652 h 169.787 c 9.367,0 17.091,7.341 17.567,16.6956 l 12.533,246.1588 c 0.373,7.321 -5.39,13.495 -12.719,13.629 l -194.5964,3.537 c -6.8868,0.125 -12.5357,-5.423 -12.5357,-12.311 V 80.7228 Z"
       fill="url(#paint14_linear_53_970)"
       id="path170"
       style="fill:url(#paint14_linear_53_970)" />
    <path
       d="m 121.347,336.592 c -0.002,0 -0.003,0 -0.006,0 L 99.5665,336.311 C 92.2854,336.216 86.3618,330.215 86.3618,322.934 V 290.06 c 0,-0.257 0.2083,-0.465 0.4647,-0.465 0.2564,0 0.4647,0.208 0.4647,0.465 v 32.874 c 0,6.775 5.5109,12.359 12.287,12.446 l 21.7748,0.281 c 0.256,0.003 0.462,0.215 0.459,0.472 -0.004,0.255 -0.211,0.459 -0.465,0.459 z"
       fill="url(#paint15_linear_53_970)"
       id="path172"
       style="fill:url(#paint15_linear_53_970)" />
    <path
       d="m 86.8275,280.342 c -0.2565,0 -0.4647,-0.208 -0.4647,-0.464 v -5.324 c 0,-0.256 0.2082,-0.465 0.4647,-0.465 0.2564,0 0.4646,0.209 0.4646,0.465 v 5.324 c 0,0.256 -0.2082,0.464 -0.4646,0.464 z"
       fill="url(#paint16_linear_53_970)"
       id="path174"
       style="fill:url(#paint16_linear_53_970)" />
    <path
       d="m 94.2809,64.5466 c -0.0209,-3.5273 3.0822,-6.2581 6.5781,-5.7843 23.185,3.1446 102.916,12.8689 168.837,7.8083 3.006,-0.2304 5.615,2.0474 5.775,5.058 l 13.141,247.2564 c 0.18,3.391 -2.409,6.289 -5.797,6.49 -27.726,1.641 -141.904,7.983 -182.63,3.717 -2.4783,-0.259 -4.3604,-2.347 -4.3748,-4.839 z"
       fill="url(#paint17_linear_53_970)"
       id="path176"
       style="fill:url(#paint17_linear_53_970)" />
    <path
       opacity="0.6"
       d="m 97.0118,70.7424 c -0.0195,-3.3946 2.9664,-6.0225 6.3292,-5.5669 22.314,3.0262 99.042,12.3847 162.479,7.5141 2.893,-0.2226 5.404,1.9693 5.558,4.8667 l 12.646,237.9447 c 0.173,3.263 -2.318,6.053 -5.58,6.245 -26.68,1.579 -136.561,7.682 -175.753,3.578 -2.386,-0.25 -4.1967,-2.258 -4.211,-4.656 z"
       fill="#ffffff"
       id="path178" />
    <path
       opacity="0.78"
       d="m 117.667,89.0884 2.37,51.0136 c 0.08,1.697 1.45,3.046 3.147,3.094 9.449,0.267 38.887,0.984 55.51,0.118 1.88,-0.097 3.367,-1.619 3.429,-3.501 0.318,-9.567 1.01,-37.412 -1.169,-49.0521 -0.352,-1.8808 -1.968,-3.2579 -3.88,-3.3243 l -55.842,-1.9524 c -2.014,-0.0728 -3.659,1.5906 -3.565,3.6042 z"
       fill="#ffffff"
       id="path180" />
    <path
       d="m 149.799,118.292 c 6.056,0 10.966,-4.909 10.966,-10.966 0,-6.056 -4.91,-10.9656 -10.966,-10.9656 -6.056,0 -10.966,4.9096 -10.966,10.9656 0,6.057 4.91,10.966 10.966,10.966 z"
       fill="url(#paint18_linear_53_970)"
       id="path182"
       style="fill:url(#paint18_linear_53_970)" />
    <path
       d="m 133.143,139.523 h 34.937 c 2.143,0 3.426,-2.365 2.272,-4.171 -2.968,-4.644 -9.177,-11.466 -19.929,-11.157 -10.364,0.297 -16.507,6.458 -19.594,10.877 -1.311,1.877 0.026,4.451 2.314,4.451 z"
       fill="url(#paint19_linear_53_970)"
       id="path184"
       style="fill:url(#paint19_linear_53_970)" />
    <g
       opacity="0.6"
       id="g188">
      <path
         d="m 257.376,93.5279 c 1.095,0 1.967,-0.7705 1.94,-1.7116 -0.028,-0.941 -0.945,-1.7272 -2.04,-1.7467 l -61.235,-1.0907 c -1.095,-0.0196 -1.692,0.8095 -1.328,1.8404 l 0.293,0.8317 c 0.363,1.0322 1.557,1.8769 2.65,1.8769 z"
         fill="#ffffff"
         id="path186" />
    </g>
    <g
       opacity="0.6"
       id="g192">
      <path
         d="m 196.041,98.4898 c -1.095,-0.0195 -1.692,0.8083 -1.328,1.8402 l 0.293,0.832 c 0.363,1.032 1.557,1.877 2.65,1.877 h 59.72 c 1.095,0 1.967,-0.771 1.94,-1.712 -0.028,-0.941 -0.945,-1.7269 -2.04,-1.7464 z"
         fill="#ffffff"
         id="path190" />
    </g>
    <g
       opacity="0.6"
       id="g196">
      <path
         d="m 196.041,108.137 c -1.095,-0.019 -1.692,0.808 -1.328,1.841 l 0.293,0.831 c 0.363,1.032 1.557,1.877 2.65,1.877 h 59.72 c 1.095,0 1.967,-0.77 1.94,-1.711 -0.028,-0.942 -0.945,-1.728 -2.04,-1.747 z"
         fill="#ffffff"
         id="path194" />
    </g>
    <g
       opacity="0.6"
       id="g200">
      <path
         d="m 263.325,159.216 c 1.095,0 1.938,-0.771 1.877,-1.712 -0.063,-0.941 -1.009,-1.718 -2.102,-1.727 l -143.458,-1.131 c -1.095,-0.01 -1.432,0.684 -0.75,1.541 l 1.173,1.472 c 0.682,0.856 2.134,1.557 3.228,1.557 z"
         fill="#ffffff"
         id="path198" />
    </g>
    <g
       opacity="0.6"
       id="g204">
      <path
         d="m 119.64,164.156 c -1.095,-0.009 -1.432,0.685 -0.75,1.541 l 1.173,1.473 c 0.682,0.856 2.135,1.556 3.228,1.556 h 140.034 c 1.094,0 1.938,-0.77 1.877,-1.711 -0.063,-0.941 -1.009,-1.718 -2.102,-1.728 z"
         fill="#ffffff"
         id="path202" />
    </g>
    <path
       d="m 118.993,180.035 c 3.449,-0.265 9.909,-0.387 13.464,-0.437 1.507,-0.02 2.828,1 3.181,2.464 0.686,2.846 1.632,7.785 1.514,13.019 -0.035,1.567 -1.32,2.819 -2.887,2.802 l -13.122,-0.142 c -1.614,-0.017 -2.953,-1.25 -3.103,-2.857 l -1.153,-12.343 c -0.12,-1.278 0.827,-2.408 2.106,-2.506 z"
       fill="url(#paint20_linear_53_970)"
       id="path206"
       style="fill:url(#paint20_linear_53_970)" />
    <g
       opacity="0.6"
       id="g210">
      <path
         d="m 143.257,185.104 c -1.093,-0.045 -1.854,0.802 -1.692,1.885 l 0.318,2.115 c 0.163,1.082 1.191,1.967 2.284,1.967 h 31.867 c 1.095,0 1.979,-0.896 1.964,-1.989 l -0.006,-0.539 c -0.013,-1.095 -0.919,-2.026 -2.012,-2.072 z"
         fill="#ffffff"
         id="path208" />
    </g>
    <path
       d="m 190.476,180.035 c 3.449,-0.265 9.909,-0.387 13.464,-0.437 1.507,-0.02 2.828,1 3.181,2.464 0.686,2.846 1.632,7.785 1.514,13.019 -0.035,1.567 -1.32,2.819 -2.887,2.802 l -13.122,-0.142 c -1.614,-0.017 -2.953,-1.25 -3.103,-2.857 l -1.153,-12.343 c -0.12,-1.278 0.827,-2.408 2.106,-2.506 z"
       fill="url(#paint21_linear_53_970)"
       id="path212"
       style="fill:url(#paint21_linear_53_970)" />
    <g
       opacity="0.6"
       id="g216">
      <path
         d="m 214.74,185.104 c -1.093,-0.045 -1.855,0.802 -1.692,1.885 l 0.317,2.115 c 0.163,1.082 1.191,1.967 2.285,1.967 h 31.867 c 1.094,0 1.978,-0.896 1.964,-1.989 l -0.007,-0.539 c -0.013,-1.095 -0.919,-2.026 -2.012,-2.072 z"
         fill="#ffffff"
         id="path214" />
    </g>
    <path
       d="m 137.506,229.01 c -0.01,0 -0.022,0 -0.032,0 l -12.108,-0.116 c -1.73,-0.017 -3.158,-1.207 -3.322,-2.769 l -1.064,-10.159 c -0.063,-0.596 0.122,-1.185 0.522,-1.659 0.446,-0.531 1.122,-0.864 1.852,-0.914 1.02,-0.069 2.456,-0.193 3.977,-0.321 3.202,-0.274 7.188,-0.612 9.431,-0.641 1.627,-0.008 3.006,0.954 3.39,2.372 0.631,2.332 0.576,6.746 0.456,11.449 -0.041,1.526 -1.428,2.758 -3.102,2.758 z m -14.088,-14.69 c -0.481,0.032 -0.921,0.246 -1.204,0.584 -0.236,0.279 -0.345,0.622 -0.309,0.965 l 1.065,10.159 c 0.114,1.09 1.149,1.923 2.406,1.935 l 12.108,0.116 c 0.008,0 0.016,0 0.025,0 1.172,0 2.145,-0.827 2.171,-1.852 0.118,-4.631 0.174,-8.971 -0.423,-11.184 -0.268,-0.99 -1.299,-1.68 -2.481,-1.684 -2.209,0.028 -6.176,0.366 -9.363,0.637 -1.528,0.131 -2.968,0.254 -3.995,0.324 z"
       fill="#ffffff"
       id="path218" />
    <path
       opacity="0.6"
       d="m 124.719,215.368 c 2.543,-0.175 8.071,-0.736 10.694,-0.768 1.111,-0.015 2.085,0.657 2.345,1.62 0.506,1.872 0.439,5.601 0.352,9.042 -0.027,1.031 -0.974,1.854 -2.13,1.843 l -9.676,-0.092 c -1.19,-0.012 -2.178,-0.823 -2.288,-1.88 l -0.851,-8.118 c -0.088,-0.839 0.611,-1.582 1.554,-1.647 z"
       fill="#ffffff"
       id="path220" />
    <g
       opacity="0.6"
       id="g224">
      <path
         d="m 148.139,222.263 c 0.351,1.329 1.558,2.252 2.933,2.24 l 112.026,-0.955 c 1.267,-0.01 2.281,-1.056 2.253,-2.323 -0.028,-1.232 -1.031,-2.218 -2.262,-2.223 L 151.06,218.49 c -1.977,-0.008 -3.424,1.861 -2.921,3.773 z"
         fill="#ffffff"
         id="path222" />
    </g>
    <path
       d="m 125.234,216.961 c 0.9,-0.527 2.056,-0.212 2.563,0.698 l 2.389,4.281 c 0.239,0.428 0.864,0.4 1.066,-0.047 l 5.923,-13.187 c 0.296,-0.657 1.276,-0.436 1.264,0.285 -0.06,4.034 -1.131,11.702 -7.575,18.12 0,0 -3.552,-1.381 -6.412,-7.661 -0.414,-0.908 -0.077,-1.984 0.782,-2.489 z"
       fill="url(#paint22_linear_53_970)"
       id="path226"
       style="fill:url(#paint22_linear_53_970)" />
    <path
       d="m 137.506,254.96 c -0.01,0 -0.022,0 -0.032,0 l -12.108,-0.116 c -1.73,-0.017 -3.158,-1.207 -3.322,-2.769 l -1.064,-10.158 c -0.063,-0.597 0.122,-1.186 0.522,-1.66 0.446,-0.531 1.122,-0.864 1.852,-0.914 1.02,-0.069 2.456,-0.192 3.977,-0.321 3.202,-0.274 7.188,-0.612 9.431,-0.641 0.016,0 0.032,0 0.048,0 1.592,0 2.962,0.97 3.341,2.372 0.631,2.332 0.575,6.746 0.455,11.449 -0.039,1.526 -1.426,2.758 -3.1,2.758 z m -14.088,-14.69 c -0.481,0.033 -0.921,0.246 -1.204,0.584 -0.236,0.279 -0.345,0.623 -0.309,0.965 l 1.065,10.159 c 0.114,1.091 1.149,1.924 2.406,1.935 l 12.108,0.116 c 0.008,0 0.016,0 0.025,0 1.172,0 2.145,-0.826 2.171,-1.852 0.118,-4.631 0.174,-8.971 -0.423,-11.183 -0.268,-0.991 -1.315,-1.703 -2.481,-1.685 -2.209,0.028 -6.176,0.366 -9.363,0.637 -1.528,0.13 -2.968,0.254 -3.995,0.324 z"
       fill="#ffffff"
       id="path228" />
    <path
       opacity="0.6"
       d="m 124.719,241.317 c 2.543,-0.174 8.071,-0.735 10.694,-0.767 1.111,-0.015 2.085,0.657 2.345,1.62 0.506,1.872 0.439,5.601 0.352,9.042 -0.027,1.031 -0.974,1.854 -2.13,1.843 l -9.676,-0.092 c -1.19,-0.012 -2.178,-0.823 -2.288,-1.88 l -0.851,-8.118 c -0.088,-0.839 0.611,-1.582 1.554,-1.648 z"
       fill="#ffffff"
       id="path230" />
    <g
       opacity="0.6"
       id="g234">
      <path
         d="m 148.139,248.213 c 0.351,1.329 1.558,2.252 2.933,2.24 l 112.026,-0.955 c 1.267,-0.01 2.281,-1.056 2.253,-2.323 -0.028,-1.232 -1.031,-2.218 -2.262,-2.224 L 151.06,244.44 c -1.977,-0.009 -3.424,1.861 -2.921,3.773 z"
         fill="#ffffff"
         id="path232" />
    </g>
    <path
       d="m 125.234,242.911 c 0.9,-0.527 2.056,-0.212 2.563,0.697 l 2.389,4.281 c 0.239,0.429 0.864,0.401 1.066,-0.045 l 5.923,-13.187 c 0.296,-0.657 1.276,-0.436 1.264,0.285 -0.06,4.034 -1.131,11.702 -7.575,18.12 0,0 -3.552,-1.381 -6.412,-7.661 -0.414,-0.909 -0.077,-1.985 0.782,-2.49 z"
       fill="url(#paint23_linear_53_970)"
       id="path236"
       style="fill:url(#paint23_linear_53_970)" />
    <path
       d="m 137.506,280.909 c -0.01,0 -0.022,0 -0.032,0 l -12.108,-0.115 c -1.73,-0.017 -3.158,-1.207 -3.322,-2.768 l -1.064,-10.159 c -0.063,-0.596 0.122,-1.185 0.522,-1.66 0.446,-0.531 1.12,-0.865 1.852,-0.914 1.02,-0.069 2.456,-0.193 3.977,-0.322 3.202,-0.273 7.188,-0.611 9.431,-0.64 0.016,0 0.032,0 0.048,0 1.592,0 2.962,0.97 3.341,2.372 0.631,2.332 0.575,6.746 0.455,11.448 -0.039,1.527 -1.426,2.758 -3.1,2.758 z M 123.418,266.22 c -0.481,0.032 -0.921,0.246 -1.204,0.584 -0.236,0.28 -0.345,0.622 -0.309,0.966 l 1.065,10.159 c 0.114,1.091 1.149,1.924 2.405,1.935 l 12.108,0.116 c 0.007,0 0.015,0 0.024,0 1.173,0 2.145,-0.826 2.171,-1.852 0.119,-4.631 0.175,-8.971 -0.423,-11.183 -0.268,-0.991 -1.314,-1.707 -2.48,-1.685 -2.209,0.028 -6.177,0.366 -9.363,0.637 -1.527,0.129 -2.967,0.252 -3.994,0.323 z"
       fill="#ffffff"
       id="path238" />
    <path
       opacity="0.6"
       d="m 124.719,267.267 c 2.543,-0.174 8.071,-0.735 10.694,-0.768 1.111,-0.014 2.085,0.658 2.345,1.621 0.506,1.87 0.439,5.601 0.352,9.042 -0.027,1.031 -0.974,1.854 -2.13,1.843 l -9.676,-0.092 c -1.19,-0.012 -2.178,-0.823 -2.288,-1.88 l -0.851,-8.118 c -0.088,-0.839 0.611,-1.582 1.554,-1.648 z"
       fill="#ffffff"
       id="path240" />
    <g
       opacity="0.6"
       id="g244">
      <path
         d="m 148.139,274.163 c 0.351,1.329 1.558,2.252 2.933,2.241 l 112.026,-0.956 c 1.267,-0.01 2.281,-1.055 2.253,-2.323 -0.028,-1.231 -1.031,-2.218 -2.262,-2.223 L 151.06,270.39 c -1.977,-0.009 -3.424,1.861 -2.921,3.773 z"
         fill="#ffffff"
         id="path242" />
    </g>
    <path
       d="m 125.234,268.861 c 0.9,-0.527 2.056,-0.213 2.563,0.697 l 2.389,4.281 c 0.239,0.428 0.864,0.401 1.066,-0.045 l 5.923,-13.187 c 0.296,-0.657 1.276,-0.435 1.264,0.285 -0.06,4.034 -1.131,11.702 -7.575,18.12 0,0 -3.552,-1.381 -6.412,-7.661 -0.414,-0.909 -0.077,-1.985 0.782,-2.49 z"
       fill="url(#paint24_linear_53_970)"
       id="path246"
       style="fill:url(#paint24_linear_53_970)" />
    <path
       d="m 137.506,306.858 c -0.01,0 -0.022,0 -0.032,0 l -12.108,-0.116 c -1.73,-0.017 -3.158,-1.206 -3.322,-2.767 l -1.064,-10.159 c -0.063,-0.596 0.122,-1.186 0.522,-1.661 0.446,-0.531 1.12,-0.864 1.852,-0.914 1.02,-0.069 2.456,-0.192 3.977,-0.321 3.202,-0.273 7.188,-0.612 9.431,-0.64 0.016,0 0.032,0 0.048,0 1.592,0 2.962,0.969 3.341,2.371 0.631,2.333 0.575,6.746 0.455,11.449 -0.039,1.528 -1.426,2.758 -3.1,2.758 z m -14.088,-14.69 c -0.481,0.033 -0.921,0.246 -1.204,0.585 -0.236,0.278 -0.345,0.622 -0.309,0.964 l 1.065,10.159 c 0.114,1.091 1.149,1.924 2.405,1.936 l 12.108,0.115 c 0.007,0 0.015,0 0.024,0 1.173,0 2.145,-0.826 2.171,-1.852 0.119,-4.631 0.175,-8.97 -0.423,-11.183 -0.268,-0.991 -1.314,-1.709 -2.48,-1.684 -2.209,0.027 -6.177,0.365 -9.363,0.636 -1.527,0.132 -2.967,0.254 -3.994,0.324 z"
       fill="#ffffff"
       id="path248" />
    <path
       opacity="0.6"
       d="m 124.719,293.217 c 2.543,-0.174 8.071,-0.735 10.694,-0.768 1.111,-0.014 2.085,0.658 2.345,1.621 0.506,1.87 0.439,5.601 0.352,9.042 -0.027,1.031 -0.974,1.854 -2.13,1.843 l -9.676,-0.092 c -1.19,-0.012 -2.178,-0.823 -2.288,-1.88 l -0.851,-8.118 c -0.088,-0.839 0.611,-1.583 1.554,-1.648 z"
       fill="#ffffff"
       id="path250" />
    <g
       opacity="0.6"
       id="g254">
      <path
         d="m 148.139,300.113 c 0.351,1.329 1.558,2.252 2.933,2.24 l 112.026,-0.955 c 1.267,-0.011 2.281,-1.056 2.253,-2.323 -0.028,-1.232 -1.031,-2.218 -2.262,-2.224 L 151.06,296.34 c -1.977,-0.009 -3.424,1.861 -2.921,3.773 z"
         fill="#ffffff"
         id="path252" />
    </g>
    <path
       d="m 125.234,294.811 c 0.9,-0.528 2.056,-0.213 2.563,0.697 l 2.389,4.281 c 0.239,0.428 0.864,0.401 1.066,-0.047 l 5.923,-13.186 c 0.296,-0.657 1.276,-0.436 1.264,0.285 -0.06,4.034 -1.131,11.701 -7.575,18.119 0,0 -3.552,-1.381 -6.412,-7.661 -0.414,-0.907 -0.077,-1.983 0.782,-2.488 z"
       fill="url(#paint25_linear_53_970)"
       id="path256"
       style="fill:url(#paint25_linear_53_970)" />
    <path
       d="m 195.759,27.1947 c -6.133,-4.2667 -11.465,-4.1821 -15.219,-3.0744 -3.425,1.01 -5.644,4.3161 -5.318,7.8721 l 1.619,17.6704 19.265,1.709 c -0.002,0.0013 11.681,-15.8092 -0.347,-24.1771 z m -8.472,14.2564 c -2.652,0 -4.803,-2.1503 -4.803,-4.8029 0,-2.6527 2.151,-4.8042 4.803,-4.8042 2.653,0 4.803,2.1502 4.803,4.8042 0.002,2.6526 -2.15,4.8029 -4.803,4.8029 z"
       fill="url(#paint26_linear_53_970)"
       id="path258"
       style="fill:url(#paint26_linear_53_970)" />
    <path
       d="m 178.764,42.2308 c -0.238,0 -0.439,-0.1809 -0.462,-0.423 l -0.257,-2.814 c -0.024,-0.2551 0.165,-0.4816 0.42,-0.5051 0.26,-0.0247 0.482,0.1653 0.505,0.4205 l 0.258,2.814 c 0.023,0.2551 -0.165,0.4816 -0.421,0.505 -0.014,0.0013 -0.028,0.0026 -0.043,0.0026 z m -0.505,-5.5148 c -0.238,0 -0.439,-0.1809 -0.462,-0.423 l -0.196,-2.136 c -0.311,-3.3867 1.821,-6.5405 5.067,-7.4985 2.3,-0.6781 4.669,-0.7757 7.04,-0.2889 0.252,0.0507 0.414,0.2967 0.362,0.5493 -0.052,0.2512 -0.295,0.4113 -0.548,0.3618 -2.222,-0.4543 -4.44,-0.3645 -6.591,0.2707 -2.822,0.833 -4.674,3.5768 -4.405,6.5236 l 0.196,2.136 c 0.023,0.2551 -0.166,0.4815 -0.421,0.505 -0.013,-0.0013 -0.027,0 -0.042,0 z"
       fill="#ffffff"
       id="path260" />
    <path
       d="m 150.549,61.0831 v -8.8847 c 0,-3.0666 2.542,-5.5227 5.608,-5.4186 l 61.251,2.0982 c 2.718,0.0937 4.92,2.2387 5.083,4.9539 l 0.512,8.5358 z"
       fill="url(#paint27_linear_53_970)"
       id="path262"
       style="fill:url(#paint27_linear_53_970)" />
    <path
       d="m 173.388,50.1276 h -2.635 c -0.256,0 -0.464,-0.2083 -0.464,-0.4647 0,-0.2564 0.208,-0.4647 0.464,-0.4647 h 2.635 c 0.256,0 0.464,0.2083 0.464,0.4647 0,0.2577 -0.208,0.4647 -0.464,0.4647 z"
       fill="#ffffff"
       id="path264" />
    <path
       d="m 153.864,58.2937 c -0.256,0 -0.465,-0.2082 -0.465,-0.4646 v -3.5938 c 0,-2.7763 2.26,-5.0358 5.036,-5.0358 h 9.684 c 0.257,0 0.465,0.2082 0.465,0.4646 0,0.2564 -0.208,0.4647 -0.465,0.4647 h -9.684 c -2.264,0 -4.106,1.8418 -4.106,4.1065 v 3.5938 c 0,0.2564 -0.209,0.4646 -0.465,0.4646 z"
       fill="#ffffff"
       id="path266" />
    <path
       d="m 125.591,63.3256 c 0.148,-3.077 2.685,-5.4954 5.765,-5.4954 l 107.11,-0.0026 c 3.852,0 7.145,2.7711 7.801,6.5666 l 0.091,0.5232 c 0.72,4.1573 -2.481,7.9593 -6.699,7.9593 h -109.89 c -2.525,0 -4.536,-2.1112 -4.415,-4.6324 z"
       fill="url(#paint28_linear_53_970)"
       id="path268"
       style="fill:url(#paint28_linear_53_970)" />
    <path
       d="m 280.205,136.622 -22.289,-18.175 -22.289,18.175 c 1.778,-17.096 2.606,-36.168 1.665,-56.8645 -0.299,-6.5913 -0.761,-12.9756 -1.355,-19.1413 -0.077,-0.7927 0.186,-1.5801 0.721,-2.1685 0.535,-0.5883 1.295,-0.9228 2.091,-0.9228 12.927,0 25.856,0 38.783,0 1.5,0 2.739,1.174 2.817,2.6709 0.496,9.4691 0.816,19.2675 0.924,29.377 0.176,16.4902 -0.235,32.2002 -1.068,47.0492 z"
       fill="url(#paint29_linear_53_970)"
       id="path270"
       style="fill:url(#paint29_linear_53_970)" />
    <path
       d="m 81.5091,132.112 -2.0773,2.63 -0.0078,0.011 c -0.151,0.191 -0.4296,0.223 -0.6209,0.072 -0.1913,-0.151 -0.2239,-0.429 -0.0729,-0.62 0.0013,-0.003 0.0052,-0.007 0.0065,-0.008 l 2.1542,-2.599 c 0.1418,-0.171 0.3956,-0.194 0.5661,-0.054 0.168,0.139 0.194,0.388 0.0599,0.559 z"
       fill="#ffffff"
       id="path272" />
    <path
       d="m 74.4874,141.69 -3.5221,5.619 -0.017,0.027 c -0.1783,0.286 -0.5544,0.371 -0.8395,0.193 -0.285,-0.178 -0.3709,-0.554 -0.1926,-0.838 0.0013,-0.003 0.0052,-0.008 0.0065,-0.011 l 3.6627,-5.599 c 0.164,-0.251 0.5011,-0.322 0.7523,-0.158 0.2486,0.163 0.3202,0.494 0.164,0.744 z"
       fill="#ffffff"
       id="path274" />
    <path
       d="m 66.8729,154.783 -2.8245,5.991 -0.0169,0.037 c -0.1757,0.371 -0.6183,0.531 -0.9905,0.355 -0.371,-0.176 -0.5311,-0.618 -0.3554,-0.99 0.0013,-0.003 0.0039,-0.01 0.0052,-0.012 l 2.9638,-6.008 c 0.1666,-0.339 0.5779,-0.478 0.9163,-0.311 0.3345,0.165 0.4751,0.568 0.3163,0.904 z"
       fill="#ffffff"
       id="path276" />
    <path
       d="m 60.9035,168.677 -2.05,6.289 -0.0156,0.046 c -0.151,0.462 -0.6469,0.714 -1.109,0.564 -0.4621,-0.151 -0.7133,-0.647 -0.5636,-1.108 0.0013,-0.004 0.0039,-0.011 0.0052,-0.014 l 2.1932,-6.341 c 0.1471,-0.429 0.6144,-0.655 1.0426,-0.507 0.423,0.146 0.6495,0.604 0.5115,1.029 z"
       fill="#ffffff"
       id="path278" />
    <path
       d="m 56.7399,183.194 -1.2235,6.49 -0.0104,0.057 c -0.1002,0.531 -0.6117,0.88 -1.1428,0.78 -0.531,-0.1 -0.8798,-0.612 -0.7796,-1.143 l 0.0026,-0.01 1.3159,-6.588 c 0.1015,-0.51 0.5974,-0.84 1.1077,-0.739 0.5063,0.102 0.8356,0.591 0.7406,1.097 z"
       fill="#ffffff"
       id="path280" />
    <path
       d="m 54.5183,198.111 -0.3241,6.588 -0.0026,0.064 c -0.0287,0.586 -0.5272,1.036 -1.1116,1.007 -0.5857,-0.028 -1.0361,-0.525 -1.0074,-1.111 l 0.0013,-0.012 0.4022,-6.711 c 0.0338,-0.565 0.5193,-0.994 1.0842,-0.96 0.561,0.033 0.9892,0.512 0.9619,1.072 z"
       fill="#ffffff"
       id="path282" />
    <path
       d="m 54.3632,213.179 0.5844,6.568 0.0065,0.069 c 0.056,0.629 -0.4087,1.184 -1.0374,1.24 -0.6286,0.056 -1.1844,-0.408 -1.2404,-1.037 l -0.0013,-0.012 -0.5245,-6.71 c -0.0482,-0.609 0.4074,-1.141 1.0178,-1.189 0.6053,-0.047 1.135,0.402 1.1884,1.005 z"
       fill="#ffffff"
       id="path284" />
    <path
       d="m 56.278,228.116 1.476,6.422 0.0156,0.071 c 0.1523,0.66 -0.2603,1.318 -0.9202,1.469 -0.6599,0.152 -1.3185,-0.26 -1.4695,-0.92 l -0.0026,-0.013 -1.437,-6.578 c -0.1405,-0.642 0.2669,-1.276 0.9086,-1.417 0.6377,-0.139 1.2664,0.261 1.4135,0.896 z"
       fill="#ffffff"
       id="path286" />
    <path
       d="m 60.2033,242.647 2.3026,6.172 0.026,0.069 c 0.2486,0.668 -0.0898,1.41 -0.7575,1.659 -0.6678,0.248 -1.4097,-0.09 -1.6583,-0.758 l -0.0026,-0.006 -2.3233,-6.324 c -0.2421,-0.66 0.0963,-1.39 0.7549,-1.633 0.6599,-0.242 1.3901,0.096 1.6335,0.755 z"
       fill="#ffffff"
       id="path288" />
    <path
       d="m 65.9733,256.547 3.0783,5.826 0.0338,0.065 c 0.3397,0.643 0.0937,1.44 -0.5493,1.779 -0.6429,0.34 -1.4395,0.094 -1.7792,-0.549 l -0.0026,-0.004 -3.1252,-5.966 c -0.3345,-0.638 -0.0872,-1.427 0.5506,-1.762 0.6378,-0.334 1.4266,-0.087 1.7611,0.551 z"
       fill="#ffffff"
       id="path290" />
    <path
       d="m 73.4733,269.595 3.7863,5.393 0.0417,0.06 c 0.4269,0.608 0.2798,1.445 -0.328,1.872 -0.6078,0.427 -1.4448,0.279 -1.8717,-0.328 l -0.0026,-0.004 -3.8501,-5.527 c -0.4204,-0.604 -0.2721,-1.433 0.3319,-1.853 0.6039,-0.421 1.433,-0.272 1.8535,0.332 z"
       fill="#ffffff"
       id="path292" />
    <path
       d="m 82.5491,281.603 4.4293,4.874 0.0508,0.056 c 0.5089,0.561 0.4673,1.428 -0.0924,1.937 -0.561,0.509 -1.4279,0.467 -1.9368,-0.093 l -0.0039,-0.004 -4.5126,-5.003 c -0.5025,-0.557 -0.4582,-1.416 0.0989,-1.92 0.5571,-0.502 1.4161,-0.458 1.9198,0.099 z"
       fill="#ffffff"
       id="path294" />
    <path
       d="m 93.0598,292.361 5.0216,4.25 0.0638,0.055 c 0.5896,0.498 0.6625,1.381 0.164,1.97 -0.4985,0.59 -1.381,0.663 -1.9706,0.164 l -0.0039,-0.003 -5.1322,-4.376 c -0.5832,-0.498 -0.6521,-1.372 -0.1562,-1.954 0.4972,-0.583 1.3719,-0.652 1.9537,-0.155 z"
       fill="#ffffff"
       id="path296" />
    <path
       d="m 104.898,301.6 2.784,1.735 1.391,0.869 c 0.468,0.285 0.921,0.591 1.4,0.855 0.689,0.38 0.939,1.248 0.559,1.938 -0.38,0.69 -1.248,0.94 -1.937,0.56 l -0.005,-0.003 -0.037,-0.021 c -0.494,-0.275 -0.96,-0.591 -1.44,-0.885 l -1.43,-0.899 -2.861,-1.801 c -0.662,-0.415 -0.859,-1.288 -0.444,-1.948 0.415,-0.66 1.288,-0.859 1.948,-0.444 z"
       fill="#ffffff"
       id="path298" />
    <path
       d="m 117.976,308.896 c 1.989,0.908 4.008,1.75 6.055,2.522 0.742,0.279 1.117,1.107 0.837,1.848 -0.278,0.742 -1.103,1.117 -1.845,0.839 -2.11,-0.79 -4.195,-1.649 -6.245,-2.585 -0.724,-0.331 -1.043,-1.186 -0.712,-1.911 0.33,-0.725 1.185,-1.044 1.91,-0.713 z"
       fill="#ffffff"
       id="path300" />
    <path
       d="m 132.049,314.05 6.378,1.582 0.086,0.02 c 0.758,0.189 1.22,0.956 1.032,1.715 -0.188,0.758 -0.952,1.22 -1.711,1.033 l -6.556,-1.609 c -0.762,-0.187 -1.23,-0.958 -1.042,-1.72 0.187,-0.764 0.958,-1.23 1.72,-1.043 l 0.004,10e-4 z"
       fill="#ffffff"
       id="path302" />
    <path
       d="m 146.755,317.084 6.544,0.696 0.078,0.008 c 0.765,0.081 1.32,0.768 1.238,1.532 -0.082,0.766 -0.763,1.32 -1.528,1.238 l -6.706,-0.691 c -0.772,-0.08 -1.333,-0.769 -1.253,-1.541 0.079,-0.772 0.769,-1.333 1.541,-1.252 h 0.005 z"
       fill="#ffffff"
       id="path304" />
    <path
       d="m 161.756,318.157 6.592,-0.107 0.069,-0.001 c 0.738,-0.012 1.344,0.576 1.357,1.313 0.012,0.734 -0.571,1.339 -1.304,1.356 l -6.729,0.159 c -0.751,0.018 -1.375,-0.576 -1.393,-1.327 -0.018,-0.752 0.577,-1.375 1.328,-1.393 h 0.01 z"
       fill="#ffffff"
       id="path306" />
    <path
       d="m 176.805,317.425 6.546,-0.849 0.059,-0.007 c 0.699,-0.091 1.34,0.403 1.431,1.102 0.09,0.697 -0.398,1.333 -1.092,1.429 l -6.659,0.917 c -0.713,0.097 -1.371,-0.401 -1.47,-1.115 -0.099,-0.713 0.401,-1.37 1.115,-1.469 l 0.01,-10e-4 z"
       fill="#ffffff"
       id="path308" />
    <path
       d="m 191.708,315.072 6.437,-1.5 0.049,-0.011 c 0.626,-0.146 1.254,0.243 1.399,0.87 0.145,0.621 -0.236,1.242 -0.853,1.396 l -6.515,1.619 c -0.651,0.161 -1.309,-0.234 -1.471,-0.885 -0.161,-0.651 0.235,-1.31 0.885,-1.471 0.004,-10e-4 0.008,-10e-4 0.011,-0.003 z"
       fill="#ffffff"
       id="path310" />
    <path
       d="m 206.32,311.241 6.271,-2.112 0.041,-0.013 c 0.552,-0.186 1.148,0.111 1.334,0.661 0.183,0.545 -0.106,1.138 -0.647,1.329 l -6.322,2.234 c -0.574,0.203 -1.204,-0.098 -1.407,-0.672 -0.203,-0.574 0.099,-1.204 0.672,-1.407 0.004,-0.001 0.006,-0.003 0.01,-0.004 z"
       fill="#ffffff"
       id="path312" />
    <path
       d="m 220.527,306.047 6.062,-2.671 0.033,-0.015 c 0.475,-0.209 1.031,0.007 1.24,0.482 0.207,0.471 -0.002,1.02 -0.469,1.235 l -6.091,2.791 c -0.497,0.228 -1.085,0.009 -1.313,-0.488 -0.228,-0.498 -0.009,-1.086 0.488,-1.314 0.003,-0.001 0.005,-0.002 0.009,-0.004 z"
       fill="#ffffff"
       id="path314" />
    <path
       d="m 234.245,299.631 5.836,-3.154 0.024,-0.013 c 0.375,-0.201 0.842,-0.062 1.044,0.311 0.199,0.369 0.067,0.828 -0.295,1.035 l -5.809,3.323 c -0.408,0.233 -0.928,0.093 -1.161,-0.316 -0.233,-0.408 -0.092,-0.928 0.316,-1.161 0.005,-0.003 0.009,-0.005 0.014,-0.008 z"
       fill="#ffffff"
       id="path316" />
    <path
       d="m 247.412,292.116 5.566,-3.623 0.017,-0.011 c 0.272,-0.177 0.635,-0.101 0.812,0.172 0.174,0.266 0.101,0.624 -0.16,0.804 l -5.513,3.78 c -0.304,0.208 -0.719,0.131 -0.928,-0.173 -0.208,-0.305 -0.131,-0.72 0.174,-0.928 0.003,-0.003 0.006,-0.006 0.01,-0.008 z"
       fill="#ffffff"
       id="path318" />
    <path
       d="m 259.986,283.562 2.689,-2.015 0.005,-0.004 c 0.179,-0.133 0.43,-0.098 0.563,0.08 0.13,0.175 0.097,0.421 -0.071,0.555 l -2.634,2.109 c -0.197,0.157 -0.484,0.126 -0.642,-0.072 -0.157,-0.197 -0.126,-0.484 0.072,-0.642 0.004,-0.002 0.006,-0.005 0.01,-0.008 z"
       fill="#ffffff"
       id="path320" />
  </g>
  <defs
     id="defs472">
    <linearGradient
       id="paint0_linear_53_970"
       x1="368.83401"
       y1="396.71399"
       x2="38.966301"
       y2="20.9154"
       gradientUnits="userSpaceOnUse">
      <stop
         stop-color="#B37CFF"
         id="stop322" />
      <stop
         offset="1"
         stop-color="#F895E7"
         id="stop324" />
    </linearGradient>
    <linearGradient
       id="paint1_linear_53_970"
       x1="70.584999"
       y1="349.099"
       x2="340.633"
       y2="88.584999"
       gradientUnits="userSpaceOnUse">
      <stop
         stop-color="#A737D5"
         id="stop327" />
      <stop
         offset="1"
         stop-color="#EF497A"
         id="stop329" />
    </linearGradient>
    <linearGradient
       id="paint2_linear_53_970"
       x1="245.955"
       y1="58.733601"
       x2="132.869"
       y2="168.74699"
       gradientUnits="userSpaceOnUse">
      <stop
         stop-color="#FDF53F"
         id="stop332" />
      <stop
         offset="1"
         stop-color="#D93C65"
         id="stop334" />
    </linearGradient>
    <linearGradient
       id="paint3_linear_53_970"
       x1="258.57401"
       y1="71.706001"
       x2="145.49001"
       y2="181.717"
       gradientUnits="userSpaceOnUse">
      <stop
         stop-color="#FDF53F"
         id="stop337" />
      <stop
         offset="1"
         stop-color="#D93C65"
         id="stop339" />
    </linearGradient>
    <linearGradient
       id="paint4_linear_53_970"
       x1="226.39999"
       y1="140.43201"
       x2="138.948"
       y2="236.65401"
       gradientUnits="userSpaceOnUse">
      <stop
         stop-color="#A737D5"
         id="stop342" />
      <stop
         offset="1"
         stop-color="#EF497A"
         id="stop344" />
    </linearGradient>
    <linearGradient
       id="paint5_linear_53_970"
       x1="236.72099"
       y1="149.812"
       x2="149.269"
       y2="246.035"
       gradientUnits="userSpaceOnUse">
      <stop
         stop-color="#A737D5"
         id="stop347" />
      <stop
         offset="1"
         stop-color="#EF497A"
         id="stop349" />
    </linearGradient>
    <linearGradient
       id="paint6_linear_53_970"
       x1="240.91701"
       y1="178.959"
       x2="131.42101"
       y2="279.12299"
       gradientUnits="userSpaceOnUse">
      <stop
         stop-color="#A737D5"
         id="stop352" />
      <stop
         offset="1"
         stop-color="#EF497A"
         id="stop354" />
    </linearGradient>
    <linearGradient
       id="paint7_linear_53_970"
       x1="257.36099"
       y1="168.57201"
       x2="169.909"
       y2="264.79501"
       gradientUnits="userSpaceOnUse">
      <stop
         stop-color="#A737D5"
         id="stop357" />
      <stop
         offset="1"
         stop-color="#EF497A"
         id="stop359" />
    </linearGradient>
    <linearGradient
       id="paint8_linear_53_970"
       x1="34.6805"
       y1="400.38501"
       x2="179.186"
       y2="54.103001"
       gradientUnits="userSpaceOnUse">
      <stop
         stop-color="#A737D5"
         id="stop362" />
      <stop
         offset="1"
         stop-color="#EF497A"
         id="stop364" />
    </linearGradient>
    <linearGradient
       id="paint9_linear_53_970"
       x1="50.123199"
       y1="63.835201"
       x2="177.133"
       y2="208.196"
       gradientUnits="userSpaceOnUse">
      <stop
         stop-color="#CE1567"
         id="stop367" />
      <stop
         offset="1"
         stop-color="#7A1DBC"
         id="stop369" />
    </linearGradient>
    <linearGradient
       id="paint10_linear_53_970"
       x1="38.938999"
       y1="73.674896"
       x2="165.948"
       y2="218.035"
       gradientUnits="userSpaceOnUse">
      <stop
         stop-color="#CE1567"
         id="stop372" />
      <stop
         offset="1"
         stop-color="#7A1DBC"
         id="stop374" />
    </linearGradient>
    <linearGradient
       id="paint11_linear_53_970"
       x1="134.498"
       y1="160.569"
       x2="92.406898"
       y2="283.59201"
       gradientUnits="userSpaceOnUse">
      <stop
         stop-color="#A737D5"
         id="stop377" />
      <stop
         offset="1"
         stop-color="#EF497A"
         id="stop379" />
    </linearGradient>
    <linearGradient
       id="paint12_linear_53_970"
       x1="8.12533"
       y1="239.51801"
       x2="97.726799"
       y2="239.51801"
       gradientUnits="userSpaceOnUse">
      <stop
         stop-color="#2B3582"
         id="stop382" />
      <stop
         offset="1"
         stop-color="#150E42"
         id="stop384" />
    </linearGradient>
    <linearGradient
       id="paint13_linear_53_970"
       x1="0.39948201"
       y1="281.91299"
       x2="96.708702"
       y2="281.91299"
       gradientUnits="userSpaceOnUse">
      <stop
         stop-color="#18459F"
         id="stop387" />
      <stop
         offset="1"
         stop-color="#2874B5"
         id="stop389" />
    </linearGradient>
    <linearGradient
       id="paint14_linear_53_970"
       x1="190.233"
       y1="324.242"
       x2="174.618"
       y2="-137.987"
       gradientUnits="userSpaceOnUse">
      <stop
         stop-color="#2B3582"
         id="stop392" />
      <stop
         offset="1"
         stop-color="#150E42"
         id="stop394" />
    </linearGradient>
    <linearGradient
       id="paint15_linear_53_970"
       x1="42.9855"
       y1="282.18301"
       x2="219.966"
       y2="394.61801"
       gradientUnits="userSpaceOnUse">
      <stop
         stop-color="#A737D5"
         id="stop397" />
      <stop
         offset="1"
         stop-color="#EF497A"
         id="stop399" />
    </linearGradient>
    <linearGradient
       id="paint16_linear_53_970"
       x1="57.840401"
       y1="258.79901"
       x2="234.821"
       y2="371.23401"
       gradientUnits="userSpaceOnUse">
      <stop
         stop-color="#A737D5"
         id="stop402" />
      <stop
         offset="1"
         stop-color="#EF497A"
         id="stop404" />
    </linearGradient>
    <linearGradient
       id="paint17_linear_53_970"
       x1="57.848099"
       y1="389.02802"
       x2="255.867"
       y2="96.880699"
       gradientUnits="userSpaceOnUse">
      <stop
         stop-color="#A737D5"
         id="stop407" />
      <stop
         offset="1"
         stop-color="#EF497A"
         id="stop409" />
    </linearGradient>
    <linearGradient
       id="paint18_linear_53_970"
       x1="135.853"
       y1="65.709297"
       x2="179.578"
       y2="196.189"
       gradientUnits="userSpaceOnUse">
      <stop
         stop-color="#FDF53F"
         id="stop412" />
      <stop
         offset="1"
         stop-color="#D93C65"
         id="stop414" />
    </linearGradient>
    <linearGradient
       id="paint19_linear_53_970"
       x1="127.658"
       y1="68.455597"
       x2="171.383"
       y2="198.935"
       gradientUnits="userSpaceOnUse">
      <stop
         stop-color="#FDF53F"
         id="stop417" />
      <stop
         offset="1"
         stop-color="#D93C65"
         id="stop419" />
    </linearGradient>
    <linearGradient
       id="paint20_linear_53_970"
       x1="98.677498"
       y1="166.147"
       x2="262.12399"
       y2="296.79999"
       gradientUnits="userSpaceOnUse">
      <stop
         stop-color="#A737D5"
         id="stop422" />
      <stop
         offset="1"
         stop-color="#EF497A"
         id="stop424" />
    </linearGradient>
    <linearGradient
       id="paint21_linear_53_970"
       x1="126.547"
       y1="131.283"
       x2="289.99301"
       y2="261.936"
       gradientUnits="userSpaceOnUse">
      <stop
         stop-color="#A737D5"
         id="stop427" />
      <stop
         offset="1"
         stop-color="#EF497A"
         id="stop429" />
    </linearGradient>
    <linearGradient
       id="paint22_linear_53_970"
       x1="160.786"
       y1="166.756"
       x2="98.959999"
       y2="272.27899"
       gradientUnits="userSpaceOnUse">
      <stop
         stop-color="#A737D5"
         id="stop432" />
      <stop
         offset="1"
         stop-color="#EF497A"
         id="stop434" />
    </linearGradient>
    <linearGradient
       id="paint23_linear_53_970"
       x1="172.105"
       y1="173.388"
       x2="110.279"
       y2="278.91"
       gradientUnits="userSpaceOnUse">
      <stop
         stop-color="#A737D5"
         id="stop437" />
      <stop
         offset="1"
         stop-color="#EF497A"
         id="stop439" />
    </linearGradient>
    <linearGradient
       id="paint24_linear_53_970"
       x1="181.62199"
       y1="199.39999"
       x2="100.271"
       y2="312.82501"
       gradientUnits="userSpaceOnUse">
      <stop
         stop-color="#A737D5"
         id="stop442" />
      <stop
         offset="1"
         stop-color="#EF497A"
         id="stop444" />
    </linearGradient>
    <linearGradient
       id="paint25_linear_53_970"
       x1="194.742"
       y1="186.651"
       x2="132.916"
       y2="292.173"
       gradientUnits="userSpaceOnUse">
      <stop
         stop-color="#A737D5"
         id="stop447" />
      <stop
         offset="1"
         stop-color="#EF497A"
         id="stop449" />
    </linearGradient>
    <linearGradient
       id="paint26_linear_53_970"
       x1="214.702"
       y1="1.8516001"
       x2="136.606"
       y2="104.585"
       gradientUnits="userSpaceOnUse">
      <stop
         stop-color="#2B3582"
         id="stop452" />
      <stop
         offset="1"
         stop-color="#150E42"
         id="stop454" />
    </linearGradient>
    <linearGradient
       id="paint27_linear_53_970"
       x1="223.27"
       y1="8.3634901"
       x2="145.174"
       y2="111.097"
       gradientUnits="userSpaceOnUse">
      <stop
         stop-color="#2B3582"
         id="stop457" />
      <stop
         offset="1"
         stop-color="#150E42"
         id="stop459" />
    </linearGradient>
    <linearGradient
       id="paint28_linear_53_970"
       x1="213.42799"
       y1="14.6474"
       x2="159.504"
       y2="113.662"
       gradientUnits="userSpaceOnUse">
      <stop
         stop-color="#CE1567"
         id="stop462" />
      <stop
         offset="1"
         stop-color="#7A1DBC"
         id="stop464" />
    </linearGradient>
    <linearGradient
       id="paint29_linear_53_970"
       x1="221.899"
       y1="149.67101"
       x2="327.39301"
       y2="-0.93575698"
       gradientUnits="userSpaceOnUse">
      <stop
         stop-color="#53D8FF"
         id="stop467" />
      <stop
         offset="1"
         stop-color="#3840F7"
         id="stop469" />
    </linearGradient>
  </defs>
</svg>
