<svg width="20" height="20" viewBox="0 0 20 20" fill="none" xmlns="http://www.w3.org/2000/svg">
<path d="M9.45312 0.0234375C8.19531 0.179688 7.14453 0.691406 6.26953 1.57812C5.49219 2.36328 5.04688 3.19922 4.81641 4.29688C4.72266 4.75781 4.72266 5.78906 4.81641 6.25C5.04688 7.34766 5.49609 8.1875 6.26953 8.96875C7.05469 9.76172 7.91406 10.2266 9.02344 10.457C9.48047 10.5508 10.5078 10.5508 10.9844 10.457C12.0391 10.2461 12.9141 9.77734 13.6953 9.00391C14.4844 8.22656 14.9531 7.35938 15.1836 6.25C15.2773 5.78906 15.2773 4.75781 15.1836 4.29688C15.0312 3.57422 14.7539 2.90625 14.3555 2.30469C14.1094 1.93359 13.3477 1.16797 12.9844 0.929688C12.3555 0.511719 11.6758 0.226562 11.0078 0.0976562C10.6914 0.0351562 9.72656 -0.0117188 9.45312 0.0234375Z" fill="white"/>
<path d="M7.90321 11.7812C5.71571 12.0469 3.74306 13.2852 2.47352 15.1953C1.72743 16.3125 1.30165 17.6328 1.22743 19.043C1.20399 19.4766 1.2079 19.5273 1.28602 19.6797C1.34071 19.7891 1.41884 19.8672 1.52431 19.9219C1.67665 20 1.73524 20 10.0009 20C18.2665 20 18.3251 20 18.4774 19.9219C18.5829 19.8672 18.661 19.7891 18.7157 19.6797C18.7938 19.5273 18.7977 19.4766 18.7743 19.043C18.6727 17.1172 17.9384 15.4297 16.6024 14.0469C15.3368 12.7383 13.704 11.9414 11.9188 11.7578C11.329 11.6992 8.44618 11.7148 7.90321 11.7812Z" fill="white"/>
</svg>
