<svg width="18" height="18" viewBox="0 0 18 18" fill="none" xmlns="http://www.w3.org/2000/svg">
<path d="M17.2737 7.74703L17.2677 7.744L1.25074 0.07905C1.11602 0.0139919 0.969426 -0.011523 0.824067 0.00478746C0.678708 0.021098 0.53912 0.0787253 0.417789 0.172514C0.2896 0.269427 0.184304 0.401589 0.111376 0.557111C0.0384475 0.712632 0.000174427 0.886632 2.04773e-07 1.06346V5.96558C7.14361e-05 6.20731 0.0732291 6.44144 0.206864 6.62762C0.340499 6.81379 0.526238 6.94035 0.732069 6.98547L9.46776 8.84913C9.50209 8.85664 9.53306 8.87774 9.55535 8.90878C9.57764 8.93983 9.58983 8.97888 9.58983 9.01919C9.58983 9.0595 9.57764 9.09855 9.55535 9.12959C9.53306 9.16064 9.50209 9.18173 9.46776 9.18924L0.732444 11.0529C0.526671 11.0979 0.340942 11.2243 0.207247 11.4103C0.0735527 11.5963 0.000262533 11.8303 2.04773e-07 12.0719V16.9749C-9.93957e-05 17.1438 0.0361362 17.31 0.105455 17.4587C0.174775 17.6074 0.275008 17.7339 0.397162 17.8269C0.544101 17.9396 0.716544 17.9998 0.892959 18C1.0156 17.9999 1.13699 17.9715 1.24999 17.9165L17.2666 10.2952L17.2737 10.2913C17.4893 10.1844 17.673 10.007 17.8021 9.78085C17.9312 9.55474 18 9.28994 18 9.01919C18 8.74844 17.9312 8.48363 17.8021 8.25752C17.673 8.03142 17.4893 7.85393 17.2737 7.74703Z" fill="#000000"/>
</svg>
