<svg width="30" height="30" viewBox="0 0 30 30" fill="none" xmlns="http://www.w3.org/2000/svg">
<path d="M15.8102 15.906C15.4215 16.4262 14.9256 16.8566 14.3561 17.1681C13.7866 17.4795 13.1569 17.6647 12.5096 17.7111C11.8623 17.7575 11.2126 17.664 10.6046 17.437C9.99661 17.21 9.44449 16.8547 8.9857 16.3953L6.27037 13.6772C5.44601 12.8228 4.98986 11.6785 5.00017 10.4907C5.01048 9.30296 5.48643 8.16675 6.3255 7.32684C7.16457 6.48692 8.29964 6.01049 9.48622 6.00017C10.6728 5.98985 11.816 6.44646 12.6695 7.27165L14.2263 8.82095M12.1898 14.094C12.5785 13.5738 13.0744 13.1434 13.6439 12.8319C14.2134 12.5205 14.8431 12.3353 15.4904 12.2889C16.1377 12.2425 16.7874 12.336 17.3954 12.563C18.0034 12.79 18.5555 13.1453 19.0143 13.6047L21.7296 16.3228C22.554 17.1772 23.0101 18.3215 22.9998 19.5093C22.9895 20.697 22.5136 21.8332 21.6745 22.6732C20.8354 23.5131 19.7004 23.9895 18.5138 23.9998C17.3272 24.0101 16.184 23.5535 15.3305 22.7283L13.7828 21.1791" stroke="#000000" stroke-width="2" stroke-linecap="round" stroke-linejoin="round"/>
</svg>
