<svg width="38" height="38" fill="none" xmlns="http://www.w3.org/2000/svg">
    <style>

        #bell{
        animation: rotate 4s ease-in-out infinite;
        transform-origin:center;

        }
        @keyframes rotate {
        0% {
        transform:rotate(0);
        }
        10% {
        transform:rotate(10deg);
        }
        20% {
        transform:rotate(-10deg);
        }
        30%{
        transform:rotate(0);
        }

        100% {
        transform:rotate(0);
        }
        }

    </style>

    <rect id="rect" width="38" height="38" rx="10" stroke="#E6EDFF"/>
    <g id="bell">
        <path clip-rule="evenodd" d="M19 11.875c-2.815 0-4.222 1.985-4.222 4.433v1.373c0 .874-.787 1.596-1.418 2.202-.406.39-.693.943-.693 1.598 0 .816.63 1.477 1.407 1.477h9.852c.777 0 1.407-.661 1.407-1.477a2.2 2.2 0 0 0-.693-1.598c-.631-.606-1.418-1.328-1.418-2.202v-1.373c0-2.448-1.407-4.433-4.222-4.433Z" stroke="#8D9CA9" stroke-width="1.5"/>
        <path d="M20.583 25.333c-.16.24-.391.44-.67.578a2.056 2.056 0 0 1-.913.211c-.32 0-.636-.073-.913-.211a1.73 1.73 0 0 1-.67-.578" stroke="#8D9CA9" stroke-width="1.5" stroke-linecap="round" stroke-linejoin="round"/>
    </g>
    <!-- <circle cx="28.104" cy="9.104" r="2.771" fill="#fff"/> -->
</svg>