<svg width="38" height="38" fill="none" xmlns="http://www.w3.org/2000/svg"><rect x=".5" y=".5" width="37" height="37" rx="9.5" stroke="#E6EDFF"/><path d="M17.007 22.87v-.222c.005-1.029.102-1.847.29-2.455.193-.608.465-1.096.818-1.466a6.285 6.285 0 0 1 1.287-1.031c.346-.216.656-.452.928-.707.279-.262.498-.552.657-.87.159-.323.238-.684.238-1.082 0-.449-.105-.838-.315-1.168a2.14 2.14 0 0 0-.852-.767 2.545 2.545 0 0 0-1.185-.273c-.403 0-.787.089-1.15.265a2.23 2.23 0 0 0-.895.784c-.233.346-.364.787-.392 1.32h-3.034c.028-1.079.29-1.982.784-2.71a4.637 4.637 0 0 1 1.977-1.636c.824-.363 1.733-.545 2.727-.545 1.085 0 2.04.19 2.864.57.83.381 1.474.924 1.934 1.629.466.698.7 1.528.7 2.488 0 .648-.106 1.228-.316 1.739a4.223 4.223 0 0 1-.878 1.364c-.38.397-.832.752-1.355 1.065-.46.284-.838.58-1.133.886-.29.307-.506.668-.648 1.083-.137.409-.208.915-.213 1.517v.221h-2.838Zm1.483 5.317c-.512 0-.952-.181-1.321-.545a1.795 1.795 0 0 1-.554-1.33c0-.51.184-.948.554-1.312.369-.364.81-.546 1.32-.546.506 0 .944.182 1.313.546.375.364.563.801.563 1.313 0 .346-.088.661-.265.946-.17.284-.397.51-.681.681a1.79 1.79 0 0 1-.93.247Z" fill="#8D9CA9"/></svg>