<svg width="38" height="38" fill="none" xmlns="http://www.w3.org/2000/svg"><rect x=".5" y=".5" width="37" height="37" rx="9.5" stroke="#E6EDFF"/><path d="M13.458 14.25a2.375 2.375 0 0 1 2.375-2.375h6.334a2.375 2.375 0 0 1 2.375 2.375v9.5a2.375 2.375 0 0 1-2.375 2.375h-6.334a2.375 2.375 0 0 1-2.375-2.375v-9.5Z" stroke="#8D9CA9" stroke-width="2"/><path d="M22.167 11.875h-.088c-.73 0-1.32.59-1.32 1.32a.264.264 0 0 1-.264.263h-2.99a.264.264 0 0 1-.264-.264 1.32 1.32 0 0 0-1.32-1.319h-.088" stroke="#8D9CA9" stroke-width="2"/><path d="m21.375 18.208-2.969 3.167-1.781-1.44" stroke="#8D9CA9" stroke-width="2" stroke-linecap="round" stroke-linejoin="round"/></svg>