<svg width="38" height="38" fill="none" xmlns="http://www.w3.org/2000/svg"><rect x=".5" y=".5" width="37" height="37" rx="9.5" stroke="#E6EDFF"/><path d="M25.125 17.417a1 1 0 1 0 2 0h-2ZM19 25.542a1 1 0 1 0 0-2v2Zm4.75-13.084h-9.5v2h9.5v-2Zm-12.875 3.375v6.334h2v-6.334h-2Zm3.375-3.375a3.375 3.375 0 0 0-3.375 3.375h2c0-.759.616-1.375 1.375-1.375v-2Zm12.875 3.375a3.375 3.375 0 0 0-3.375-3.375v2c.76 0 1.375.616 1.375 1.375h2ZM14.25 23.542c-.76 0-1.375-.616-1.375-1.375h-2a3.375 3.375 0 0 0 3.375 3.375v-2Zm12.875-6.125v-1.584h-2v1.584h2ZM14.25 25.542H19v-2h-4.75v2Z" fill="#8D9CA9"/><path d="M15.042 16.625 19 19.792l3.958-3.167" stroke="#8D9CA9" stroke-width="2" stroke-linecap="round"/><path d="m26.917 21.375-2.969 3.167-1.781-1.44" stroke="#8D9CA9" stroke-width="2" stroke-linecap="round" stroke-linejoin="round"/></svg>