<svg width="368" height="366" fill="none" xmlns="http://www.w3.org/2000/svg">
    <style>
        #image4-petal1{
        animation: move1 4s ease-in-out infinite alternate;
        }
        #image4-petal2{
        animation: move1 4s .5s ease-in-out infinite alternate;
        }

        #image4-done1{
        opacity:0;
        animation: opacity1 3s 1s ease-in-out infinite alternate;
        animation-fill-mode:forwards;

        }
        #image4-done2{
        opacity:0;
        animation: opacity1 3s 1.3s ease-in-out infinite alternate;
        animation-fill-mode:forwards;

        }
        #image4-done3{
        opacity:0;
        animation: opacity1 3s 1.6s ease-in-out infinite alternate;
        animation-fill-mode:forwards;

        }
        #image4-done4{
        opacity:0;
        animation: opacity1 3s 1.9s ease-in-out infinite alternate;
        animation-fill-mode:forwards;

        }

        #image4-blank1 {
        animation: move2 4s .5s ease-in-out infinite alternate;
        }


        @keyframes opacity1 {
        0% {
        opacity:0;
        }
        100%{
        opacity:1;
        }
        }

        @keyframes move5 {
        0% {
        transform: translate3d(0, 0, 0);
        }
        50% {
        transform: translate3d(12px, -5px, 0);
        }
        100%{
        transform: translate3d(0, 0, 0);
        }
        }
        @keyframes move6 {
        0% {
        transform: translate3d(0, 0, 0);
        }
        50% {
        transform: translate3d(6px, -2px, 0);
        }
        100%{
        transform: translate3d(0, 0, 0);
        }
        }

        @keyframes move1 {
        0% {
        transform: translate3d(0, 0, 0);
        }
        100% {
        transform: translate3d(15px, -7px, 0);
        }
        }
        @keyframes move2 {
        0% {
        transform: translate3d(0, 0, 0);
        }
        50% {
        transform: translate3d(6px, 5px, 0);
        }
        100%{
        transform: translate3d(0, 0, 0);
        }
        }
        @keyframes move3 {
        0% {
        transform: translate3d(0, 0, 0);
        }
        50% {
        transform: translate3d(5px, 6px, 0);
        }
        100%{
        transform: translate3d(0, 0, 0);
        }
        }
        @keyframes move4 {
        0% {
        transform: rotate(0deg);
        transform-origin:center;
        }
        100%{
        transform: rotate(360deg);
        }
        }
    </style>


    <path opacity=".3" d="M323.579 313.671c-66.435 70.108-168.484 49.369-183.568 46.035-19.003-4.199-64.215-14.188-97.954-53.632C-9.597 245.686-4.382 151.31 35.51 87.682 47.119 69.168 86.182 14.148 159.539 2.185c4.287-.699 80.889-11.93 142.523 39.783 8.311 6.973 21.724 19.6 33.48 37.987 36.468 57.038 53.727 164.393-11.963 233.716Z" fill="url(#a)"/>
    <g id="image4-blank1">
        <path d="M179.625 19.521c.752-3.674 4.577-5.835 8.111-4.575 23.432 8.355 104.243 35.953 173.93 45.14 3.178.42 5.393 3.361 4.899 6.528l-40.541 260.103a6.56 6.56 0 0 1-7.454 5.481c-29.201-4.372-149.374-22.807-190.806-36.173a5.2 5.2 0 0 1-3.491-5.993l55.352-270.51Z" fill="url(#b)"/>
        <path opacity=".6" d="M181.107 26.567c.724-3.537 4.406-5.616 7.806-4.404 22.549 8.04 100.318 34.598 167.38 43.441 3.059.404 5.19 3.235 4.715 6.282l-39.014 250.308a6.313 6.313 0 0 1-7.174 5.274c-28.102-4.206-143.749-21.948-183.621-34.812a5.003 5.003 0 0 1-3.359-5.767l53.267-260.322Z" fill="#fff"/>
        <path opacity=".78" d="M203.073 47.21a3.667 3.667 0 0 0-4.499 2.97l-8.72 53.588a3.449 3.449 0 0 0 2.596 3.909c9.77 2.348 40.239 9.55 57.72 12.293a3.85 3.85 0 0 0 4.336-2.889c2.428-9.883 9.254-38.698 9.538-51.286a4.345 4.345 0 0 0-3.307-4.31L203.073 47.21Z" fill="#fff"/>
        <path d="M228.002 87.858c6.439 0 11.659-5.22 11.659-11.659 0-6.439-5.22-11.658-11.659-11.658-6.439 0-11.658 5.22-11.658 11.658 0 6.439 5.219 11.659 11.658 11.659Z" fill="url(#c)"/>
        <path d="m203.615 106.041 36.346 7.66c2.228.47 4.082-1.709 3.277-3.84-2.069-5.481-7.032-13.939-18.286-15.977-10.846-1.964-18.588 3.1-22.769 7.021-1.775 1.663-.949 4.633 1.432 5.136Z" fill="url(#d)"/>
        <path d="M342.94 85.431c1.139.24 2.215-.37 2.392-1.355.179-.985-.604-2.004-1.737-2.264L280.13 67.25c-1.133-.26-1.937.47-1.786 1.624l.123.93c.152 1.153 1.208 2.293 2.345 2.532L342.94 85.43Zm-64.895-8.287c-1.133-.26-1.937.471-1.786 1.625l.123.929c.152 1.153 1.208 2.293 2.345 2.533l62.127 13.094c1.139.24 2.215-.37 2.392-1.355.178-.985-.604-2.005-1.738-2.265l-63.463-14.56ZM275.93 87.18c-1.133-.26-1.936.472-1.785 1.625l.122.93c.152 1.153 1.208 2.293 2.346 2.532l62.126 13.094c1.139.24 2.215-.369 2.392-1.354.179-.986-.604-2.005-1.737-2.265L275.93 87.181Zm58.796 67.891c1.139.239 2.185-.377 2.327-1.37.142-.993-.672-2.008-1.808-2.257l-148.993-32.629c-1.136-.249-1.64.398-1.118 1.438l.897 1.788c.522 1.04 1.88 2.087 3.017 2.328l145.678 30.702Zm-150.56-26.364c-1.137-.249-1.64.398-1.118 1.438l.896 1.788c.522 1.04 1.88 2.087 3.017 2.328l145.678 30.703c1.139.24 2.185-.376 2.327-1.369.142-.993-.672-2.009-1.808-2.257l-148.992-32.631Zm-4.155 16.377c3.646.481 10.393 1.77 14.103 2.497a3.428 3.428 0 0 1 2.77 3.262c.09 3.11-.008 8.457-1.28 13.875a3.042 3.042 0 0 1-3.618 2.282l-13.619-3.024a3.35 3.35 0 0 1-2.602-3.653l1.506-13.094a2.44 2.44 0 0 1 2.74-2.145Zm24.132 10.593c-1.127-.287-2.106.429-2.174 1.59l-.132 2.271c-.068 1.161.807 2.308 1.946 2.547l33.151 6.987a2.088 2.088 0 0 0 2.48-1.639l.11-.561c.226-1.141-.511-2.31-1.638-2.596l-33.743-8.599Zm50.232 5.079c3.646.482 10.394 1.77 14.103 2.498a3.425 3.425 0 0 1 2.77 3.26c.09 3.11-.008 8.457-1.279 13.875a3.043 3.043 0 0 1-3.619 2.282l-13.618-3.024a3.348 3.348 0 0 1-2.602-3.653l1.506-13.094a2.439 2.439 0 0 1 2.739-2.144Zm24.132 10.594c-1.127-.288-2.106.428-2.173 1.589l-.133 2.272c-.068 1.161.807 2.307 1.946 2.547l33.152 6.987a2.09 2.09 0 0 0 2.479-1.639l.111-.561c.225-1.141-.512-2.31-1.639-2.597l-33.743-8.598Z" fill="#fff" opacity=".6"/>
        <path d="M188.533 200.092a.787.787 0 0 0-.034-.008l-12.571-2.775c-1.796-.397-3.021-1.949-2.849-3.608l1.121-10.802a2.35 2.35 0 0 1 .906-1.613c.58-.454 1.356-.653 2.128-.545 1.076.151 2.598.338 4.208.537 3.39.418 7.612.94 9.95 1.402 1.695.349 2.92 1.653 3.007 3.211.145 2.564-.881 7.145-2.037 12.01-.373 1.58-2.088 2.556-3.829 2.191Zm-11.436-18.372c-.508-.072-1.011.054-1.381.343-.306.24-.495.572-.532.936l-1.121 10.802c-.12 1.161.773 2.253 2.079 2.541l12.569 2.775.025.005c1.221.258 2.412-.389 2.664-1.451 1.139-4.793 2.149-9.295 2.011-11.727-.061-1.089-.982-2.033-2.211-2.296-2.304-.455-6.506-.973-9.881-1.39a270.811 270.811 0 0 1-4.222-.538Z" fill="#fff"/>
        <path opacity=".6" d="M178.221 183.097c2.684.377 8.558 1.005 11.293 1.546 1.158.229 2.025 1.142 2.085 2.201.116 2.058-.772 5.922-1.618 9.485-.254 1.066-1.419 1.715-2.619 1.45l-10.045-2.218c-1.236-.273-2.085-1.333-1.968-2.458l.895-8.632c.094-.894.983-1.515 1.977-1.374Zm22.853 12.309a3.197 3.197 0 0 0 2.561 2.973l116.75 23.568a2.417 2.417 0 0 0 .987-4.732L204.94 192.122a3.195 3.195 0 0 0-3.866 3.284Z" fill="#fff"/>
        <path d="M178.409 184.867a1.975 1.975 0 0 1 2.513 1.287l1.546 4.978a.635.635 0 0 0 1.118.186l9.054-12.42c.452-.62 1.422-.173 1.252.574-.947 4.183-3.742 11.925-11.853 17.189 0 0-3.392-2.216-4.991-9.377a2.073 2.073 0 0 1 1.361-2.417Z" fill="url(#e)"/>
        <path d="m182.843 227.087-.034-.008-12.571-2.775c-1.796-.397-3.021-1.948-2.849-3.608l1.121-10.802a2.353 2.353 0 0 1 .906-1.613c.58-.454 1.356-.653 2.128-.545 1.076.151 2.598.338 4.208.538 3.391.417 7.612.939 9.951 1.401l.05.011c1.657.349 2.869 1.658 2.956 3.2.145 2.565-.881 7.145-2.037 12.01-.373 1.582-2.088 2.558-3.829 2.191Zm-11.436-18.371c-.507-.071-1.011.055-1.381.344a1.364 1.364 0 0 0-.532.936l-1.121 10.802c-.12 1.161.773 2.253 2.079 2.54l12.569 2.775.025.006c1.221.257 2.412-.39 2.664-1.452 1.139-4.792 2.149-9.294 2.011-11.726-.062-1.089-.993-2.059-2.212-2.296-2.304-.455-6.504-.973-9.881-1.39-1.611-.199-3.137-.387-4.221-.539Z" fill="#fff"/>
        <path opacity=".6" d="M172.533 210.092c2.684.376 8.558 1.005 11.292 1.546 1.159.229 2.026 1.142 2.086 2.201.115 2.058-.772 5.922-1.618 9.485-.254 1.067-1.419 1.715-2.619 1.45l-10.046-2.218c-1.235-.273-2.085-1.333-1.968-2.458l.896-8.632c.092-.893.982-1.513 1.977-1.374Zm22.852 12.309a3.196 3.196 0 0 0 2.56 2.973l116.751 23.568a2.416 2.416 0 0 0 .986-4.731l-116.431-25.094a3.196 3.196 0 0 0-3.866 3.284Z" fill="#fff"/>
        <path d="M172.72 211.862a1.975 1.975 0 0 1 2.513 1.287l1.547 4.978a.635.635 0 0 0 1.118.186l9.054-12.42c.451-.62 1.421-.173 1.252.574-.948 4.183-3.742 11.925-11.854 17.189 0 0-3.392-2.215-4.99-9.377a2.072 2.072 0 0 1 1.36-2.417Z" fill="url(#f)"/>
        <path d="m177.154 254.083-.033-.008-12.571-2.775c-1.796-.396-3.021-1.947-2.849-3.608l1.12-10.802a2.347 2.347 0 0 1 .908-1.612c.58-.455 1.356-.654 2.128-.546 1.076.151 2.598.339 4.208.538 3.39.418 7.611.939 9.95 1.402l.051.01c1.657.349 2.869 1.658 2.956 3.201.145 2.564-.881 7.144-2.037 12.009-.376 1.581-2.089 2.558-3.831 2.191Zm-11.435-18.372c-.508-.072-1.012.055-1.381.344a1.365 1.365 0 0 0-.533.935l-1.12 10.802c-.12 1.161.773 2.253 2.078 2.541l12.571 2.775.025.005c1.221.258 2.412-.389 2.664-1.451 1.138-4.792 2.149-9.295 2.011-11.726-.062-1.09-.993-2.063-2.211-2.296-2.304-.456-6.504-.974-9.881-1.39a278.899 278.899 0 0 1-4.223-.539Z" fill="#fff"/>
        <path opacity=".6" d="M166.842 237.088c2.684.378 8.558 1.005 11.293 1.546 1.158.23 2.025 1.142 2.085 2.201.116 2.058-.772 5.923-1.618 9.485-.253 1.067-1.418 1.716-2.619 1.45l-10.045-2.218c-1.235-.273-2.085-1.333-1.968-2.457l.895-8.632c.093-.895.983-1.514 1.977-1.375Zm22.855 12.309a3.194 3.194 0 0 0 2.56 2.973l116.75 23.568a2.416 2.416 0 0 0 .987-4.731l-116.432-25.094a3.195 3.195 0 0 0-3.865 3.284Z" fill="#fff"/>
        <path d="M167.03 238.858a1.975 1.975 0 0 1 2.513 1.288l1.546 4.977a.635.635 0 0 0 1.119.186l9.053-12.42c.452-.619 1.422-.173 1.253.574-.948 4.184-3.743 11.926-11.854 17.189 0 0-3.392-2.215-4.99-9.375a2.072 2.072 0 0 1 1.36-2.419Z" fill="url(#g)"/>
        <path d="m171.465 281.078-.034-.007-12.571-2.775c-1.796-.396-3.021-1.948-2.849-3.608l1.121-10.802a2.348 2.348 0 0 1 .907-1.613c.581-.454 1.356-.654 2.128-.545 1.077.151 2.598.338 4.208.537 3.391.418 7.612.94 9.951 1.402l.051.01c1.657.349 2.868 1.659 2.956 3.201.144 2.564-.882 7.144-2.037 12.01-.377 1.581-2.089 2.557-3.831 2.19Zm-11.437-18.37c-.508-.072-1.011.054-1.381.343-.306.24-.495.572-.532.936l-1.121 10.802c-.12 1.161.773 2.253 2.079 2.541l12.57 2.775.025.005c1.221.258 2.412-.389 2.664-1.451 1.139-4.793 2.149-9.295 2.011-11.726-.062-1.09-.991-2.067-2.212-2.296-2.304-.456-6.504-.974-9.879-1.391-1.614-.199-3.14-.386-4.224-.538Z" fill="#fff"/>
        <path opacity=".6" d="M161.153 264.083c2.684.377 8.558 1.005 11.293 1.547 1.158.229 2.025 1.141 2.085 2.201.116 2.058-.772 5.922-1.618 9.485-.253 1.067-1.418 1.715-2.618 1.45l-10.046-2.218c-1.235-.274-2.085-1.333-1.968-2.458l.895-8.632c.093-.893.982-1.514 1.977-1.375Zm22.855 12.309a3.194 3.194 0 0 0 2.56 2.973l116.75 23.568a2.416 2.416 0 0 0 .987-4.731l-116.432-25.093a3.194 3.194 0 0 0-3.865 3.283Z" fill="#fff"/>
        <path d="M161.339 265.854a1.975 1.975 0 0 1 2.514 1.287l1.546 4.977a.634.634 0 0 0 1.118.186l9.054-12.42c.452-.619 1.421-.173 1.252.574-.947 4.184-3.742 11.926-11.854 17.189 0 0-3.391-2.215-4.99-9.376a2.074 2.074 0 0 1 1.36-2.417Z" fill="url(#h)"/>
    </g>

    <path d="M3.984 54.607c-.768-3.672 1.886-7.173 5.63-7.418 24.822-1.631 109.949-8.37 177.56-27.593 3.084-.876 6.285.945 7.088 4.048l66.014 254.832a6.56 6.56 0 0 1-4.667 7.989c-28.539 7.577-146.159 38.347-189.493 42.521a5.199 5.199 0 0 1-5.583-4.116L3.983 54.607Z" fill="url(#i)"/>
    <path opacity=".6" d="M8.141 60.484c-.74-3.532 1.816-6.902 5.417-7.139 23.888-1.57 105.81-8.055 170.875-26.554 2.968-.843 6.047.909 6.821 3.896l63.529 245.237a6.314 6.314 0 0 1-4.492 7.688c-27.463 7.292-140.654 36.903-182.357 40.92a5.002 5.002 0 0 1-5.372-3.961L8.141 60.484Z" fill="#fff"/>
    <path opacity=".78" d="m33.543 75.227 13.264 52.648a3.448 3.448 0 0 0 3.934 2.557c9.9-1.722 40.724-7.203 57.86-11.623a3.85 3.85 0 0 0 2.833-4.373c-1.694-10.034-6.864-39.193-11.598-50.86a4.346 4.346 0 0 0-4.746-2.644l-58.594 9.783a3.666 3.666 0 0 0-2.953 4.511Z" fill="#fff"/>
    <path d="M70.882 99.087c6.438 0 11.658-5.22 11.658-11.658 0-6.439-5.22-11.659-11.659-11.659-6.438 0-11.658 5.22-11.658 11.659 0 6.439 5.22 11.658 11.659 11.658Z" fill="url(#j)"/>
    <path d="m60.34 124.5 36.4-7.393c2.232-.453 3.068-3.189 1.485-4.825-4.074-4.211-11.986-10.004-23.125-7.408-10.736 2.502-15.831 10.223-18.113 15.48-.969 2.231.968 4.63 3.353 4.146Z" fill="url(#k)"/>
    <path d="M180.044 50.29c1.14-.232 1.886-1.219 1.658-2.194-.227-.975-1.349-1.6-2.493-1.389L115.178 58.53c-1.144.21-1.592 1.2-.995 2.2l.482.804c.597.998 2.019 1.625 3.159 1.394l62.22-12.638ZM117.19 68.436c-1.144.21-1.592 1.201-.994 2.2l.481.804c.598.998 2.019 1.626 3.159 1.394l62.222-12.637c1.14-.232 1.886-1.218 1.658-2.193-.228-.975-1.35-1.6-2.494-1.39L117.19 68.437Zm2.042 10.054c-1.144.21-1.592 1.201-.994 2.2l.481.804c.598.998 2.019 1.626 3.159 1.394L184.1 70.25c1.14-.232 1.886-1.219 1.658-2.194-.228-.975-1.35-1.6-2.494-1.388l-64.032 11.82Zm80.91 38.979c1.141-.232 1.858-1.213 1.594-2.181-.265-.967-1.414-1.577-2.557-1.354l-149.707 29.18c-1.141.223-1.347 1.017-.455 1.764l1.533 1.286c.892.747 2.554 1.17 3.693.938l145.899-29.633ZM51.484 153.023c-1.141.223-1.347 1.017-.455 1.764l1.533 1.286c.892.747 2.554 1.17 3.693.938l145.9-29.633c1.14-.232 1.857-1.213 1.593-2.18-.264-.967-1.414-1.578-2.557-1.355l-149.707 29.18Zm2.686 16.68c3.538-1.005 10.243-2.5 13.937-3.305a3.425 3.425 0 0 1 3.835 1.894c1.318 2.819 3.35 7.765 4.332 13.244a3.042 3.042 0 0 1-2.415 3.53l-13.701 2.629a3.351 3.351 0 0 1-3.839-2.321l-3.813-12.616a2.441 2.441 0 0 1 1.664-3.055Zm26.354.147c-1.15.184-1.763 1.229-1.364 2.321l.778 2.137c.398 1.093 1.657 1.798 2.797 1.566l33.203-6.744a2.088 2.088 0 0 0 1.625-2.488l-.121-.56c-.246-1.138-1.386-1.917-2.535-1.734l-34.383 5.502Zm48.123-15.273c3.537-1.005 10.242-2.5 13.936-3.305a3.426 3.426 0 0 1 3.836 1.894c1.317 2.819 3.349 7.765 4.331 13.244a3.042 3.042 0 0 1-2.416 3.53l-13.7 2.629a3.352 3.352 0 0 1-3.839-2.321l-3.813-12.616a2.442 2.442 0 0 1 1.665-3.055Zm26.353.146c-1.15.183-1.763 1.228-1.364 2.32l.778 2.138c.398 1.093 1.657 1.797 2.797 1.565l33.203-6.743a2.09 2.09 0 0 0 1.625-2.489l-.121-.559c-.246-1.138-1.386-1.918-2.535-1.734L155 154.723Z" fill="#fff" opacity=".6"/>
    <path d="M83.822 216.812c-.012.002-.023.005-.035.006l-12.639 2.442c-1.805.349-3.545-.59-4.046-2.182l-3.26-10.359a2.352 2.352 0 0 1 .192-1.84c.353-.647.985-1.138 1.736-1.345 1.048-.288 2.519-.72 4.076-1.177 3.278-.962 7.359-2.158 9.69-2.663 1.693-.352 3.335.358 4.034 1.754 1.15 2.296 2.026 6.907 2.897 11.831.285 1.601-.9 3.179-2.645 3.533Zm-17.788-12.324c-.493.135-.905.45-1.13.864a1.36 1.36 0 0 0-.118 1.07l3.26 10.36c.35 1.113 1.603 1.761 2.916 1.507l12.64-2.441a.218.218 0 0 0 .025-.005c1.222-.248 2.059-1.314 1.87-2.39-.856-4.849-1.716-9.384-2.807-11.562-.49-.976-1.71-1.476-2.942-1.23-2.296.496-6.357 1.689-9.62 2.645-1.563.458-3.038.891-4.094 1.182Z" fill="#fff"/>
    <path opacity=".6" d="M67.614 205.304c2.613-.72 8.254-2.474 10.978-3.063 1.155-.249 2.312.244 2.787 1.193.923 1.841 1.643 5.742 2.28 9.346.19 1.08-.623 2.138-1.83 2.371l-10.1 1.951c-1.242.239-2.443-.397-2.781-1.474l-2.605-8.278c-.268-.856.302-1.779 1.27-2.046Zm25.861 2.228a3.195 3.195 0 0 0 3.53 1.713l116.516-24.701a2.417 2.417 0 0 0-.971-4.736L95.722 202.983a3.197 3.197 0 0 0-2.247 4.549Z" fill="#fff"/>
    <path d="M89.314 243.848a.436.436 0 0 1-.035.007l-12.64 2.44c-1.806.349-3.546-.589-4.047-2.181l-3.26-10.36a2.352 2.352 0 0 1 .192-1.84c.353-.647.986-1.138 1.736-1.345 1.048-.287 2.52-.719 4.076-1.176 3.279-.962 7.359-2.158 9.69-2.663a.918.918 0 0 1 .05-.011c1.66-.337 3.293.384 3.985 1.764 1.15 2.296 2.027 6.907 2.897 11.831.285 1.603-.9 3.18-2.644 3.534Zm-17.788-12.323c-.493.135-.906.451-1.131.864a1.36 1.36 0 0 0-.117 1.07l3.259 10.359c.35 1.113 1.604 1.761 2.917 1.508l12.64-2.441.024-.005c1.223-.249 2.06-1.315 1.87-2.39-.856-4.85-1.716-9.384-2.807-11.562-.49-.975-1.73-1.496-2.941-1.23-2.296.496-6.357 1.688-9.62 2.645-1.564.458-3.038.89-4.094 1.182Z" fill="#fff"/>
    <path opacity=".6" d="M73.105 232.341c2.613-.72 8.254-2.474 10.979-3.063 1.154-.25 2.311.244 2.786 1.193.923 1.841 1.643 5.742 2.28 9.346.19 1.079-.623 2.138-1.83 2.371l-10.1 1.951c-1.241.239-2.443-.396-2.781-1.474l-2.605-8.278c-.268-.856.302-1.779 1.27-2.046Zm25.861 2.228a3.197 3.197 0 0 0 3.53 1.713l116.517-24.701a2.418 2.418 0 0 0-.971-4.736L101.213 230.02a3.197 3.197 0 0 0-2.247 4.549Z" fill="#fff"/>
    <path d="M94.805 270.885a.436.436 0 0 1-.035.007l-12.64 2.44c-1.805.349-3.545-.588-4.046-2.181l-3.26-10.36a2.342 2.342 0 0 1 .193-1.84c.353-.647.985-1.138 1.736-1.345 1.048-.287 2.519-.72 4.076-1.176 3.278-.962 7.359-2.159 9.69-2.664l.05-.01c1.66-.337 3.293.384 3.985 1.764 1.15 2.296 2.026 6.907 2.897 11.833.284 1.601-.902 3.178-2.646 3.532Zm-17.788-12.323c-.494.135-.905.45-1.13.864a1.362 1.362 0 0 0-.118 1.071l3.26 10.359c.35 1.113 1.603 1.762 2.915 1.508l12.64-2.441.025-.005c1.222-.249 2.059-1.315 1.87-2.39-.856-4.849-1.717-9.384-2.808-11.562-.489-.975-1.73-1.499-2.941-1.23-2.296.496-6.357 1.688-9.62 2.645-1.562.457-3.037.889-4.093 1.181Z" fill="#fff"/>
    <path opacity=".6" d="M78.596 259.378c2.614-.72 8.255-2.475 10.98-3.063 1.154-.25 2.311.243 2.786 1.192.923 1.842 1.643 5.743 2.28 9.347.19 1.079-.623 2.137-1.83 2.37l-10.1 1.951c-1.242.24-2.443-.397-2.782-1.473l-2.604-8.278c-.268-.857.302-1.78 1.27-2.046Zm25.862 2.228a3.195 3.195 0 0 0 3.529 1.713l116.517-24.702a2.417 2.417 0 0 0-.971-4.735l-116.829 23.175a3.196 3.196 0 0 0-2.246 4.549Z" fill="#fff"/>
    <path d="M100.296 297.922a.197.197 0 0 1-.035.006l-12.64 2.441c-1.805.349-3.545-.588-4.046-2.182l-3.26-10.359a2.342 2.342 0 0 1 .193-1.84c.353-.647.986-1.138 1.737-1.345 1.047-.288 2.518-.72 4.075-1.177 3.279-.961 7.359-2.158 9.69-2.663a.907.907 0 0 1 .05-.01c1.66-.337 3.293.384 3.985 1.764 1.151 2.296 2.027 6.907 2.897 11.831.284 1.602-.902 3.18-2.646 3.534Zm-17.787-12.324c-.495.136-.906.451-1.131.865a1.362 1.362 0 0 0-.118 1.071l3.26 10.359c.35 1.113 1.603 1.761 2.915 1.508l12.64-2.441.025-.005c1.222-.249 2.059-1.315 1.87-2.39-.856-4.85-1.717-9.384-2.807-11.562-.49-.975-1.731-1.503-2.942-1.23-2.296.496-6.357 1.688-9.62 2.645-1.562.457-3.037.889-4.092 1.18Z" fill="#fff"/>
    <path opacity=".6" d="M84.088 286.414c2.613-.719 8.254-2.474 10.979-3.062 1.154-.25 2.311.243 2.786 1.192.923 1.842 1.643 5.743 2.279 9.347.192 1.079-.622 2.137-1.828 2.37l-10.1 1.951c-1.242.24-2.444-.397-2.782-1.473l-2.605-8.278c-.268-.857.302-1.78 1.27-2.047Zm25.861 2.229a3.198 3.198 0 0 0 3.53 1.713l116.516-24.702a2.418 2.418 0 0 0-.97-4.735l-116.829 23.175a3.197 3.197 0 0 0-2.247 4.549Z" fill="#fff"/>
    <path d="M84.962 287.966a1.976 1.976 0 0 1 2.818.185l3.394 3.955a.634.634 0 0 0 1.1-.273l3.38-14.993c.17-.748 1.237-.724 1.378.03.79 4.216 1.297 12.43-4.059 20.481 0 0-3.992-.688-8.301-6.626a2.074 2.074 0 0 1 .29-2.759Z" fill="url(#l)"/>
    <g id="image4-petal1">
        <path d="M79.553 275.082c1.157 12.141 3.873 28.191 7.138 42.023h2.05c-4.222-16.692-8.107-39.55-6.963-65.901 1.153-26.572 7.661-58.836-4.473-74.248-10.1-12.828-52.958-14.745-67.05-15.027-1.762-.035-2.77 1.992-1.673 3.372 5.403 6.798 16.716 22.542 17.701 36.291 1.3 18.121 15.383 32.345 29.377 38.265 13.994 5.922 21.53 10.438 23.893 35.225Z" fill="url(#m)"/>
        <path d="M27.875 173.132c8.669 2.199 16.868 6.155 24.042 11.571a52.901 52.901 0 0 1 9.66 9.406c2.778 3.559 5.11 7.501 6.731 11.736l.6 1.589c.197.531.343 1.079.517 1.618.16.54.34 1.087.483 1.623l.428 1.61a442.5 442.5 0 0 1 4.759 19.422c1.918 8.681 3.569 17.417 4.681 26.252a.387.387 0 0 1-.763.119l-.003-.012a348.745 348.745 0 0 0-2.624-13.021 573.312 573.312 0 0 0-2.965-12.954l-1.576-6.453-1.65-6.436a439.796 439.796 0 0 0-1.698-6.424l-.432-1.603c-.143-.535-.315-1.043-.471-1.565-.164-.517-.301-1.044-.486-1.554l-.566-1.527c-1.522-4.073-3.766-7.845-6.38-11.32-1.346-1.71-2.755-3.38-4.318-4.907l-.575-.583-.598-.561c-.4-.372-.79-.755-1.199-1.118-.826-.716-1.643-1.443-2.508-2.116-3.408-2.753-7.153-5.091-11.045-7.14-3.892-2.043-7.987-3.77-12.19-5.05l-.019-.006a.31.31 0 0 1 .165-.596Z" fill="#1F5AA9"/>

    </g>
    <g id="image4-petal2">
        <path d="M79.957 291.526c7.329 10.762 6.388 16.783 6.613 21.883.04.905.09 2.185.194 3.697h2.002c-.409-2.076-.7-4.169-.802-6.221-.713-14.085-3.89-38.125-16.037-52.507-12.147-14.381-25.448-15.693-42.208-2.619-13.968 10.895-22.68 16.393-27.79 17.415-1.264.252-1.91 1.681-1.294 2.815 3.277 6.035 12.542 19.897 28.099 18.921 19.844-1.245 43.893-14.146 51.223-3.384Z" fill="url(#n)"/>
        <path d="M35.397 273.078c1.098-1.045 2.261-1.986 3.461-2.894a45.852 45.852 0 0 1 3.723-2.555c2.565-1.584 5.303-2.937 8.218-3.867a25.91 25.91 0 0 1 4.496-1.012 19.186 19.186 0 0 1 4.662-.018c.388.062.779.1 1.163.186.38.09.775.163 1.145.27l2.188.678 2.14.831 2.075.997a26.153 26.153 0 0 1 7.226 5.651c2.063 2.275 3.677 4.895 5.005 7.61l.498 1.021c.17.338.296.695.445 1.041.283.7.586 1.391.849 2.097l.737 2.134c.26.707.427 1.441.637 2.162.832 2.887 1.405 5.83 1.9 8.776a.301.301 0 0 1-.591.122l-.003-.009c-.699-2.887-1.37-5.779-2.332-8.575-.437-1.414-.99-2.78-1.504-4.16-.277-.681-.592-1.344-.886-2.017-.155-.332-.287-.677-.461-.999l-.512-.972c-1.353-2.594-2.996-5.025-4.957-7.152a25.41 25.41 0 0 0-6.847-5.225l-1.956-.928-2.028-.776-2.082-.634c-.347-.097-.685-.162-1.027-.247-.343-.081-.694-.113-1.042-.173-1.398-.184-2.827-.172-4.247-.01a24.331 24.331 0 0 0-4.227.857c-2.785.811-5.47 2.02-8.05 3.43a61.4 61.4 0 0 0-3.792 2.269 56.905 56.905 0 0 0-3.61 2.563l-.008.005a.313.313 0 0 1-.44-.056.32.32 0 0 1 .034-.421Z" fill="#222669"/>

    </g>
    <path d="M80.37 80.723c0-11.027 8.94-19.965 19.966-19.965h169.787c9.367 0 17.091 7.34 17.567 16.695l12.533 246.159c.373 7.321-5.39 13.495-12.719 13.629l-194.596 3.537c-6.887.125-12.536-5.423-12.536-12.311V80.723h-.001Z" fill="url(#o)"/>
    <path d="M121.347 336.592h-.006l-21.774-.281c-7.282-.095-13.205-6.096-13.205-13.377V290.06a.465.465 0 1 1 .93 0v32.874c0 6.775 5.51 12.359 12.286 12.446l21.775.281a.466.466 0 0 1-.006.931Z" fill="url(#p)"/>
    <path d="M86.828 280.342a.465.465 0 0 1-.465-.464v-5.324a.465.465 0 0 1 .93 0v5.324a.465.465 0 0 1-.466.464Z" fill="url(#q)"/>
    <path d="M94.28 64.547c-.02-3.528 3.083-6.258 6.579-5.785 23.185 3.145 102.916 12.87 168.837 7.809 3.006-.23 5.615 2.047 5.775 5.058l13.141 247.256a6.171 6.171 0 0 1-5.797 6.49c-27.726 1.641-141.904 7.983-182.63 3.717a4.89 4.89 0 0 1-4.375-4.839L94.28 64.547Z" fill="url(#r)"/>
    <path opacity=".6" d="M97.012 70.742c-.02-3.394 2.966-6.022 6.329-5.567 22.314 3.027 99.042 12.385 162.479 7.515a5.16 5.16 0 0 1 5.558 4.866l12.646 237.945a5.938 5.938 0 0 1-5.58 6.245c-26.68 1.579-136.561 7.682-175.753 3.578a4.705 4.705 0 0 1-4.211-4.656L97.012 70.742Z" fill="#fff"/>
    <path opacity=".78" d="m117.667 89.088 2.37 51.014a3.244 3.244 0 0 0 3.147 3.094c9.449.267 38.887.984 55.51.118a3.62 3.62 0 0 0 3.429-3.501c.318-9.567 1.01-37.412-1.169-49.052a4.085 4.085 0 0 0-3.88-3.324l-55.842-1.953a3.444 3.444 0 0 0-3.565 3.604Z" fill="#fff"/>
    <path d="M149.799 118.292c6.056 0 10.966-4.909 10.966-10.966 0-6.056-4.91-10.966-10.966-10.966-6.056 0-10.966 4.91-10.966 10.966 0 6.057 4.91 10.966 10.966 10.966Z" fill="url(#s)"/>
    <path d="M133.143 139.523h34.937c2.143 0 3.426-2.365 2.272-4.171-2.968-4.644-9.177-11.466-19.929-11.157-10.364.297-16.507 6.458-19.594 10.877-1.311 1.877.026 4.451 2.314 4.451Z" fill="url(#t)"/>
    <path d="M257.376 93.528c1.095 0 1.967-.77 1.94-1.712-.028-.94-.945-1.727-2.04-1.746l-61.235-1.091c-1.095-.02-1.692.81-1.328 1.84l.293.832c.363 1.032 1.557 1.877 2.65 1.877h59.72Zm-61.335 4.962c-1.095-.02-1.692.808-1.328 1.84l.293.832c.363 1.032 1.557 1.877 2.65 1.877h59.72c1.095 0 1.967-.771 1.94-1.712-.028-.941-.945-1.727-2.04-1.746l-61.235-1.091Zm0 9.647c-1.095-.019-1.692.808-1.328 1.841l.293.831c.363 1.032 1.557 1.877 2.65 1.877h59.72c1.095 0 1.967-.77 1.94-1.711-.028-.942-.945-1.728-2.04-1.747l-61.235-1.091Zm67.284 51.079c1.095 0 1.938-.771 1.877-1.712-.063-.941-1.009-1.718-2.102-1.727l-143.458-1.131c-1.095-.01-1.432.684-.75 1.541l1.173 1.472c.682.856 2.134 1.557 3.228 1.557h140.032Zm-143.685 4.94c-1.095-.009-1.432.685-.75 1.541l1.173 1.473c.682.856 2.135 1.556 3.228 1.556h140.034c1.094 0 1.938-.77 1.877-1.711-.063-.941-1.009-1.718-2.102-1.728l-143.46-1.131Z" fill="#fff" opacity=".6"/>
    <path d="M118.993 180.035c3.449-.265 9.909-.387 13.464-.437 1.507-.02 2.828 1 3.181 2.464.686 2.846 1.632 7.785 1.514 13.019a2.862 2.862 0 0 1-2.887 2.802l-13.122-.142a3.15 3.15 0 0 1-3.103-2.857l-1.153-12.343a2.295 2.295 0 0 1 2.106-2.506Z" fill="url(#u)"/>
    <path d="M143.257 185.104c-1.093-.045-1.854.802-1.692 1.885l.318 2.115c.163 1.082 1.191 1.967 2.284 1.967h31.867a1.964 1.964 0 0 0 1.964-1.989l-.006-.539c-.013-1.095-.919-2.026-2.012-2.072l-32.723-1.367Z" fill="#fff" opacity=".6"/>
    <path d="M190.476 180.035c3.449-.265 9.909-.387 13.464-.437 1.507-.02 2.828 1 3.181 2.464.686 2.846 1.632 7.785 1.514 13.019a2.862 2.862 0 0 1-2.887 2.802l-13.122-.142a3.15 3.15 0 0 1-3.103-2.857l-1.153-12.343a2.295 2.295 0 0 1 2.106-2.506Z" fill="url(#v)"/>
    <path d="M214.74 185.104c-1.093-.045-1.855.802-1.692 1.885l.317 2.115c.163 1.082 1.191 1.967 2.285 1.967h31.867a1.965 1.965 0 0 0 1.964-1.989l-.007-.539c-.013-1.095-.919-2.026-2.012-2.072l-32.722-1.367Z" fill="#fff" opacity=".6"/>
    <path d="M137.506 229.01h-.032l-12.108-.116c-1.73-.017-3.158-1.207-3.322-2.769l-1.064-10.159a2.198 2.198 0 0 1 .522-1.659c.446-.531 1.122-.864 1.852-.914 1.02-.069 2.456-.193 3.977-.321 3.202-.274 7.188-.612 9.431-.641 1.627-.008 3.006.954 3.39 2.372.631 2.332.576 6.746.456 11.449-.041 1.526-1.428 2.758-3.102 2.758Zm-14.088-14.69c-.481.032-.921.246-1.204.584a1.28 1.28 0 0 0-.309.965l1.065 10.159c.114 1.09 1.149 1.923 2.406 1.935l12.108.116h.025c1.172 0 2.145-.827 2.171-1.852.118-4.631.174-8.971-.423-11.184-.268-.99-1.299-1.68-2.481-1.684-2.209.028-6.176.366-9.363.637-1.528.131-2.968.254-3.995.324Z" fill="#fff"/>
    <path opacity=".6" d="M124.719 215.368c2.543-.175 8.071-.736 10.694-.768 1.111-.015 2.085.657 2.345 1.62.506 1.872.439 5.601.352 9.042-.027 1.031-.974 1.854-2.13 1.843l-9.676-.092c-1.19-.012-2.178-.823-2.288-1.88l-.851-8.118c-.088-.839.611-1.582 1.554-1.647Zm23.42 6.895a3.007 3.007 0 0 0 2.933 2.24l112.026-.955a2.273 2.273 0 0 0-.009-4.546l-112.029-.512a3.008 3.008 0 0 0-2.921 3.773Z" fill="#fff"/>
    <path id="image4-done1" d="M125.234 216.961a1.858 1.858 0 0 1 2.563.698l2.389 4.281c.239.428.864.4 1.066-.047l5.923-13.187c.296-.657 1.276-.436 1.264.285-.06 4.034-1.131 11.702-7.575 18.12 0 0-3.552-1.381-6.412-7.661a1.95 1.95 0 0 1 .782-2.489Z" fill="url(#w)"/>
    <path d="M137.506 254.96h-.032l-12.108-.116c-1.73-.017-3.158-1.207-3.322-2.769l-1.064-10.158a2.199 2.199 0 0 1 .522-1.66c.446-.531 1.122-.864 1.852-.914 1.02-.069 2.456-.192 3.977-.321 3.202-.274 7.188-.612 9.431-.641h.048c1.592 0 2.962.97 3.341 2.372.631 2.332.575 6.746.455 11.449-.039 1.526-1.426 2.758-3.1 2.758Zm-14.088-14.69c-.481.033-.921.246-1.204.584a1.282 1.282 0 0 0-.309.965l1.065 10.159c.114 1.091 1.149 1.924 2.406 1.935l12.108.116h.025c1.172 0 2.145-.826 2.171-1.852.118-4.631.174-8.971-.423-11.183-.268-.991-1.315-1.703-2.481-1.685-2.209.028-6.176.366-9.363.637-1.528.13-2.968.254-3.995.324Z" fill="#fff"/>
    <path opacity=".6" d="M124.719 241.317c2.543-.174 8.071-.735 10.694-.767 1.111-.015 2.085.657 2.345 1.62.506 1.872.439 5.601.352 9.042-.027 1.031-.974 1.854-2.13 1.843l-9.676-.092c-1.19-.012-2.178-.823-2.288-1.88l-.851-8.118c-.088-.839.611-1.582 1.554-1.648Zm23.42 6.896a3.007 3.007 0 0 0 2.933 2.24l112.026-.955a2.273 2.273 0 0 0-.009-4.547l-112.029-.511a3.007 3.007 0 0 0-2.921 3.773Z" fill="#fff"/>
    <path id="image4-done2" d="M125.234 242.911a1.859 1.859 0 0 1 2.563.697l2.389 4.281a.597.597 0 0 0 1.066-.045l5.923-13.187c.296-.657 1.276-.436 1.264.285-.06 4.034-1.131 11.702-7.575 18.12 0 0-3.552-1.381-6.412-7.661a1.95 1.95 0 0 1 .782-2.49Z" fill="url(#x)"/>
    <path d="M137.506 280.909h-.032l-12.108-.115c-1.73-.017-3.158-1.207-3.322-2.768l-1.064-10.159a2.201 2.201 0 0 1 .522-1.66 2.649 2.649 0 0 1 1.852-.914c1.02-.069 2.456-.193 3.977-.322 3.202-.273 7.188-.611 9.431-.64h.048c1.592 0 2.962.97 3.341 2.372.631 2.332.575 6.746.455 11.448-.039 1.527-1.426 2.758-3.1 2.758Zm-14.088-14.689c-.481.032-.921.246-1.204.584-.236.28-.345.622-.309.966l1.065 10.159c.114 1.091 1.149 1.924 2.405 1.935l12.108.116h.024c1.173 0 2.145-.826 2.171-1.852.119-4.631.175-8.971-.423-11.183-.268-.991-1.314-1.707-2.48-1.685-2.209.028-6.177.366-9.363.637-1.527.129-2.967.252-3.994.323Z" fill="#fff"/>
    <path opacity=".6" d="M124.719 267.267c2.543-.174 8.071-.735 10.694-.768 1.111-.014 2.085.658 2.345 1.621.506 1.87.439 5.601.352 9.042-.027 1.031-.974 1.854-2.13 1.843l-9.676-.092c-1.19-.012-2.178-.823-2.288-1.88l-.851-8.118c-.088-.839.611-1.582 1.554-1.648Zm23.42 6.896a3.01 3.01 0 0 0 2.933 2.241l112.026-.956a2.272 2.272 0 0 0-.009-4.546l-112.029-.512a3.007 3.007 0 0 0-2.921 3.773Z" fill="#fff"/>
    <path  id="image4-done3" d="M125.234 268.861a1.858 1.858 0 0 1 2.563.697l2.389 4.281a.598.598 0 0 0 1.066-.045l5.923-13.187c.296-.657 1.276-.435 1.264.285-.06 4.034-1.131 11.702-7.575 18.12 0 0-3.552-1.381-6.412-7.661a1.95 1.95 0 0 1 .782-2.49Z" fill="url(#y)"/>
    <path d="M137.506 306.858h-.032l-12.108-.116c-1.73-.017-3.158-1.206-3.322-2.767l-1.064-10.159a2.203 2.203 0 0 1 .522-1.661c.446-.531 1.12-.864 1.852-.914 1.02-.069 2.456-.192 3.977-.321 3.202-.273 7.188-.612 9.431-.64h.048c1.592 0 2.962.969 3.341 2.371.631 2.333.575 6.746.455 11.449-.039 1.528-1.426 2.758-3.1 2.758Zm-14.088-14.69c-.481.033-.921.246-1.204.585a1.278 1.278 0 0 0-.309.964l1.065 10.159c.114 1.091 1.149 1.924 2.405 1.936l12.108.115h.024c1.173 0 2.145-.826 2.171-1.852.119-4.631.175-8.97-.423-11.183-.268-.991-1.314-1.709-2.48-1.684-2.209.027-6.177.365-9.363.636-1.527.132-2.967.254-3.994.324Z" fill="#fff"/>
    <path opacity=".6" d="M124.719 293.217c2.543-.174 8.071-.735 10.694-.768 1.111-.014 2.085.658 2.345 1.621.506 1.87.439 5.601.352 9.042-.027 1.031-.974 1.854-2.13 1.843l-9.676-.092c-1.19-.012-2.178-.823-2.288-1.88l-.851-8.118c-.088-.839.611-1.583 1.554-1.648Zm23.42 6.896a3.007 3.007 0 0 0 2.933 2.24l112.026-.955a2.273 2.273 0 0 0-.009-4.547l-112.029-.511a3.007 3.007 0 0 0-2.921 3.773Z" fill="#fff"/>
    <path id="image4-done4" d="M125.234 294.811a1.857 1.857 0 0 1 2.563.697l2.389 4.281a.597.597 0 0 0 1.066-.047l5.923-13.186c.296-.657 1.276-.436 1.264.285-.06 4.034-1.131 11.701-7.575 18.119 0 0-3.552-1.381-6.412-7.661a1.949 1.949 0 0 1 .782-2.488Z" fill="url(#z)"/>
    <path d="M195.759 27.195c-6.133-4.267-11.465-4.182-15.219-3.075-3.425 1.01-5.644 4.316-5.318 7.872l1.619 17.67 19.265 1.71c-.002.001 11.681-15.81-.347-24.177Zm-8.472 14.256a4.803 4.803 0 1 1 0-9.607 4.803 4.803 0 0 1 0 9.607Z" fill="url(#A)"/>
    <path d="M178.764 42.23a.465.465 0 0 1-.462-.422l-.257-2.814a.465.465 0 1 1 .925-.085l.258 2.814a.465.465 0 0 1-.464.508Zm-.505-5.514a.465.465 0 0 1-.462-.423l-.196-2.136c-.311-3.387 1.821-6.54 5.067-7.498a14.4 14.4 0 0 1 7.04-.29.465.465 0 0 1-.186.911 13.494 13.494 0 0 0-6.591.271c-2.822.833-4.674 3.577-4.405 6.524l.196 2.136a.466.466 0 0 1-.421.505h-.042Z" fill="#fff"/>
    <path d="M150.549 61.083v-8.885a5.423 5.423 0 0 1 5.608-5.418l61.251 2.098a5.274 5.274 0 0 1 5.083 4.954l.512 8.536-72.454-1.285Z" fill="url(#B)"/>
    <path d="M173.388 50.128h-2.635a.465.465 0 0 1 0-.93h2.635a.465.465 0 0 1 0 .93Zm-19.524 8.166a.465.465 0 0 1-.465-.465v-3.594a5.042 5.042 0 0 1 5.036-5.035h9.684a.465.465 0 1 1 0 .929h-9.684a4.11 4.11 0 0 0-4.106 4.106v3.594a.465.465 0 0 1-.465.465Z" fill="#fff"/>
    <path d="M125.591 63.326a5.772 5.772 0 0 1 5.765-5.496l107.11-.002a7.915 7.915 0 0 1 7.801 6.566l.091.523c.72 4.158-2.481 7.96-6.699 7.96h-109.89a4.42 4.42 0 0 1-4.415-4.633l.237-4.918Z" fill="url(#C)"/>
    <path d="m280.205 136.622-22.289-18.175-22.289 18.175a381.82 381.82 0 0 0 1.665-56.865 378.43 378.43 0 0 0-1.355-19.14 2.819 2.819 0 0 1 2.812-3.092h38.783a2.82 2.82 0 0 1 2.817 2.67 705.767 705.767 0 0 1-.144 76.427Z" fill="url(#D)"/>
    <path d="m81.51 132.112-2.078 2.63-.008.011a.443.443 0 1 1-.687-.556l2.154-2.599a.404.404 0 0 1 .566-.054.404.404 0 0 1 .06.559l-.008.009Zm-7.023 9.578-3.522 5.619-.017.027a.609.609 0 0 1-1.032-.645l.007-.011 3.662-5.599a.544.544 0 0 1 .917.586l-.015.023Zm-7.614 13.093-2.825 5.991-.017.037a.744.744 0 0 1-1.345-.635c0-.003.004-.01.005-.012l2.964-6.008a.684.684 0 0 1 1.232.593l-.014.034Zm-5.969 13.894-2.05 6.289-.016.046a.88.88 0 1 1-1.668-.558l2.194-6.341a.82.82 0 0 1 1.554.522l-.014.042Zm-4.164 14.517-1.224 6.49-.01.057a.978.978 0 1 1-1.922-.363l.002-.01 1.316-6.588a.942.942 0 0 1 1.848.358l-.01.056Zm-2.222 14.917-.324 6.588-.002.064a1.06 1.06 0 1 1-2.12-.104l.002-.012.402-6.711a1.024 1.024 0 0 1 2.046.112l-.004.063Zm-.155 15.068.585 6.568.006.069a1.143 1.143 0 0 1-2.278.203l-.001-.012-.524-6.71a1.106 1.106 0 0 1 2.206-.184l.006.066Zm1.915 14.937 1.476 6.422.016.071a1.225 1.225 0 1 1-2.39.549l-.003-.013-1.437-6.578a1.191 1.191 0 0 1 2.322-.521l.016.07Zm3.925 14.531 2.303 6.172.026.069a1.29 1.29 0 1 1-2.416.901l-.002-.006-2.324-6.324a1.273 1.273 0 0 1 2.389-.878l.024.066Zm5.77 13.9 3.079 5.826.033.065a1.316 1.316 0 1 1-2.328 1.23l-.003-.004-3.125-5.966a1.306 1.306 0 0 1 2.312-1.211l.032.06Zm7.5 13.048 3.787 5.393.041.06a1.343 1.343 0 1 1-2.2 1.544l-.002-.004-3.85-5.527a1.33 1.33 0 1 1 2.185-1.521l.04.055Zm9.077 12.008 4.428 4.874.051.056a1.372 1.372 0 0 1-2.03 1.844l-.003-.004-4.512-5.003a1.36 1.36 0 0 1 2.018-1.821l.047.054Zm10.51 10.758 5.021 4.25.064.055a1.398 1.398 0 1 1-1.806 2.134l-.004-.003-5.132-4.376A1.386 1.386 0 1 1 93 292.312l.06.049Zm11.838 9.239 2.784 1.735 1.391.869c.468.285.921.591 1.4.855a1.427 1.427 0 0 1-1.378 2.498l-.005-.003-.037-.021c-.494-.275-.96-.591-1.44-.885l-1.43-.899-2.861-1.801a1.412 1.412 0 1 1 1.504-2.392l.072.044Zm13.078 7.296a97.028 97.028 0 0 0 6.055 2.522 1.433 1.433 0 0 1 .837 1.848 1.432 1.432 0 0 1-1.845.839 96.499 96.499 0 0 1-6.245-2.585 1.442 1.442 0 0 1 1.198-2.624Zm14.073 5.154 6.378 1.582.086.02a1.416 1.416 0 0 1-.679 2.748l-6.556-1.609a1.422 1.422 0 0 1 .678-2.763l.004.001.089.021Zm14.706 3.034 6.544.696.078.008a1.393 1.393 0 0 1-.29 2.77l-6.706-.691a1.404 1.404 0 1 1 .288-2.793h.005l.081.01Zm15.001 1.073 6.592-.107.069-.001a1.336 1.336 0 0 1 .053 2.669l-6.729.159a1.36 1.36 0 1 1-.065-2.72h.08Zm15.049-.732 6.546-.849.059-.007a1.278 1.278 0 0 1 .339 2.531l-6.659.917a1.304 1.304 0 1 1-.355-2.584l.01-.001.06-.007Zm14.903-2.353 6.437-1.5.049-.011a1.164 1.164 0 0 1 .546 2.266l-6.515 1.619a1.214 1.214 0 0 1-.586-2.356c.004-.001.008-.001.011-.003l.058-.015Zm14.612-3.831 6.271-2.112.041-.013a1.053 1.053 0 0 1 .687 1.99l-6.322 2.234a1.103 1.103 0 0 1-.735-2.079l.01-.004.048-.016Zm14.207-5.194 6.062-2.671.033-.015a.941.941 0 0 1 .771 1.717l-6.091 2.791a.99.99 0 1 1-.816-1.806l.041-.016Zm13.718-6.416 5.836-3.154.024-.013a.77.77 0 0 1 .749 1.346l-5.809 3.323a.85.85 0 1 1-.845-1.477l.014-.008.031-.017Zm13.167-7.515 5.566-3.623.017-.011a.586.586 0 0 1 .812.172.588.588 0 0 1-.16.804l-5.513 3.78a.668.668 0 0 1-.754-1.101l.01-.008.022-.013Zm12.574-8.554 2.689-2.015.005-.004a.402.402 0 0 1 .492.635l-2.634 2.109a.456.456 0 1 1-.57-.714l.01-.008.008-.003Z" fill="#fff"/>
    <defs><linearGradient id="a" x1="368.834" y1="396.714" x2="38.966" y2="20.915" gradientUnits="userSpaceOnUse"><stop stop-color="#B37CFF"/><stop offset="1" stop-color="#F895E7"/></linearGradient><linearGradient id="b" x1="70.585" y1="349.099" x2="340.633" y2="88.585" gradientUnits="userSpaceOnUse"><stop stop-color="#A737D5"/><stop offset="1" stop-color="#EF497A"/></linearGradient><linearGradient id="c" x1="245.955" y1="58.734" x2="132.869" y2="168.747" gradientUnits="userSpaceOnUse"><stop stop-color="#FDF53F"/><stop offset="1" stop-color="#D93C65"/></linearGradient><linearGradient id="d" x1="258.574" y1="71.706" x2="145.49" y2="181.717" gradientUnits="userSpaceOnUse"><stop stop-color="#FDF53F"/><stop offset="1" stop-color="#D93C65"/></linearGradient><linearGradient id="e" x1="226.4" y1="140.432" x2="138.948" y2="236.654" gradientUnits="userSpaceOnUse"><stop stop-color="#A737D5"/><stop offset="1" stop-color="#EF497A"/></linearGradient><linearGradient id="f" x1="236.721" y1="149.812" x2="149.269" y2="246.035" gradientUnits="userSpaceOnUse"><stop stop-color="#A737D5"/><stop offset="1" stop-color="#EF497A"/></linearGradient><linearGradient id="g" x1="240.917" y1="178.959" x2="131.421" y2="279.123" gradientUnits="userSpaceOnUse"><stop stop-color="#A737D5"/><stop offset="1" stop-color="#EF497A"/></linearGradient><linearGradient id="h" x1="257.361" y1="168.572" x2="169.909" y2="264.795" gradientUnits="userSpaceOnUse"><stop stop-color="#A737D5"/><stop offset="1" stop-color="#EF497A"/></linearGradient><linearGradient id="i" x1="34.681" y1="400.385" x2="179.186" y2="54.103" gradientUnits="userSpaceOnUse"><stop stop-color="#A737D5"/><stop offset="1" stop-color="#EF497A"/></linearGradient><linearGradient id="j" x1="50.123" y1="63.835" x2="177.133" y2="208.196" gradientUnits="userSpaceOnUse"><stop stop-color="#CE1567"/><stop offset="1" stop-color="#7A1DBC"/></linearGradient><linearGradient id="k" x1="38.939" y1="73.675" x2="165.948" y2="218.035" gradientUnits="userSpaceOnUse"><stop stop-color="#CE1567"/><stop offset="1" stop-color="#7A1DBC"/></linearGradient><linearGradient id="l" x1="134.498" y1="160.569" x2="92.407" y2="283.592" gradientUnits="userSpaceOnUse"><stop stop-color="#A737D5"/><stop offset="1" stop-color="#EF497A"/></linearGradient><linearGradient id="m" x1="8.125" y1="239.518" x2="97.727" y2="239.518" gradientUnits="userSpaceOnUse"><stop stop-color="#2B3582"/><stop offset="1" stop-color="#150E42"/></linearGradient><linearGradient id="n" x1=".399" y1="281.913" x2="96.709" y2="281.913" gradientUnits="userSpaceOnUse"><stop stop-color="#18459F"/><stop offset="1" stop-color="#2874B5"/></linearGradient><linearGradient id="o" x1="190.233" y1="324.242" x2="174.618" y2="-137.987" gradientUnits="userSpaceOnUse"><stop stop-color="#2B3582"/><stop offset="1" stop-color="#150E42"/></linearGradient><linearGradient id="p" x1="42.986" y1="282.183" x2="219.966" y2="394.618" gradientUnits="userSpaceOnUse"><stop stop-color="#A737D5"/><stop offset="1" stop-color="#EF497A"/></linearGradient><linearGradient id="q" x1="57.84" y1="258.799" x2="234.821" y2="371.234" gradientUnits="userSpaceOnUse"><stop stop-color="#A737D5"/><stop offset="1" stop-color="#EF497A"/></linearGradient><linearGradient id="r" x1="57.848" y1="389.028" x2="255.867" y2="96.881" gradientUnits="userSpaceOnUse"><stop stop-color="#A737D5"/><stop offset="1" stop-color="#EF497A"/></linearGradient><linearGradient id="s" x1="135.853" y1="65.709" x2="179.578" y2="196.189" gradientUnits="userSpaceOnUse"><stop stop-color="#FDF53F"/><stop offset="1" stop-color="#D93C65"/></linearGradient><linearGradient id="t" x1="127.658" y1="68.456" x2="171.383" y2="198.935" gradientUnits="userSpaceOnUse"><stop stop-color="#FDF53F"/><stop offset="1" stop-color="#D93C65"/></linearGradient><linearGradient id="u" x1="98.677" y1="166.147" x2="262.124" y2="296.8" gradientUnits="userSpaceOnUse"><stop stop-color="#A737D5"/><stop offset="1" stop-color="#EF497A"/></linearGradient><linearGradient id="v" x1="126.547" y1="131.283" x2="289.993" y2="261.936" gradientUnits="userSpaceOnUse"><stop stop-color="#A737D5"/><stop offset="1" stop-color="#EF497A"/></linearGradient><linearGradient id="w" x1="160.786" y1="166.756" x2="98.96" y2="272.279" gradientUnits="userSpaceOnUse"><stop stop-color="#A737D5"/><stop offset="1" stop-color="#EF497A"/></linearGradient><linearGradient id="x" x1="172.105" y1="173.388" x2="110.279" y2="278.91" gradientUnits="userSpaceOnUse"><stop stop-color="#A737D5"/><stop offset="1" stop-color="#EF497A"/></linearGradient><linearGradient id="y" x1="181.622" y1="199.4" x2="100.271" y2="312.825" gradientUnits="userSpaceOnUse"><stop stop-color="#A737D5"/><stop offset="1" stop-color="#EF497A"/></linearGradient><linearGradient id="z" x1="194.742" y1="186.651" x2="132.916" y2="292.173" gradientUnits="userSpaceOnUse"><stop stop-color="#A737D5"/><stop offset="1" stop-color="#EF497A"/></linearGradient><linearGradient id="A" x1="214.702" y1="1.852" x2="136.606" y2="104.585" gradientUnits="userSpaceOnUse"><stop stop-color="#2B3582"/><stop offset="1" stop-color="#150E42"/></linearGradient><linearGradient id="B" x1="223.27" y1="8.363" x2="145.174" y2="111.097" gradientUnits="userSpaceOnUse"><stop stop-color="#2B3582"/><stop offset="1" stop-color="#150E42"/></linearGradient><linearGradient id="C" x1="213.428" y1="14.647" x2="159.504" y2="113.662" gradientUnits="userSpaceOnUse"><stop stop-color="#CE1567"/><stop offset="1" stop-color="#7A1DBC"/></linearGradient><linearGradient id="D" x1="221.899" y1="149.671" x2="327.393" y2="-.936" gradientUnits="userSpaceOnUse"><stop stop-color="#53D8FF"/><stop offset="1" stop-color="#3840F7"/></linearGradient></defs></svg>