<svg width="386" height="377" fill="none" xmlns="http://www.w3.org/2000/svg" xmlns:xlink="http://www.w3.org/1999/xlink">
    <style>
        #image2-petal1{
        animation: move2 5s ease-in-out infinite;
        }
        #image2-petal2{
        animation: move2 5s 1s ease-in-out infinite;
        }
        #image2-petal3{
        animation: move3 5s ease-in-out infinite;
        }
        #loop{
        animation: move1 5s ease-in-out infinite alternate;
        }
        #image2-coin1{
        animation: move5 5s ease-in-out infinite;
        }
        #image2-coin2{
        animation: move6 5s ease-in-out infinite;
        }


        @keyframes move5 {
        0% {
        transform: translate3d(0, 0, 0);
        }
        50% {
        transform: translate3d(12px, -5px, 0);
        }
        100%{
        transform: translate3d(0, 0, 0);
        }
        }
        @keyframes move6 {
        0% {
        transform: translate3d(0, 0, 0);
        }
        50% {
        transform: translate3d(6px, -2px, 0);
        }
        100%{
        transform: translate3d(0, 0, 0);
        }
        }

        @keyframes move1 {
        0% {
        transform: translate3d(0, 0, 0);
        }
        100% {
        transform: translate3d(10px, -10px, 0);
        }
        }
        @keyframes move2 {
        0% {
        transform: translate3d(0, 0, 0);
        }
        50% {
        transform: translate3d(9px, -5px, 0);
        }
        100%{
        transform: translate3d(0, 0, 0);
        }
        }
        @keyframes move3 {
        0% {
        transform: translate3d(0, 0, 0);
        }
        50% {
        transform: translate3d(5px, 6px, 0);
        }
        100%{
        transform: translate3d(0, 0, 0);
        }
        }
        @keyframes move4 {
        0% {
        transform: rotate(0deg);
        transform-origin:center;
        }
        100%{
        transform: rotate(360deg);
        }
        }
    </style>

    <path d="M156.933 10.13c-45.672.771-116.34 17.461-136.684 60.37-7.11 14.989-6.618 37.008-5.661 81.059.279 12.943.757 31.812 4.04 55.24 6.843 48.635 11.494 81.75 29.114 101.032 44.144 48.316 203.632 46.921 271.735-40.065 37.154-47.453 42.868-114.945 8.89-170.73-37.38-61.419-110.281-87.942-171.434-86.906Z" fill="#F4F7FA"/>
    <g id="image2-petal1">
        <path d="M115.034 179.451c.904 5.236 1.063 9.634 1.714 14.79 18.976-11.853 39.454-19.813 58.709-31.799-24.876-15.388-42.271-18.617-50.191-51.585-3.721-15.481-6.511-47.068-19.109-57.26-14.351-11.614-23.002-1.967-27.453-16.943-6.963-23.414-29.182-40.078-52.955-15.8C2.27 44.826 44.964 120.73 72.365 132.862c21.248 15.003 37.938 19.268 42.669 46.589Z" fill="url(#a)"/>
        <path d="M145.864 175.478c-5.329-6.299-11.229-12.265-16.93-18.032l-2.152-2.18c-4.572-4.637-8.585-8.863-12.119-12.597-1.994-2.1-3.867-4.08-5.701-5.993a3833.77 3833.77 0 0 0-11.521-11.92c-.665-.691-1.103-1.129-1.302-1.342-15.402-15.999-30.444-43.4-38.523-58.124-.878-1.594-1.662-3.03-2.34-4.239C43.61 40.082 28.953 19.658 11.718.35l.306-.266c17.235 19.322 31.919 39.76 43.6 60.755a712.53 712.53 0 0 1 2.338 4.252c8.08 14.71 23.095 42.085 38.47 58.031.2.212.638.651 1.302 1.342 1.967 2.02 5.9 6.099 11.521 11.919 1.834 1.914 3.721 3.894 5.714 5.994 3.535 3.734 7.548 7.959 12.119 12.597l2.153 2.179c5.701 5.767 11.601 11.734 16.943 18.046l-.319.279Z" fill="#FCFDFE"/>
        <path d="M117.16 146.124c-9.674-11.056-16.584-27.932-19.985-48.822-2.83-17.394-3.057-37.021-.638-53.831l.398.053c-2.418 16.77-2.192 36.357.638 53.712 3.389 20.81 10.259 37.619 19.893 48.622l-.306.266ZM58.89 67.656c-3.149-12.305-4.757-25.089-6.298-37.447-1.063-8.451-2.166-17.208-3.747-25.726l.398-.08c1.582 8.531 2.685 17.288 3.748 25.753 1.554 12.345 3.162 25.115 6.298 37.394l-.398.106Zm21.183 35.334c-13.78-11.056-37.248-19.614-50.23-18.312l-.04-.398c13.062-1.316 36.663 7.282 50.522 18.404l-.252.306Z" fill="#FCFDFE"/>

    </g>
    <g id="image2-petal2">
        <path d="M74.957 129.806c15.534 22.391 27.427 11.016 43.227-2.844 6.791 24.464 14.298 48.025 22.006 71.904-10.724 9.116-18.564 15.454-31.56 4.358-14.697-12.544-22.777-20.264-43.613-15.932-20.836 4.332-41.406-3.495-42.961-24.704-1.635-22.324-29.328-40.383-19.149-61.538 17.74-36.889 55.865 5.435 72.05 28.756Z" fill="url(#b)"/>
        <path d="M125.864 170.136c-22.949-1.05-42.044-2.551-61.406-11.481-18.524-8.544-31.121-20.916-42.084-41.393-5.688-10.605-10.963-17.568-18.365-26.976l.32-.252c7.414 9.421 12.703 16.398 18.404 27.028 10.923 20.385 23.454 32.703 41.898 41.208 19.295 8.89 38.35 10.405 61.26 11.454l-.027.412Zm-10.949 40.809-.386-.106c2.087-7.269 4.93-13.674 8.718-19.587 1.94-3.03 4.199-5.489 6.989-8.239l.279.292c-2.777 2.737-5.023 5.183-6.936 8.172-3.761 5.861-6.591 12.239-8.664 19.468Z" fill="#FCFDFE"/>
        <path d="m24.368 180.196-.24-.333c16.385-11.72 35.015-17.713 52.45-16.876l-.014.399c-17.354-.824-35.891 5.142-52.196 16.81Zm12.052-42.125c-1.023-1.767-5.262-18.431-8.89-33.433-3.641-15.07-7.349-31.334-7.282-32.464l.399.027c-.067.97 3.202 15.48 7.268 32.344 3.615 14.976 7.84 31.599 8.837 33.327l-.332.199Z" fill="#FCFDFE"/>
    </g>
    <g id="image2-petal3">
        <path d="M277.658 319.87c-2.18-.173-6.777-2.485-7.721-3.575-6.325-7.282-19.042-20.158-18.922-30.351.013-1.74 7.693-3.734 8.717-5.368 4.584-2.459 6.338-3.017 9.554-7.495 9.501-13.222-14.724-36.011 11.707-45.712 19.361-7.109 36.291-1.13 32.703-31.547-3.588-30.417 17.926-87.185 51.174-67.452 19.082 11.322 1.568 38.178 11.999 56.861 9.913 17.754 2.937 33.102-15.866 44.942-18.79 11.853-8.066 19.746-1.622 36.756 7.748 20.437-24.012 25.66-38.881 26.816-11.987.903-41.846 11.361-42.842 26.125Z" fill="url(#c)"/>
        <path d="m260.781 301.984-.226-.412c31.6-17.329 57.034-43.879 73.552-76.754 15.72-31.295 23.228-67.705 21.686-105.311l.479-.027c1.541 37.686-5.98 74.176-21.74 105.537-16.571 32.969-42.071 59.585-73.751 76.967Z" fill="#FCFDFE"/>
        <path d="m294.135 278.011-.16-.452c19.454-6.883 50.722-8.226 69.724-2.99l-.119.452c-18.936-5.196-50.071-3.867-69.445 2.99Zm-21.088 17.049-.333-.332c7.575-7.535 11.056-18.604 10.339-32.902-.532-10.485-3.256-22.445-8.106-35.52l.438-.16c4.864 13.129 7.601 25.129 8.133 35.653.731 14.445-2.791 25.633-10.471 33.261Zm63.558-74.588-.346-.319c13.554-14.936 34.205-19.746 49.141-21.155l.04.478c-14.87 1.396-35.387 6.18-48.835 20.996Zm14.91-43.679-.479-.013c.24-9.741-2.285-29.394-21.819-51.506l.359-.319c19.64 22.245 22.178 42.031 21.939 51.838Z" fill="#FCFDFE"/>
        <path d="M316.832 262.942a704.24 704.24 0 0 1-31.387.173c-.133.173-7.362-21.341 1.103-34.776 16.823-26.112-.717-43.812-6.804-55.054-9.275-15.72-9.155-34.523 7.92-37.805 18.883-4.013 16.797-36.065 8.332-64.064-5.116-13.487 5.076-32.716 17.528-38.895 12.65-6.644 27.573-.226 36.569 26.87 11.867 31.108-8.212 54.641-14.085 72.315-5.781 17.355 16.397 26.67 2.83 43.533-11.295 14.843-26.71 26.802-17.74 41.38 9.129 14.365 9.82 27.294-4.266 46.323Z" fill="url(#d)"/>
        <path d="M303.025 266.716c-.04-.199 1.502-48.41 10.312-96.633 1.023-7.734 2.246-15.574 3.415-23.149 3.149-20.291 6.405-41.26 6.139-61.525-.292-22.657-5.063-42.27-14.55-59.958l.411-.225c9.528 17.766 14.312 37.446 14.604 60.17.266 20.304-2.989 41.3-6.139 61.605-1.169 7.574-2.392 15.401-3.415 23.148-8.81 48.237-10.338 96.195-10.312 96.474l-.465.093Z" fill="#FCFDFE"/>
        <path d="m322.453 107.84-.399-.253c9.116-14.59 19.654-34.895 25.315-45.805 4.558-8.797 4.597-8.797 4.863-8.797l.013.479v-.24l.133.186c-.265.266-2.179 3.947-4.584 8.585-5.674 10.923-16.212 31.24-25.341 45.845Zm.346-17.886c-4.877-14.006-12.478-22.444-17.993-27.069-6.033-5.05-11.162-6.883-11.707-6.883h-.013l-.014-.173-.212-.226c.106-.106.279-.093.545-.026 4.132.996 21.301 9.713 29.832 34.217l-.438.16Zm-14.246 111.463c-.757-13.714-6.431-27.6-16.849-41.301-5.435-7.149-11.96-13.926-19.375-20.171-.545-.452-.731-.612-.797-.691l.359-.306c.053.053.372.319.744.638 7.454 6.259 13.992 13.076 19.454 20.238 10.471 13.767 16.172 27.746 16.943 41.553l-.479.04Zm2.565-14.963-.438-.173c8.73-21.819 34.151-27.719 34.457-27.719l.212.186-.119.252-.107-.212.027.239c-.053.013-6.445 1.422-14.019 5.701-6.671 3.773-15.561 10.604-20.013 21.726Zm33.886-27.866.119.213-.119-.213Zm-41.62 100.235c-.811-5.887-4.651-15.481-18.338-27.786-.758-.678-.758-.678-.758-.811l.239-.013.2-.133c.039.053.319.306.637.585 13.794 12.411 17.661 22.112 18.485 28.078l-.465.08Zm1.116-11.521-.478-.053c.505-4.678 4.053-14.299 22.085-26.126.253-.159.412-.265.465-.305l.293.372c-.053.04-.226.159-.492.332-17.873 11.721-21.381 21.182-21.873 25.78Z" fill="#FCFDFE"/>
    </g>
    <path d="M302.388 56.36 57.735 42.21c-5.634-.28-10.71 5.873-10.71 11.042V368.28c0 7.162 7.308 8.597 12.942 8.026l242.407-24.756c4.426-.452 8-4.505 8-9.05V64.985c.013-4.558-3.561-8.412-7.986-8.624Z" fill="url(#e)"/>
    <path d="M306.414 53.85 61.283 41.796c-5.635-.28-10.219 3.72-10.219 8.916v317.5c0 5.209 4.584 8.957 10.219 8.372l245.131-25.235c4.425-.452 8-4.544 8-9.116V62.554c0-4.585-3.575-8.479-8-8.705Z" fill="#D8DEE8"/>
    <path d="M61.282 372.28c-3.043.305-5.514-1.728-5.514-4.532V50.926c0-2.804 2.484-4.97 5.514-4.824l245.132 11.574c2.391.107 4.332 2.22 4.332 4.704v280.2c0 2.485-1.941 4.691-4.332 4.93L61.282 372.28Z" fill="url(#f)"/>
    <path d="M290.614 340.002 80.95 360.214V67.922l209.664 7.893v264.187Z" fill="#fff"/>
    <path opacity=".3" d="m206.751 77.237-83.797 1.05 1.874-18.896c.146-2.459 1.913-4.479 4.252-4.824l14.192-2.18c1.674-.252 3.11-1.355 3.84-2.95l1.542-3.348 37.114 2.285 20.983 28.863Z" fill="#97A6B7"/>
    <path d="M251.507 64.985c-.399-2.14-2.113-3.641-4.266-3.734l-13.395-.598c-6.072-.266-10.537-5.209-10.311-11.468l.518-14.484c.093-2.684-1.821-4.824-4.452-4.983l-4.398-.266c-3.349-.2-5.595-3.163-5.116-6.578.824-5.98-3.269-11.136-9.209-11.534-5.98-.412-11.561 4.159-12.451 10.218a6.69 6.69 0 0 1-.931 2.579c-1.382 2.219-3.8 3.441-6.179 3.295l-4.544-.266c-2.751-.16-5.356 1.768-6.06 4.478l-3.774 14.71c-1.634 6.366-7.787 10.964-14.325 10.671l-14.683-.664c-2.406-.106-4.771 1.289-5.874 3.495l-8.85 17.567c-.718 1.435.173 2.99 1.754 3.043l127.37 4.226c1.395.04 2.577-1.342 2.325-2.724l-3.149-16.983Zm-52.436-41.114c-1.754-.107-2.977-1.635-2.711-3.402.266-1.768 1.887-3.123 3.641-3.003 1.754.12 2.963 1.634 2.711 3.401-.266 1.768-1.887 3.11-3.641 3.004Z" fill="url(#g)"/>
    <path d="M252.25 65.37c-.398-2.14-2.113-3.64-4.265-3.734l-13.395-.598c-6.073-.265-10.538-5.209-10.312-11.468l.518-14.484c.093-2.684-1.82-4.824-4.451-4.983l-4.399-.266c-3.348-.2-5.594-3.163-5.116-6.578.824-5.98-3.269-11.135-9.209-11.534-5.979-.412-11.56 4.16-12.451 10.219a6.69 6.69 0 0 1-.93 2.578c-1.382 2.219-3.8 3.442-6.179 3.295l-4.545-.265c-2.75-.16-5.355 1.767-6.059 4.478l-3.774 14.71c-1.635 6.365-7.787 10.963-14.325 10.67l-14.684-.664c-2.405-.106-4.77 1.29-5.873 3.495l-8.85 17.567c-.718 1.435.172 2.99 1.754 3.043l127.369 4.226c1.395.04 2.578-1.342 2.326-2.724l-3.15-16.983Zm-52.422-41.1c-1.755-.107-2.977-1.635-2.711-3.403.252-1.767 1.887-3.122 3.641-3.003 1.754.12 2.963 1.635 2.711 3.402-.266 1.768-1.887 3.11-3.641 3.003Z" fill="#97A6B7"/>
    <path opacity=".5" d="M230.458 73.45c-11.362-7.017-20.079-2.047-27.162-9.953-7.588-8.465-2.472-19.614-10.312-24.876-5.023-3.362-9.501-.399-15.335-1.302-2.139-.333-4.425-1.183-6.79-2.844L167.71 46.74c-1.635 6.365-7.787 10.963-14.325 10.67l-14.684-.664c-2.405-.106-4.77 1.29-5.873 3.495l-8.85 17.567c-.718 1.435.172 2.99 1.754 3.043l115.755 3.84c-2.923-4.637-6.551-8.477-11.029-11.241Z" fill="#fff"/>
    <path d="m231.467 113.82-78.454-.863v-9.409l78.454 1.21v9.062Z" fill="#97A6B7"/>
    <g id="image2-graphs">
        <path id="graph1" d="m152.388 215.37-9.607.359v-0.727l9.607.027v84.341Z" fill="url(#h)"/>
        <animate xlink:href="#graph1"  attributeName="d" values="m152.388 215.37-9.607.359v-0.727l9.607.027v84.341Z;  m152.388 215.37-9.607.359v-0.727l9.607.027v84.341Z; m152.388 215.37-9.607.359v-84.727l9.607.027v84.341Z;  m152.388 215.37-9.607.359v-84.727l9.607.027v84.341Z; m152.388 215.37-9.607.359v-84.727l9.607.027v84.341Z; m152.388 215.37-9.607.359v-84.727l9.607.027v84.341Z;  m152.388 215.37-9.607.359v-0.727l9.607.027v84.341Z; m152.388 215.37-9.607.359v-0.727l9.607.027v84.341Z"
        dur="8s" fill="freeze" repeatCount="indefinite"
        />
        <path  id="graph2" d="m170.726 214.693-9.448.345v-0.725l9.448-.093v57.473Z" fill="url(#i)"/>

        <animate xlink:href="#graph2"  attributeName="d" values="m170.726 214.693-9.448.345v-0.725l9.448-.093v57.473Z;  m170.726 214.693-9.448.345v-0.725l9.448-.093v57.473Z; m170.726 214.693-9.448.345v-57.725l9.448-.093v57.473Z;  m170.726 214.693-9.448.345v-57.725l9.448-.093v57.473Z; m170.726 214.693-9.448.345v-57.725l9.448-.093v57.473Z; m170.726 214.693-9.448.345v-57.725l9.448-.093v57.473Z; m170.726 214.693-9.448.345v-0.725l9.448-.093v57.473Z; m170.726 214.693-9.448.345v-0.725l9.448-.093v57.473Z"
                 begin=".3s" dur="8s" fill="freeze" repeatCount="indefinite"
        />
        <path id="graph3" d="m188.745 214.028-9.275.332v-0.302l9.275-.027v71.997Z" fill="url(#j)"/>

        <animate xlink:href="#graph3"  attributeName="d" values="m188.745 214.028-9.275.332v-0.302l9.275-.027v71.997Z;  m188.745 214.028-9.275.332v-0.302l9.275-.027v71.997Z; m188.745 214.028-9.275.332v-72.302l9.275-.027v71.997Z;  m188.745 214.028-9.275.332v-72.302l9.275-.027v71.997Z; m188.745 214.028-9.275.332v-72.302l9.275-.027v71.997Z; m188.745 214.028-9.275.332v-72.302l9.275-.027v71.997Z; m188.745 214.028-9.275.332v-0.302l9.275-.027v71.997Z; m188.745 214.028-9.275.332v-0.302l9.275-.027v71.997Z"
                 begin=".5s" dur="8s" fill="freeze" repeatCount="indefinite"
        />
        <path id="graph4" d="m206.472 213.364-9.129.345v-0.087l9.129-.093v56.835Z" fill="url(#k)"/>
        <animate xlink:href="#graph4"  attributeName="d" values="m206.472 213.364-9.129.345v-0.087l9.129-.093v56.835Z;  m206.472 213.364-9.129.345v-0.087l9.129-.093v56.835Z; m206.472 213.364-9.129.345v-57.087l9.129-.093v56.835Z;  m206.472 213.364-9.129.345v-57.087l9.129-.093v56.835Z; m206.472 213.364-9.129.345v-57.087l9.129-.093v56.835Z; m206.472 213.364-9.129.345v-57.087l9.129-.093v56.835Z; m206.472 213.364-9.129.345v-0.087l9.129-.093v56.835Z; m206.472 213.364-9.129.345v-0.087l9.129-.093v56.835Z"
                 begin=".6s" dur="8s" fill="freeze" repeatCount="indefinite"
        />
        <path id="graph5" d="m223.88 212.713-8.97.332v-0.101l8.97-.146v40.915Z" fill="url(#l)"/>
        <animate xlink:href="#graph5"  attributeName="d" values="m223.88 212.713-8.97.332v-0.101l8.97-.146v40.915Z;  m223.88 212.713-8.97.332v-0.101l8.97-.146v40.915Z; m223.88 212.713-8.97.332v-41.101l8.97-.146v40.915Z;  m223.88 212.713-8.97.332v-41.101l8.97-.146v40.915Z; m223.88 212.713-8.97.332v-41.101l8.97-.146v40.915Z; m223.88 212.713-8.97.332v-41.101l8.97-.146v40.915Z; m223.88 212.713-8.97.332v-0.101l8.97-.146v40.915Z; m223.88 212.713-8.97.332v-0.101l8.97-.146v40.915Z"
                 begin=".7s" dur="8s" fill="freeze" repeatCount="indefinite"
        />
    </g>
    <path d="m241.022 212.088-8.837.319v-81.179l8.837.027v80.833Zm16.836-.638-8.677.332v-24.185l8.677-.226v24.079Zm16.571-.611-8.531.319v-64.077l8.531-.04v63.798Zm0 34.456-167.713 9.103v-8.85l167.713-8.425v8.172Zm0-15.627-167.713 7.801v-8.837l167.713-7.123v8.159Zm0 78.827-167.713 14.378v-8.85l167.713-13.7v8.172Z" fill="#D8DEE8"/>
    <path opacity=".5" d="M171.032 262.982v33.593l-66.403 5.05v-34.656l66.403-3.987Z" fill="#D8DEE8"/>
    <path d="M104.629 287.194v14.431l66.403-5.036v-26.046c-3.801-1.209-8.359-1.714-11.84.784-7.296 5.236-6.366 7.933-13.98 7.07-5.966-.691-12.597-1.249-17.713 3.083-3.176 2.684-4.797 5.448-9.382 5.368-4.305-.093-9.328-2.777-13.488.346Zm169.8-24.384-87.81 5.528v-6.299l87.81-5.262v6.033Zm0 12.783-87.81 6.086v-5.927l87.81-5.846v5.687Zm0 13.129-87.81 6.671v-6.299l87.81-6.405v6.033ZM127.14 138.576l-20.863.027v-8.066l20.863.066v7.973Zm0 19.707-20.863.213v-8.053l20.863-.133v7.973Zm0 19.228-20.863.399v-8.053l20.863-.319v7.973Zm0 19.707-20.863.585v-8.053l20.863-.505v7.973Zm0 19.228-20.863.784v-8.052l20.863-.705v7.973Z" fill="#D8DEE8"/>
    <g id="loop">
        <path d="M133.186 216.46 31.291 286.224c-2.459 1.701-5.874 1.143-7.615-1.236l-1.09-1.488c-1.74-2.379-1.142-5.701 1.343-7.388l2.033-1.382 82.933-56.383 17.049-11.587 7.242 9.7Z" fill="url(#m)"/>
        <path d="M211.947 227.928c-27.706 19.627-66.203 12.464-85.949-16.916-20.225-30.085-12.624-71.08 16.929-90.574 29.022-19.135 67.386-9.621 85.763 20.318 17.953 29.261 10.485 67.89-16.743 87.172Zm-5.315-8.279c23.015-16.212 29.301-48.795 14.072-73.418-15.521-25.102-47.745-32.942-72.036-16.837-24.65 16.358-31.029 50.616-14.206 75.824 16.491 24.716 48.809 30.882 72.17 14.431Z" fill="url(#n)"/>
        <path opacity=".6" d="M133.186 216.46 31.291 286.224c-2.459 1.701-5.874 1.143-7.615-1.236l-1.09-1.488c-1.74-2.379-1.142-5.701 1.343-7.388l2.033-1.382c5.01 5.036 8.305 5.74 10.524 5.182 5.183-1.315 3.655-9.355 11.522-15.747 7.773-6.325 14.059-2.352 22.882-9.394 5.342-4.253 3.428-6.02 8.85-11.428 10.804-10.777 22.019-7.389 27.162-15.309 1.355-2.086 2.392-5.116 2.006-9.687l17.049-11.587 7.229 9.7Z" fill="#D8DEE8"/>
        <path d="M214.897 230.054c-27.707 19.627-66.203 12.464-85.95-16.916-20.225-30.085-12.624-71.08 16.93-90.561 29.022-19.135 67.385-9.621 85.763 20.318 17.953 29.261 10.485 67.877-16.743 87.159Zm-5.316-8.265c23.016-16.212 29.301-48.795 14.073-73.419-15.521-25.102-47.745-32.942-72.037-16.836-24.65 16.358-31.028 50.615-14.205 75.823 16.491 24.703 48.808 30.869 72.169 14.432Z" fill="url(#o)"/>
        <path d="M213.023 227.143c-26.178 18.498-62.482 11.694-81.086-16.039-19.016-28.357-11.84-66.96 15.973-85.338 27.334-18.072 63.532-9.156 80.913 19.069 16.996 27.613 9.94 64.103-15.8 82.308Zm-3.442-5.355c23.016-16.212 29.301-48.795 14.073-73.418-15.521-25.102-47.746-32.942-72.037-16.837-24.65 16.358-31.028 50.616-14.205 75.824 16.491 24.703 48.808 30.869 72.169 14.431Z" fill="url(#p)"/>

    </g>
    <g id="image2-coin1">
        <path d="M362.398 127.215c0 17.514-13.687 31.281-31.188 30.749-18.218-.558-33.526-16.292-33.526-35.108 0-18.816 15.321-32.49 33.526-30.59 17.488 1.807 31.188 17.435 31.188 34.949Z" fill="url(#q)"/>
        <path d="M367.129 125.7c0 17.514-13.687 31.281-31.188 30.749-18.218-.558-33.526-16.291-33.526-35.108 0-18.816 15.321-32.49 33.526-30.59 17.488 1.821 31.188 17.435 31.188 34.949Z" fill="url(#r)"/>
        <path d="M365.747 125.607c0 16.743-13.102 29.886-29.819 29.341-17.368-.558-31.946-15.574-31.946-33.5 0-17.94 14.578-30.976 31.946-29.195 16.717 1.701 29.819 16.611 29.819 33.354Z" fill="url(#s)"/>
        <path d="M364.764 125.541c0 16.185-12.678 28.875-28.836 28.344-16.757-.558-30.816-15.056-30.816-32.358 0-17.301 14.059-29.898 30.816-28.21 16.158 1.634 28.836 16.038 28.836 32.224Z" fill="url(#t)"/>
        <path d="M335.316 122.936c.2-.385.346-.678.492-.97 2.777-5.741 5.555-11.495 8.332-17.235.545-1.143 1.368-1.807 2.525-1.821 1.049-.013 1.807.545 2.245 1.568.426.997.24 1.994-.239 2.977a9763.847 9763.847 0 0 0-8.066 16.664c-.399.81-.771 1.634-1.236 2.604h3.017c.983 0 1.966-.026 2.936 0 1.515.04 2.592 1.342 2.499 2.977-.093 1.594-1.289 2.857-2.764 2.87-2.18.027-4.359.013-6.538.013h-.944c-.053 1.17-.106 2.273-.159 3.469h4.186c1.116 0 2.232-.027 3.348.013 1.475.04 2.525 1.329 2.445 2.923-.079 1.608-1.262 2.897-2.737 2.911-2.206.026-4.412.013-6.618.013h-.956c-.04.784-.067 1.488-.107 2.179-.119 1.887-1.236 3.176-2.764 3.176-1.541 0-2.538-1.262-2.458-3.149.027-.691.066-1.396.106-2.193h-1.435c-2.02 0-4.04.013-6.046 0-1.568-.013-2.698-1.315-2.591-2.963.106-1.635 1.302-2.87 2.857-2.884 2.179-.013 4.358 0 6.538 0h.916c.054-1.182.107-2.272.16-3.468h-1.063c-2.126 0-4.252.013-6.379 0-1.581-.013-2.697-1.316-2.591-2.963.106-1.635 1.302-2.871 2.857-2.884 1.927-.026 3.854 0 5.874 0-.147-.412-.253-.717-.359-1.01-2.392-6.152-4.811-12.305-7.189-18.471-.797-2.046.252-4.132 2.179-4.411 1.17-.16 2.113.518 2.671 1.94 1.9 4.863 3.801 9.74 5.701 14.604.412 1.116.864 2.259 1.355 3.521Z" fill="url(#u)"/>
        <path opacity=".3" d="M330.719 129.5c.97-9.62 9.82-13.7 8.664-22.55-.718-5.462-4.851-10.046-9.462-13.647-13.992 1.462-24.809 13.049-24.809 28.198 0 17.301 14.059 31.799 30.816 32.357a28.198 28.198 0 0 0 4.757-.239c-6.644-6.591-10.804-15.853-9.966-24.119Z" fill="url(#v)"/>

    </g>
    <g id="image2-coin2">
        <path d="M343.635 195.172c0 13.182-10.312 23.547-23.481 23.148-13.713-.425-25.235-12.265-25.235-26.431 0-14.165 11.535-24.45 25.235-23.028 13.182 1.382 23.481 13.142 23.481 26.311Z" fill="url(#w)"/>
        <path d="M347.196 194.042c0 13.182-10.312 23.547-23.48 23.148-13.714-.425-25.235-12.265-25.235-26.43 0-14.166 11.534-24.451 25.235-23.029 13.182 1.369 23.48 13.129 23.48 26.311Z" fill="url(#x)"/>
        <path d="M346.16 193.976c0 12.597-9.86 22.497-22.445 22.085-13.075-.425-24.038-11.72-24.038-25.221 0-13.502 10.976-23.322 24.038-21.979 12.585 1.288 22.445 12.517 22.445 25.115Z" fill="url(#y)"/>
        <path d="M345.429 193.923c0 12.185-9.541 21.739-21.7 21.327-12.611-.425-23.202-11.335-23.202-24.357 0-13.023 10.578-22.511 23.202-21.235 12.159 1.236 21.7 12.079 21.7 24.265Z" fill="url(#z)"/>
        <path d="M323.264 191.956c.146-.293.266-.505.372-.731 2.086-4.319 4.186-8.651 6.272-12.97.412-.863 1.023-1.355 1.9-1.368.798-.014 1.356.412 1.688 1.182.319.758.186 1.502-.173 2.246a3728.305 3728.305 0 0 0-6.073 12.544c-.292.612-.584 1.223-.93 1.954h2.272c.745 0 1.475-.014 2.22 0 1.142.026 1.953 1.01 1.873 2.232-.066 1.196-.97 2.153-2.086 2.153-1.648.013-3.282 0-4.93 0h-.704c-.04.877-.08 1.714-.12 2.618h3.149c.838 0 1.688-.014 2.525.013 1.103.027 1.9.997 1.847 2.206-.053 1.209-.943 2.179-2.059 2.192-1.661.027-3.322 0-4.984 0h-.717c-.027.598-.04 1.117-.08 1.635-.093 1.422-.93 2.392-2.086 2.392-1.156 0-1.914-.944-1.86-2.379.013-.518.053-1.05.079-1.648h-1.076c-1.515 0-3.043.014-4.558 0-1.183-.013-2.033-.996-1.953-2.232.079-1.223.983-2.153 2.152-2.166 1.648-.013 3.283 0 4.93 0h.691c.04-.89.08-1.701.12-2.618h-.797c-1.595 0-3.203.013-4.798 0-1.182-.013-2.033-.983-1.953-2.232.08-1.223.983-2.166 2.153-2.18 1.448-.013 2.897 0 4.425 0-.106-.305-.186-.544-.266-.757-1.807-4.638-3.614-9.262-5.408-13.9-.598-1.541.199-3.109 1.634-3.322.877-.119 1.595.386 2.02 1.462 1.435 3.668 2.857 7.335 4.292 11.003.279.863.611 1.727.997 2.671Z" fill="url(#A)"/>
        <path opacity=".3" d="M319.796 196.899c.73-7.242 7.388-10.312 6.524-16.969-.531-4.106-3.654-7.561-7.122-10.272-10.525 1.103-18.671 9.82-18.671 21.222 0 13.022 10.578 23.932 23.202 24.357 1.222.04 2.418-.026 3.588-.173-5.023-4.969-8.146-11.933-7.521-18.165Z" fill="url(#B)"/>

    </g>
    <defs><linearGradient id="a" x1="18.945" y1="101.599" x2="175.457" y2="101.599" gradientUnits="userSpaceOnUse"><stop stop-color="#AA80F9"/><stop offset=".996" stop-color="#6165D7"/></linearGradient><linearGradient id="b" x1="16.924" y1="135.01" x2="207.585" y2="179.239" gradientUnits="userSpaceOnUse"><stop offset=".004" stop-color="#E38DDD"/><stop offset="1" stop-color="#9571F6"/></linearGradient><linearGradient id="c" x1="389.768" y1="158.605" x2="128.047" y2="443.847" gradientUnits="userSpaceOnUse"><stop stop-color="#AA80F9"/><stop offset=".996" stop-color="#6165D7"/></linearGradient><linearGradient id="d" x1="273.599" y1="146.659" x2="353.787" y2="146.659" gradientUnits="userSpaceOnUse"><stop stop-color="#AA80F9"/><stop offset=".996" stop-color="#6165D7"/></linearGradient><linearGradient id="e" x1="47.032" y1="209.304" x2="310.393" y2="209.304" gradientUnits="userSpaceOnUse"><stop stop-color="#444B8C"/><stop offset=".996" stop-color="#26264F"/></linearGradient><linearGradient id="f" x1="108.897" y1="376.259" x2="364.342" y2="-240.333" gradientUnits="userSpaceOnUse"><stop offset=".004" stop-color="#E38DDD"/><stop offset="1" stop-color="#9571F6"/></linearGradient><linearGradient id="g" x1="122.963" y1="47.993" x2="254.693" y2="47.993" gradientUnits="userSpaceOnUse"><stop stop-color="#444B8C"/><stop offset=".996" stop-color="#26264F"/></linearGradient><linearGradient id="h" x1="142.783" y1="173.367" x2="152.392" y2="173.367" gradientUnits="userSpaceOnUse"><stop stop-color="#FF9085"/><stop offset="1" stop-color="#FB6FBB"/></linearGradient><linearGradient id="i" x1="161.284" y1="186.134" x2="170.728" y2="186.134" gradientUnits="userSpaceOnUse"><stop stop-color="#FF9085"/><stop offset="1" stop-color="#FB6FBB"/></linearGradient><linearGradient id="j" x1="179.467" y1="178.202" x2="188.749" y2="178.202" gradientUnits="userSpaceOnUse"><stop stop-color="#FF9085"/><stop offset="1" stop-color="#FB6FBB"/></linearGradient><linearGradient id="k" x1="197.34" y1="185.119" x2="206.467" y2="185.119" gradientUnits="userSpaceOnUse"><stop stop-color="#FF9085"/><stop offset="1" stop-color="#FB6FBB"/></linearGradient><linearGradient id="l" x1="214.913" y1="192.423" x2="223.886" y2="192.423" gradientUnits="userSpaceOnUse"><stop stop-color="#FF9085"/><stop offset="1" stop-color="#FB6FBB"/></linearGradient><linearGradient id="m" x1="21.593" y1="246.977" x2="133.186" y2="246.977" gradientUnits="userSpaceOnUse"><stop stop-color="#444B8C"/><stop offset=".996" stop-color="#26264F"/></linearGradient><linearGradient id="n" x1="235.652" y1="156.297" x2="117.517" y2="193.192" gradientUnits="userSpaceOnUse"><stop stop-color="#444B8C"/><stop offset=".996" stop-color="#26264F"/></linearGradient><linearGradient id="o" x1="213.267" y1="236.16" x2="167.018" y2="154.841" gradientUnits="userSpaceOnUse"><stop stop-color="#444B8C"/><stop offset=".996" stop-color="#26264F"/></linearGradient><linearGradient id="p" x1="145.133" y1="117.299" x2="208.193" y2="226.033" gradientUnits="userSpaceOnUse"><stop stop-color="#444B8C"/><stop offset=".996" stop-color="#26264F"/></linearGradient><linearGradient id="q" x1="318.945" y1="128.578" x2="281.202" y2="140.691" gradientUnits="userSpaceOnUse"><stop stop-color="#FCB148"/><stop offset=".052" stop-color="#FDBA46"/><stop offset=".142" stop-color="#FFC244"/><stop offset=".318" stop-color="#FFC444"/><stop offset=".485" stop-color="#FDB946"/><stop offset=".775" stop-color="#F99C4D"/><stop offset=".866" stop-color="#F8924F"/><stop offset="1" stop-color="#F8924F"/></linearGradient><linearGradient id="r" x1="349.476" y1="91.009" x2="315.782" y2="165.345" gradientUnits="userSpaceOnUse"><stop stop-color="#FFDB44"/><stop offset="1" stop-color="#FEEF06"/></linearGradient><linearGradient id="s" x1="343.278" y1="169.5" x2="336.777" y2="133.983" gradientUnits="userSpaceOnUse"><stop stop-color="#FCB148"/><stop offset=".052" stop-color="#FDBA46"/><stop offset=".142" stop-color="#FFC244"/><stop offset=".318" stop-color="#FFC444"/><stop offset=".485" stop-color="#FDB946"/><stop offset=".775" stop-color="#F99C4D"/><stop offset=".866" stop-color="#F8924F"/><stop offset="1" stop-color="#F8924F"/></linearGradient><linearGradient id="t" x1="329.494" y1="112.012" x2="356.287" y2="168.889" gradientUnits="userSpaceOnUse"><stop stop-color="#FCB148"/><stop offset=".052" stop-color="#FDBA46"/><stop offset=".142" stop-color="#FFC244"/><stop offset=".318" stop-color="#FFC444"/><stop offset=".485" stop-color="#FDB946"/><stop offset=".775" stop-color="#F99C4D"/><stop offset=".866" stop-color="#F8924F"/><stop offset="1" stop-color="#F8924F"/></linearGradient><linearGradient id="u" x1="321.747" y1="125.025" x2="349.139" y2="125.025" gradientUnits="userSpaceOnUse"><stop stop-color="#FFDB44"/><stop offset="1" stop-color="#FEEF06"/></linearGradient><linearGradient id="v" x1="321.612" y1="115.692" x2="348.351" y2="172.454" gradientUnits="userSpaceOnUse"><stop stop-color="#FCB148"/><stop offset=".052" stop-color="#FDBA46"/><stop offset=".142" stop-color="#FFC244"/><stop offset=".318" stop-color="#FFC444"/><stop offset=".485" stop-color="#FDB946"/><stop offset=".775" stop-color="#F99C4D"/><stop offset=".866" stop-color="#F8924F"/><stop offset="1" stop-color="#F8924F"/></linearGradient><linearGradient id="w" x1="310.936" y1="196.207" x2="282.527" y2="205.324" gradientUnits="userSpaceOnUse"><stop stop-color="#FCB148"/><stop offset=".052" stop-color="#FDBA46"/><stop offset=".142" stop-color="#FFC244"/><stop offset=".318" stop-color="#FFC444"/><stop offset=".485" stop-color="#FDB946"/><stop offset=".775" stop-color="#F99C4D"/><stop offset=".866" stop-color="#F8924F"/><stop offset="1" stop-color="#F8924F"/></linearGradient><linearGradient id="x" x1="333.917" y1="167.929" x2="308.555" y2="223.881" gradientUnits="userSpaceOnUse"><stop stop-color="#FFDB44"/><stop offset="1" stop-color="#FEEF06"/></linearGradient><linearGradient id="y" x1="329.252" y1="227.009" x2="324.358" y2="200.275" gradientUnits="userSpaceOnUse"><stop stop-color="#FCB148"/><stop offset=".052" stop-color="#FDBA46"/><stop offset=".142" stop-color="#FFC244"/><stop offset=".318" stop-color="#FFC444"/><stop offset=".485" stop-color="#FDB946"/><stop offset=".775" stop-color="#F99C4D"/><stop offset=".866" stop-color="#F8924F"/><stop offset="1" stop-color="#F8924F"/></linearGradient><linearGradient id="z" x1="318.876" y1="183.738" x2="339.044" y2="226.549" gradientUnits="userSpaceOnUse"><stop stop-color="#FCB148"/><stop offset=".052" stop-color="#FDBA46"/><stop offset=".142" stop-color="#FFC244"/><stop offset=".318" stop-color="#FFC444"/><stop offset=".485" stop-color="#FDB946"/><stop offset=".775" stop-color="#F99C4D"/><stop offset=".866" stop-color="#F8924F"/><stop offset="1" stop-color="#F8924F"/></linearGradient><linearGradient id="A" x1="313.046" y1="193.533" x2="333.663" y2="193.533" gradientUnits="userSpaceOnUse"><stop stop-color="#FFDB44"/><stop offset="1" stop-color="#FEEF06"/></linearGradient><linearGradient id="B" x1="312.944" y1="186.508" x2="333.07" y2="229.233" gradientUnits="userSpaceOnUse"><stop stop-color="#FCB148"/><stop offset=".052" stop-color="#FDBA46"/><stop offset=".142" stop-color="#FFC244"/><stop offset=".318" stop-color="#FFC444"/><stop offset=".485" stop-color="#FDB946"/><stop offset=".775" stop-color="#F99C4D"/><stop offset=".866" stop-color="#F8924F"/><stop offset="1" stop-color="#F8924F"/></linearGradient></defs></svg>