<svg width="16" height="15" fill="none" xmlns="http://www.w3.org/2000/svg"><path d="M7.223 1.379a.907.907 0 0 1 1.554 0l1.712 2.845c.127.21.334.36.573.416l3.235.749a.907.907 0 0 1 .48 1.479l-2.176 2.507a.907.907 0 0 0-.22.673l.288 3.308a.907.907 0 0 1-1.258.914l-3.057-1.295a.907.907 0 0 0-.708 0L4.59 14.27a.907.907 0 0 1-1.258-.914l.287-3.308a.907.907 0 0 0-.219-.673L1.223 6.868a.907.907 0 0 1 .48-1.479l3.235-.75a.907.907 0 0 0 .573-.415l1.712-2.845Z" fill="#8FAF00"/><path fill-rule="evenodd" clip-rule="evenodd" d="M6.794 1.121a1.407 1.407 0 0 1 2.412 0l1.712 2.845c.057.094.15.162.257.187l3.234.749a1.407 1.407 0 0 1 .746 2.293l-2.177 2.508a.407.407 0 0 0-.098.302l.287 3.308a1.407 1.407 0 0 1-1.95 1.417l-3.058-1.295a.407.407 0 0 0-.318 0L4.784 14.73a1.407 1.407 0 0 1-1.951-1.417l.287-3.308a.407.407 0 0 0-.098-.302L.845 7.195l.378-.327-.378.327a1.407 1.407 0 0 1 .745-2.293l3.235-.75a.407.407 0 0 0 .257-.186l1.712-2.845Zm1.555.516a.407.407 0 0 0-.698 0L5.939 4.482a1.41 1.41 0 0 1-.888.645l-3.235.75a.407.407 0 0 0-.216.663l2.177 2.507c.25.288.372.665.34 1.044L3.828 13.4a.407.407 0 0 0 .565.41l3.057-1.295c.35-.148.747-.148 1.098 0l3.057 1.296a.407.407 0 0 0 .565-.41l-.287-3.309a1.41 1.41 0 0 1 .339-1.044l2.176-2.507a.407.407 0 0 0-.215-.664l-3.235-.75a1.407 1.407 0 0 1-.888-.644L8.349 1.637Z" fill="#8FAF00"/></svg>