<svg width="7" height="10" viewBox="0 0 7 10" fill="none" xmlns="http://www.w3.org/2000/svg">
<path d="M2.691 7.127L2.431 5.021L2.496 4.956C4.09933 4.89533 4.901 4.40133 4.901 3.474C4.901 3.10133 4.76667 2.80233 4.498 2.577C4.22933 2.35167 3.86533 2.239 3.406 2.239C2.63467 2.239 1.92833 2.58133 1.287 3.266L0.312 2.226C1.16133 1.264 2.20567 0.782999 3.445 0.782999C4.36367 0.782999 5.10033 1.02567 5.655 1.511C6.20967 1.98767 6.487 2.63333 6.487 3.448C6.487 4.21933 6.24867 4.81733 5.772 5.242C5.29533 5.658 4.66267 5.93533 3.874 6.074L3.744 7.127H2.691ZM2.314 10V8.219H4.056V10H2.314Z" fill="#52A8DC"/>
</svg>
