<?xml version="1.0" encoding="UTF-8" standalone="no"?>
<svg
   width="24"
   height="24"
   viewBox="0 0 24 24"
   fill="none"
   version="1.1"
   id="svg2"
   sodipodi:docname="EyeSlash2.svg"
   inkscape:version="1.3.2 (091e20ef0f, 2023-11-25, custom)"
   xmlns:inkscape="http://www.inkscape.org/namespaces/inkscape"
   xmlns:sodipodi="http://sodipodi.sourceforge.net/DTD/sodipodi-0.dtd"
   xmlns="http://www.w3.org/2000/svg"
   xmlns:svg="http://www.w3.org/2000/svg">
  <defs
     id="defs2" />
  <sodipodi:namedview
     id="namedview2"
     pagecolor="#ffffff"
     bordercolor="#000000"
     borderopacity="0.25"
     inkscape:showpageshadow="2"
     inkscape:pageopacity="0.0"
     inkscape:pagecheckerboard="0"
     inkscape:deskcolor="#d1d1d1"
     inkscape:zoom="22.627417"
     inkscape:cx="2.298097"
     inkscape:cy="9.5459415"
     inkscape:window-width="1920"
     inkscape:window-height="1008"
     inkscape:window-x="0"
     inkscape:window-y="0"
     inkscape:window-maximized="1"
     inkscape:current-layer="svg2" />
  <path
     d="M 23.1844,11.7 C 23.1563,11.625 22.3594,9.86252 20.5969,8.09065 18.2438,5.7469 15.2719,4.50002 12,4.50002 11.309,4.49876 10.6191,4.55521 9.93751,4.66877 9.80581,4.69345 9.68299,4.75253 9.58151,4.84003 9.48003,4.92752 9.4035,5.04031 9.35971,5.16694 9.31591,5.29357 9.3064,5.42954 9.33214,5.56103 c 0.02574,0.1315 0.96081,0.269465 1.04912,0.370245 L 18.987475,16.1094 c 0.28905,-0.45445 0.171325,0.3881 0.266625,0.4301 0.0952,0.0419 0.1981,0.0636 0.3022,0.0636 0.1852,-0.0024 0.364,-0.0686 0.5062,-0.1875 2.1375,-1.9218 3.0844,-4.0218 3.1219,-4.1062 0.0415,-0.0962 0.0629,-0.1999 0.0629,-0.3047 0,-0.1048 -0.0214,-0.2085 -0.0629,-0.3047 z"
     fill="#8991a1"
     id="path1"
     sodipodi:nodetypes="ccccccsccccccsc" />
  <path
     d="M 9.6940728,4.7479378 C 8.0948317,5.217682 7.9364709,5.2406538 5.74686,6.23436 2.34374,8.32499 0.881238,11.55 0.815613,11.7 0.77408,11.7962 0.752655,11.8999 0.752655,12.0047 c 0,0.1048 0.021425,0.2085 0.062958,0.3047 0.028125,0.0656 0.824997,1.8281 2.587497,3.6 C 5.75624,18.2531 8.72811,19.5 12,19.5 c 1.6814,0.0114 3.324992,-0.418031 4.8844,-1.0125 l 3.075873,-2.007208 C 15.596115,12.707537 9.7206895,4.7401197 9.6940728,4.7479378 Z M 12,15.375 c -0.6168,-4e-4 -1.2216,-0.1698 -1.7489,-0.4898 -0.52724,-0.32 -0.95673,-0.7784 -1.24179,-1.3253 -0.28506,-0.547 -0.4148,-1.1615 -0.37512,-1.777 0.03967,-0.6155 0.9681341,-2.222941 2.921284,-2.237867 1.95315,-0.01493 3.447041,0.848582 3.478522,2.869839 C 15.065477,14.436129 12.5822,15.3762 12,15.375 Z"
     fill="#8991a1"
     id="path2"
     sodipodi:nodetypes="sccscccccscccczzc" />
</svg>
