<svg width="1920" height="1104" viewBox="0 0 1920 1104" fill="none" xmlns="http://www.w3.org/2000/svg">
<g clip-path="url(#clip0_1_477)">
<rect width="1920" height="1104" fill="#E8EEFD"/>
<circle cx="1906" cy="364" r="37" fill="#DEE7FC"/>
<path fill-rule="evenodd" clip-rule="evenodd" d="M1690.37 318.787C1736.29 308.295 1766.97 268.357 1811.46 252.871C1882.38 228.191 1990.78 268.904 2025.29 202.221C2057.94 139.16 1967.61 78.103 1934.42 15.3283C1909.32 -32.1556 1897.57 -87.7018 1854.81 -120.216C1812.18 -152.642 1756.57 -154.802 1703.3 -160.445C1645.07 -166.613 1583.63 -182.084 1532.03 -154.408C1478.09 -125.48 1429.07 -72.0657 1424.67 -11.0162C1420.39 48.3641 1494.94 83.0577 1510.79 140.442C1527.17 199.715 1472.58 276.994 1516.21 320.326C1558.43 362.262 1632.35 332.042 1690.37 318.787Z" fill="#DEE7FC"/>
<circle cx="1292" cy="82" r="26" fill="#DEE7FC"/>
<circle cx="1409" cy="312" r="14" fill="#DEE7FC"/>
</g>
<defs>
<clipPath id="clip0_1_477">
<rect width="1920" height="1104" fill="white"/>
</clipPath>
</defs>
</svg>
