<svg width="16" height="16" fill="none" xmlns="http://www.w3.org/2000/svg"><path d="M7.554 10.333a2.333 2.333 0 1 0 0-4.666 2.333 2.333 0 0 0 0 4.666Z" stroke="#8D9CA9" stroke-width="1.2" stroke-linecap="round" stroke-linejoin="round"/><path clip-rule="evenodd" d="M9.32 2.199C9.32 1.537 8.783 1 8.122 1H6.987a1.2 1.2 0 0 0-1.199 1.199c0 .509-.328.95-.776 1.194a5.3 5.3 0 0 0-.207.118c-.44.265-.99.329-1.435.074a1.219 1.219 0 0 0-1.659.444l-.548.94a1.2 1.2 0 0 0 .442 1.648c.443.253.664.76.653 1.27a5.297 5.297 0 0 0 0 .225c.01.51-.21 1.018-.653 1.271a1.2 1.2 0 0 0-.442 1.647l.548.94a1.219 1.219 0 0 0 1.659.445c.445-.255.996-.191 1.435.074a5.3 5.3 0 0 0 .207.118c.448.243.776.685.776 1.194A1.2 1.2 0 0 0 6.987 15h1.135c.661 0 1.198-.537 1.198-1.199 0-.509.329-.95.777-1.194.07-.038.138-.077.206-.118.44-.265.99-.329 1.436-.074a1.219 1.219 0 0 0 1.658-.444l.548-.94a1.2 1.2 0 0 0-.441-1.648c-.444-.253-.664-.76-.653-1.27a5.234 5.234 0 0 0 0-.225c-.011-.51.21-1.018.653-1.271a1.2 1.2 0 0 0 .441-1.647l-.548-.94a1.219 1.219 0 0 0-1.658-.445c-.446.255-.996.191-1.436-.074a5.342 5.342 0 0 0-.207-.118c-.447-.243-.776-.685-.776-1.194Z" stroke="#8D9CA9" stroke-width="1.2"/></svg>