<svg width="388" height="386" fill="none" xmlns="http://www.w3.org/2000/svg">
    <style>
        #image5-petal1{
        animation: move2 5s ease-in-out infinite;
        }

        #image5-1{
        animation: move1 5s  ease-in-out infinite alternate;
        opacity:0;
        }
        #image5-2{
        animation: move1 5s .5s ease-in-out infinite alternate;
        opacity:0;
        }
        #image5-3{
        animation: move1 5s  1s ease-in-out infinite alternate;
        opacity:0;
        }
        #image5-4{
        animation: move1 5s 1.5s ease-in-out infinite alternate;
        opacity:0;
        }
        #image5-5{
        animation: move1 5s 2s  ease-in-out infinite alternate;
        opacity:0;
        }
        #image5-6{
        animation: move1 5s 2.5s ease-in-out infinite alternate;
        opacity:0;
        }
        #image5-7{
        animation: move1 5s 3s  ease-in-out infinite alternate;
        opacity:0;
        }
        #image5-8{
        animation: move1 5s 3.2s  ease-in-out infinite alternate;
        opacity:0;
        }




        @keyframes move1 {
        0% {
        transform: translate3d(0, 0, 0);
        opacity:0;
        }
        100%{
        opacity:1;
        transform: translate3d(15px, 5px, 0);
        }
        }
        @keyframes move2 {
        0% {
        transform: translate3d(0, 0, 0) rotate(0deg);
        }
        50% {
        transform: translate3d(6px, 5px, 0) rotate(1deg);
        }
        100%{
        transform: translate3d(0, 0, 0) rotate(0deg);
        }
        }


    </style>



    <path d="M382.192 164.887C371.695 96.199 328.667 11.805 243.661 2.968c0 0-64.542-7.853-128.167 4.053-37.766 7.056-70.867 28.078-91.823 58.296C2.715 95.522-4.274 132.371 4.217 167.492c5.515 22.816 9.249 46.416 8.225 69.857-1.289 29.567-3.72 60.648 9.355 88.208 19.149 40.384 65.871 52.29 106.627 56.078 15.016 1.395 30.098 1.966 45.14 3.149 28.85 2.285 61.194-1.409 88.993-8.917 141.681-38.27 130.133-142.279 119.635-210.98Z" fill="#F4F7FA"/>
    <g id="image5-petal1">
    <path d="m151.52 297.147 28.835 26.045s18.79-9.887 21.156-26.71c4.823-34.31 34.536-27.693 47.399-26.789 19.401 1.369 34.789-5.594 27.853-25.394-7.84-22.404 26.058-32.544 57.074-25.806 30.337 6.591 59.558-43.546-4.811-63.838-38.443-12.119-60.223 20.571-75.146 34.457-14.923 13.886-38.47-5.116-47.426 20.225-7.654 21.647-5.555 44.357-24.823 46.589-19.281 2.233-31.214 13.461-30.111 41.221Z" fill="url(#a)"/>
    <g opacity=".5" fill="#BEB8F2">
    <path d="m161.58 311.1.704.425c.266-.438 27.149-43.612 66.708-78.375 36.437-32.025 91.411-63.266 146.332-30.191l.425-.704c-24.45-14.724-50.934-18.152-78.72-10.179-22.205 6.365-45.274 19.986-68.582 40.463-39.666 34.856-66.601 78.123-66.867 78.561Z"/>
    <path d="m285.534 195.929.678.465c15.654-22.364 49.114-43.997 49.446-44.21l-.438-.691c-.346.213-33.939 21.939-49.686 44.436Zm18.67-4.81c32.025 5.74 45.632 29.155 45.765 29.394l.718-.399c-.133-.239-13.913-23.985-46.337-29.792l-.146.797Zm-99.848 66.176c32.729-22.55 78.109 5.674 78.534 5.98l.532-.625c-.386-.345-46.51-28.782-79.531-6.033l.465.678Zm10.803-12.331.704.411c12.81-21.886 4.279-52.622 4.186-52.927l-.784.226c.08.319 8.518 30.709-4.106 52.29Zm-48.502 59.864c10.963-10.378 34.895-4.811 35.148-4.757l.186-.798c-.997-.239-24.611-5.727-35.892 4.957l.558.598Zm6.231-10.312.691.439c6.391-10.073 1.98-31.733.531-38.843-.199-1.009-.385-1.873-.385-2.033h-.824c0 .226.12.811.399 2.206 1.435 7.03 5.807 28.437-.412 38.231Z"/>
    </g>
    <path d="m232.538 315.418-27.041 24.424s-17.621-9.275-19.84-25.048c-4.518-32.185-32.397-25.979-44.463-25.129-18.192 1.289-32.623-5.249-26.125-23.826 7.362-21.009-24.45-30.523-53.526-24.211-28.464 6.179-55.864-40.849 4.505-59.878 36.051-11.362 56.489 19.295 70.482 32.317 13.992 13.023 36.078-4.797 44.489 18.976 7.176 20.305 5.223 41.606 23.295 43.693 18.072 2.086 29.248 12.637 28.224 38.682Z" fill="url(#b)"/>
    <g opacity=".5" fill="#BEB8F2">
    <path d="m223.09 328.507-.651.399c-.252-.412-25.474-40.902-62.575-73.512-34.178-30.045-85.737-59.333-137.256-28.317l-.399-.665c22.936-13.806 47.786-17.009 73.857-9.541 20.823 5.967 42.47 18.737 64.33 37.952 37.181 32.689 62.455 73.272 62.694 73.684Z"/>
    <path d="m106.817 220.472-.625.439c-14.684-20.983-46.058-41.274-46.377-41.473l.412-.651c.32.199 31.826 20.583 46.59 41.685Zm-17.501-4.504c-30.032 5.381-42.802 27.347-42.922 27.573l-.664-.385c.133-.226 13.063-22.498 43.453-27.946l.133.758Zm93.643 62.07c-30.696-21.155-73.272 5.315-73.658 5.608l-.491-.585c.358-.319 43.625-27.002 74.601-5.661l-.452.638Zm-10.125-11.561-.665.386c-12.013-20.531-4.013-49.354-3.933-49.646l.744.213c-.08.279-7.986 28.796 3.854 49.047Zm45.5 56.143c-10.286-9.727-32.743-4.518-32.969-4.465l-.173-.744c.944-.226 23.082-5.368 33.673 4.651l-.531.558Zm-5.848-9.674-.651.412c-6.006-9.448-1.86-29.766-.505-36.436.186-.944.359-1.754.359-1.914h.771c0 .213-.107.758-.372 2.073-1.343 6.604-5.435 26.683.398 35.865Z"/>
    </g>
    <path d="M166.057 313.73c-3.003 12.598 4.784 22.445 11.534 28.677 1.209-.306 1.98-.16 3.256-.199 11.561-.293 16.424-2.884 27.773-4.97 2.445-.452 9.208-3.947 11.879-5.555l4.93-3.083s3.322-29.606-13.222-33.34c-16.544-3.734-16.956-32.251-19.042-47.334-1.276-9.262-4.837-13.089-5.847-16.411-10.763-35.228-2.551-48.423-13.089-57.725-11.627-10.272-24.969 2.87-38.204-7.641-14.949-11.866-7.986-36.583-24.65-44.649-2.857-1.382-5.834-2.724-10.059-2.923-10.432-.492-16.983 7.096-25.873.771-17.873-12.731-42.23-12.717-52.17 7.587-9.807 20.052 14.099 48.902 61.02 65.034 32.065 15.281 33.979 21.806 35.494 38.51 1.063 11.707-3.814 44.13 15.241 51.731 19.056 7.588 34.457 17.129 31.029 31.52Z" fill="url(#c)"/>
    <g opacity=".5" fill="#FCFDFE">
    <path d="m202.892 339.151.798-.306a553.176 553.176 0 0 0-5.063-13.128c-12.81-31.906-28.371-61.34-46.244-87.491-15.149-22.165-32.158-42.284-50.562-59.811-14.804-14.099-30.59-26.591-46.908-37.142-11.482-7.415-23.096-13.806-34.537-18.989-1.993-.903-4.093-1.714-6.126-2.511-2.71-1.05-5.501-2.14-8.066-3.442l-.425.704c2.604 1.316 5.421 2.419 8.146 3.469 2.02.784 4.106 1.594 6.086 2.485 11.414 5.169 23.002 11.534 34.443 18.936 16.279 10.524 32.025 22.988 46.789 37.061 18.364 17.487 35.347 37.566 50.456 59.691 17.846 26.112 33.367 55.506 46.164 87.358a498.91 498.91 0 0 1 5.049 13.116Z"/>
    <path d="m122.617 201.244.665-.518c-21.74-26.125-21.049-84.78-21.036-85.378l-.837.026c0 .598-.704 59.532 21.208 85.87Zm53.765 78.508.731-.439c-12.491-19.52-59.107-25.168-59.572-25.221l-.146.797c.451.053 46.695 5.648 58.987 24.863Zm6.033 11.707.784-.319c-5.568-14.032-5.076-36.45 1.382-63.08.319-1.342.319-1.342.266-1.475l-.798.306.399-.16h-.412c-.013.093-.133.598-.279 1.183-6.485 26.803-6.963 49.366-1.342 63.545Zm17.382 39.706.677-.518c-10.644-12.89-36.941-12.359-37.207-12.345l-.027.797c.266-.013 26.165-.532 36.557 12.066Zm4.358 7.721c.213-13.581 4.545-27.773 13.235-43.387l-.744-.345c-8.757 15.733-13.129 30.045-13.341 43.758l.85-.026ZM63.908 148.303l.638-.545c-12.983-13.833-23.055-31.414-26.377-37.194-.798-1.396-1.09-1.887-1.223-2.047l-.664.532c.093.119.558.917 1.143 1.927 3.335 5.793 13.447 23.427 26.483 37.327Zm24.797 19.335.451-.691c-15.866-8.771-52.635 1.01-54.19 1.421l.186.771c.372-.106 37.979-10.112 53.553-1.501Z"/>
    </g>
    <path d="M229.137 301.598c-2.366-.345-12.306 20.704-18.91 4.943-1.648-3.933-3.375-17.487-20.903-18.417-3.401-.186-6.803-.359-10.205-.545-2.791-7.694-4-15.468 6.378-18.218 16.119-4.266 16.611-31.042 12.226-40.583-5.422-11.827-17.461-39.586 7.348-46.55 20.65-5.807 35.294-5.541 36.822-30.616 1.529-25.089 16.079-40.49 40.171-38.563 25.341 2.02 46.244-29.5 66.974-18.458 36.118 19.242 3.136 73.99-40.915 89.232-44.065 15.242-18.87 30.683-17.753 51.253a35.3 35.3 0 0 1-1.01 8.359c-5.223 21.354-27.68 24.663-43.998 41.938-22.272 23.56-12.239 16.797-16.225 16.225Z" fill="url(#d)"/>
    <g opacity=".5" fill="#FCFDFE">
    <path d="m210.307 286.17-1.169-.252c17.859-80.727 77.205-152.246 154.876-186.65l.518 1.024c-77.351 34.271-136.445 105.497-154.225 185.878Z"/>
    <path d="m224.035 243.009-1.196-.026c.239-32.504-29.022-58.469-29.315-58.722l.811-.823c.292.265 29.939 26.55 29.7 59.571Zm-10.019 28.411-1.05-.558c16.757-28.65 80.129-31.427 80.767-31.454l.066 1.13c-.624.027-63.332 2.764-79.783 30.882Zm53.033-97.922-1.09-.479c11.176-23.746-5.116-61.007-5.275-61.379l1.103-.425c.159.372 16.65 38.085 5.262 62.283Zm38.456-37.367-.624-.983c26.962-15.03 68.475-5.542 68.9-5.435l-.266 1.103c-.425-.107-41.473-9.488-68.01 5.315Z"/>
    </g>
    <path d="m175.173 310.475 21.009 18.976s13.687-7.203 15.414-19.455c3.508-25.009 25.168-20.185 34.537-19.52 14.139.996 25.341-4.08 20.291-18.511-5.714-16.318 18.989-23.707 41.593-18.803 22.112 4.797 43.4-31.733-3.508-46.523-28.012-8.823-43.879 14.989-54.762 25.102-10.87 10.126-28.025-3.721-34.563 14.737-5.581 15.773-4.053 32.317-18.085 33.952-14.033 1.634-22.724 9.82-21.926 30.045Z" fill="url(#e)"/>
    <g opacity=".5" fill="#BEB8F2">
    <path d="m182.508 320.64.505.319c.199-.319 19.786-31.773 48.609-57.114 26.55-23.334 66.615-46.097 106.626-21.992l.306-.518c-17.82-10.724-37.115-13.222-57.366-7.415-16.172 4.638-32.996 14.564-49.978 29.487-28.876 25.394-48.516 56.914-48.702 57.233Z"/>
    <path d="m272.829 236.711.492.345c11.401-16.292 35.785-32.065 36.025-32.224l-.319-.505c-.239.159-24.717 15.999-36.198 32.384Zm13.608-3.495c23.334 4.185 33.247 21.248 33.34 21.42l.518-.292c-.093-.173-10.139-17.474-33.765-21.713l-.093.585Zm-72.755 48.223c23.853-16.424 56.915 4.133 57.22 4.359l.386-.452c-.279-.252-33.886-20.969-57.951-4.398l.345.491Zm7.867-8.996.518.306c9.329-15.947 3.123-38.338 3.056-38.563l-.571.159c.053.226 6.206 22.378-3.003 38.098Zm-35.347 43.626c7.986-7.561 25.434-3.508 25.607-3.468l.133-.585c-.731-.173-17.926-4.173-26.152 3.614l.412.439Zm4.544-7.508.505.319c4.664-7.349 1.448-23.122.385-28.305-.146-.731-.279-1.368-.279-1.488h-.598c0 .159.08.585.293 1.608 1.05 5.129 4.225 20.716-.306 27.866Z"/>
</g>
        <path d="m234.213 323.79-19.707 17.806s-12.837-6.764-14.458-18.258c-3.295-23.454-23.613-18.936-32.397-18.311-13.262.943-23.773-3.828-19.042-17.355 5.355-15.308-17.82-22.245-39.015-17.647-20.743 4.505-40.716-29.766 3.282-43.639 26.271-8.279 41.168 14.059 51.36 23.547 10.205 9.488 26.284-3.495 32.41 13.82 5.236 14.79 3.801 30.324 16.97 31.839 13.195 1.541 21.341 9.222 20.597 28.198Z" fill="url(#f)"/>
        <g opacity=".5" fill="#BEB8F2">
            <path d="m227.328 333.318-.478.292c-.186-.292-18.564-29.806-45.592-53.566-24.916-21.886-62.483-43.24-100.022-20.637l-.293-.478c16.704-10.059 34.816-12.411 53.818-6.963 15.176 4.345 30.949 13.66 46.882 27.653 27.095 23.84 45.513 53.406 45.685 53.699Z"/>
            <path d="m142.601 254.597-.465.319c-10.697-15.282-33.566-30.072-33.792-30.218l.305-.478c.226.146 23.189 15.002 33.952 30.377Zm-12.756-3.282c-21.886 3.92-31.188 19.933-31.281 20.092l-.492-.279c.093-.159 9.515-16.398 31.667-20.371l.106.558Zm68.249 45.233c-22.364-15.414-53.393 3.881-53.672 4.093l-.359-.425c.266-.239 31.786-19.667 54.363-4.119l-.332.451Zm-7.389-8.424-.478.279c-8.757-14.963-2.923-35.972-2.857-36.171l.545.159c-.067.199-5.834 20.983 2.79 35.733Zm33.155 40.915c-7.494-7.096-23.852-3.296-24.025-3.256l-.133-.545c.678-.159 16.823-3.907 24.531 3.389l-.373.412Zm-4.252-7.043-.479.305c-4.372-6.883-1.355-21.686-.358-26.55.146-.691.265-1.275.265-1.395h.558c0 .159-.079.545-.279 1.502-.983 4.797-3.96 19.427.293 26.138Z"/>
        </g>
        <path d="M185.764 322.554c-2.193 9.169 3.481 16.345 8.411 20.903.877-.213 1.436-.12 2.379-.147 8.425-.212 11.973-2.099 20.238-3.627 1.781-.333 6.711-2.884 8.664-4.053l3.602-2.246s2.418-21.58-9.635-24.291c-12.052-2.724-12.358-23.507-13.873-34.497-.93-6.75-3.521-9.541-4.265-11.96-7.84-25.673-1.861-35.28-9.541-42.071-8.478-7.481-18.192 2.087-27.84-5.567-10.896-8.651-5.82-26.657-17.965-32.531-2.087-1.009-4.253-1.979-7.322-2.126-7.601-.358-12.372 5.17-18.857.558-13.022-9.275-30.776-9.275-38.018 5.528-7.149 14.618 10.272 35.64 44.477 47.387 23.361 11.136 24.756 15.893 25.859 28.065.77 8.531-2.778 32.158 11.109 37.699 13.86 5.542 25.088 12.491 22.577 22.976Z" fill="url(#g)"/>
        <g opacity=".5" fill="#FCFDFE">
            <path d="m212.62 341.078.585-.226a406.37 406.37 0 0 0-3.695-9.567c-9.341-23.242-20.676-44.703-33.699-63.758-11.029-16.146-23.427-30.816-36.849-43.586-10.79-10.272-22.284-19.375-34.177-27.069-8.359-5.408-16.837-10.059-25.169-13.833-1.448-.664-2.976-1.249-4.465-1.82-1.966-.771-4.013-1.555-5.886-2.512l-.306.518c1.9.957 3.947 1.754 5.94 2.525 1.475.571 2.99 1.156 4.438 1.807 8.319 3.761 16.757 8.399 25.102 13.794 11.867 7.667 23.334 16.756 34.098 27.002 13.382 12.743 25.753 27.374 36.769 43.493 12.996 19.029 24.318 40.45 33.646 63.651a683.894 683.894 0 0 1 3.668 9.581Z"/>
            <path d="m154.124 240.578.491-.372c-15.839-19.029-15.334-61.778-15.321-62.216l-.611.026c-.027.439-.532 43.387 15.441 62.562Zm39.162 57.22.531-.319c-9.102-14.219-43.067-18.338-43.413-18.378l-.106.571c.345.04 34.045 4.12 42.988 18.126Zm4.411 8.531.572-.226c-4.053-10.232-3.694-26.55 1.01-45.965.239-.97.239-.97.199-1.076l-.571.226.292-.106h-.306c-.013.066-.093.438-.199.863-4.744 19.508-5.103 35.945-.997 46.284Zm12.664 28.929.492-.372c-7.747-9.395-26.922-8.996-27.108-8.996l-.014.584c.173-.013 19.056-.398 26.63 8.784Zm3.175 5.634c.16-9.9 3.309-20.238 9.648-31.613l-.532-.252c-6.378 11.468-9.567 21.899-9.714 31.892l.598-.027Zm-102.2-138.877.466-.399c-9.462-10.086-16.81-22.896-19.216-27.108-.584-1.023-.797-1.382-.89-1.488l-.478.385c.066.08.412.664.824 1.408 2.431 4.213 9.793 17.076 19.294 27.202Zm18.072 14.086.332-.505c-11.561-6.392-38.35.73-39.493 1.036l.133.558c.279-.08 27.68-7.362 39.028-1.089Z"/>
        </g>
        <path d="M231.741 313.717c-1.728-.252-8.97 15.083-13.781 3.602-1.209-2.871-2.458-12.744-15.228-13.422l-7.442-.398c-2.033-5.608-2.91-11.269 4.651-13.275 11.747-3.11 12.106-22.617 8.904-29.58-3.947-8.611-12.717-28.85 5.355-33.926 15.042-4.225 25.713-4.039 26.829-22.311 1.116-18.285 11.721-29.5 29.275-28.105 18.47 1.475 33.699-21.501 48.795-13.461 26.324 14.019 2.285 53.911-29.82 65.02-32.104 11.109-13.753 22.364-12.943 37.354 0 1.395-.119 3.561-.73 6.086-3.801 15.561-20.172 17.966-32.065 30.563-16.212 17.195-8.904 12.265-11.8 11.853Z" fill="url(#h)"/>
        <g opacity=".5" fill="#FCFDFE">
            <path d="m218.015 302.475-.851-.186c13.009-58.828 56.263-110.945 112.859-136.02l.385.744c-56.37 24.982-99.437 76.887-112.393 135.462Z"/>
            <path d="m228.021 271.022-.877-.014c.173-23.693-21.142-42.602-21.368-42.788l.585-.598c.226.186 21.833 19.347 21.66 43.4Zm-7.295 20.703-.771-.412c12.212-20.876 58.389-22.896 58.854-22.923l.054.824c-.465.027-46.164 2.02-58.137 22.511Zm38.643-71.359-.798-.345c8.146-17.315-3.734-44.463-3.853-44.729l.797-.306c.133.266 12.146 27.747 3.854 45.38Zm28.012-27.228-.452-.718c19.64-10.949 49.898-4.039 50.203-3.959l-.199.797c-.292-.067-30.205-6.91-49.552 3.88Z"/>
        </g>
    </g>





    <path d="M261.574 316.588c-.558-.691-16.304-.373-36.436.332-7.721-.651-16.279-.877-25.302-.572-10.391.346-20.198 1.342-28.849 2.818-19.069.877-33.579 1.594-33.579 1.594s-2.18 14.644.89 17.315h.013c5.688 7.402 31.241 12.185 61.685 11.043 33.5-1.263 60.515-9.249 61.632-18.006h.053s1.461-12.571-.107-14.524Z" fill="url(#i)"/>
    <path d="M262.252 318.222c.067 8.97-27.56 17.248-61.977 18.484-34.736 1.249-63.16-5.129-63.186-14.245-.027-9.116 28.331-17.408 63.027-18.497 34.39-1.103 62.07 5.288 62.136 14.258Z" fill="url(#j)"/>
    <path d="M251.501 304.309c-.479-.598-13.767-.359-30.723.212-6.498-.571-13.714-.784-21.315-.544-8.743.279-16.995 1.116-24.278 2.365a6120.994 6120.994 0 0 0-28.211 1.302s-1.834 12.571.744 14.87h.014c4.783 6.365 26.258 10.551 51.864 9.634 28.225-.997 51.001-7.813 51.945-15.335h.053s1.236-10.83-.093-12.504Z" fill="url(#k)"/>
    <path d="M252.392 305.704c.053 7.721-23.308 14.79-52.396 15.774-29.315.996-53.26-4.545-53.287-12.385-.027-7.827 23.866-14.896 53.14-15.787 29.062-.877 52.49 4.678 52.543 12.398Z" fill="url(#l)"/>
    <path d="M230.586 301.558c.013 2.99-13.555 5.847-30.378 6.379-5.235.172-10.165.093-14.471-.186-9.634-.612-16.198-2.206-16.212-4.279 0-.731.811-1.236 2.273-1.914 11.228-8.597 10.657-53.725 10.657-53.725l35.108-.85s-.186 48.649 12.398 53.565c0 0-.053-.093-.133-.053.505.385.758.665.758 1.063Z" fill="url(#m)"/>
    <path opacity=".3" d="M185.751 307.764c-9.634-.611-16.199-2.206-16.212-4.279 0-.731.811-1.236 2.272-1.914 11.229-8.597 10.658-53.725 10.658-53.725l7.361-.172c4.944.478 9.807 2.511 10.605 5.581-.014 0 3.096 51.612-14.684 54.509Z" fill="url(#n)"/>
    <path d="m248.83 202.055 4.319-.08c18.285-.332 34.483-12.145 40.37-29.474l21.806-64.276c1.276-3.774.678-7.787-1.674-11.042-2.272-3.163-5.94-4.97-10.073-4.957-.093 0-.186.013-.292.013l-51.001 2.153c-4.132.173-7.335 3.654-7.149 7.761.186 4.106 3.694 7.308 7.827 7.109l47.107-2.086-20.663 60.648c-3.867 11.348-14.471 19.082-26.391 19.268l-4.319.067c-4.159.066-7.508 3.428-7.481 7.574.066 4.159 3.455 7.402 7.614 7.322Z" fill="url(#o)"/>
    <path d="M278.371 74.659s0 1.834-.08 5.102c0 .4-.013.811-.026 1.25-.705 26.271-6.153 127.382-48.476 161.042-3.07 2.445-5.847 4.531-9.302 6.205-5.595 2.711-12.305 4.372-17.98 4.744v.027c-1.421.027-.916.013-1.182.013a56.18 56.18 0 0 1-1.183.04v-.026c-69.937-.346-79.332-139.688-80.528-171.687-.106-2.883-.358-4.903-.385-5.873a2.05 2.05 0 0 0-.12-.678l79.332-.226h2.259l77.671.067Z" fill="url(#p)"/>
    <path opacity=".4" d="M220.487 248.259c-5.595 2.711-12.305 4.372-17.98 4.744v.026c-1.421.027-.917.013-1.182.013a56.18 56.18 0 0 1-1.183.04v-.026c-69.937-.346-79.332-139.688-80.528-171.687-.531-.132-1.262-.265-1.741-.398-.239-.067-.624-.146-.903-.226-.385-3.867-.638-6.02-.638-6.02l2.711.784 23.56 6.724s.04.984.16 2.778c1.142 18.683 9.089 125.987 34.775 134.837 23.893 8.212 21.302 28.61 42.949 28.411Z" fill="url(#q)"/>
    <path d="m142.125 194.321-4.452.079c-12.345.213-23.454-7.388-27.6-18.869l-22.351-61.858 44.144 1.396s11.614-5.196.943-15.11l-48.635-1.634h-.306c-4.372.013-8.265 1.914-10.657 5.209-2.472 3.389-3.083 7.575-1.674 11.455l23.786 65.777c6.378 17.594 23.441 29.142 42.403 28.783l4.452-.08c4.279-.079 7.734-3.494 7.72-7.694-.026-4.225-3.494-7.521-7.773-7.454Z" fill="url(#r)"/>
    <path d="M278.303 79.761c0 .4-.013.811-.026 1.25-.704 26.271-6.153 127.382-48.476 161.042 37.672-34.098 36.716-165.255 36.716-165.255l11.786 2.963Z" fill="#fff" opacity=".4"/>
    <path d="M291.327 69.622c.067 7.615-8.584 10.113-11.853 11.056-.398.107-.797.226-1.209.333-4.478 1.182-10.485 2.245-17.9 3.149-16.211 1.993-37.805 3.123-60.887 3.19-20.876.052-40.782-.771-56.728-2.353a240.305 240.305 0 0 1-5.196-.558c-7.548-.877-13.714-1.9-18.365-3.07a36.456 36.456 0 0 1-1.528-.412c-.239-.066-.518-.146-.797-.225-3.854-1.117-11.707-3.8-11.72-11.07-.014-7.8 9.062-10.338 12.477-11.282 4.798-1.328 11.468-2.498 19.867-3.481 16.663-1.953 38.642-2.99 61.817-2.937 23.056.053 44.636 1.156 60.848 3.136 8.106.984 14.537 2.166 19.148 3.468 3.283.957 11.96 3.442 12.026 11.056Z" fill="url(#s)"/>
    <path d="M283.886 65.928c.026 3.535-37.553 6.432-84.488 6.458-47.519.027-86.494-2.883-86.507-6.498 0-3.614 38.935-6.511 86.441-6.458 46.908.053 84.527 2.964 84.554 6.498Z" fill="url(#t)"/>
    <path opacity=".3" d="M283.886 65.928c.026 3.535-37.553 6.432-84.488 6.458-47.519.027-86.494-2.883-86.507-6.498 0-3.614 38.935-6.511 86.441-6.458 46.908.053 84.527 2.964 84.554 6.498Z" fill="url(#u)"/>


    <path id="image5-1" d="m212.525 81.994 5.435 3.84s.133-11.933 13.434-15.64c13.302-3.694 22.405-8.637 20.053-18.963l-13.913-5.116s-2.273 13.608-11.614 16c-15.747 4.026-13.395 19.88-13.395 19.88Z" fill="url(#v)"/>
    <path id="image5-2" d="M232.351 91.15c-.319-6.02.226-13.555 4.984-16.837 4.664-3.216 9.833.093 17.367-1.555 4.93-1.076 11.455-4.398 18.033-14.51l11.322 22.842c-11.654 8.585-19.176 9.01-24.039 7.442-5.807-1.86-8.704-6.83-13.461-6.02-4.412.758-7.242 5.967-8.983 10.418a765.901 765.901 0 0 1-5.223-1.78Z" fill="url(#w)"/>
    <path id="image5-3" d="M262.796 58.394c-1.502-3.335-2.857-7.707-.891-10.604 1.927-2.844 5.568-2.113 9.462-4.704 2.551-1.688 5.501-4.997 6.989-12.16 3.801 3.469 7.615 6.937 11.415 10.406-4.691 7.414-8.837 9.301-11.933 9.487-3.694.226-6.418-1.94-8.916-.438-2.326 1.395-2.778 4.957-2.778 7.853l-3.348.16Z" fill="url(#x)"/>
    <path id="image5-4" d="M285.053 70.327c-2.79-3.787 1.767-12.837 7.282-18.378 10.166-10.219 20.491-5.501 29.766-14.325 2.552-2.432 5.329-6.179 7.096-12.199.944-3.202 5.076-4.08 7.256-1.554 4.624 5.342 9.248 10.684 13.859 16.026-2.484 15.36-7.787 20.676-12.238 22.67-9.608 4.292-19.069-5.236-32.636-1.29-7.376 2.14-12.399 7.23-15.442 11.07-1.794-.093-3.853-.518-4.943-2.02Z" fill="url(#y)"/>
    <path id="image5-5" d="M258.264 33.133c2.937-2.06 7.681-2.512 9.036-.465 1.236 1.873-.638 5.355-2.644 7.202-3.043 2.817-8.399 3.734-9.927 1.714-1.435-1.873.492-6.312 3.535-8.451Z" fill="url(#z)"/>
    <path id="image5-6" d="M320.507 73.357c3.242 1.541 5.966 5.435 4.85 7.627-1.023 1.993-4.97 2.087-7.575 1.25-3.946-1.263-7.388-5.462-6.391-7.801.943-2.153 5.754-2.671 9.116-1.076Z" fill="url(#A)"/>
    <path id="image5-7" d="M193.868 81.223c-.026-4.292 2.658-9.328 5.502-9.302 2.591.014 4.664 4.2 5.103 7.442.664 4.903-1.967 10.87-4.904 11.043-2.724.146-5.674-4.731-5.701-9.183Z" fill="#fff"/>

    <path id="image5-7" d="M216.592 46.448c2.937-2.06 7.681-2.512 9.036-.465 1.236 1.873-.638 5.355-2.644 7.202-3.043 2.817-8.399 3.734-9.927 1.714-1.435-1.874.492-6.312 3.535-8.451Z" fill="url(#B)"/>
    <defs><linearGradient id="a" x1="354.105" y1="175.437" x2="149.365" y2="286.72" gradientUnits="userSpaceOnUse"><stop offset=".004" stop-color="#E38DDD"/><stop offset="1" stop-color="#9571F6"/></linearGradient><linearGradient id="b" x1="42.501" y1="201.25" x2="234.55" y2="305.635" gradientUnits="userSpaceOnUse"><stop offset=".004" stop-color="#E38DDD"/><stop offset="1" stop-color="#9571F6"/></linearGradient><linearGradient id="c" x1="50.036" y1="99.217" x2="258.201" y2="364.683" gradientUnits="userSpaceOnUse"><stop stop-color="#FF9085"/><stop offset="1" stop-color="#FB6FBB"/></linearGradient><linearGradient id="d" x1="315.119" y1="103.714" x2="190.908" y2="299.834" gradientUnits="userSpaceOnUse"><stop stop-color="#AA80F9"/><stop offset=".996" stop-color="#6165D7"/></linearGradient><linearGradient id="e" x1="322.801" y1="221.782" x2="173.607" y2="302.874" gradientUnits="userSpaceOnUse"><stop offset=".004" stop-color="#E38DDD"/><stop offset="1" stop-color="#9571F6"/></linearGradient><linearGradient id="f" x1="95.735" y1="240.592" x2="235.682" y2="316.658" gradientUnits="userSpaceOnUse"><stop offset=".004" stop-color="#E38DDD"/><stop offset="1" stop-color="#9571F6"/></linearGradient><linearGradient id="g" x1="101.227" y1="166.242" x2="252.917" y2="359.686" gradientUnits="userSpaceOnUse"><stop stop-color="#FF9085"/><stop offset="1" stop-color="#FB6FBB"/></linearGradient><linearGradient id="h" x1="294.391" y1="169.518" x2="203.879" y2="312.431" gradientUnits="userSpaceOnUse"><stop stop-color="#AA80F9"/><stop offset=".996" stop-color="#6165D7"/></linearGradient><linearGradient id="i" x1="173.814" y1="363.369" x2="224.429" y2="290.704" gradientUnits="userSpaceOnUse"><stop stop-color="#FFDB44"/><stop offset="1" stop-color="#FEEF06"/></linearGradient><linearGradient id="j" x1="176.903" y1="353.038" x2="222.441" y2="287.661" gradientUnits="userSpaceOnUse"><stop stop-color="#FCB148"/><stop offset=".052" stop-color="#FDBA46"/><stop offset=".142" stop-color="#FFC244"/><stop offset=".318" stop-color="#FFC444"/><stop offset=".485" stop-color="#FDB946"/><stop offset=".775" stop-color="#F99C4D"/><stop offset=".866" stop-color="#F8924F"/><stop offset="1" stop-color="#F8924F"/></linearGradient><linearGradient id="k" x1="177.576" y1="343.819" x2="220.262" y2="282.538" gradientUnits="userSpaceOnUse"><stop stop-color="#FFDB44"/><stop offset="1" stop-color="#FEEF06"/></linearGradient><linearGradient id="l" x1="180.323" y1="335.007" x2="218.773" y2="279.807" gradientUnits="userSpaceOnUse"><stop stop-color="#FCB148"/><stop offset=".052" stop-color="#FDBA46"/><stop offset=".142" stop-color="#FFC244"/><stop offset=".318" stop-color="#FFC444"/><stop offset=".485" stop-color="#FDB946"/><stop offset=".775" stop-color="#F99C4D"/><stop offset=".866" stop-color="#F8924F"/><stop offset="1" stop-color="#F8924F"/></linearGradient><linearGradient id="m" x1="180.721" y1="311.931" x2="223.211" y2="250.93" gradientUnits="userSpaceOnUse"><stop stop-color="#FCB148"/><stop offset=".052" stop-color="#FDBA46"/><stop offset=".142" stop-color="#FFC244"/><stop offset=".318" stop-color="#FFC444"/><stop offset=".485" stop-color="#FDB946"/><stop offset=".775" stop-color="#F99C4D"/><stop offset=".866" stop-color="#F8924F"/><stop offset="1" stop-color="#F8924F"/></linearGradient><linearGradient id="n" x1="199.567" y1="299.262" x2="169.868" y2="256.623" gradientUnits="userSpaceOnUse"><stop stop-color="#FCB148"/><stop offset=".052" stop-color="#FDBA46"/><stop offset=".142" stop-color="#FFC244"/><stop offset=".318" stop-color="#FFC444"/><stop offset=".485" stop-color="#FDB946"/><stop offset=".775" stop-color="#F99C4D"/><stop offset=".866" stop-color="#F8924F"/><stop offset="1" stop-color="#F8924F"/></linearGradient><linearGradient id="o" x1="231.533" y1="191.766" x2="303.105" y2="89.014" gradientUnits="userSpaceOnUse"><stop stop-color="#FCB148"/><stop offset=".052" stop-color="#FDBA46"/><stop offset=".142" stop-color="#FFC244"/><stop offset=".318" stop-color="#FFC444"/><stop offset=".485" stop-color="#FDB946"/><stop offset=".775" stop-color="#F99C4D"/><stop offset=".866" stop-color="#F8924F"/><stop offset="1" stop-color="#F8924F"/></linearGradient><linearGradient id="p" x1="383.255" y1="389.567" x2="121.187" y2="13.331" gradientUnits="userSpaceOnUse"><stop stop-color="#FCB148"/><stop offset=".052" stop-color="#FDBA46"/><stop offset=".142" stop-color="#FFC244"/><stop offset=".318" stop-color="#FFC444"/><stop offset=".485" stop-color="#FDB946"/><stop offset=".775" stop-color="#F99C4D"/><stop offset=".866" stop-color="#F8924F"/><stop offset="1" stop-color="#F8924F"/></linearGradient><linearGradient id="q" x1="216.325" y1="251.158" x2="100.908" y2="85.46" gradientUnits="userSpaceOnUse"><stop stop-color="#FCB148"/><stop offset=".052" stop-color="#FDBA46"/><stop offset=".142" stop-color="#FFC244"/><stop offset=".318" stop-color="#FFC444"/><stop offset=".485" stop-color="#FDB946"/><stop offset=".775" stop-color="#F99C4D"/><stop offset=".866" stop-color="#F8924F"/><stop offset="1" stop-color="#F8924F"/></linearGradient><linearGradient id="r" x1="156.027" y1="201.435" x2="82.66" y2="96.106" gradientUnits="userSpaceOnUse"><stop stop-color="#FCB148"/><stop offset=".052" stop-color="#FDBA46"/><stop offset=".142" stop-color="#FFC244"/><stop offset=".318" stop-color="#FFC444"/><stop offset=".485" stop-color="#FDB946"/><stop offset=".775" stop-color="#F99C4D"/><stop offset=".866" stop-color="#F8924F"/><stop offset="1" stop-color="#F8924F"/></linearGradient><linearGradient id="s" x1="198.705" y1="57.618" x2="182.241" y2="479.694" gradientUnits="userSpaceOnUse"><stop stop-color="#FFDB44"/><stop offset="1" stop-color="#FEEF06"/></linearGradient><linearGradient id="t" x1="331.486" y1="256.985" x2="203.064" y2="72.617" gradientUnits="userSpaceOnUse"><stop stop-color="#FCB148"/><stop offset=".052" stop-color="#FDBA46"/><stop offset=".142" stop-color="#FFC244"/><stop offset=".318" stop-color="#FFC444"/><stop offset=".482" stop-color="#FEB946"/><stop offset=".603" stop-color="#FCAE49"/><stop offset=".866" stop-color="#F8924F"/><stop offset="1" stop-color="#F8924F"/></linearGradient><linearGradient id="u" x1="331.486" y1="256.985" x2="203.064" y2="72.617" gradientUnits="userSpaceOnUse"><stop stop-color="#FCB148"/><stop offset=".052" stop-color="#FDBA46"/><stop offset=".142" stop-color="#FFC244"/><stop offset=".318" stop-color="#FFC444"/><stop offset=".485" stop-color="#FDB946"/><stop offset=".775" stop-color="#F99C4D"/><stop offset=".866" stop-color="#F8924F"/><stop offset="1" stop-color="#F8924F"/></linearGradient><linearGradient id="v" x1="209.336" y1="71.681" x2="253.545" y2="57.99" gradientUnits="userSpaceOnUse"><stop stop-color="#FF9085"/><stop offset="1" stop-color="#FB6FBB"/></linearGradient><linearGradient id="w" x1="232.27" y1="75.592" x2="284.052" y2="75.592" gradientUnits="userSpaceOnUse"><stop stop-color="#AA80F9"/><stop offset=".996" stop-color="#6165D7"/></linearGradient><linearGradient id="x" x1="272.122" y1="36.36" x2="290.738" y2="98.862" gradientUnits="userSpaceOnUse"><stop offset=".004" stop-color="#E38DDD"/><stop offset="1" stop-color="#9571F6"/></linearGradient><linearGradient id="y" x1="319.253" y1="29.323" x2="306.651" y2="182.1" gradientUnits="userSpaceOnUse"><stop stop-color="#FF9085"/><stop offset="1" stop-color="#FB6FBB"/></linearGradient><linearGradient id="z" x1="260.867" y1="33.114" x2="261.737" y2="65.216" gradientUnits="userSpaceOnUse"><stop stop-color="#AA80F9"/><stop offset=".996" stop-color="#6165D7"/></linearGradient><linearGradient id="A" x1="321.803" y1="75.609" x2="294.3" y2="92.188" gradientUnits="userSpaceOnUse"><stop stop-color="#AA80F9"/><stop offset=".996" stop-color="#6165D7"/></linearGradient><linearGradient id="B" x1="219.193" y1="46.428" x2="220.063" y2="78.53" gradientUnits="userSpaceOnUse"><stop offset=".004" stop-color="#E38DDD"/><stop offset="1" stop-color="#9571F6"/></linearGradient></defs></svg>