<svg width="361" height="364" fill="none" xmlns="http://www.w3.org/2000/svg">
    <style>
        #image1-coin1{
            animation: move1 5s  ease-in-out infinite;
        opacity:0;
        }
        #image1-coin2{
        animation: move1 5s .5s ease-in-out infinite;
        opacity:0;
        }

        #image1-petal1{
        animation: move2 5s  ease-in-out infinite;
        }
        #image1-petal2{
        animation: move3 5s 1s ease-in-out infinite;
        }
        #image1-gearbox1{
        animation: move4 5s 1s ease-in-out infinite;
        }

        #num9-3{
        animation: opacity1 1s ease-in-out 1 alternate;
        }
        #num9-2{
        animation: opacity1 1s ease-in-out 1 alternate;
        }
        #num9-1{
        animation: opacity1 1s ease-in-out 1 alternate;
        }

        @keyframes opacity1 {
        0% {
        opacity:.3;
        }
        100%{
        opacity:1;
        }
        }


        @keyframes move1 {
        0% {
        transform: translate3d(0, 0, 0);
        opacity:0;
        }
        50% {
        transform: translate3d(10px, -20px, 0);
        opacity:1;
        }
        100%{
        opacity:0;
        transform: translate3d(-20px, -250px, 0);
        }
        }
        @keyframes move2 {
        0% {
        transform: translate3d(0, 0, 0);
        }
        50% {
        transform: translate3d(9px, -5px, 0);
        }
        100%{
        transform: translate3d(0, 0, 0);
        }
        }
        @keyframes move3 {
        0% {
        transform: translate3d(0, 0, 0);
        }
        50% {
        transform: translate3d(-9px, 6px, 0);
        }
        100%{
        transform: translate3d(0, 0, 0);
        }
        }
        @keyframes move4 {
        0% {
        transform: rotate(0deg);
        transform-origin:center;
        }
        100%{
        transform: rotate(360deg);
        }
        }

    </style>

    <path d="M244.659 8.587c-26.941-6.011-54.952-8.891-82.339-7.055-24.274 1.627-51.789 6.07-71.323 21.982-9.308 7.583-20.41 21.209-23.455 33.23 0 0-16.028 63.272-48.083 76.83-32.055 13.559-54.315 244.955 188.77 222.358 0 0 142.774-5.922 151.371-176.481 2.076-41.203.916-86.497-23.962-120.95-19.064-26.4-45.776-38.138-76.47-46.352a352.647 352.647 0 0 0-14.509-3.562Z" fill="#F4F7FA"/>
    <g id="image1-gearbox1">
    <path d="M309.68 92.663c3.736.315 7.04-2.71 7.381-6.754.34-4.045-2.411-7.578-6.147-7.893a6.242 6.242 0 0 0-.575-.016 42.609 42.609 0 0 0-.973-6.124c.177-.073.354-.148.528-.239 3.406-1.749 4.891-6.135 3.318-9.796-1.572-3.66-5.608-5.208-9.013-3.459a7.391 7.391 0 0 0-.515.3 38.837 38.837 0 0 0-3.684-4.73c.124-.161.246-.325.359-.5 2.163-3.346 1.431-7.918-1.633-10.212-3.065-2.295-7.302-1.443-9.465 1.902a7.614 7.614 0 0 0-.305.526 34.413 34.413 0 0 0-5.406-2.068 8.27 8.27 0 0 0 .082-.619c.341-4.045 1.077-8.61-2.663-8.867-8.651-.591-10.524 3.684-10.864 7.728-.018.21-.022.416-.023.622-1.934.22-3.831.6-5.676 1.135a8.218 8.218 0 0 0-.212-.57c-1.573-3.66-1.289-6.1-4.864-4.73-7.795 2.991-9.041 7.408-7.469 11.067.083.191.175.373.27.553a38.88 38.88 0 0 0-4.422 4.048 6.675 6.675 0 0 0-.457-.383c-3.064-2.294-7.302-1.442-9.465 1.903-2.163 3.346-1.431 7.918 1.634 10.212a6.2 6.2 0 0 0 .481.322 42.475 42.475 0 0 0-1.984 5.875 6.03 6.03 0 0 0-.57-.08c-3.736-.314-7.04 2.71-7.381 6.755-.341 4.045 2.412 7.579 6.147 7.893.194.017.386.018.576.017a42.48 42.48 0 0 0 .972 6.124 6.82 6.82 0 0 0-.528.236c-3.406 1.751-4.89 6.136-3.318 9.797 1.572 3.66 5.608 5.208 9.013 3.459.178-.092.348-.194.514-.299a38.899 38.899 0 0 0 3.684 4.73c-.124.16-.246.324-.359.5-2.163 3.345-1.431 7.918 1.632 10.213 3.065 2.294 9.698 1.245 11.861-2.101.111-.172-2.187-.151-2.092-.328a34.4 34.4 0 0 0 5.406 2.068 8.303 8.303 0 0 0-.081.619c-.341 4.045 2.411 7.578 6.147 7.893 3.736.314 7.04-2.71 7.381-6.755.018-.209.022-.416.023-.622a34.49 34.49 0 0 0 5.676-1.134c.065.191.132.381.212.57 1.573 3.66 5.609 5.208 9.013 3.458 3.405-1.75 4.891-6.136 3.318-9.795a7.642 7.642 0 0 0-.269-.553 38.817 38.817 0 0 0 4.421-4.047c.148.132.297.262.458.382 3.064 2.294 7.301 1.442 9.465-1.903 2.163-3.346 1.431-7.918-1.634-10.212a6.555 6.555 0 0 0-.481-.322 42.471 42.471 0 0 0 1.983-5.875c.191.033.38.063.573.08Zm-38.405 16.169c-13.562-1.142-23.554-13.972-22.317-28.658 1.237-14.685 13.234-25.664 26.796-24.52 13.563 1.142 23.555 13.972 22.317 28.657-1.236 14.684-13.234 25.663-26.796 24.521Z" fill="#BFC6D1"/>
    <path d="M309.895 71.638c3.406-1.75 4.89-6.136 3.318-9.797-1.573-3.66-5.609-5.208-9.013-3.459a6.955 6.955 0 0 0-.515.3 38.73 38.73 0 0 0-3.683-4.73 7.51 7.51 0 0 0 .359-.501c2.163-3.345 3.825-9.98.541-11.95-6.232-3.735-9.475.295-11.638 3.64a7.906 7.906 0 0 0-.305.524 34.28 34.28 0 0 0-5.406-2.066 8.27 8.27 0 0 0 .082-.619c.186-2.201-.55-4.246-1.857-5.709a1102.236 1102.236 0 0 0-2.339 18.991c11.64 2.93 19.757 14.724 18.634 28.044-.951 11.287-8.261 20.378-17.75 23.465.022 1.234.054 2.47.042 3.707-.03 3.352-.248 6.712-.47 10.068a34.028 34.028 0 0 0 2.729-.667c.065.191.132.381.212.569 1.573 3.661 5.087 5.885 11.352 2.945 3.466-1.626 2.553-5.621.981-9.282a7.844 7.844 0 0 0-.27-.552 38.827 38.827 0 0 0 4.422-4.048 7 7 0 0 0 .457.382c3.064 2.296 9.94 1.007 12.102-2.339 2.163-3.346-1.206-7.481-4.271-9.775a6.348 6.348 0 0 0-.481-.322 42.475 42.475 0 0 0 1.984-5.875c.188.033.377.064.57.079 3.736.314 7.04-2.71 7.381-6.755.341-4.044-2.412-7.578-6.147-7.892a6.254 6.254 0 0 0-.576-.017 42.469 42.469 0 0 0-.972-6.124c.175-.07.352-.145.527-.235Z" fill="#BFC6D1"/>
    <path d="M313.165 91.69c3.736.314 7.04-2.71 7.381-6.755.34-4.045-2.411-7.578-6.147-7.893a6.171 6.171 0 0 0-.575-.016 42.607 42.607 0 0 0-.973-6.124c.177-.073.354-.148.528-.239 3.406-1.749 4.891-6.135 3.318-9.794-1.572-3.661-5.608-5.21-9.013-3.46a7.414 7.414 0 0 0-.516.3 38.738 38.738 0 0 0-3.683-4.73c.124-.162.246-.325.359-.5 2.163-3.346 1.431-7.919-1.633-10.213-3.065-2.295-7.302-1.443-9.466 1.902-.11.172-.208.347-.304.526a34.46 34.46 0 0 0-5.406-2.068c.033-.204.064-.409.082-.619.341-4.045-2.412-7.578-6.147-7.892-3.736-.315-7.04 2.709-7.381 6.754a7.66 7.66 0 0 0-.023.623c-1.934.22-3.831.6-5.676 1.133a8.252 8.252 0 0 0-.213-.57c-1.572-3.66-5.608-5.208-9.013-3.459-3.406 1.75-4.89 6.136-3.318 9.796.083.191.175.373.27.553a38.878 38.878 0 0 0-4.422 4.047 7.16 7.16 0 0 0-.457-.381c-3.065-2.295-7.302-1.443-9.465 1.902-2.163 3.346-1.431 7.918 1.634 10.212a6.2 6.2 0 0 0 .481.322 42.475 42.475 0 0 0-1.984 5.875 6.486 6.486 0 0 0-.57-.08c-3.736-.315-7.04 2.709-7.381 6.754-.341 4.045 2.411 7.578 6.147 7.893.194.016.386.017.575.016.179 2.09.505 4.136.973 6.124a6.375 6.375 0 0 0-.528.239c-3.406 1.749-4.891 6.135-3.318 9.796 1.572 3.66 5.608 5.208 9.013 3.458.178-.092.348-.194.514-.3a38.745 38.745 0 0 0 3.684 4.73 7.41 7.41 0 0 0-.359.501c-2.164 3.344-1.431 7.918 1.633 10.212 3.065 2.295 7.302 1.443 9.465-1.902.111-.172.209-.348.305-.526a34.424 34.424 0 0 0 5.406 2.068 8.303 8.303 0 0 0-.082.619c-.341 4.045 2.412 7.578 6.147 7.892 3.736.315 7.04-2.709 7.381-6.754.018-.209.022-.416.023-.623a34.384 34.384 0 0 0 5.676-1.133c.065.191.132.381.213.569 1.572 3.661 5.608 5.209 9.013 3.46 3.404-1.75 4.89-6.136 3.318-9.795a8.09 8.09 0 0 0-.27-.553 38.91 38.91 0 0 0 4.422-4.047c.147.132.298.261.457.382 3.064 2.294 7.302 1.443 9.465-1.903 2.163-3.346 1.431-7.918-1.634-10.212a6.348 6.348 0 0 0-.481-.322 42.608 42.608 0 0 0 1.984-5.875c.188.033.378.063.571.08Zm-38.405 16.168c-13.562-1.142-23.554-13.973-22.317-28.658 1.236-14.685 13.234-25.664 26.796-24.52 13.562 1.142 23.555 13.972 22.317 28.657-1.237 14.684-13.234 25.663-26.796 24.521Z" fill="#D8DEE8"/>
    </g>
    <g id="image1-petal1">
        <path d="M176.109 101.446c-35.235 24.611-59.112 74.202-32.863 94.806 23.199 18.209 14.346 43.782-5.32 62.857-9.787 9.494-31.332 25.03-31.265 53.187-1.753-.267 16.306 45.109 14.528 45.58-7.931 2.102-23.684-4.661-24.049 5.724l-47.102-19.321c1.156-11.008 5.453-21.159 12.129-30.693 16.525-23.603-4.495-50.794-15.317-87.077-12.67-42.475 25.714-43.156 28.329-77.2 2.615-34.043-3.96-99.817 42.878-125.44 78.43-42.904 92.533 53.491 58.052 77.577Z" fill="url(#a)"/><path d="m202.719 36.718-.184-1.366c-35.668 7.196-63.821 31.233-83.678 71.441a227.473 227.473 0 0 0-6.847 15.313c-3.269-45.667 10.172-107.963 10.31-108.596l-1.001-.419c-.14.644-14.008 64.914-10.201 110.999l.107-.012c-11.678 29.545-19.718 66.061-23.944 108.888a670.748 670.748 0 0 0-2.018 25.636c-7.731-39.807-39.232-68.311-39.562-68.606l-.565 1.14c.339.302 33.82 30.607 39.86 72.127a788.898 788.898 0 0 0-.977 27.265l-.003.009h.002c-.3 15.851-.137 30.93.281 44.657l1.031-.274a905.359 905.359 0 0 1-.275-44.154c12.428-64.281 79.282-76.483 79.943-76.529l-.016-1.38c-.636-.036-64.807 12.011-79.806 72.433.427-16.819 1.39-34.419 3.139-52.135 4.472-45.318 14.733-96.592 37.063-135.703 35.194-26.487 67.512-10.91 67.837-10.749l.342-1.29c-.322-.163-31.778-15.346-66.56 9.263 17.337-29.148 41.669-51.086 75.722-57.958ZM53.093 319.68l-.789.873c.189.295.783.919 2.227 2.428 3.044 3.177 8.696 9.081 14.402 16.288l1.223-.325c-5.915-7.561-11.84-13.748-14.995-17.04-1.037-1.082-1.932-2.017-2.069-2.224Z" fill="#BEB8F2"/>
    </g>
    <g id="image1-petal2">
    <path d="M117.791 269.178c-2.81-2.324 2.565 7.566-1.156 7.566-7.651 0-3.824 7.008-24.94 2.206H32.674c4.324-17.788 18.07-35.882 22.762-45.333 9.9-19.942 12.49-28.731-8.036-69.952C13.126 110.351 9.683 59.953 32.776 44.725c23.398-15.427 46.886 2.814 55.471 30.539 5.493 17.738 22.895 6.624 33.177 29.345 9.025 19.943-8.697 51.712-15.055 69.56-16.61 46.62 4.489 68.889 11.422 95.009Z" fill="url(#b)"/>
    <path d="M79.038 202.732c-3.2-45.696 37.359-111.229 37.77-111.884l-.833-.593c-.383.614-35.63 57.568-37.986 102.588a531.96 531.96 0 0 0-4.48-31.317 505.376 505.376 0 0 0-4.422-22.397l.006-.002a.623.623 0 0 0-.013-.028c-3.031-13.713-6.597-27.083-10.677-40.005l.015-.002c-3.106-25.302-.873-52.65-.138-61.637.177-2.175.238-2.94.215-3.212l-.997.094c.014.206-.087 1.45-.216 3.025-.683 8.351-2.655 32.507-.461 56.222.01.116-.15.147-.185.037a418.147 418.147 0 0 0-3.099-9.058c-6.02-16.949-12.881-32.849-20.394-47.257-1.31-2.51-2.78-5-4.202-7.408-1.894-3.209-3.854-6.526-5.445-9.919l-.896.479c1.614 3.44 3.586 6.78 5.493 10.01 1.415 2.396 2.878 4.874 4.174 7.36 7.49 14.361 14.33 30.214 20.333 47.114 5.734 16.149 10.638 33.104 14.66 50.642-12.02-19.988-49.699-34.794-51.389-35.45l-.34 1.004c.432.168 43.334 17.02 52.6 38.318a503.167 503.167 0 0 1 4.395 22.265c5.82 33.452 8.533 68.784 8.064 105.013a627.099 627.099 0 0 1-.29 12.216h1c.133-4.082.237-8.154.29-12.202.282-21.731-.589-43.136-2.576-64.013l.024-.003Zm-42.526 56.554c.18.18 8.128 8.16 16.89 19.664h1.27c-9.01-11.936-17.292-20.261-17.478-20.444l-.683.78Z" fill="#FCFDFE"/>
    </g>
    <path d="M219.001 323.101c-4.592-1.523-8.025-5.421-8.992-10.211l-6.685-33.082-57.177 2.031-7.037 34.463c-.986 4.827 2.959 9.669 7.503 11.446l23.921 9.36a31.09 31.09 0 0 0 13.985 2.026l50.555-4.325a3.135 3.135 0 0 0 2.836-2.778c.172-1.491 1.207-3.164-.201-3.631l-18.708-5.299Z" fill="#97A6B7"/>
    <path d="M219.567 321.088a13.447 13.447 0 0 1-8.984-10.083l-6.677-32.665-55.783 2.006-7.029 34.031a9.957 9.957 0 0 0 6.159 11.301l23.899 9.242a31.39 31.39 0 0 0 13.971 2.002l50.504-4.271a3.115 3.115 0 0 0 .709-6.065l-16.769-5.498Z" fill="url(#c)"/>
    <path d="M29.313 301.795c-6.2.369-11.273-3.653-11.273-8.969V101.232c0-5.316 5.073-9.42 11.273-9.152l286.748 12.424c4.552.197 8.238 4.035 8.238 8.556v162.95c0 4.521-3.686 8.42-8.238 8.691L29.313 301.795Z" fill="url(#d)"/>
    <path d="M31.89 301.795c-6.2.369-11.273-3.653-11.273-8.969V101.232c0-5.316 5.073-9.42 11.273-9.152l286.748 12.424c4.552.197 8.238 4.035 8.238 8.556v162.95c0 4.521-3.686 8.419-8.238 8.69L31.89 301.795Z" fill="url(#e)"/>
    <path opacity=".3" d="M318.638 108.339 31.89 96.542c-3.314-.136-6.01 2.054-6.01 4.893v191.103c0 2.84 2.696 4.985 6.01 4.795l286.748-16.466c2.439-.14 4.413-2.219 4.413-4.646V112.912c0-2.425-1.974-4.473-4.413-4.573Z" fill="#D8DEE8"/>
    <path d="M31.89 281.055c-1.291.064-2.342-.783-2.342-1.887V101.577c0-1.104 1.052-1.961 2.342-1.91l286.748 11.357a1.809 1.809 0 0 1 1.725 1.785v152.27c0 .946-.774 1.756-1.725 1.803L31.89 281.055Z" fill="url(#f)"/>
    <path opacity=".6" d="M288.702 272.842c-24.123-14.922-7.274-57.351-34.366-78.67-27.315-21.491-65.748 4.868-84.88-17.389-14.246-16.574 2.423-36.585-11.179-52.17-21.332-24.442-75.94 9.173-101.028-14.906-3.563-3.418-7.157-8.605-9.203-16.927l-16.157-.7c-6.2-.269-11.273 3.836-11.273 9.152v191.594c0 5.316 5.072 9.338 11.273 8.969L318.637 284.7c4.551-.271 8.237-4.169 8.237-8.69v-2.897c-19.038 6.462-30.678 4.363-38.172-.271Z" fill="#fff"/>
    <path d="M273.868 259.397V63.21L97.492 54.39v214.869a9.2 9.2 0 0 1-7.717 9.081l174.616-8.821a10.144 10.144 0 0 0 9.477-10.122Z" fill="#fff"/>
    <path d="M273.868 102.874a.395.395 0 0 1-.396-.395V63.586L97.889 54.804v40.031a.396.396 0 1 1-.792 0V53.973l.416.02 176.753 8.84v39.646a.398.398 0 0 1-.398.395Z" fill="#D8DEE8"/>
    <path d="m262.566 93.198-147.783-3.583V70.28l147.783 4.6V93.2Zm0 60.566-147.783-.222v-49.327l147.783 2.815v46.734Zm-145.136-2.976 142.048.353V109.6l-142.048-2.568v43.756Z" fill="#D8DEE8"/>
    <path d="M149.193 151.891h-3.088v-45.905l3.088.053v45.852Z" fill="#D8DEE8"/>
    <path d="m260.801 124.584-113.373-1.417v-2.729l113.373 1.527v2.619Zm0 14.215-113.373-.811v-2.73l113.373.923v2.618Z" fill="#D8DEE8"/>
    <path d="m232.127 153.336-3.087-.004v-45.805l3.087.051v45.758Zm30.439 88.285-147.783 4.653v-49.325l147.783-2.06v46.732Zm-145.136 1.803 142.048-4.337v-41.541l-142.048 2.121v43.757Z" fill="#D8DEE8"/>
    <path d="m149.193 243.629-3.088.101v-46.044l3.088-.051v45.994Z" fill="#D8DEE8"/>
    <path d="m260.801 212.492-113.373 2.326v-2.729l113.373-2.214v2.617Zm0 14.215-113.373 2.931v-2.729l113.373-2.821v2.619Z" fill="#D8DEE8"/>
    <path d="m232.127 242.206-3.087.087v-45.805l3.087-.04v45.758Zm30.439-72.74-147.783.65v-6.314l147.783-.317v5.981Zm0 14.207-147.783 1.437v-6.313l147.783-1.106v5.982Zm0 73.65-147.783 5.525v-6.314l147.783-5.192v5.981Z" fill="#D8DEE8"/>
    <path d="m129.461 234.737-.299 101.441c-.015 4.973-4.027 9.38-9.045 9.748l-72.427 5.308c-5.472.401-9.938-3.601-9.938-8.832v-106.75c0-4.956 3.962-9.043 9.002-9.538.323-.032.65-.043.98-.045l72.701-.347a8.946 8.946 0 0 1 9.026 9.015Z" fill="url(#g)"/>
    <path d="m134.719 234.675-.312 101.256c-.015 4.964-3.804 9.347-8.803 9.713l-72.13 5.286c-5.45.399-10.123-3.578-10.123-8.801l.014-106.544c.001-4.945 4.06-9.025 9.078-9.519.32-.032.759-.044 1.087-.045l72.409-.346c5.017-.023 8.796 4 8.78 9Z" fill="url(#h)"/>
    <g opacity=".3">
    <path d="m134.719 234.531-.077 25.45-91.28 2.236.004-26.782c.001-4.827 3.873-8.755 8.723-9.402.434-.059.992-.008 1.443-.011l72.408-.346c5.016-.025 8.794 3.855 8.779 8.855Z" fill="url(#i)"/>
    <path d="m134.666 252.16-.033 10.575c-9.038 2.777-25.567 4.919-44.368 5.455-8.25.234-16.192.14-23.343-.236-9.484-.499-17.457-1.492-23.56-2.838l.002-11.128c2.294-.561 4.404-1.082 6.91-1.571 5.461-1.064 12.054-1.952 19.285-2.592 6.48-.576 13.539-.951 20.845-1.08 9.44-.165 18.244.1 25.841.703a168.116 168.116 0 0 1 8.742.907c1.309.173 2.435.359 3.628.556 2.29.374 4.322.792 6.051 1.249Z" fill="url(#j)"/>
    </g>
    <path d="M130.154 254.575a2.826 2.826 0 0 1-2.748 2.8l-74.952 1.716c-1.65.038-2.988-1.213-2.988-2.795l.007-17.919c0-1.582 1.34-2.88 2.992-2.896l75.005-.748a2.698 2.698 0 0 1 2.733 2.714l-.049 17.128Z" fill="#fff"/>
    <path d="M128.416 254.23a1.784 1.784 0 0 1-1.738 1.768l-74.564 1.648c-1.042.023-1.887-.768-1.887-1.766l.006-17.84c0-1 .847-1.818 1.89-1.83l74.612-.773a1.705 1.705 0 0 1 1.729 1.714l-.048 17.079Z" fill="#F4F7FA"/>
    <g id="num9-3" opacity=".3">
    <path d="M117.936 244.05c-.002.472-.389.78-.863.787h-.04c-.476.005-.862-.287-.861-.761l.009-3.514c.002-.473.389-.828.865-.835h.039c.476-.006.861.34.86.814l-.009 3.509Z" fill="url(#k)"/>
    <path d="M124.956 243.957c-.001.471-.384.792-.856.797h-.04c-.472.005-.854-.301-.853-.772l.01-3.51a.853.853 0 0 1 .858-.843h.04c.472-.006.854.349.853.82l-.012 3.508Z" fill="url(#l)"/>
        <path d="M124.934 251.817c-.001.472-.384.619-.856.988h-.04c-.472.004-.854-.483-.853-.954l.01-3.782c.002-.471.386-1.114.858-1.119h.04c.472-.005.853.619.852 1.089l-.011 3.778Z" fill="url(#n)"/>
        <path d="M123.226 245.793a.887.887 0 0 1-.871.87l-3.376.06c-.475.008-.683-.368-.683-.84v-.039c0-.473.205-.862.68-.869l3.474-.058c.473-.008.774.365.774.837v.039h.002Z" fill="url(#o)"/>
        <path d="M123.226 238.459c0 .471-.387.86-.86.867l-3.382.044c-.475.007-.686-.371-.686-.845v-.04c0-.472.214-.859.69-.864l3.469-.043c.474-.005.769.37.769.841v.04Z" fill="url(#p)"/>
        <path d="M123.226 253.473c0 .471-.407.863-.881.873l-3.56.074a.842.842 0 0 1-.866-.838v-.039c0-.473.385-.861.86-.87l3.572-.073c.473-.008.875.363.875.834v.039Z" fill="url(#q)"/>
    </g>
    <path opacity=".3" d="M117.917 251.914c-.002.473-.389.948-.864.951h-.039c-.476.004-.861-.444-.861-.916l.009-3.616c.001-.474.389-.937.865-.942h.039c.476-.005.861.439.86.911l-.009 3.612Z" fill="url(#m)"/>
    <g id="num9-2" opacity=".3">
        <path d="M105.936 244.05c-.002.472-.389.78-.863.787h-.04c-.476.005-.862-.287-.861-.761l.009-3.514c.002-.473.389-.828.865-.835h.039c.476-.006.861.34.86.814l-.009 3.509Z" fill="url(#r)"/>
        <path d="M112.956 243.957c-.001.471-.384.792-.856.797h-.04c-.472.005-.854-.301-.853-.772l.01-3.51a.853.853 0 0 1 .858-.843h.04c.472-.006.854.349.853.82l-.012 3.508Z" fill="url(#s)"/>
        <path d="M111.226 238.459c0 .471-.387.86-.86.867l-3.382.044c-.475.007-.686-.371-.686-.845v-.04c0-.472.214-.859.69-.864l3.469-.043c.474-.005.769.37.769.841v.04Z" fill="url(#w)"/>
        <path d="M111.226 245.793a.887.887 0 0 1-.871.87l-3.376.06c-.475.008-.683-.368-.683-.84v-.039c0-.473.205-.862.68-.869l3.474-.058c.473-.008.774.365.774.837v.039h.002Z" fill="url(#v)"/>
        <path d="M111.226 253.473c0 .471-.407.863-.881.873l-3.56.074a.842.842 0 0 1-.866-.838v-.039c0-.473.385-.861.86-.87l3.572-.073c.473-.008.875.363.875.834v.039Z" fill="url(#x)"/>
        <path d="M112.934 251.817c-.001.472-.384.619-.856.988h-.04c-.472.004-.854-.483-.853-.954l.01-3.782c.002-.471.386-1.114.858-1.119h.04c.472-.005.853.619.852 1.089l-.011 3.778Z" fill="url(#u)"/>
    </g>
    <path opacity=".3" d="M105.917 251.914c-.002.473-.389.948-.864.951h-.039c-.476.004-.861-.444-.861-.916l.009-3.616c.001-.474.389-.937.865-.942h.039c.476-.005.861.439.86.911l-.009 3.612Z" fill="url(#t)"/>
    <g id="num9-1" opacity=".3">
    <path d="M93.936 244.05c-.002.472-.389.78-.864.787h-.039c-.476.005-.862-.287-.86-.761l.008-3.514c.002-.473.389-.828.865-.835h.04c.475-.006.86.34.859.814l-.01 3.509Z" fill="url(#y)"/>
    <path d="M100.956 243.957c-.001.471-.384.792-.856.797h-.04c-.472.005-.854-.301-.853-.772l.01-3.51a.853.853 0 0 1 .858-.843h.04c.472-.006.854.349.853.82l-.012 3.508Z" fill="url(#z)"/>
        <path d="M100.934 251.817c-.001.472-.384.619-.856.988h-.04c-.472.004-.854-.483-.853-.954l.01-3.782c.002-.471.386-1.114.858-1.119h.04c.472-.005.853.619.852 1.089l-.011 3.778Z" fill="url(#B)"/>
        <path d="M99.227 238.459c0 .471-.388.86-.861.867l-3.382.044c-.475.007-.686-.371-.686-.845v-.04c0-.472.214-.859.69-.864l3.47-.043c.473-.005.769.37.769.841v.04Z" fill="url(#D)"/>
        <path d="M99.226 253.473c0 .471-.407.863-.88.873l-3.56.074a.841.841 0 0 1-.867-.838v-.039c0-.473.385-.861.86-.87l3.573-.073c.472-.008.874.363.874.834v.039Z" fill="url(#E)"/>
        <path d="M99.226 245.793a.887.887 0 0 1-.87.87l-3.377.06c-.475.008-.683-.368-.683-.84v-.039c0-.473.205-.862.68-.869l3.474-.058c.473-.008.774.365.774.837v.039h.002Z" fill="url(#C)"/>

    </g>
    <path opacity=".3" d="M93.917 251.914c-.002.473-.389.948-.864.951h-.039c-.476.004-.86-.444-.86-.916l.008-3.616c.001-.474.389-.937.865-.942h.04c.475-.005.86.439.859.911l-.01 3.612Z" fill="url(#A)"/>
    <path opacity=".3" d="M95.864 341.317c-.297 1.669-.787 3.352-1.522 4.936a31.372 31.372 0 0 1-.881 1.747l-39.988 2.929c-5.45.4-10.122-3.577-10.122-8.8l.014-106.695c.001-4.827 3.873-8.836 8.723-9.482.118.035.293.071.412.108 5.115 1.579 10.702 4.53 14.044 10.055 2.09 3.452 3.335 7.918 3.056 13.706a39.77 39.77 0 0 1-.522 4.764c-.166.977-.331 1.975-.5 2.993a309.1 309.1 0 0 0-.622 3.89 152.406 152.406 0 0 0-.856 6.477 95.77 95.77 0 0 0-.487 6.345c-.016.408-.03.82-.04 1.228a63.828 63.828 0 0 0 .018 3.952c.032.897.085 1.785.16 2.668.426 4.965 1.573 9.702 3.875 13.836 1.742 3.124 4.364 5.529 7.12 7.757a195.86 195.86 0 0 0 2.199 1.738c2.514 1.97 4.912 4.014 7.047 6.302l.156.169a35.437 35.437 0 0 1 2.897 3.56 26.497 26.497 0 0 1 2.517 4.414c.269.591.517 1.193.746 1.802a35.04 35.04 0 0 1 1.035 3.212 65.335 65.335 0 0 1 .405 1.552c.503 2 .937 4.09 1.205 6.209.361 2.868.415 5.791-.09 8.628Z" fill="#fff"/>
    <path d="M66.77 280.602c0 1.055-.887 1.941-1.981 1.98l-13.316.48c-1.111.04-2.014-.79-2.014-1.854l.001-4.859c0-1.065.903-1.956 2.016-1.99l13.319-.417c1.095-.034 1.98.793 1.98 1.848l-.004 4.812Z" fill="url(#F)"/>
    <path d="M88.5 279.842c0 1.041-.868 1.916-1.936 1.956l-12.997.468c-1.085.04-1.965-.782-1.963-1.832l.005-4.801c0-1.052.882-1.932 1.968-1.966l13-.406c1.068-.033 1.932.784 1.931 1.826l-.008 4.755Z" fill="url(#G)"/>
    <path d="M109.003 279.125c-.002 1.03-.849 1.895-1.893 1.933l-12.699.457c-1.06.038-1.919-.773-1.917-1.812l.007-4.745c.002-1.039.864-1.909 1.924-1.943l12.702-.397c1.044-.033 1.888.775 1.885 1.805l-.009 4.702Z" fill="url(#H)"/>
    <path d="M129.737 278.401a1.933 1.933 0 0 1-1.85 1.908l-12.401.447a1.784 1.784 0 0 1-1.871-1.791l.012-4.689c.002-1.028.845-1.887 1.88-1.919l12.405-.387a1.77 1.77 0 0 1 1.84 1.785l-.015 4.646Z" fill="url(#I)"/>
    <path d="M66.757 296.058c-.002 1.053-.888 1.945-1.982 1.995l-13.308.593c-1.112.05-2.013-.772-2.013-1.835v-4.854c0-1.064.904-1.962 2.015-2.006l13.313-.529c1.094-.044 1.98.775 1.978 1.828l-.003 4.808Z" fill="url(#J)"/>
    <path d="M88.476 295.113c-.001 1.04-.867 1.922-1.935 1.97l-12.99.579c-1.086.048-1.964-.764-1.964-1.814l.005-4.797c.001-1.05.882-1.937 1.967-1.981l12.993-.517c1.069-.042 1.932.767 1.93 1.808l-.006 4.752Z" fill="url(#K)"/>
    <path d="M108.969 294.222c-.003 1.028-.85 1.899-1.892 1.946l-12.693.566c-1.06.047-1.919-.757-1.916-1.794l.007-4.742c.002-1.039.864-1.915 1.924-1.957l12.697-.505c1.044-.042 1.887.759 1.884 1.788l-.011 4.698Z" fill="url(#L)"/>
    <path d="M129.693 293.319a1.952 1.952 0 0 1-1.85 1.923l-12.396.552c-1.035.046-1.873-.748-1.87-1.773l.011-4.686c.003-1.026.844-1.892 1.879-1.932l12.399-.495a1.753 1.753 0 0 1 1.84 1.769l-.013 4.642Z" fill="url(#M)"/>
    <path d="M66.744 311.138c-.001 1.051-.888 1.952-1.98 2.009l-13.303.703c-1.11.058-2.011-.755-2.011-1.817l.001-4.85c0-1.062.903-1.967 2.013-2.02l13.306-.641c1.094-.052 1.979.758 1.978 1.811l-.004 4.805Z" fill="url(#N)"/>
    <path d="M88.453 310.013c-.002 1.039-.868 1.928-1.934 1.984l-12.985.686c-1.083.058-1.963-.746-1.962-1.795l.005-4.791c.002-1.049.883-1.943 1.966-1.995l12.988-.625c1.067-.051 1.93.75 1.93 1.79l-.008 4.746Z" fill="url(#O)"/>
    <path d="M108.935 308.952c-.002 1.027-.849 1.904-1.892 1.96l-12.687.671c-1.06.056-1.918-.739-1.915-1.776l.008-4.736c0-1.038.863-1.92 1.922-1.971l12.69-.611c1.043-.05 1.886.742 1.885 1.771l-.011 4.692Z" fill="url(#P)"/>
    <path d="M129.651 307.878c-.003 1.016-.83 1.882-1.849 1.937l-12.389.655c-1.034.055-1.872-.732-1.87-1.757l.012-4.68c.002-1.025.844-1.897 1.878-1.947l12.393-.595a1.732 1.732 0 0 1 1.839 1.75l-.014 4.637Z" fill="url(#Q)"/>
    <path d="M66.73 325.846c-.001 1.05-.886 1.957-1.98 2.023l-13.296.811c-1.11.068-2.01-.737-2.01-1.798l.001-4.845c0-1.062.902-1.973 2.013-2.035l13.3-.749c1.094-.061 1.977.741 1.976 1.793l-.004 4.8Z" fill="url(#R)"/>
    <path d="M88.43 324.545c-.002 1.039-.868 1.932-1.935 1.997l-12.978.792c-1.083.066-1.962-.729-1.96-1.778l.005-4.788c.001-1.049.88-1.948 1.966-2.009l12.981-.731c1.067-.06 1.93.734 1.928 1.773l-.008 4.744Z" fill="url(#S)"/>
    <path d="M108.904 323.317c-.003 1.026-.848 1.91-1.891 1.974l-12.681.774c-1.06.065-1.916-.723-1.915-1.76l.008-4.732c0-1.037.863-1.926 1.92-1.985l12.686-.713c1.043-.059 1.886.727 1.883 1.753l-.01 4.689Z" fill="url(#T)"/>
    <path d="M66.716 341.613c-.001 1.051-.886 1.964-1.979 2.039l-13.29.927c-1.11.077-2.01-.72-2.009-1.779l.002-4.841c0-1.06.901-1.978 2.011-2.051l13.294-.863c1.093-.072 1.976.723 1.976 1.773l-.005 4.795Z" fill="url(#U)"/>
    <path d="M88.404 340.125c-.001 1.038-.867 1.939-1.932 2.013l-12.972.904c-1.084.075-1.96-.712-1.96-1.76l.006-4.782c0-1.048.88-1.954 1.964-2.024l12.975-.843c1.067-.069 1.93.715 1.928 1.753l-.009 4.739Z" fill="url(#V)"/>
    <path d="M108.87 338.719c-.003 1.025-.848 1.916-1.89 1.989l-12.675.884c-1.058.073-1.915-.706-1.913-1.741l.007-4.727c.001-1.035.862-1.931 1.921-1.999l12.679-.824c1.043-.068 1.885.709 1.882 1.735l-.011 4.683Z" fill="url(#W)"/>
    <path d="m127.722 315.711-12.388.697c-1.034.058-1.813 1.214-1.816 2.238l-.006 2.634-.005 2.199-.025 9.93-.007 2.921-.005 1.908c-.003 1.023.77 1.963 1.804 1.891l12.379-.863c1.018-.072 1.908-1.118 1.91-2.132l.005-1.89.009-2.894.029-9.84.007-2.18.007-2.61c.006-1.013-.879-2.066-1.898-2.009Z" fill="url(#X)"/>
    <path d="M67.516 280.577c-.002 1.054-.888 1.939-1.982 1.978l-13.305.479c-1.111.04-2.011-.789-2.011-1.854l.001-4.857c0-1.064.903-1.954 2.014-1.99l13.308-.416c1.094-.035 1.978.793 1.977 1.846l-.002 4.814Z" fill="url(#Y)"/>
    <path d="M88.5 279.842c0 1.041-.868 1.916-1.936 1.956l-12.997.468c-1.084.04-1.964-.782-1.963-1.832l.005-4.801c.001-1.052.882-1.932 1.969-1.966l12.999-.406c1.068-.033 1.933.784 1.931 1.826l-.007 4.755Z" fill="url(#Z)"/>
    <path d="M109.714 279.101c-.003 1.029-.849 1.893-1.892 1.932l-12.689.457c-1.06.038-1.917-.773-1.916-1.812l.007-4.744c.002-1.039.864-1.909 1.923-1.942l12.691-.396c1.043-.033 1.887.776 1.885 1.806l-.009 4.699Z" fill="url(#aa)"/>
    <path d="M130.431 278.377a1.93 1.93 0 0 1-1.848 1.908l-12.391.447a1.783 1.783 0 0 1-1.869-1.791l.011-4.688c.003-1.026.844-1.886 1.879-1.918l12.395-.387a1.769 1.769 0 0 1 1.839 1.785l-.016 4.644Z" fill="url(#ab)"/>
    <path d="M67.502 296.025c-.002 1.053-.888 1.945-1.98 1.993l-13.298.593c-1.11.049-2.011-.772-2.01-1.835l.001-4.852c0-1.064.903-1.961 2.013-2.006l13.301-.529c1.094-.044 1.978.775 1.978 1.828l-.005 4.808Z" fill="url(#ac)"/>
    <path d="M88.476 295.113c-.001 1.04-.867 1.922-1.935 1.97l-12.99.579c-1.086.048-1.964-.764-1.964-1.814l.005-4.797c.001-1.05.882-1.937 1.967-1.981l12.993-.517c1.069-.042 1.932.767 1.93 1.808l-.006 4.752Z" fill="url(#ad)"/>
    <path d="M109.68 294.19c-.002 1.029-.847 1.9-1.89 1.946l-12.683.565c-1.059.047-1.916-.756-1.915-1.794l.008-4.739c.001-1.038.863-1.914 1.921-1.956l12.687-.504c1.042-.042 1.885.759 1.883 1.788l-.011 4.694Z" fill="url(#ae)"/>
    <path d="M130.387 293.29a1.95 1.95 0 0 1-1.849 1.921l-12.386.551c-1.034.046-1.871-.747-1.869-1.773l.012-4.683c.002-1.026.844-1.891 1.878-1.932l12.388-.492a1.75 1.75 0 0 1 1.839 1.767l-.013 4.641Z" fill="url(#af)"/>
    <path d="M67.488 311.1c-.002 1.051-.887 1.95-1.979 2.009l-13.291.702c-1.11.059-2.01-.753-2.01-1.815v-4.849c0-1.061.902-1.965 2.013-2.019l13.294-.64c1.093-.052 1.978.757 1.976 1.809l-.003 4.803Z" fill="url(#ag)"/>
    <path d="M88.452 310.013c-.001 1.039-.867 1.928-1.934 1.984l-12.984.686c-1.084.058-1.964-.746-1.962-1.795l.005-4.791c.001-1.049.882-1.943 1.966-1.995l12.988-.625c1.067-.051 1.93.75 1.929 1.79l-.008 4.746Z" fill="url(#ah)"/>
    <path d="M109.646 308.915c-.003 1.027-.848 1.904-1.891 1.959l-12.676.671c-1.058.056-1.916-.738-1.913-1.776l.007-4.734c.001-1.038.862-1.919 1.921-1.97l12.68-.609c1.043-.05 1.885.742 1.882 1.769l-.01 4.69Z" fill="url(#ai)"/>
    <path d="M130.344 307.841c-.002 1.015-.83 1.882-1.847 1.935l-12.381.655c-1.034.055-1.87-.731-1.867-1.756l.011-4.679c.003-1.025.843-1.896 1.877-1.945l12.383-.596a1.73 1.73 0 0 1 1.837 1.75l-.013 4.636Z" fill="url(#aj)"/>
    <path d="M67.475 325.801c-.001 1.051-.886 1.956-1.978 2.023l-13.284.811c-1.11.068-2.01-.737-2.01-1.797l.002-4.844c0-1.06.901-1.972 2.01-2.034l13.289-.748c1.092-.061 1.976.741 1.975 1.792l-.004 4.797Z" fill="url(#ak)"/>
    <path d="M88.43 324.545c-.002 1.039-.868 1.932-1.935 1.997l-12.978.792c-1.083.066-1.962-.729-1.96-1.778l.005-4.788c.001-1.049.88-1.948 1.966-2.009l12.981-.731c1.067-.06 1.93.734 1.928 1.773l-.008 4.744Z" fill="url(#al)"/>
    <path d="M109.614 323.275c-.002 1.026-.848 1.91-1.889 1.974l-12.671.773c-1.058.064-1.915-.724-1.914-1.759l.008-4.73c.001-1.036.862-1.924 1.92-1.983l12.675-.713c1.041-.059 1.884.725 1.881 1.753l-.01 4.685Z" fill="url(#am)"/>
    <path d="M67.46 341.562c-.002 1.049-.886 1.962-1.978 2.039l-13.278.925c-1.11.078-2.008-.719-2.008-1.778l.001-4.838c0-1.06.9-1.978 2.01-2.05l13.283-.864c1.09-.071 1.974.724 1.973 1.773l-.004 4.793Z" fill="url(#an)"/>
    <path d="M88.404 340.125c-.001 1.038-.867 1.939-1.933 2.013l-12.972.904c-1.083.075-1.96-.712-1.959-1.76l.005-4.782c.001-1.048.881-1.954 1.965-2.024l12.975-.843c1.067-.069 1.929.715 1.928 1.753l-.01 4.739Z" fill="url(#ao)"/>
    <path d="M109.579 338.671c-.003 1.025-.848 1.915-1.888 1.987l-12.665.883c-1.057.073-1.913-.706-1.912-1.741l.007-4.725c.002-1.035.862-1.93 1.92-1.999l12.668-.822c1.041-.068 1.883.709 1.88 1.734l-.01 4.683Z" fill="url(#ap)"/>
    <path d="m128.442 315.672-12.378.696c-1.034.059-1.837 1.215-1.838 2.24l-.007 2.633-.005 2.199-.024 9.926-.008 2.919-.005 1.907c-.002 1.023.796 1.961 1.827 1.888l12.37-.862c1.017-.071 1.88-1.115 1.883-2.128l.005-1.89.009-2.893.029-9.835.006-2.179.008-2.608c.004-1.018-.854-2.071-1.872-2.013Z" fill="url(#aq)"/>
    <g id="image1-coin1">
    <path  d="M114.258 96.51c0 20.806-16.228 37.114-37.035 36.472-21.61-.643-39.765-19.281-39.765-41.614s18.155-38.56 39.765-36.311c20.807 2.169 37.035 20.726 37.035 41.453Z" fill="url(#ar)"/>
    <path d="M119.881 94.742c0 20.807-16.227 37.115-37.034 36.472-21.61-.642-39.766-19.28-39.766-41.694 0-22.413 18.156-38.56 39.766-36.31 20.807 2.248 37.034 20.726 37.034 41.532Z" fill="url(#as)"/>
    <path d="M118.274 94.662c0 19.843-15.585 35.428-35.347 34.785-20.646-.643-37.918-18.477-37.918-39.766 0-21.288 17.272-36.793 37.918-34.624 19.762 2.008 35.347 19.682 35.347 39.605Z" fill="url(#at)"/>
    <path d="M117.069 94.581c0 19.2-15.023 34.303-34.223 33.661-19.842-.723-36.552-17.915-36.552-38.48 0-20.486 16.71-35.509 36.552-33.42 19.2 1.928 34.223 18.959 34.223 38.24Z" fill="url(#au)"/>
    <path d="M70.074 81.085c-.08-3.133-.241-6.266-.322-9.48-.08-2.329 1.366-3.775 3.696-3.695 4.74.161 9.399.241 14.139.482 3.695.161 7.07 1.205 10.042 3.776 2.33 2.089 3.775 4.74 4.579 7.632 1.205 4.418 1.044 8.676-.884 12.693-1.848 3.776-5.061 5.864-9.239 6.587-1.205.241-2.49.241-3.775.241-3.214-.08-6.427-.16-9.64-.321-.563 0-.724.08-.643.643.24 5.221.401 10.443.562 15.745.08 1.527-.642 2.651-1.928 3.214-1.285.642-2.65.401-3.856-.563-.964-.723-1.446-1.687-1.446-2.892-.08-1.687-.16-3.374-.16-4.98 0-.402-.161-.563-.563-.563-1.044 0-2.089-.08-3.133-.08-2.008-.08-3.696-1.767-3.776-3.776-.08-2.008 1.446-3.615 3.535-3.535 1.044 0 2.089.081 3.213.081.322 0 .482-.081.402-.402-.08-.964-.08-1.848-.08-2.812 0-.321-.08-.401-.402-.401-1.044 0-2.089-.08-3.213-.08-2.09-.081-3.776-1.768-3.776-3.776-.08-2.09 1.446-3.615 3.535-3.535 1.044 0 2.008.08 3.052.08.482 0 .482-.08.482-.562-.16-3.133-.321-6.427-.401-9.72Zm7.31 2.41c.08 2.49.241 4.981.241 7.552 0 .643.241.723.723.723 2.008 0 4.017.16 5.945.16 1.848 0 3.695.242 5.463.08 2.731-.16 4.74-1.767 5.382-4.418.482-1.847.482-3.695.08-5.623-.32-1.526-.883-2.972-1.928-4.097-1.526-1.607-3.454-2.089-5.462-2.25-3.374-.16-6.829-.24-10.203-.32-.482 0-.562.16-.562.562.16 2.57.24 5.06.321 7.631Z" fill="url(#av)"/>
    <path d="M88.391 110.247c-1.526-.081-2.972-.081-4.499-.161-2.088-.08-3.775-1.767-3.775-3.776-.08-2.008 1.526-3.535 3.534-3.454 2.973.08 5.945.16 8.998.321 2.089.08 3.776 1.687 3.856 3.776.08 2.008-1.446 3.615-3.615 3.535-1.526-.161-2.972-.161-4.499-.241Z" fill="url(#aw)"/>
    <path opacity=".3" d="M76.66 99.24c1.125-11.407 11.65-16.227 10.283-26.75-.883-6.508-5.784-11.97-11.246-16.228-16.55 1.767-29.403 15.504-29.403 33.5 0 20.565 16.71 37.757 36.552 38.4 1.928.08 3.856-.001 5.624-.242-7.873-7.872-12.773-18.878-11.81-28.68Z" fill="url(#ax)"/>
    </g>
    <g id="image1-coin2">
    <path d="M107.818 181.896c0 17.165-13.388 30.619-30.553 30.089-17.829-.53-32.807-15.906-32.807-34.331 0-18.425 14.978-31.813 32.806-29.957 17.166 1.789 30.554 17.099 30.554 34.199Z" fill="url(#ay)"/>
    <path d="M112.458 180.438c0 17.165-13.388 30.619-30.554 30.089-17.828-.53-32.807-15.906-32.807-34.397 0-18.492 14.979-31.813 32.807-29.957 17.166 1.855 30.554 17.099 30.554 34.265Z" fill="url(#az)"/>
    <path d="M111.132 180.372c0 16.37-12.858 29.228-29.162 28.697-17.033-.53-31.282-15.243-31.282-32.807 0-17.563 14.249-30.354 31.282-28.565 16.304 1.657 29.162 16.238 29.162 32.675Z" fill="url(#aA)"/>
    <path d="M110.137 180.305c0 15.84-12.393 28.3-28.234 27.77-16.37-.597-30.155-14.78-30.155-31.747 0-16.9 13.785-29.294 30.155-27.571 15.84 1.591 28.234 15.641 28.234 31.548Z" fill="url(#aB)"/>
    <path d="M71.366 169.171c-.066-2.585-.199-5.17-.265-7.821-.066-1.922 1.127-3.115 3.049-3.049 3.91.133 7.754.199 11.665.398 3.048.132 5.832.994 8.284 3.115 1.922 1.723 3.115 3.91 3.778 6.296.994 3.645.862 7.158-.73 10.472-1.523 3.115-4.175 4.838-7.62 5.435-.995.198-2.055.198-3.116.198-2.651-.066-5.302-.132-7.953-.265-.464 0-.597.067-.53.531.198 4.308.331 8.615.464 12.99.066 1.259-.53 2.187-1.591 2.651-1.06.53-2.187.331-3.181-.464-.796-.597-1.193-1.392-1.193-2.386-.067-1.392-.133-2.784-.133-4.109 0-.332-.132-.464-.464-.464-.861 0-1.723-.066-2.585-.066-1.657-.067-3.048-1.459-3.115-3.115-.066-1.657 1.193-2.983 2.917-2.917.861 0 1.723.067 2.65.067.266 0 .398-.067.332-.332-.066-.795-.066-1.524-.066-2.319 0-.266-.066-.332-.332-.332-.861 0-1.723-.066-2.65-.066-1.724-.066-3.116-1.458-3.116-3.115-.066-1.723 1.193-2.983 2.916-2.916.862 0 1.657.066 2.519.066.398 0 .398-.066.398-.464-.133-2.585-.265-5.302-.332-8.019Zm6.031 1.988c.067 2.054.2 4.109.2 6.23 0 .53.198.596.596.596 1.657 0 3.314.133 4.904.133 1.525 0 3.049.199 4.507.066 2.254-.132 3.91-1.458 4.44-3.645.398-1.524.398-3.049.067-4.639-.265-1.26-.73-2.453-1.59-3.38-1.26-1.326-2.85-1.724-4.508-1.856-2.783-.133-5.633-.199-8.417-.265-.397 0-.464.132-.464.464.133 2.12.2 4.175.265 6.296Z" fill="url(#aC)"/>
    <path d="M86.478 193.229c-1.26-.067-2.452-.067-3.712-.133-1.723-.066-3.115-1.458-3.115-3.115-.066-1.657 1.26-2.916 2.916-2.85 2.453.066 4.905.133 7.424.265 1.723.067 3.115 1.392 3.18 3.115.067 1.657-1.192 2.983-2.982 2.916-1.259-.132-2.452-.132-3.711-.198Z" fill="url(#aD)"/>
    <path opacity=".3" d="M76.8 184.149c.928-9.411 9.61-13.388 8.484-22.07-.73-5.369-4.772-9.875-9.28-13.388-13.652 1.458-24.256 12.791-24.256 27.637 0 16.967 13.785 31.15 30.155 31.681 1.591.066 3.182 0 4.64-.199-6.495-6.495-10.538-15.575-9.743-23.661Z" fill="url(#aE)"/>
    </g>
    <defs><linearGradient id="a" x1="419.343" y1="-448.287" x2="277.002" y2="-151.688" gradientUnits="userSpaceOnUse"><stop stop-color="#AA80F9"/><stop offset=".996" stop-color="#6165D7"/></linearGradient><linearGradient id="b" x1="50.649" y1="75.662" x2="121.516" y2="384.307" gradientUnits="userSpaceOnUse"><stop stop-color="#FF9085"/><stop offset="1" stop-color="#FB6FBB"/></linearGradient><linearGradient id="c" x1="183.235" y1="385.12" x2="190.364" y2="316.2" gradientUnits="userSpaceOnUse"><stop stop-color="#444B8C"/><stop offset=".996" stop-color="#26264F"/></linearGradient><linearGradient id="d" x1="133.757" y1="192.822" x2="58.5" y2="201.536" gradientUnits="userSpaceOnUse"><stop stop-color="#444B8C"/><stop offset=".395" stop-color="#383C74"/><stop offset=".996" stop-color="#26264F"/></linearGradient><linearGradient id="e" x1="20.617" y1="196.943" x2="326.876" y2="196.943" gradientUnits="userSpaceOnUse"><stop stop-color="#444B8C"/><stop offset=".996" stop-color="#26264F"/></linearGradient><linearGradient id="f" x1="258.54" y1="60.762" x2="-178.976" y2="702.355" gradientUnits="userSpaceOnUse"><stop offset=".004" stop-color="#E38DDD"/><stop offset="1" stop-color="#9571F6"/></linearGradient><linearGradient id="g" x1="80.641" y1="495.406" x2="82.905" y2="326.976" gradientUnits="userSpaceOnUse"><stop stop-color="#444B8C"/><stop offset=".996" stop-color="#26264F"/></linearGradient><linearGradient id="h" x1="86.077" y1="494.799" x2="88.336" y2="326.718" gradientUnits="userSpaceOnUse"><stop stop-color="#AA80F9"/><stop offset=".996" stop-color="#6165D7"/></linearGradient><linearGradient id="i" x1="43.362" y1="243.946" x2="134.719" y2="243.946" gradientUnits="userSpaceOnUse"><stop stop-color="#AA80F9"/><stop offset=".996" stop-color="#6165D7"/></linearGradient><linearGradient id="j" x1="43.362" y1="258.506" x2="134.665" y2="258.506" gradientUnits="userSpaceOnUse"><stop stop-color="#AA80F9"/><stop offset=".996" stop-color="#6165D7"/></linearGradient><linearGradient id="k" x1="117.278" y1="237.299" x2="116.044" y2="265.443" gradientUnits="userSpaceOnUse"><stop stop-color="#311944"/><stop offset="1" stop-color="#A03976"/></linearGradient><linearGradient id="l" x1="124.306" y1="237.197" x2="123.069" y2="265.418" gradientUnits="userSpaceOnUse"><stop stop-color="#311944"/><stop offset="1" stop-color="#A03976"/></linearGradient><linearGradient id="m" x1="117.273" y1="244.792" x2="115.951" y2="274.936" gradientUnits="userSpaceOnUse"><stop stop-color="#311944"/><stop offset="1" stop-color="#A03976"/></linearGradient><linearGradient id="n" x1="124.318" y1="244.171" x2="122.904" y2="276.411" gradientUnits="userSpaceOnUse"><stop stop-color="#311944"/><stop offset="1" stop-color="#A03976"/></linearGradient><linearGradient id="o" x1="125.561" y1="246.032" x2="98.448" y2="244.843" gradientUnits="userSpaceOnUse"><stop stop-color="#311944"/><stop offset="1" stop-color="#A03976"/></linearGradient><linearGradient id="p" x1="125.562" y1="238.686" x2="98.444" y2="237.497" gradientUnits="userSpaceOnUse"><stop stop-color="#311944"/><stop offset="1" stop-color="#A03976"/></linearGradient><linearGradient id="q" x1="125.739" y1="253.736" x2="96.552" y2="252.456" gradientUnits="userSpaceOnUse"><stop stop-color="#311944"/><stop offset="1" stop-color="#A03976"/></linearGradient><linearGradient id="r" x1="105.278" y1="237.299" x2="104.044" y2="265.443" gradientUnits="userSpaceOnUse"><stop stop-color="#311944"/><stop offset="1" stop-color="#A03976"/></linearGradient><linearGradient id="s" x1="112.306" y1="237.197" x2="111.069" y2="265.418" gradientUnits="userSpaceOnUse"><stop stop-color="#311944"/><stop offset="1" stop-color="#A03976"/></linearGradient><linearGradient id="t" x1="105.273" y1="244.792" x2="103.951" y2="274.936" gradientUnits="userSpaceOnUse"><stop stop-color="#311944"/><stop offset="1" stop-color="#A03976"/></linearGradient><linearGradient id="u" x1="112.318" y1="244.171" x2="110.904" y2="276.411" gradientUnits="userSpaceOnUse"><stop stop-color="#311944"/><stop offset="1" stop-color="#A03976"/></linearGradient><linearGradient id="v" x1="113.561" y1="246.032" x2="86.448" y2="244.843" gradientUnits="userSpaceOnUse"><stop stop-color="#311944"/><stop offset="1" stop-color="#A03976"/></linearGradient><linearGradient id="w" x1="113.562" y1="238.686" x2="86.444" y2="237.497" gradientUnits="userSpaceOnUse"><stop stop-color="#311944"/><stop offset="1" stop-color="#A03976"/></linearGradient><linearGradient id="x" x1="113.739" y1="253.736" x2="84.552" y2="252.456" gradientUnits="userSpaceOnUse"><stop stop-color="#311944"/><stop offset="1" stop-color="#A03976"/></linearGradient><linearGradient id="y" x1="93.278" y1="237.299" x2="92.044" y2="265.443" gradientUnits="userSpaceOnUse"><stop stop-color="#311944"/><stop offset="1" stop-color="#A03976"/></linearGradient><linearGradient id="z" x1="100.306" y1="237.197" x2="99.069" y2="265.418" gradientUnits="userSpaceOnUse"><stop stop-color="#311944"/><stop offset="1" stop-color="#A03976"/></linearGradient><linearGradient id="A" x1="93.273" y1="244.792" x2="91.951" y2="274.936" gradientUnits="userSpaceOnUse"><stop stop-color="#311944"/><stop offset="1" stop-color="#A03976"/></linearGradient><linearGradient id="B" x1="100.318" y1="244.171" x2="98.904" y2="276.411" gradientUnits="userSpaceOnUse"><stop stop-color="#311944"/><stop offset="1" stop-color="#A03976"/></linearGradient><linearGradient id="C" x1="101.561" y1="246.032" x2="74.448" y2="244.843" gradientUnits="userSpaceOnUse"><stop stop-color="#311944"/><stop offset="1" stop-color="#A03976"/></linearGradient><linearGradient id="D" x1="101.562" y1="238.686" x2="74.444" y2="237.497" gradientUnits="userSpaceOnUse"><stop stop-color="#311944"/><stop offset="1" stop-color="#A03976"/></linearGradient><linearGradient id="E" x1="101.739" y1="253.736" x2="72.552" y2="252.456" gradientUnits="userSpaceOnUse"><stop stop-color="#311944"/><stop offset="1" stop-color="#A03976"/></linearGradient><linearGradient id="F" x1="135.068" y1="235.666" x2="-6.717" y2="314.54" gradientUnits="userSpaceOnUse"><stop stop-color="#444B8C"/><stop offset=".996" stop-color="#3E4177"/></linearGradient><linearGradient id="G" x1="138.854" y1="245.026" x2=".137" y2="322.193" gradientUnits="userSpaceOnUse"><stop stop-color="#444B8C"/><stop offset=".996" stop-color="#3E4177"/></linearGradient><linearGradient id="H" x1="142.192" y1="253.988" x2="6.338" y2="329.562" gradientUnits="userSpaceOnUse"><stop stop-color="#444B8C"/><stop offset=".996" stop-color="#3E4177"/></linearGradient><linearGradient id="I" x1="146.44" y1="262.564" x2="13.451" y2="336.544" gradientUnits="userSpaceOnUse"><stop stop-color="#444B8C"/><stop offset=".996" stop-color="#3E4177"/></linearGradient><linearGradient id="J" x1="142.113" y1="247.273" x2="-.134" y2="326.403" gradientUnits="userSpaceOnUse"><stop stop-color="#444B8C"/><stop offset=".996" stop-color="#3E4177"/></linearGradient><linearGradient id="K" x1="145.681" y1="256.561" x2="6.513" y2="333.98" gradientUnits="userSpaceOnUse"><stop stop-color="#444B8C"/><stop offset=".996" stop-color="#3E4177"/></linearGradient><linearGradient id="L" x1="148.815" y1="265.455" x2="12.52" y2="341.274" gradientUnits="userSpaceOnUse"><stop stop-color="#444B8C"/><stop offset=".996" stop-color="#3E4177"/></linearGradient><linearGradient id="M" x1="152.862" y1="273.959" x2="19.441" y2="348.18" gradientUnits="userSpaceOnUse"><stop stop-color="#444B8C"/><stop offset=".996" stop-color="#3E4177"/></linearGradient><linearGradient id="N" x1="149.194" y1="258.483" x2="6.498" y2="337.864" gradientUnits="userSpaceOnUse"><stop stop-color="#444B8C"/><stop offset=".996" stop-color="#3E4177"/></linearGradient><linearGradient id="O" x1="152.547" y1="267.704" x2="12.939" y2="345.367" gradientUnits="userSpaceOnUse"><stop stop-color="#444B8C"/><stop offset=".996" stop-color="#3E4177"/></linearGradient><linearGradient id="P" x1="155.477" y1="276.533" x2="18.752" y2="352.593" gradientUnits="userSpaceOnUse"><stop stop-color="#444B8C"/><stop offset=".996" stop-color="#3E4177"/></linearGradient><linearGradient id="Q" x1="159.323" y1="284.97" x2="25.481" y2="359.425" gradientUnits="userSpaceOnUse"><stop stop-color="#444B8C"/><stop offset=".996" stop-color="#3E4177"/></linearGradient><linearGradient id="R" x1="156.311" y1="269.299" x2="13.177" y2="348.924" gradientUnits="userSpaceOnUse"><stop stop-color="#444B8C"/><stop offset=".996" stop-color="#3E4177"/></linearGradient><linearGradient id="S" x1="159.448" y1="278.457" x2="19.412" y2="356.358" gradientUnits="userSpaceOnUse"><stop stop-color="#444B8C"/><stop offset=".996" stop-color="#3E4177"/></linearGradient><linearGradient id="T" x1="162.177" y1="287.225" x2="25.032" y2="363.518" gradientUnits="userSpaceOnUse"><stop stop-color="#444B8C"/><stop offset=".996" stop-color="#3E4177"/></linearGradient><linearGradient id="U" x1="163.492" y1="281.144" x2="19.889" y2="361.03" gradientUnits="userSpaceOnUse"><stop stop-color="#444B8C"/><stop offset=".996" stop-color="#3E4177"/></linearGradient><linearGradient id="V" x1="166.409" y1="290.229" x2="25.913" y2="368.385" gradientUnits="userSpaceOnUse"><stop stop-color="#444B8C"/><stop offset=".996" stop-color="#3E4177"/></linearGradient><linearGradient id="W" x1="168.929" y1="298.928" x2="31.334" y2="375.471" gradientUnits="userSpaceOnUse"><stop stop-color="#444B8C"/><stop offset=".996" stop-color="#3E4177"/></linearGradient><linearGradient id="X" x1="168.926" y1="301.459" x2="34.736" y2="376.107" gradientUnits="userSpaceOnUse"><stop stop-color="#444B8C"/><stop offset=".996" stop-color="#3E4177"/></linearGradient><linearGradient id="Y" x1="59.282" y1="269.016" x2="56.938" y2="322.452" gradientUnits="userSpaceOnUse"><stop stop-color="#444B8C"/><stop offset=".996" stop-color="#26264F"/></linearGradient><linearGradient id="Z" x1="80.463" y1="268.424" x2="78.15" y2="321.174" gradientUnits="userSpaceOnUse"><stop stop-color="#444B8C"/><stop offset=".996" stop-color="#26264F"/></linearGradient><linearGradient id="aa" x1="101.874" y1="267.827" x2="99.59" y2="319.883" gradientUnits="userSpaceOnUse"><stop stop-color="#444B8C"/><stop offset=".996" stop-color="#26264F"/></linearGradient><linearGradient id="ab" x1="122.78" y1="267.243" x2="120.526" y2="318.624" gradientUnits="userSpaceOnUse"><stop stop-color="#444B8C"/><stop offset=".996" stop-color="#26264F"/></linearGradient><linearGradient id="ac" x1="59.277" y1="284.436" x2="56.907" y2="338.462" gradientUnits="userSpaceOnUse"><stop stop-color="#444B8C"/><stop offset=".996" stop-color="#26264F"/></linearGradient><linearGradient id="ad" x1="80.447" y1="283.667" x2="78.108" y2="336.992" gradientUnits="userSpaceOnUse"><stop stop-color="#444B8C"/><stop offset=".996" stop-color="#26264F"/></linearGradient><linearGradient id="ae" x1="101.847" y1="282.889" x2="99.539" y2="335.508" gradientUnits="userSpaceOnUse"><stop stop-color="#444B8C"/><stop offset=".996" stop-color="#26264F"/></linearGradient><linearGradient id="af" x1="122.744" y1="282.129" x2="120.466" y2="334.059" gradientUnits="userSpaceOnUse"><stop stop-color="#444B8C"/><stop offset=".996" stop-color="#26264F"/></linearGradient><linearGradient id="ag" x1="59.272" y1="299.482" x2="56.877" y2="354.086" gradientUnits="userSpaceOnUse"><stop stop-color="#444B8C"/><stop offset=".996" stop-color="#26264F"/></linearGradient><linearGradient id="ah" x1="80.432" y1="298.54" x2="78.068" y2="352.429" gradientUnits="userSpaceOnUse"><stop stop-color="#444B8C"/><stop offset=".996" stop-color="#26264F"/></linearGradient><linearGradient id="ai" x1="101.822" y1="297.586" x2="99.49" y2="350.755" gradientUnits="userSpaceOnUse"><stop stop-color="#444B8C"/><stop offset=".996" stop-color="#26264F"/></linearGradient><linearGradient id="aj" x1="122.708" y1="296.655" x2="120.407" y2="349.123" gradientUnits="userSpaceOnUse"><stop stop-color="#444B8C"/><stop offset=".996" stop-color="#26264F"/></linearGradient><linearGradient id="ak" x1="59.267" y1="314.156" x2="56.847" y2="369.323" gradientUnits="userSpaceOnUse"><stop stop-color="#444B8C"/><stop offset=".996" stop-color="#26264F"/></linearGradient><linearGradient id="al" x1="80.417" y1="313.044" x2="78.029" y2="367.484" gradientUnits="userSpaceOnUse"><stop stop-color="#444B8C"/><stop offset=".996" stop-color="#26264F"/></linearGradient><linearGradient id="am" x1="101.797" y1="311.92" x2="99.442" y2="365.626" gradientUnits="userSpaceOnUse"><stop stop-color="#444B8C"/><stop offset=".996" stop-color="#26264F"/></linearGradient><linearGradient id="an" x1="59.261" y1="329.888" x2="56.815" y2="385.661" gradientUnits="userSpaceOnUse"><stop stop-color="#444B8C"/><stop offset=".996" stop-color="#26264F"/></linearGradient><linearGradient id="ao" x1="80.401" y1="328.595" x2="77.987" y2="383.626" gradientUnits="userSpaceOnUse"><stop stop-color="#444B8C"/><stop offset=".996" stop-color="#26264F"/></linearGradient><linearGradient id="ap" x1="101.771" y1="327.288" x2="99.39" y2="381.571" gradientUnits="userSpaceOnUse"><stop stop-color="#444B8C"/><stop offset=".996" stop-color="#26264F"/></linearGradient><linearGradient id="aq" x1="123.307" y1="303.558" x2="117.281" y2="440.929" gradientUnits="userSpaceOnUse"><stop stop-color="#444B8C"/><stop offset=".996" stop-color="#26264F"/></linearGradient><linearGradient id="ar" x1="62.698" y1="98.155" x2="17.905" y2="112.531" gradientUnits="userSpaceOnUse"><stop stop-color="#FCB148"/><stop offset=".052" stop-color="#FDBA46"/><stop offset=".142" stop-color="#FFC244"/><stop offset=".318" stop-color="#FFC444"/><stop offset=".485" stop-color="#FDB946"/><stop offset=".775" stop-color="#F99C4D"/><stop offset=".866" stop-color="#F8924F"/><stop offset="1" stop-color="#F8924F"/></linearGradient><linearGradient id="as" x1="98.934" y1="53.567" x2="58.945" y2="141.79" gradientUnits="userSpaceOnUse"><stop stop-color="#FFDB44"/><stop offset="1" stop-color="#FEEF06"/></linearGradient><linearGradient id="at" x1="91.578" y1="146.722" x2="83.862" y2="104.57" gradientUnits="userSpaceOnUse"><stop stop-color="#FCB148"/><stop offset=".052" stop-color="#FDBA46"/><stop offset=".142" stop-color="#FFC244"/><stop offset=".318" stop-color="#FFC444"/><stop offset=".485" stop-color="#FDB946"/><stop offset=".775" stop-color="#F99C4D"/><stop offset=".866" stop-color="#F8924F"/><stop offset="1" stop-color="#F8924F"/></linearGradient><linearGradient id="au" x1="75.218" y1="78.493" x2="107.017" y2="145.996" gradientUnits="userSpaceOnUse"><stop stop-color="#FCB148"/><stop offset=".052" stop-color="#FDBA46"/><stop offset=".142" stop-color="#FFC244"/><stop offset=".318" stop-color="#FFC444"/><stop offset=".485" stop-color="#FDB946"/><stop offset=".775" stop-color="#F99C4D"/><stop offset=".866" stop-color="#F8924F"/><stop offset="1" stop-color="#F8924F"/></linearGradient><linearGradient id="av" x1="63.362" y1="93.052" x2="102.646" y2="94.325" gradientUnits="userSpaceOnUse"><stop stop-color="#FFDB44"/><stop offset="1" stop-color="#FEEF06"/></linearGradient><linearGradient id="aw" x1="80.075" y1="106.33" x2="96.459" y2="106.861" gradientUnits="userSpaceOnUse"><stop stop-color="#FFDB44"/><stop offset="1" stop-color="#FEEF06"/></linearGradient><linearGradient id="ax" x1="65.863" y1="82.862" x2="97.597" y2="150.228" gradientUnits="userSpaceOnUse"><stop stop-color="#FCB148"/><stop offset=".052" stop-color="#FDBA46"/><stop offset=".142" stop-color="#FFC244"/><stop offset=".318" stop-color="#FFC444"/><stop offset=".485" stop-color="#FDB946"/><stop offset=".775" stop-color="#F99C4D"/><stop offset=".866" stop-color="#F8924F"/><stop offset="1" stop-color="#F8924F"/></linearGradient><linearGradient id="ay" x1="65.281" y1="183.253" x2="28.326" y2="195.113" gradientUnits="userSpaceOnUse"><stop stop-color="#FCB148"/><stop offset=".052" stop-color="#FDBA46"/><stop offset=".142" stop-color="#FFC244"/><stop offset=".318" stop-color="#FFC444"/><stop offset=".485" stop-color="#FDB946"/><stop offset=".775" stop-color="#F99C4D"/><stop offset=".866" stop-color="#F8924F"/><stop offset="1" stop-color="#F8924F"/></linearGradient><linearGradient id="az" x1="95.176" y1="146.468" x2="62.185" y2="219.252" gradientUnits="userSpaceOnUse"><stop stop-color="#FFDB44"/><stop offset="1" stop-color="#FEEF06"/></linearGradient><linearGradient id="aA" x1="89.107" y1="223.321" x2="82.741" y2="188.545" gradientUnits="userSpaceOnUse"><stop stop-color="#FCB148"/><stop offset=".052" stop-color="#FDBA46"/><stop offset=".142" stop-color="#FFC244"/><stop offset=".318" stop-color="#FFC444"/><stop offset=".485" stop-color="#FDB946"/><stop offset=".775" stop-color="#F99C4D"/><stop offset=".866" stop-color="#F8924F"/><stop offset="1" stop-color="#F8924F"/></linearGradient><linearGradient id="aB" x1="75.61" y1="167.032" x2="101.844" y2="222.722" gradientUnits="userSpaceOnUse"><stop stop-color="#FCB148"/><stop offset=".052" stop-color="#FDBA46"/><stop offset=".142" stop-color="#FFC244"/><stop offset=".318" stop-color="#FFC444"/><stop offset=".485" stop-color="#FDB946"/><stop offset=".775" stop-color="#F99C4D"/><stop offset=".866" stop-color="#F8924F"/><stop offset="1" stop-color="#F8924F"/></linearGradient><linearGradient id="aC" x1="65.829" y1="179.043" x2="98.239" y2="180.094" gradientUnits="userSpaceOnUse"><stop stop-color="#FFDB44"/><stop offset="1" stop-color="#FEEF06"/></linearGradient><linearGradient id="aD" x1="79.617" y1="189.997" x2="93.133" y2="190.435" gradientUnits="userSpaceOnUse"><stop stop-color="#FFDB44"/><stop offset="1" stop-color="#FEEF06"/></linearGradient><linearGradient id="aE" x1="67.892" y1="170.636" x2="94.073" y2="226.213" gradientUnits="userSpaceOnUse"><stop stop-color="#FCB148"/><stop offset=".052" stop-color="#FDBA46"/><stop offset=".142" stop-color="#FFC244"/><stop offset=".318" stop-color="#FFC444"/><stop offset=".485" stop-color="#FDB946"/><stop offset=".775" stop-color="#F99C4D"/><stop offset=".866" stop-color="#F8924F"/><stop offset="1" stop-color="#F8924F"/></linearGradient></defs></svg>
