<svg width="348" height="347" fill="none" xmlns="http://www.w3.org/2000/svg">
    <style>
    #image3-petal1{
    animation: move3 5s ease-in-out infinite;
    }
    #image3-petal2{
    animation: move3 5s .5s ease-in-out infinite;
    }

        #image3-coin1{
        opacity:0;
        animation: move6 5s ease-in-out infinite;
        }

        #image3-coin2{
        opacity:0;

        animation: move6 5s 1s ease-in-out infinite;
        }

        #image3-coin3{
        opacity:0;

        animation: move6 5s 1.5s ease-in-out infinite;
        }

        #image3-coin4{
        opacity:0;

        animation: move6 5s 2s ease-in-out infinite;
        }

        #image3-done1{
        opacity:0;
        animation: opacity1 3s 1s ease-in-out;
        animation-fill-mode:forwards;

        }
        #image3-done2{
        opacity:0;
        animation: opacity1 3s 1.3s ease-in-out;
        animation-fill-mode:forwards;

        }
        #image3-done3{
        opacity:0;
        animation: opacity1 3s 1.6s ease-in-out;
        animation-fill-mode:forwards;

        }
        #image3-done4{
        opacity:0;
        animation: opacity1 3s 1.9s ease-in-out;
        animation-fill-mode:forwards;

        }
        #image3-done5{
        opacity:0;
        animation: opacity1 3s 2.2s ease-in-out;
        animation-fill-mode:forwards;

        }


        @keyframes opacity1 {
        0% {
        opacity:0;
        }
        100%{
        opacity:1;
        }
        }

    @keyframes move5 {
    0% {
    transform: translate3d(0, 0, 0);
    }
    50% {
    transform: translate3d(5px, 2px, 0);
    }
    100%{
    transform: translate3d(0, 0, 0);
    }
    }
        @keyframes move6 {
        0% {
        transform: translate3d(0, 0, 0);
        opacity:0;
        }
        50% {
        transform: translate3d(10px, -20px, 0);
        opacity:1;
        }
        100%{
        opacity:0;
        transform: translate3d(-20px, -250px, 0);
        }
        }

    @keyframes move1 {
    0% {
    transform: translate3d(0, 0, 0);
    }
    100% {
    transform: translate3d(10px, 2px, 0);
    }
    }
    @keyframes move2 {
    0% {
    transform: translate3d(0, 0, 0);
    }
    50% {
    transform: translate3d(-6px, -5px, 0);
    }
    100%{
    transform: translate3d(0, 0, 0);
    }
    }
    @keyframes move3 {
    0% {
    transform: translate3d(0, 0, 0);
    }
    50% {
    transform: translate3d(-8px, -5px, 0);
    }
    100%{
    transform: translate3d(0, 0, 0);
    }
    }
        @keyframes move4 {
        0% {
        transform: translate3d(0, 0, 0);
        }
        50% {
        transform: translate3d(8px, 2px, 0);
        }
        100%{
        transform: translate3d(0, 0, 0);
        }
        }
    </style>


    <path opacity=".3" d="M325.634 238.003c-34.427 79.591-125.322 113.779-196.53 107.951-19.448-1.586-58.57-4.796-89.108-33.357-58.658-54.857-49.633-169.542 6.533-237.05 7.238-8.698 57.286-66.953 135.292-66.173 57.11.567 97.201 32.476 102.073 36.454 6.155 5.022 19.737 16.955 31.985 35.887 28.75 44.46 31.28 106.554 9.755 156.288Z" fill="url(#a)"/>
    <g id="image3-petal1">
        <path d="M302.384 63.551c2.115-3.36 7.326-1.46 6.798 2.468-2.719 20.278-5.954 55.675.428 78.811 9.377 34.011 26.232 134.07-68.842 159.409-.013 0 9.038-157.295 61.616-240.688Z" fill="url(#b)"/>
        <path opacity=".6" d="M294.354 105.594s-.089.189-.24.554a23.36 23.36 0 0 0-.604 1.649c-.503 1.447-1.133 3.625-1.762 6.419a93.765 93.765 0 0 0-1.687 10.196c-.44 3.965-.768 8.459-.78 13.368-.076 2.455.075 5.01.1 7.654.051 1.321.151 2.668.227 4.028l.113 2.064c.051.692.126 1.385.189 2.09.139 1.397.264 2.819.403 4.254.075.68.176 1.435.264 2.165.088.73.164 1.473.277 2.191.39 2.895.869 5.903 1.385 8.949.503 3.047 1.045 6.143 1.548 9.303.239 1.586.491 3.172.718 4.77.113.806.226 1.611.339 2.405.101.805.202 1.623.315 2.429.227 1.624.378 3.26.567 4.897.176 1.636.289 3.297.44 4.946.088 1.662.202 3.324.252 4.998l.05 2.505.025 1.258-.012 1.259c-.038 6.697-.617 13.419-1.876 19.914a97.883 97.883 0 0 1-5.589 18.554c-.302.73-.591 1.447-.893 2.178-.34.704-.667 1.397-1.007 2.102-.667 1.384-1.297 2.782-2.052 4.091-.73 1.321-1.423 2.643-2.165 3.914-.768 1.259-1.536 2.493-2.291 3.714-3.122 4.821-6.382 9.163-9.642 12.94-.806.944-1.599 1.875-2.379 2.782-.819.868-1.624 1.712-2.405 2.542-.78.819-1.535 1.624-2.278 2.405l-2.253 2.177c-2.857 2.858-5.564 5.123-7.729 7.037-1.07.982-2.115 1.749-2.983 2.454-.881.705-1.624 1.297-2.228 1.788l-1.851 1.485a.208.208 0 0 1-.302-.038.201.201 0 0 1 .026-.289h.012s.604-.554 1.75-1.599c.566-.529 1.271-1.171 2.102-1.926.415-.377.856-.78 1.334-1.221.239-.214.491-.44.73-.667.239-.239.491-.491.756-.743a665.876 665.876 0 0 0 3.398-3.348c.315-.302.63-.617.944-.931.315-.315.63-.668.944-1.007.642-.68 1.309-1.385 1.989-2.115.68-.73 1.397-1.485 2.127-2.253.693-.806 1.41-1.637 2.14-2.48.73-.843 1.486-1.725 2.254-2.606.73-.919 1.472-1.863 2.24-2.832l1.158-1.46c.189-.239.39-.491.592-.743.189-.251.365-.516.554-.78.742-1.032 1.498-2.09 2.265-3.172.793-1.058 1.486-2.203 2.228-3.349.366-.566.743-1.145 1.121-1.724l.566-.869.529-.906c.705-1.208 1.41-2.442 2.14-3.688.692-1.259 1.322-2.568 2.001-3.864.705-1.297 1.272-2.669 1.888-4.028.302-.68.617-1.373.919-2.065l.831-2.115a94.784 94.784 0 0 0 5.123-18c1.146-6.281 1.7-12.764 1.687-19.271 0-6.508-.504-13.016-1.271-19.423-.101-.806-.189-1.599-.29-2.392-.113-.793-.214-1.586-.327-2.379-.214-1.586-.453-3.159-.68-4.733-.466-3.147-.931-6.256-1.385-9.315-.453-3.071-.881-6.092-1.233-9.1a136.378 136.378 0 0 1-.441-4.431c-.088-1.46-.189-2.908-.277-4.343-.037-.717-.1-1.422-.126-2.127-.025-.705-.037-1.41-.05-2.102-.038-1.385-.088-2.757-.101-4.104.038-2.694.038-5.299.202-7.792.038-.629.063-1.246.101-1.85.012-.302.037-.604.05-.906l.075-.894c.114-1.196.214-2.354.315-3.487.113-1.133.29-2.228.428-3.298.076-.528.151-1.057.214-1.573.088-.516.176-1.02.264-1.523.189-.995.315-1.964.529-2.896.201-.931.39-1.825.567-2.681.427-1.699.805-3.272 1.246-4.657.818-2.795 1.649-4.934 2.265-6.357.303-.717.567-1.259.743-1.624.176-.365.277-.541.277-.541.063-.101.189-.138.29-.075.075.037.1.163.063.264Z" fill="#fff"/>

    </g>
    <g id="image3-petal2">
        <path d="M256.087 303.61s42.697 14.777 74.607-31.935c29.971-43.881 11.958-98.75-1.259-130.093-.692-1.636-3.084-1.334-3.348.428-3.966 26.396-22.419 129.589-72.278 161.524l2.278.076Z" fill="url(#c)"/>
        <path opacity=".6" d="M260.544 304.201s.125-.025.365-.076c.239-.05.591-.125 1.057-.239a57.015 57.015 0 0 0 3.965-1.107c.856-.24 1.775-.579 2.795-.907 1.007-.377 2.089-.755 3.235-1.233 2.29-.907 4.821-2.077 7.514-3.487 2.694-1.385 5.514-3.097 8.396-5.01 1.41-1.007 2.883-2.014 4.305-3.147.365-.277.718-.554 1.083-.843l.541-.428.529-.453 2.127-1.825c2.794-2.543 5.576-5.287 8.119-8.321.327-.378.642-.755.969-1.133l.479-.566.453-.592c.604-.793 1.208-1.586 1.812-2.391.63-.781 1.171-1.637 1.725-2.468l1.687-2.505 1.535-2.593.768-1.296c.126-.214.264-.428.378-.655l.34-.667c.465-.894.918-1.775 1.384-2.668.227-.441.453-.882.693-1.322l.604-1.36c.403-.906.805-1.812 1.208-2.706.189-.453.416-.894.592-1.347.176-.453.34-.919.516-1.372.34-.906.692-1.812 1.032-2.706.164-.453.353-.894.504-1.334.151-.454.289-.907.428-1.36.289-.906.579-1.787.856-2.681.276-.881.591-1.75.793-2.643.465-1.763.931-3.487 1.372-5.161.39-1.687.704-3.349 1.057-4.947.164-.806.365-1.586.491-2.354.126-.781.252-1.548.377-2.291.24-1.498.479-2.933.718-4.305.189-1.372.327-2.681.466-3.915.151-1.233.302-2.379.428-3.436.126-1.07.163-2.052.251-2.933.152-1.775.265-3.172.365-4.116.089-.957.139-1.46.139-1.46v-.013a.208.208 0 0 1 .415.025s.013.516.026 1.473c.012.956.025 2.366.037 4.154 0 .893.025 1.888-.025 2.97-.063 1.083-.113 2.241-.189 3.487-.075 1.246-.138 2.581-.251 3.978a294.921 294.921 0 0 1-.517 4.38c-.088.768-.188 1.549-.276 2.342-.101.793-.265 1.598-.403 2.416-.302 1.637-.592 3.324-.944 5.061-.416 1.724-.844 3.486-1.284 5.287-.202.906-.504 1.8-.781 2.706-.277.906-.566 1.825-.856 2.744-.138.466-.289.919-.428 1.385-.163.465-.34.918-.503 1.372-.353.919-.705 1.837-1.058 2.769l-.528 1.397c-.176.466-.403.919-.604 1.372-.416.919-.831 1.838-1.247 2.769-.214.466-.415.932-.629 1.385l-.717 1.36c-.479.906-.957 1.812-1.435 2.731l-.353.68c-.126.226-.264.44-.39.667l-.793 1.322-1.599 2.656-1.762 2.542c-.592.844-1.158 1.712-1.813 2.505-.629.806-1.258 1.624-1.9 2.43l-.479.604-.503.579c-.34.377-.667.768-1.007 1.145-2.631 3.097-5.564 5.841-8.472 8.384-.742.616-1.485 1.221-2.228 1.825l-.554.453-.566.415-1.133.831c-1.473 1.146-3.008 2.115-4.481 3.097-.743.478-1.498.919-2.241 1.359-.365.227-.73.441-1.095.655-.365.214-.742.403-1.107.604-.731.39-1.448.78-2.153 1.171-.717.352-1.422.692-2.127 1.032-2.795 1.309-5.4 2.391-7.767 3.21-1.17.44-2.291.767-3.323 1.107-1.045.29-1.989.592-2.857.806a56.903 56.903 0 0 1-4.066.894c-.478.088-.843.138-1.083.176-.251.038-.377.05-.377.05-.114.013-.227-.063-.239-.176a.304.304 0 0 1 .214-.214Z" fill="#fff"/>
    </g>

    <path d="m73.504 38.842 182.722 3.11c10.082.175 18.264 8.206 18.604 18.289l8.975 265.145c.265 7.88-6.042 14.426-13.934 14.438l-209.496.239c-7.414.013-13.393-6.067-13.267-13.481l4.544-266.618c.201-11.87 9.982-21.323 21.852-21.122Z" fill="url(#d)"/>
    <path d="M91.064 336.01h-.013l-23.425-.705c-7.792-.239-14.023-6.772-13.897-14.564l.604-35.383c0-.24.189-.403.428-.416.24 0 .428.202.415.428l-.604 35.384c-.126 7.338 5.74 13.481 13.066 13.695l23.426.705a.433.433 0 0 1 .415.441.42.42 0 0 1-.415.415ZM54.95 274.834c-.013 0-.013 0 0 0a.432.432 0 0 1-.428-.428l.1-5.727c0-.239.202-.441.429-.415.239 0 .428.201.415.428l-.1 5.727a.41.41 0 0 1-.416.415Z" fill="#fff"/>
    <path d="M74.096 36.702c24.898 3.814 110.519 15.735 181.563 11.505 3.235-.189 6.004 2.304 6.118 5.551l9.604 266.341c.126 3.651-2.706 6.722-6.357 6.873-29.87 1.259-152.863 5.992-196.618.655a5.264 5.264 0 0 1-4.62-5.287l3.122-279.52c.05-3.802 3.436-6.684 7.188-6.118Z" fill="url(#e)"/>
    <path opacity=".6" d="M76.651 43.65c23.955 3.663 106.366 15.143 174.716 11.065a5.547 5.547 0 0 1 5.891 5.337l9.252 256.309a6.398 6.398 0 0 1-6.117 6.621c-28.738 1.208-147.112 5.765-189.205.629a5.06 5.06 0 0 1-4.443-5.085L69.74 49.529c.037-3.65 3.298-6.42 6.91-5.879Z" fill="#fff"/>
    <path d="M249.126 77.184a1.587 1.587 0 0 0 1.624-1.675l-.013-.29c-.05-.93-.843-1.724-1.787-1.736L93.694 69.618c-.931-.025-1.233.567-.667 1.31l1.775 2.303c.566.743 1.8 1.36 2.744 1.372l151.58 2.58ZM93.519 79.852c-.932-.025-1.234.566-.668 1.31l1.775 2.303c.567.742 1.8 1.36 2.744 1.372l151.58 2.58a1.587 1.587 0 0 0 1.624-1.674l-.013-.29c-.05-.93-.843-1.724-1.787-1.737L93.519 79.852Z" fill="#fff" opacity=".6"/>
    <path d="M118.757 173.328h-.051l-20.568.113c-2.958.013-5.438-1.989-5.765-4.657l-2.077-17.233c-.126-1.019.176-2.039.856-2.87.755-.919 1.9-1.51 3.16-1.624 1.737-.138 4.116-.39 6.746-.654 5.715-.579 12.198-1.234 16.012-1.334h.088c2.731-.038 5.098 1.586 5.79 3.977 1.133 3.953 1.158 11.455 1.07 19.448-.038 2.631-2.391 4.783-5.261 4.834ZM94.45 148.744c-.806.063-1.536.428-2.002 1.007a2.182 2.182 0 0 0-.49 1.611l2.076 17.233c.215 1.825 1.977 3.197 4.091 3.184l20.569-.113h.037c1.964-.025 3.575-1.435 3.588-3.159.075-7.868.063-15.231-1.007-18.97-.478-1.649-2.279-2.857-4.204-2.757-3.752.101-10.473.781-15.886 1.322-2.63.252-5.022.491-6.772.642Z" fill="#fff"/>
    <path  id="image3-done2" opacity=".6" d="M96.69 150.443c4.318-.365 13.696-1.46 18.139-1.586 1.889-.05 3.563 1.058 4.028 2.694.907 3.16.894 9.504.831 15.344-.012 1.75-1.598 3.172-3.562 3.185l-16.44.088c-2.026.013-3.725-1.347-3.94-3.134l-1.66-13.771c-.165-1.41 1.006-2.694 2.605-2.82Zm39.865 4.696c-.931-.013-1.498.717-1.246 1.623l1.951 6.961c.252.907 1.221 1.624 2.165 1.612l103.52-1.587a1.66 1.66 0 0 0 1.637-1.724l-.164-4.267c-.038-.932-.831-1.712-1.762-1.712l-106.101-.906Z" fill="#fff"/>

    <path d="M119.965 127.144h-.05l-20.568.113c-2.959.013-5.438-1.989-5.766-4.657l-2.077-17.233c-.125-1.019.177-2.039.856-2.87.756-.919 1.901-1.51 3.16-1.623 1.737-.139 4.116-.391 6.747-.655 5.715-.58 12.197-1.234 16.011-1.334h.088c2.732-.038 5.098 1.586 5.791 3.977 1.133 3.953 1.158 11.455 1.07 19.448-.051 2.644-2.392 4.796-5.262 4.834ZM95.658 102.56c-.805.063-1.535.428-2.001 1.007a2.182 2.182 0 0 0-.49 1.611l2.076 17.233c.214 1.825 1.976 3.197 4.091 3.185l20.568-.114h.038c1.964-.025 3.575-1.435 3.587-3.159.076-7.867.063-15.231-1.007-18.97-.478-1.649-2.278-2.857-4.204-2.756-3.751.1-10.473.78-15.885 1.321-2.644.265-5.035.504-6.773.642Z" fill="#fff"/>

    <path id="image3-done1" opacity=".6" d="M97.886 104.26c4.318-.365 13.696-1.461 18.139-1.586 1.888-.051 3.562 1.057 4.028 2.693.907 3.16.894 9.504.831 15.345-.013 1.749-1.599 3.172-3.562 3.184l-16.44.088c-2.026.013-3.726-1.347-3.94-3.134l-1.661-13.771c-.151-1.397 1.007-2.681 2.605-2.819Zm39.865 4.707c-.932-.012-1.498.718-1.246 1.624l1.951 6.961c.252.906 1.221 1.624 2.165 1.611l103.52-1.586a1.661 1.661 0 0 0 1.637-1.724l-.164-4.267c-.038-.932-.831-1.712-1.762-1.712l-106.101-.907Z" fill="#fff"/>
    <path d="M119.436 217.397h-.05l-20.568.113c-2.958.013-5.438-1.989-5.765-4.657l-2.077-17.233c-.126-1.019.176-2.039.856-2.87.755-.919 1.9-1.51 3.16-1.624 1.736-.138 4.115-.39 6.746-.654 5.715-.579 12.197-1.234 16.012-1.334h.088c2.731-.038 5.098 1.586 5.79 3.977 1.133 3.953 1.158 11.455 1.07 19.448-.038 2.644-2.392 4.796-5.262 4.834ZM95.13 192.813c-.806.063-1.536.428-2.002 1.007a2.182 2.182 0 0 0-.49 1.611l2.076 17.233c.214 1.825 1.976 3.197 4.091 3.185l20.568-.114h.038c1.964-.025 3.575-1.435 3.588-3.159.075-7.868.062-15.231-1.007-18.97-.479-1.649-2.279-2.845-4.205-2.756-3.751.1-10.473.78-15.885 1.321-2.631.252-5.035.504-6.772.642Z" fill="#fff"/>
    <path id="image3-done3" opacity=".6" d="M97.37 194.512c4.318-.365 13.696-1.46 18.139-1.586 1.888-.05 3.563 1.058 4.028 2.694.907 3.16.894 9.504.831 15.344-.012 1.75-1.599 3.173-3.562 3.185l-16.44.088c-2.026.013-3.725-1.334-3.94-3.134l-1.661-13.771c-.164-1.397.994-2.681 2.606-2.82Zm39.853 4.708c-.932-.012-1.498.718-1.247 1.624l1.951 6.961c.252.906 1.221 1.624 2.166 1.611l103.52-1.586a1.66 1.66 0 0 0 1.636-1.724l-.163-4.267c-.038-.932-.831-1.712-1.763-1.712l-106.1-.907Z" fill="#fff"/>
    <path d="M118.165 259.754h-.051l-20.568.114c-2.958.012-5.438-1.989-5.765-4.658l-2.077-17.232c-.126-1.02.176-2.04.856-2.87.755-.919 1.9-1.511 3.16-1.624 1.737-.139 4.116-.39 6.734-.655 5.438-.541 12.197-1.233 16.011-1.334 2.707-.05 5.174 1.561 5.866 3.978 1.133 3.952 1.158 11.454 1.07 19.448-.025 2.643-2.366 4.783-5.236 4.833Zm-24.307-24.583c-.806.063-1.536.428-2.001 1.007a2.18 2.18 0 0 0-.491 1.611l2.077 17.232c.214 1.825 1.976 3.198 4.09 3.185l20.569-.113c1.938-.063 3.612-1.423 3.625-3.16.076-7.867.063-15.231-1.007-18.969-.478-1.649-2.278-2.82-4.204-2.757-3.751.101-10.486.78-15.886 1.322-2.643.251-5.035.491-6.772.642Z" fill="#fff"/>
    <path id="image3-done4" opacity=".6" d="M96.086 236.87c4.318-.365 13.695-1.46 18.139-1.586 1.888-.05 3.562 1.057 4.028 2.694.906 3.159.894 9.503.831 15.344-.013 1.75-1.599 3.172-3.563 3.185l-16.439.088c-2.027.012-3.726-1.335-3.94-3.135l-1.661-13.77c-.151-1.41 1.007-2.694 2.605-2.82Zm39.866 4.695c-.932-.012-1.498.718-1.247 1.624l1.951 6.961c.252.906 1.221 1.624 2.166 1.611l103.52-1.586a1.66 1.66 0 0 0 1.636-1.724l-.163-4.268c-.038-.931-.831-1.712-1.763-1.712l-106.1-.906Z" fill="#fff"/>
    <path d="M116.49 303.433h-.05l-20.568.114c-2.958.012-5.438-1.989-5.765-4.658l-2.077-17.232c-.126-1.02.176-2.039.856-2.87.755-.919 1.9-1.511 3.16-1.624 1.736-.139 4.115-.39 6.746-.655 5.715-.579 12.198-1.233 16.012-1.334 2.794 0 5.173 1.561 5.866 3.978 1.132 3.952 1.158 11.454 1.069 19.448-.025 2.643-2.379 4.783-5.249 4.833ZM92.184 278.85c-.806.063-1.536.428-2.002 1.007a2.18 2.18 0 0 0-.49 1.611l2.076 17.232c.214 1.826 1.977 3.198 4.091 3.185l20.569-.113h.037c1.964-.025 3.575-1.435 3.588-3.16.075-7.867.063-15.231-1.007-18.969-.479-1.649-2.279-2.795-4.205-2.757-3.751.101-10.472.78-15.885 1.322-2.63.251-5.023.491-6.772.642Z" fill="#fff"/>
    <path id="image3-done5" opacity=".6" d="M94.425 280.549c4.318-.365 13.695-1.46 18.139-1.586 1.888-.051 3.562 1.057 4.028 2.694.906 3.159.894 9.503.831 15.344-.013 1.75-1.599 3.172-3.563 3.185l-16.44.088c-2.026.012-3.725-1.347-3.939-3.135l-1.661-13.771c-.164-1.409 1.007-2.681 2.605-2.819Zm39.864 4.708c-.931-.013-1.497.717-1.246 1.624l1.951 6.96c.252.907 1.221 1.624 2.165 1.612l103.521-1.586a1.661 1.661 0 0 0 1.636-1.725l-.163-4.267c-.038-.932-.831-1.712-1.763-1.712l-106.101-.906Z" fill="#fff"/>
    <path d="M176.81 4.478C170.29-.23 164.55-.23 160.484.89c-3.701 1.02-6.155 4.544-5.866 8.371l1.423 19.045 20.706 2.19c-.012 0 12.852-16.791.063-26.018Zm-9.377 15.18a5.174 5.174 0 1 1 .175-10.347 5.174 5.174 0 0 1-.175 10.347Z" fill="url(#f)"/>
    <path d="M157.879 20.804a1.035 1.035 0 0 1-.655-.881l-.226-3.034a1.018 1.018 0 0 1 .944-1.095 1.019 1.019 0 0 1 1.095.944l.227 3.034a1.02 1.02 0 0 1-.945 1.095 1.04 1.04 0 0 1-.44-.063Zm-.441-5.941a1.034 1.034 0 0 1-.654-.881l-.176-2.304c-.29-3.902 2.228-7.49 5.979-8.522a16.05 16.05 0 0 1 7.842-.189c.541.126.906.668.78 1.221a1.022 1.022 0 0 1-1.221.78 14 14 0 0 0-6.847.164c-2.808.78-4.696 3.462-4.482 6.395l.177 2.304a1.02 1.02 0 0 1-.944 1.095 1.077 1.077 0 0 1-.454-.063Z" fill="#fff"/>
    <path d="m127.53 40.113.163-9.566c.051-3.298 2.833-5.891 6.131-5.728l65.883 3.386a5.68 5.68 0 0 1 5.375 5.426l.39 9.201-77.942-2.719Z" fill="url(#g)"/>
    <path d="M152.328 28.671c-.013 0-.013 0 0 0l-2.845-.05a.415.415 0 0 1-.416-.428c0-.227.189-.415.428-.415h.013l2.832.05c.239 0 .428.201.416.428a.44.44 0 0 1-.428.415Zm-21.538 8.963a1.017 1.017 0 0 1-.654-.982l.063-3.865a5.907 5.907 0 0 1 1.812-4.179 5.904 5.904 0 0 1 4.23-1.674l10.422.176a1.025 1.025 0 1 1-.038 2.052l-10.422-.176c-2.14-.038-3.927 1.674-3.953 3.826l-.063 3.865a1.025 1.025 0 0 1-1.044 1.007.833.833 0 0 1-.353-.05Z" fill="#fff"/>
    <path d="m106.937 36.261 115.277 1.964c4.142.076 7.641 3.11 8.271 7.213l.088.566c.692 4.482-2.82 8.522-7.352 8.447l-118.26-2.014c-2.719-.05-4.846-2.354-4.67-5.06l.34-5.288a6.226 6.226 0 0 1 6.306-5.828Z" fill="url(#h)"/>
    <g id="image3-coin1">
        <path d="M157.073 118.396c8.405 0 15.218-6.814 15.218-15.219s-6.813-15.218-15.218-15.218c-8.405 0-15.219 6.813-15.219 15.218 0 8.405 6.814 15.219 15.219 15.219Z" fill="url(#i)"/>
        <path d="M157.073 117.892c8.127 0 14.715-6.588 14.715-14.715 0-8.127-6.588-14.715-14.715-14.715-8.127 0-14.715 6.588-14.715 14.715 0 8.127 6.588 14.715 14.715 14.715Z" fill="url(#j)"/>
        <path d="M144.951 97.488a.355.355 0 0 1-.188-.05.421.421 0 0 1-.189-.567 13.946 13.946 0 0 1 12.512-7.704c.843 0 1.699.076 2.53.227.227.038.39.264.34.49a.417.417 0 0 1-.491.34 13.584 13.584 0 0 0-2.379-.213c-4.997 0-9.491 2.769-11.744 7.238a.462.462 0 0 1-.391.239Z" fill="#fff"/>
        <path opacity=".78" d="M169.515 106.369c1.58-6.692-2.564-13.397-9.255-14.977-6.691-1.58-13.396 2.564-14.976 9.255-1.58 6.691 2.563 13.396 9.254 14.976 6.692 1.58 13.397-2.563 14.977-9.254Z" fill="#fff"/>
        <path d="M156.179 112.744v-1.36c-1.409-.05-2.807-.39-3.801-.818-.353-.151-.529-.554-.428-.931l.34-1.259a.783.783 0 0 1 1.07-.516c.982.415 2.203.742 3.512.742 1.359 0 2.379-.465 2.379-1.409 0-.856-.781-1.36-2.669-1.863-2.694-.743-4.632-1.914-4.632-4.293 0-2.14 1.573-3.776 4.292-4.217v-1.359a.79.79 0 0 1 .793-.793h.793a.79.79 0 0 1 .793.793v1.221c1.31.05 2.254.277 3.009.541.39.139.604.554.491.944l-.315 1.171a.79.79 0 0 1-1.045.529 8.149 8.149 0 0 0-2.958-.542c-1.611 0-2.077.668-2.077 1.272 0 .742.969 1.246 3.072 1.888 2.995.894 4.242 2.14 4.242 4.38 0 2.052-1.523 3.89-4.469 4.356v1.51a.79.79 0 0 1-.793.793h-.793a.775.775 0 0 1-.806-.78Z" fill="url(#k)"/>
    </g>

    <g id="image3-coin2">

        <path d="M200.387 111.611c14.627 0 26.484-11.858 26.484-26.484 0-14.627-11.857-26.485-26.484-26.485-14.627 0-26.484 11.858-26.484 26.485 0 14.627 11.857 26.484 26.484 26.484Z" fill="url(#l)"/>
        <path d="M200.387 110.73c14.141 0 25.604-11.463 25.604-25.603 0-14.14-11.463-25.604-25.604-25.604-14.14 0-25.603 11.463-25.603 25.604 0 14.14 11.463 25.603 25.603 25.603Z" fill="url(#m)"/>
        <path d="M179.265 74.918a.356.356 0 0 1-.189-.05.422.422 0 0 1-.189-.567c4.116-8.156 12.361-13.23 21.5-13.23 1.46 0 2.92.127 4.343.391.226.038.39.264.34.49a.418.418 0 0 1-.491.34 23.278 23.278 0 0 0-4.192-.377c-8.811 0-16.754 4.897-20.732 12.764a.43.43 0 0 1-.39.24Z" fill="#fff"/>
        <path opacity=".78" d="M216.27 101.021c8.464-8.465 8.464-22.19 0-30.654-8.465-8.465-22.19-8.465-30.654 0-8.465 8.465-8.465 22.189 0 30.654 8.464 8.464 22.189 8.464 30.654 0Z" fill="#fff"/>
        <path d="M198.814 101.793v-2.354c-2.455-.1-4.884-.68-6.621-1.435-.617-.264-.932-.957-.756-1.611l.604-2.19a1.365 1.365 0 0 1 1.863-.894c1.712.717 3.827 1.284 6.105 1.284 2.367 0 4.129-.806 4.129-2.442 0-1.486-1.359-2.367-4.657-3.248-4.695-1.284-8.069-3.336-8.069-7.465 0-3.725 2.732-6.583 7.465-7.338v-2.354c0-.755.616-1.372 1.372-1.372h1.384c.755 0 1.372.617 1.372 1.372v2.115c2.279.088 3.928.478 5.249.944a1.37 1.37 0 0 1 .856 1.649l-.554 2.026a1.368 1.368 0 0 1-1.812.92 14.418 14.418 0 0 0-5.149-.932c-2.807 0-3.612 1.158-3.612 2.203 0 1.284 1.687 2.165 5.337 3.285 5.211 1.56 7.389 3.726 7.389 7.628 0 3.575-2.644 6.785-7.779 7.578v2.643c0 .756-.617 1.372-1.372 1.372h-1.385a1.374 1.374 0 0 1-1.359-1.384Z" fill="url(#n)"/>

    </g>
    <g id="image3-coin3">
        <path d="M218.652 171.54c15.051 0 27.252-12.201 27.252-27.252 0-15.051-12.201-27.252-27.252-27.252-15.051 0-27.253 12.201-27.253 27.252 0 15.051 12.202 27.252 27.253 27.252Z" fill="url(#o)"/>
        <path d="M218.652 170.634c14.55 0 26.345-11.795 26.345-26.346 0-14.55-11.795-26.346-26.345-26.346-14.551 0-26.346 11.796-26.346 26.346 0 14.551 11.795 26.346 26.346 26.346Z" fill="url(#p)"/>
        <path d="M196.926 133.765a.355.355 0 0 1-.189-.051.42.42 0 0 1-.189-.566c4.242-8.396 12.713-13.607 22.104-13.607 1.498 0 2.996.138 4.468.403a.416.416 0 0 1 .34.49.416.416 0 0 1-.491.34 24.649 24.649 0 0 0-4.317-.39c-9.076 0-17.258 5.035-21.349 13.142a.426.426 0 0 1-.377.239Z" fill="#fff"/>
        <path opacity=".78" d="M235.002 160.634c8.711-8.711 8.711-22.833 0-31.544-8.711-8.711-22.833-8.711-31.544 0-8.711 8.711-8.711 22.833 0 31.544 8.711 8.711 22.833 8.711 31.544 0Z" fill="#fff"/>
        <path d="M217.041 161.445v-2.429c-2.531-.101-5.035-.693-6.81-1.473-.63-.277-.957-.994-.781-1.662l.617-2.265a1.426 1.426 0 0 1 1.926-.932c1.762.743 3.94 1.322 6.281 1.322 2.442 0 4.255-.831 4.255-2.518 0-1.523-1.41-2.442-4.784-3.348-4.833-1.322-8.295-3.424-8.295-7.678 0-3.84 2.807-6.773 7.679-7.553v-2.429c0-.781.629-1.41 1.409-1.41h1.423c.78 0 1.41.629 1.41 1.41v2.177c2.341.088 4.04.491 5.4.97.692.239 1.07.994.881 1.699l-.567 2.089a1.416 1.416 0 0 1-1.863.957 14.845 14.845 0 0 0-5.286-.957c-2.895 0-3.714 1.196-3.714 2.266 0 1.322 1.737 2.228 5.489 3.386 5.362 1.611 7.602 3.839 7.602 7.842 0 3.676-2.718 6.974-8.005 7.805v2.719c0 .78-.63 1.409-1.41 1.409h-1.422a1.394 1.394 0 0 1-1.435-1.397Z" fill="url(#q)"/>

    </g>
    <g id="image3-coin4">
        <path d="M253.62 127.131c11.026 0 19.964-8.938 19.964-19.963 0-11.026-8.938-19.964-19.964-19.964-11.026 0-19.964 8.938-19.964 19.964 0 11.025 8.938 19.963 19.964 19.963Z" fill="url(#r)"/>
        <path d="M253.62 126.477c10.665 0 19.31-8.645 19.31-19.309 0-10.665-8.645-19.31-19.31-19.31-10.664 0-19.309 8.645-19.309 19.31 0 10.664 8.645 19.309 19.309 19.309Z" fill="url(#s)"/>
        <path d="M237.697 99.565a.356.356 0 0 1-.189-.05.422.422 0 0 1-.189-.567c3.122-6.193 9.366-10.032 16.301-10.032 1.108 0 2.216.1 3.286.302.226.038.39.264.34.49a.418.418 0 0 1-.491.34 17.371 17.371 0 0 0-3.135-.276c-6.608 0-12.562 3.663-15.533 9.566a.448.448 0 0 1-.39.227Z" fill="#fff"/>
        <path opacity=".78" d="M265.585 119.137c6.381-6.381 6.381-16.726 0-23.106-6.381-6.381-16.726-6.381-23.106 0-6.381 6.38-6.381 16.725 0 23.106 6.38 6.38 16.725 6.38 23.106 0Z" fill="#fff"/>
        <path d="M252.437 119.73v-1.775c-1.85-.075-3.688-.516-4.985-1.082a1.026 1.026 0 0 1-.566-1.221l.453-1.662a1.046 1.046 0 0 1 1.41-.68c1.296.542 2.882.97 4.607.97 1.787 0 3.121-.605 3.121-1.851 0-1.12-1.032-1.787-3.511-2.454-3.538-.97-6.08-2.505-6.08-5.627 0-2.82 2.052-4.96 5.626-5.538v-1.775c0-.567.466-1.033 1.033-1.033h1.044c.567 0 1.033.466 1.033 1.033v1.598c1.711.063 2.958.365 3.952.705.504.176.78.73.642 1.246l-.415 1.536a1.022 1.022 0 0 1-1.36.692 10.868 10.868 0 0 0-3.877-.705c-2.115 0-2.719.882-2.719 1.662 0 .969 1.272 1.636 4.028 2.48 3.928 1.183 5.564 2.807 5.564 5.752 0 2.694-2.001 5.111-5.866 5.715v1.989c0 .566-.466 1.032-1.032 1.032h-1.045a.999.999 0 0 1-1.057-1.007Z" fill="url(#t)"/>

    </g>


    <defs><linearGradient id="a" x1="359.452" y1="391.552" x2="110.35" y2="122.681" gradientUnits="userSpaceOnUse"><stop stop-color="#B37CFF"/><stop offset="1" stop-color="#F895E7"/></linearGradient><linearGradient id="b" x1="350.22" y1="5.521" x2="272.972" y2="243.295" gradientUnits="userSpaceOnUse"><stop stop-color="#CB236D"/><stop offset="1" stop-color="#4C246D"/></linearGradient><linearGradient id="c" x1="358.832" y1="8.225" x2="291.459" y2="305.535" gradientUnits="userSpaceOnUse"><stop stop-color="#A737D5"/><stop offset="1" stop-color="#EF497A"/></linearGradient><linearGradient id="d" x1="36.175" y1="359.288" x2="276.678" y2="53.077" gradientUnits="userSpaceOnUse"><stop stop-color="#2B3582"/><stop offset="1" stop-color="#150E42"/></linearGradient><linearGradient id="e" x1="21.763" y1="391.355" x2="240.216" y2="80.571" gradientUnits="userSpaceOnUse"><stop stop-color="#A737D5"/><stop offset="1" stop-color="#EF497A"/></linearGradient><linearGradient id="f" x1="198.033" y1="-22.195" x2="111.072" y2="86.228" gradientUnits="userSpaceOnUse"><stop stop-color="#2B3582"/><stop offset="1" stop-color="#150E42"/></linearGradient><linearGradient id="g" x1="206.757" y1="-15.286" x2="120.834" y2="93.843" gradientUnits="userSpaceOnUse"><stop stop-color="#2B3582"/><stop offset="1" stop-color="#150E42"/></linearGradient><linearGradient id="h" x1="196.051" y1="-8.702" x2="136.21" y2="96.865" gradientUnits="userSpaceOnUse"><stop stop-color="#2B3582"/><stop offset="1" stop-color="#150E42"/></linearGradient><linearGradient id="i" x1="136.256" y1="127.338" x2="156.664" y2="103.651" gradientUnits="userSpaceOnUse"><stop stop-color="#FDF53F"/><stop offset="1" stop-color="#D93C65"/></linearGradient><linearGradient id="j" x1="168.196" y1="86.374" x2="107.85" y2="177.54" gradientUnits="userSpaceOnUse"><stop stop-color="#FDF53F"/><stop offset="1" stop-color="#D93C65"/></linearGradient><linearGradient id="k" x1="166.396" y1="88.987" x2="134.263" y2="142.932" gradientUnits="userSpaceOnUse"><stop stop-color="#FDF53F"/><stop offset="1" stop-color="#D93C65"/></linearGradient><linearGradient id="l" x1="164.141" y1="127.198" x2="199.667" y2="85.963" gradientUnits="userSpaceOnUse"><stop stop-color="#FDF53F"/><stop offset="1" stop-color="#D93C65"/></linearGradient><linearGradient id="m" x1="219.742" y1="55.887" x2="114.691" y2="214.59" gradientUnits="userSpaceOnUse"><stop stop-color="#FDF53F"/><stop offset="1" stop-color="#D93C65"/></linearGradient><linearGradient id="n" x1="216.608" y1="60.434" x2="160.67" y2="154.345" gradientUnits="userSpaceOnUse"><stop stop-color="#FDF53F"/><stop offset="1" stop-color="#D93C65"/></linearGradient><linearGradient id="o" x1="181.357" y1="187.575" x2="217.913" y2="145.144" gradientUnits="userSpaceOnUse"><stop stop-color="#FDF53F"/><stop offset="1" stop-color="#D93C65"/></linearGradient><linearGradient id="p" x1="238.569" y1="114.197" x2="130.473" y2="277.5" gradientUnits="userSpaceOnUse"><stop stop-color="#FDF53F"/><stop offset="1" stop-color="#D93C65"/></linearGradient><linearGradient id="q" x1="235.345" y1="118.876" x2="177.786" y2="215.509" gradientUnits="userSpaceOnUse"><stop stop-color="#FDF53F"/><stop offset="1" stop-color="#D93C65"/></linearGradient><linearGradient id="r" x1="226.289" y1="138.879" x2="253.073" y2="107.791" gradientUnits="userSpaceOnUse"><stop stop-color="#FDF53F"/><stop offset="1" stop-color="#D93C65"/></linearGradient><linearGradient id="s" x1="268.208" y1="85.116" x2="189.007" y2="204.767" gradientUnits="userSpaceOnUse"><stop stop-color="#FDF53F"/><stop offset="1" stop-color="#D93C65"/></linearGradient><linearGradient id="t" x1="265.845" y1="88.544" x2="223.672" y2="159.346" gradientUnits="userSpaceOnUse"><stop stop-color="#FDF53F"/><stop offset="1" stop-color="#D93C65"/></linearGradient></defs></svg>