<svg width="22" height="22" fill="none" xmlns="http://www.w3.org/2000/svg"><path d="m3.929 18.071.53-.53-.53.53Zm14.142 0-.53-.53.53.53Zm0-14.142-.53.53.53-.53ZM11 .25a10.719 10.719 0 0 0-7.601 3.149l1.06 1.06A9.219 9.219 0 0 1 11 1.75V.25ZM3.399 3.399A10.719 10.719 0 0 0 .25 11h1.5a9.219 9.219 0 0 1 2.71-6.54L3.398 3.398ZM.25 11c0 2.968 1.204 5.657 3.149 7.601l1.06-1.06A9.219 9.219 0 0 1 1.75 11H.25Zm3.149 7.601A10.719 10.719 0 0 0 11 21.75v-1.5a9.219 9.219 0 0 1-6.54-2.71l-1.061 1.061ZM11 21.75c2.968 0 5.657-1.204 7.601-3.149l-1.06-1.06A9.218 9.218 0 0 1 11 20.25v1.5Zm7.601-3.149A10.719 10.719 0 0 0 21.75 11h-1.5a9.218 9.218 0 0 1-2.71 6.54l1.061 1.061ZM21.75 11c0-2.968-1.204-5.657-3.149-7.601l-1.06 1.06A9.219 9.219 0 0 1 20.25 11h1.5Zm-3.149-7.601A10.719 10.719 0 0 0 11 .25v1.5a9.219 9.219 0 0 1 6.54 2.71l1.061-1.061ZM11.75 6.556a.75.75 0 0 0-1.5 0h1.5ZM10.25 11a.75.75 0 0 0 1.5 0h-1.5Zm0-4.444V11h1.5V6.556h-1.5Z" fill="#fff"/><path d="M11.53 10.47a.75.75 0 1 0-1.06 1.06l1.06-1.06Zm1.162 3.283a.75.75 0 0 0 1.06-1.061l-1.06 1.06ZM10.47 11.53l2.222 2.223 1.06-1.061-2.222-2.222-1.06 1.06Z" fill="#fff"/></svg>