<svg width="25" height="18" viewBox="0 0 25 18" fill="none" xmlns="http://www.w3.org/2000/svg">
<path d="M0.321167 9C0.321167 9 4.80823 0 12.6606 0C20.5129 0 25 9 25 9C25 9 20.5129 18 12.6606 18C4.80823 18 0.321167 9 0.321167 9Z" fill="#E7EAEE"/>
<path d="M12.6606 12.375C14.5192 12.375 16.0259 10.864 16.0259 9C16.0259 7.13604 14.5192 5.625 12.6606 5.625C10.802 5.625 9.29529 7.13604 9.29529 9C9.29529 10.864 10.802 12.375 12.6606 12.375Z" fill="#E7EAEE"/>
<path d="M12.6606 12.375C14.5192 12.375 16.0259 10.864 16.0259 9C16.0259 7.13604 14.5192 5.625 12.6606 5.625C10.802 5.625 9.29529 7.13604 9.29529 9C9.29529 10.864 10.802 12.375 12.6606 12.375Z" fill="white"/>
</svg>
