<svg width="30" height="30" viewBox="0 0 30 30" fill="none" xmlns="http://www.w3.org/2000/svg">
<path d="M20.4286 23H12.4286C11.7466 23 11.0926 22.7291 10.6103 22.2468C10.1281 21.7646 9.85718 21.1105 9.85718 20.4285V12.4285C9.85718 11.7466 10.1281 11.0925 10.6103 10.6103C11.0926 10.128 11.7466 9.85712 12.4286 9.85712H20.4286C21.1106 9.85712 21.7646 10.128 22.2469 10.6103C22.7291 11.0925 23 11.7466 23 12.4285V20.4285C23 21.1105 22.7291 21.7646 22.2469 22.2468C21.7646 22.7291 21.1106 23 20.4286 23Z" fill="#000000"/>
<path d="M11.5714 8.71429H19.9957C19.8179 8.2133 19.4895 7.7796 19.0554 7.47267C18.6214 7.16575 18.103 7.00064 17.5714 7H9.57143C8.88944 7 8.23539 7.27092 7.75315 7.75315C7.27092 8.23539 7 8.88944 7 9.57143V17.5714C7.00064 18.103 7.16575 18.6214 7.47267 19.0554C7.7796 19.4895 8.2133 19.8179 8.71429 19.9957V11.5714C8.71429 10.8137 9.01531 10.0869 9.55112 9.55112C10.0869 9.01531 10.8137 8.71429 11.5714 8.71429Z" fill="#000000"/>
</svg>
