<svg width="30" height="30" viewBox="0 0 30 30" fill="none" xmlns="http://www.w3.org/2000/svg">
<path fill-rule="evenodd" clip-rule="evenodd" d="M8.63604 22.364C5.12132 18.8492 5.12132 13.1508 8.63604 9.63604C12.1508 6.12132 17.8492 6.12132 21.364 9.63604C24.8787 13.1508 24.8787 18.8492 21.364 22.364C17.8492 25.8787 12.1508 25.8787 8.63604 22.364ZM12.7841 12.5909C12.4546 12.2614 11.9204 12.2614 11.5909 12.5909C11.2614 12.9204 11.2614 13.4546 11.5909 13.7841L13.8068 16L11.5909 18.2159C11.2614 18.5454 11.2614 19.0796 11.5909 19.4091C11.9204 19.7386 12.4546 19.7386 12.7841 19.4091L15 17.1932L17.2159 19.4091C17.5454 19.7386 18.0796 19.7386 18.4091 19.4091C18.7386 19.0796 18.7386 18.5454 18.4091 18.2159L16.1932 16L18.4091 13.7841C18.7386 13.4546 18.7386 12.9204 18.4091 12.5909C18.0796 12.2614 17.5454 12.2614 17.2159 12.5909L15 14.8068L12.7841 12.5909Z" fill="#000000"/>
</svg>
