<svg width="30" height="30" viewBox="0 0 30 30" fill="none" xmlns="http://www.w3.org/2000/svg">
<path d="M18.0126 6C18.2514 5.99995 18.4805 6.09483 18.6493 6.26374L21.9365 9.55239C22.2878 9.90383 22.2878 10.4735 21.9365 10.8249L12.6293 20.1363C12.4605 20.3051 12.2315 20.4 11.9927 20.4H8.7C8.20294 20.4 7.8 19.9971 7.8 19.5V16.224C7.8 15.9854 7.89467 15.7567 8.06322 15.5879L17.376 6.26399C17.5448 6.09501 17.7738 6.00005 18.0126 6Z" fill="#000000"/>
<path d="M6.9 22.2C6.40294 22.2 6 22.6029 6 23.1C6 23.5971 6.40294 24 6.9 24H23.1C23.5971 24 24 23.5971 24 23.1C24 22.6029 23.5971 22.2 23.1 22.2H6.9Z" fill="#000000"/>
</svg>
