<svg width="21" height="20" viewBox="0 0 21 20" fill="none" xmlns="http://www.w3.org/2000/svg">
<path d="M20.1338 7.79107C19.6722 5.6192 18.4481 3.64241 16.6865 2.225C14.885 0.783622 12.6463 -0.00113866 10.3392 1.24007e-06C7.61954 1.24007e-06 5.07936 1.04777 3.18025 2.95045C1.34498 4.79152 0.33918 7.22232 0.347216 9.7933C0.347278 11.6783 0.900661 13.5217 1.93873 15.0951L2.13293 15.3652L1.0615 20L6.1865 18.725C6.1865 18.725 6.28918 18.7594 6.36507 18.7884C6.44097 18.8174 7.09409 19.0679 7.78695 19.2616C8.36284 19.4223 9.56106 19.6634 10.4999 19.6634C13.1628 19.6634 15.6494 18.6321 17.5012 16.7589C19.3365 14.9004 20.3472 12.4295 20.3472 9.79866C20.3474 9.1238 20.2758 8.45083 20.1338 7.79107Z" fill="#000000"/>
</svg>
