<svg width="20" height="20" viewBox="0 0 20 20" fill="none" xmlns="http://www.w3.org/2000/svg">
<mask id="mask0_14_64" style="mask-type:alpha" maskUnits="userSpaceOnUse" x="0" y="7" width="19" height="6">
<path fill-rule="evenodd" clip-rule="evenodd" d="M2.88659 7.77777C1.66437 7.77777 0.664368 8.77777 0.664368 9.99999C0.664368 11.2222 1.66437 12.2222 2.88659 12.2222C4.10881 12.2222 5.10881 11.2222 5.10881 9.99999C5.10881 8.77777 4.10881 7.77777 2.88659 7.77777ZM16.2199 7.77777C14.9977 7.77777 13.9977 8.77777 13.9977 9.99999C13.9977 11.2222 14.9977 12.2222 16.2199 12.2222C17.4421 12.2222 18.4421 11.2222 18.4421 9.99999C18.4421 8.77777 17.4421 7.77777 16.2199 7.77777ZM9.55326 7.77777C8.33103 7.77777 7.33103 8.77777 7.33103 9.99999C7.33103 11.2222 8.33103 12.2222 9.55326 12.2222C10.7755 12.2222 11.7755 11.2222 11.7755 9.99999C11.7755 8.77777 10.7755 7.77777 9.55326 7.77777Z" fill="white"/>
</mask>
<g mask="url(#mask0_14_64)">
<rect x="-3.9977" y="5.55554" width="28.8889" height="8.88889" fill="#000000"/>
</g>
</svg>
