<svg width="20" height="20" viewBox="0 0 20 20" fill="none" xmlns="http://www.w3.org/2000/svg">
<path fill-rule="evenodd" clip-rule="evenodd" d="M12.7428 2.39405C12.0566 1.7079 10.8917 1.95285 10.54 2.85725L10.0533 4.10863C9.80333 4.75145 9.40413 5.32565 8.88863 5.78387C8.4005 6.21776 7.82098 6.53622 7.19302 6.71564L4.15261 7.58432C3.16733 7.86583 2.84695 9.10223 3.57153 9.82681L6.4651 12.7204L2.16871 17.0168C1.94378 17.2417 1.94378 17.6064 2.16871 17.8313C2.39364 18.0562 2.75831 18.0562 2.98324 17.8313L7.27962 13.5349L10.1732 16.4285C10.8978 17.1531 12.1342 16.8327 12.4157 15.8474L13.2844 12.807C13.4638 12.179 13.7822 11.5995 14.2161 11.1114C14.6744 10.5959 15.2485 10.1967 15.8914 9.94668L17.1428 9.46003C18.0471 9.10832 18.2921 7.94338 17.6059 7.25722L12.7428 2.39405ZM7.68299 12.3092C7.6843 12.3105 7.68561 12.3118 7.68691 12.3131C7.68821 12.3144 7.68951 12.3157 7.69079 12.317L10.9877 15.6139C11.0912 15.7175 11.2679 15.6717 11.3081 15.5309L12.1768 12.4905C12.4037 11.6963 12.8064 10.9634 13.3552 10.3461C13.9347 9.69412 14.6609 9.18924 15.4739 8.87309L16.7252 8.38643C16.8544 8.33619 16.8894 8.16977 16.7914 8.07175L11.9283 3.20858C11.8302 3.11056 11.6638 3.14556 11.6136 3.27475L11.1269 4.52614C10.8108 5.33912 10.3059 6.06531 9.65392 6.64483C9.03659 7.19357 8.30366 7.59632 7.50948 7.82323L4.46907 8.69192C4.32831 8.73214 4.28255 8.90877 4.38606 9.01228L7.68299 12.3092Z" fill="#000000" stroke="#000000" stroke-width="0.5" stroke-linejoin="round"/>
</svg>
