<svg width="20" height="20" viewBox="0 0 20 20" fill="none" xmlns="http://www.w3.org/2000/svg">
<path fill-rule="evenodd" clip-rule="evenodd" d="M6.56122 0.682393C5.59085 0.682393 4.94032 1.67934 5.33113 2.56754L5.87188 3.79652C6.14965 4.42783 6.27339 5.11613 6.23289 5.80466C6.19454 6.45662 6.00994 7.09159 5.69277 7.66249L4.15713 10.4266C3.65949 11.3224 4.30721 12.4232 5.33192 12.4232H9.42404L9.42405 18.4992C9.42405 18.8173 9.68192 19.0752 10 19.0752C10.3181 19.0752 10.576 18.8173 10.576 18.4992L10.576 12.4232L14.6681 12.4232C15.6928 12.4232 16.3405 11.3224 15.8429 10.4266L14.3072 7.66249C13.9901 7.09159 13.8055 6.45662 13.7671 5.80466C13.7266 5.11613 13.8503 4.42783 14.1281 3.79652L14.6689 2.56754C15.0597 1.67934 14.4091 0.682394 13.4388 0.682394L6.56122 0.682393ZM9.99448 11.2713L10 11.2713L10.0055 11.2713L14.6681 11.2713C14.8145 11.2713 14.907 11.114 14.8359 10.9861L13.3003 8.22191C12.8991 7.49989 12.6657 6.69684 12.6172 5.8723C12.566 5.00151 12.7224 4.13102 13.0738 3.3326L13.6145 2.10362C13.6703 1.97673 13.5774 1.83431 13.4388 1.83431L6.56122 1.83431C6.4226 1.83431 6.32967 1.97673 6.3855 2.10362L6.92625 3.3326C7.27755 4.13102 7.43404 5.00151 7.38282 5.8723C7.33432 6.69684 7.10085 7.49989 6.69973 8.22191L5.16409 10.9861C5.093 11.114 5.18553 11.2713 5.33192 11.2713L9.99448 11.2713Z" fill="#156AE8" stroke="#156AE8" stroke-width="0.5" stroke-linejoin="round"/>
<path d="M5.1023 2.66823C4.63879 1.6148 5.41034 0.432393 6.56122 0.432393L13.4388 0.432394C14.5897 0.432394 15.3612 1.6148 14.8977 2.66823L14.357 3.8972C14.0951 4.49225 13.9785 5.141 14.0167 5.78998C14.0528 6.40448 14.2268 7.00297 14.5258 7.54108L16.0614 10.3052C16.6516 11.3676 15.8834 12.6732 14.6681 12.6732L10.826 12.6732L10.826 18.4992C10.826 18.9554 10.4562 19.3252 10 19.3252C9.54385 19.3252 9.17405 18.9554 9.17405 18.4992L9.17404 12.6732H5.33192C4.11659 12.6732 3.34838 11.3676 3.93859 10.3052L5.47423 7.54108C5.77318 7.00297 5.94717 6.40448 5.98332 5.78998C6.0215 5.141 5.90487 4.49225 5.64305 3.8972L5.1023 2.66823Z" fill="#156AE8" stroke="#156AE8" stroke-width="0.5" stroke-linejoin="round"/>
</svg>
