<svg width="25" height="18" viewBox="0 0 25 18" fill="none" xmlns="http://www.w3.org/2000/svg">
<path d="M0.846135 17.9564C0.664416 17.9033 0.506762 17.8035 0.395169 17.6708C0.283576 17.5382 0.223609 17.3793 0.223633 17.2164C0.223633 13.641 1.07056 10.7817 2.74191 8.71722C4.76115 6.22279 7.94635 4.87971 12.2237 4.71293V0.782497C12.2237 0.629261 12.2768 0.479402 12.3763 0.351508C12.4759 0.223615 12.6176 0.123316 12.7837 0.0630547C12.9499 0.00279294 13.1333 -0.0147798 13.3112 0.0125163C13.489 0.0398124 13.6535 0.110776 13.7843 0.216604L23.9381 8.43354C24.0284 8.5066 24.1002 8.59442 24.1493 8.69169C24.1983 8.78895 24.2236 8.89364 24.2236 8.99943C24.2236 9.10522 24.1983 9.2099 24.1493 9.30717C24.1002 9.40443 24.0284 9.49225 23.9381 9.56532L13.7843 17.7823C13.6535 17.8881 13.489 17.959 13.3112 17.9863C13.1333 18.0136 12.9499 17.9961 12.7837 17.9358C12.6176 17.8755 12.4759 17.7752 12.3763 17.6473C12.2768 17.5195 12.2237 17.3696 12.2237 17.2164V13.3148C9.62751 13.3813 7.66597 13.7379 6.10423 14.4221C4.41672 15.1616 3.19307 16.2665 1.87422 17.6991C1.7559 17.8275 1.59324 17.9215 1.40894 17.9678C1.22464 18.0141 1.02788 18.0104 0.846135 17.9574V17.9564Z" fill="#000000"/>
</svg>
