<svg width="18" height="24" viewBox="0 0 18 24" fill="none" xmlns="http://www.w3.org/2000/svg">
<path d="M17.2875 9.91125C16.56 9.49781 15.6511 9.80437 15.2574 10.5525L13.3177 14.5092C13.2813 14.5841 13.2179 14.6424 13.1402 14.6723C13.0624 14.7021 12.9763 14.7013 12.8991 14.67C12.838 14.6457 12.7856 14.6035 12.7487 14.549C12.7119 14.4945 12.6922 14.4302 12.6924 14.3644V3.375C12.6924 2.72297 12.09 2.25 11.4375 2.25C10.785 2.25 10.2188 2.72297 10.2188 3.375V10.7175C10.2204 10.8546 10.1684 10.987 10.074 11.0864C9.97953 11.1858 9.85004 11.2445 9.71301 11.25C9.64448 11.2513 9.57637 11.2389 9.51267 11.2136C9.44897 11.1883 9.39096 11.1505 9.34203 11.1025C9.2931 11.0545 9.25424 10.9972 9.22771 10.934C9.20119 10.8708 9.18753 10.8029 9.18754 10.7344V1.125C9.18754 0.472969 8.67473 0 8.02223 0C7.36973 0 6.84379 0.472969 6.84379 1.125V10.7175C6.84537 10.8546 6.79341 10.987 6.69897 11.0864C6.60453 11.1858 6.47504 11.2445 6.33801 11.25C6.26948 11.2513 6.20137 11.2389 6.13767 11.2136C6.07397 11.1883 6.01596 11.1505 5.96703 11.1025C5.9181 11.0545 5.87924 10.9972 5.85271 10.934C5.82619 10.8708 5.81253 10.8029 5.81254 10.7344V2.625C5.81254 1.97297 5.24629 1.5 4.59379 1.5C3.94129 1.5 3.37504 2.01984 3.37504 2.67188V11.4675C3.37662 11.6046 3.32466 11.737 3.23022 11.8364C3.13578 11.9358 3.00629 11.9945 2.86926 12C2.80073 12.0013 2.73262 11.9889 2.66892 11.9636C2.60522 11.9383 2.54721 11.9005 2.49828 11.8525C2.44935 11.8045 2.41049 11.7472 2.38396 11.684C2.35744 11.6208 2.34378 11.5529 2.34379 11.4844V5.625C2.34379 4.97297 1.82442 4.5 1.17192 4.5C0.51942 4.5 -0.00558022 4.97906 4.47819e-05 5.625V15.75C4.47819e-05 21.2536 3.37504 24 7.50004 24H8.25004C12.375 24 13.6739 22.1437 14.625 19.875L17.8458 11.9531C18.1561 11.1094 18.0146 10.3242 17.2875 9.91125Z" fill="#FFC400"/>
</svg>
