<svg width="26" height="18" viewBox="0 0 26 18" fill="none" xmlns="http://www.w3.org/2000/svg">
<path d="M25.1652 8.87988C25.2681 9.12012 25.1137 9.31231 24.8563 9.31231H1.17548C0.866603 9.31231 0.763652 9.12012 0.815132 8.87988L3.74949 1.43243C3.85245 1.19219 4.16134 1 4.41874 1L21.2527 1C21.5101 1 21.8705 1.19219 21.9734 1.43243L25.1652 8.87988Z" fill="white" stroke="white" stroke-width="1.5" stroke-miterlimit="10" stroke-linecap="round" stroke-linejoin="round"/>
<path d="M15.9501 4.89206C16.156 6.2374 14.8175 7.39055 12.9642 7.39055C11.111 7.39055 9.77247 6.18935 9.87543 4.89206C10.0299 3.69085 11.3683 2.82599 12.8613 2.82599C14.4057 2.82599 15.7956 3.7389 15.9501 4.89206Z" fill="#3781EF"/>
<path d="M7.15338 5.07761C7.22834 5.56732 6.74113 5.98707 6.06654 5.98707C5.39194 5.98707 4.90473 5.54983 4.94221 5.07761C4.99843 4.64037 5.48563 4.32556 6.02906 4.32556C6.59122 4.32556 7.09717 4.65786 7.15338 5.07761Z" fill="#3781EF" stroke="#3781EF" stroke-miterlimit="10" stroke-linecap="round" stroke-linejoin="round"/>
<path d="M20.8929 5.07761C20.9678 5.56732 20.4806 5.98707 19.806 5.98707C19.1314 5.98707 18.6442 5.54983 18.6817 5.07761C18.7379 4.64037 19.2251 4.32556 19.7686 4.32556C20.3307 4.32556 20.8367 4.65786 20.8929 5.07761Z" fill="#3781EF" stroke="#3781EF" stroke-miterlimit="10" stroke-linecap="round" stroke-linejoin="round"/>
<path d="M1.48413 11.8588H24.4957" stroke="white" stroke-width="1.5" stroke-miterlimit="10" stroke-linecap="round" stroke-linejoin="round"/>
<path d="M1.48413 14.4054H24.4957" stroke="white" stroke-width="1.5" stroke-miterlimit="10" stroke-linecap="round" stroke-linejoin="round"/>
<path d="M1.48413 17H24.4957" stroke="white" stroke-width="1.5" stroke-miterlimit="10" stroke-linecap="round" stroke-linejoin="round"/>
</svg>
