<svg width="23" height="16" viewBox="0 0 23 16" fill="none" xmlns="http://www.w3.org/2000/svg">
<path d="M22.1445 7.8949C22.2346 8.10511 22.0995 8.27327 21.8742 8.27327H1.15352C0.883247 8.27327 0.793165 8.10511 0.83821 7.8949L3.40577 1.37838C3.49586 1.16817 3.76614 1 3.99136 1L18.7211 1C18.9463 1 19.2616 1.16817 19.3517 1.37838L22.1445 7.8949Z" fill="#FFB82F" stroke="#FFB82F" stroke-width="1.5" stroke-miterlimit="10" stroke-linecap="round" stroke-linejoin="round"/>
<path d="M14.0812 4.40553C14.2613 5.5827 13.0902 6.59171 11.4686 6.59171C9.84693 6.59171 8.67576 5.54066 8.76585 4.40553C8.90099 3.35447 10.0722 2.59772 11.3785 2.59772C12.7298 2.59772 13.946 3.39652 14.0812 4.40553Z" fill="#152136"/>
<path d="M6.38406 4.56796C6.44964 4.99645 6.02334 5.36373 5.43307 5.36373C4.84279 5.36373 4.41649 4.98115 4.44928 4.56796C4.49847 4.18537 4.92477 3.90991 5.40027 3.90991C5.89216 3.90991 6.33487 4.20068 6.38406 4.56796Z" fill="#152136" stroke="#152136" stroke-width="1.5" stroke-miterlimit="10" stroke-linecap="round" stroke-linejoin="round"/>
<path d="M18.4063 4.56796C18.4719 4.99645 18.0456 5.36373 17.4553 5.36373C16.865 5.36373 16.4387 4.98115 16.4715 4.56796C16.5207 4.18537 16.947 3.90991 17.4225 3.90991C17.9144 3.90991 18.3571 4.20068 18.4063 4.56796Z" fill="#152136" stroke="#152136" stroke-width="1.5" stroke-miterlimit="10" stroke-linecap="round" stroke-linejoin="round"/>
<path d="M1.42358 10.5015H21.5587" stroke="#FFB82F" stroke-width="1.5" stroke-miterlimit="10" stroke-linecap="round" stroke-linejoin="round"/>
<path d="M1.42358 12.7297H21.5587" stroke="#FFB82F" stroke-width="1.5" stroke-miterlimit="10" stroke-linecap="round" stroke-linejoin="round"/>
<path d="M1.42358 15H21.5587" stroke="#FFB82F" stroke-width="1.5" stroke-miterlimit="10" stroke-linecap="round" stroke-linejoin="round"/>
</svg>
