<svg width="20" height="20" viewBox="0 0 20 20" fill="none" xmlns="http://www.w3.org/2000/svg">
<path fill-rule="evenodd" clip-rule="evenodd" d="M2.91667 4C2.41041 4 2 4.41041 2 4.91667C2 5.42293 2.41041 5.83333 2.91667 5.83333H17.5834C18.0897 5.83333 18.5001 5.42293 18.5001 4.91667C18.5001 4.41041 18.0897 4 17.5834 4H2.91667ZM8.41685 14.0834C8.41685 14.5896 8.82725 15 9.33351 15H11.1668C11.6731 15 12.0835 14.5896 12.0835 14.0834C12.0835 13.5771 11.6731 13.1667 11.1668 13.1667H9.33351C8.82725 13.1667 8.41685 13.5771 8.41685 14.0834ZM5.66683 10.4166C5.16057 10.4166 4.75016 10.0062 4.75016 9.49997C4.75016 8.99371 5.16057 8.58331 5.66683 8.58331H14.8335C15.3398 8.58331 15.7502 8.99371 15.7502 9.49997C15.7502 10.0062 15.3398 10.4166 14.8335 10.4166H5.66683Z" fill="#000000"/>
</svg>
